<?xml version="1.0" encoding="UTF-8"?>
<svg version="1.1" xmlns="http://www.w3.org/2000/svg" width="180" height="180">
<path d="M0 0 C59.4 0 118.8 0 180 0 C180 59.4 180 118.8 180 180 C120.6 180 61.2 180 0 180 C0 120.6 0 61.2 0 0 Z " fill="#050504" transform="translate(0,0)"/>
<path d="M0 0 C4.80184797 1.69867744 9.01449002 4.22440011 13.375 6.8125 C14.10460938 7.23853516 14.83421875 7.66457031 15.5859375 8.10351562 C28.65601074 15.81719278 28.65601074 15.81719278 31.859375 22.12890625 C33.69177875 25.13480144 36.25594254 27.33535058 38.78125 29.76171875 C44.02587149 35.05250768 48.67271246 40.97931222 52.875 47.125 C54.74800064 50.23541439 54.74800064 50.23541439 58 51 C58 49.35 58 47.7 58 46 C58.66 46 59.32 46 60 46 C60.33 46.66 60.66 47.32 61 48 C61.391875 47.566875 61.78375 47.13375 62.1875 46.6875 C64 45 64 45 66.25 43.8125 C69.47710206 41.68554637 71.56843219 39.24825387 74.04296875 36.3046875 C76.8201316 33.03417636 79.76173964 29.91909319 82.69140625 26.78515625 C84.65036201 24.42181368 86.08486403 22.19761518 87.65234375 19.58203125 C91.13535923 14.26573369 95.51645749 11.64901241 101 8.625 C101.8765625 8.11839844 102.753125 7.61179687 103.65625 7.08984375 C108.03418019 4.5778085 112.45620363 2.19716469 117 0 C116 2 115 4 114 6 C115.32 6.33 116.64 6.66 118 7 C117.18208984 7.89138672 117.18208984 7.89138672 116.34765625 8.80078125 C111.52483448 14.10176312 106.89559321 19.51183799 102.3828125 25.078125 C95.73008437 33.23589654 88.89918269 41.22367455 81.77734375 48.9765625 C79.85240994 51.07800791 79.85240994 51.07800791 78 54 C76.016683 54.26010715 74.03147155 54.51390072 72.0390625 54.69140625 C69.19347181 55.12206078 67.27313975 56.27792443 65 58 C64.505 58.99 64.505 58.99 64 60 C64.72703125 59.83757812 65.4540625 59.67515625 66.203125 59.5078125 C70.34501205 58.98742156 74.08499517 58.56856455 77.60107422 61.19677734 C80.98667556 64.54401493 83.82397061 68.33939308 86.64208984 72.16650391 C88.50714322 74.68476189 90.49950754 77.08859558 92.5 79.5 C93.21027344 80.37527344 93.92054687 81.25054687 94.65234375 82.15234375 C97.40947684 85.49668655 100.23143525 88.78075797 103.0625 92.0625 C107.84410613 97.6066768 112.48423748 103.23576197 117 109 C116.67 109.66 116.34 110.32 116 111 C112.24793374 108.73256749 108.49871576 106.46046684 104.75 104.1875 C103.68652344 103.54490234 102.62304688 102.90230469 101.52734375 102.24023438 C100.50253906 101.61826172 99.47773438 100.99628906 98.421875 100.35546875 C97.47924805 99.78465576 96.53662109 99.21384277 95.56542969 98.62573242 C91.07451744 95.77980697 88.90466692 93.85537825 86.37890625 89.140625 C83.93529999 85.34715126 80.73713949 82.20537411 77.66796875 78.9140625 C72.13620663 72.87204999 67.11239024 66.39621918 62 60 C61.34 61.65 60.68 63.3 60 65 C59.34 65 58.68 65 58 65 C57.67 64.01 57.34 63.02 57 62 C54.1189762 65.31081836 54.1189762 65.31081836 52.25 69.2265625 C50.47346041 73.16825971 47.75254812 75.99608177 44.875 79.1875 C43.69377435 80.52077426 42.5140859 81.855412 41.3359375 83.19140625 C40.76327148 83.83996582 40.19060547 84.48852539 39.60058594 85.15673828 C36.87528536 88.29524032 34.32047305 91.56211446 31.78125 94.8515625 C27.30835118 100.24650625 22.65722815 103.65091642 16.625 107.0625 C15.89539062 107.48337891 15.16578125 107.90425781 14.4140625 108.33789062 C12.28049931 109.56659443 10.14108085 110.7844541 8 112 C6.65343076 112.76915484 5.30705902 113.5386556 3.9609375 114.30859375 C2.49527344 115.14583984 2.49527344 115.14583984 1 116 C2 114 3 112 4 110 C2.515 110.495 2.515 110.495 1 111 C2.33442396 108.11874006 3.84297506 105.78650046 5.87109375 103.34765625 C6.43997314 102.66010254 7.00885254 101.97254883 7.5949707 101.26416016 C8.20300537 100.5376123 8.81104004 99.81106445 9.4375 99.0625 C10.06422607 98.30759277 10.69095215 97.55268555 11.33666992 96.77490234 C15.57890379 91.67387085 19.85322249 86.59991735 24.15478516 81.54882812 C27.09301002 78.09414828 29.96328407 74.59077906 32.8125 71.0625 C33.54339844 70.18078125 34.27429688 69.2990625 35.02734375 68.390625 C36.21807637 66.94759854 37.38510496 65.48385932 38.50390625 63.984375 C40.68692679 61.32245821 42.38762995 60.07739677 45.8125 59.64453125 C48.57106921 59.62693833 51.25519213 59.73626401 54 60 C54 59.01 54 58.02 54 57 C52.68 57 51.36 57 50 57 C50 56.01 50 55.02 50 54 C49.43152344 54.08121094 48.86304688 54.16242188 48.27734375 54.24609375 C44.85985627 54.5256545 42.12334313 54.71550518 39.16015625 52.828125 C37.28999165 50.97996233 35.64510743 49.05192358 34 47 C33.31292969 46.16597656 32.62585937 45.33195312 31.91796875 44.47265625 C30.39922088 42.61877313 28.88911722 40.75778235 27.38671875 38.890625 C25.00629518 36.00762428 22.53320218 33.24921167 20 30.5 C15.83271307 25.97034029 11.89459129 21.3064694 8.05078125 16.5 C6.25892922 14.31564705 4.38485177 12.29312317 2.4375 10.25 C0.04911286 7.53263392 -0.00177868 6.98132381 -0.375 3.0625 C-0.25125 2.051875 -0.1275 1.04125 0 0 Z " fill="#0A2E12" transform="translate(31,33)"/>
<path d="M0 0 C0 4.17507787 -2.29916905 6.02525798 -4.9375 9 C-5.95528288 10.17243472 -6.97219766 11.34562355 -7.98828125 12.51953125 C-8.4982666 13.10557129 -9.00825195 13.69161133 -9.53369141 14.29541016 C-11.61692298 16.71717553 -13.62045798 19.20044875 -15.625 21.6875 C-19.19058317 26.07151775 -22.91948512 30.2669793 -26.7265625 34.44140625 C-29.9593237 38.07965124 -33.00813104 41.85779763 -36.0546875 45.65234375 C-37.01761719 46.81443359 -37.01761719 46.81443359 -38 48 C-38.69996094 48.88171875 -38.69996094 48.88171875 -39.4140625 49.78125 C-41.71151635 51.54678104 -43.63901656 51.44329236 -46.5 51.5625 C-50.36123168 51.73376431 -51.69785653 51.79857102 -55 54 C-51.46594876 46.3398991 -45.93226209 39.6592919 -39.859375 33.87890625 C-35.18259903 29.15300448 -30.59571977 23.85868281 -27.3515625 18.046875 C-23.98912865 13.69023313 -19.80345454 11.49779299 -15.0625 8.8125 C-14.16853516 8.29236328 -13.27457031 7.77222656 -12.35351562 7.23632812 C-10.64653954 6.24407699 -8.93657497 5.25694252 -7.22314453 4.27587891 C-4.79564221 2.88271757 -2.39202643 1.45319351 0 0 Z " fill="#44F076" transform="translate(147,33)"/>
<path d="M0 0 C4.80184797 1.69867744 9.01449002 4.22440011 13.375 6.8125 C14.10460938 7.23853516 14.83421875 7.66457031 15.5859375 8.10351562 C28.65601074 15.81719278 28.65601074 15.81719278 31.859375 22.12890625 C33.69269106 25.136298 36.25867689 27.33794651 38.78515625 29.765625 C42.8684112 33.88488749 46.41036272 38.45180396 50 43 C50.62777344 43.78375 51.25554687 44.5675 51.90234375 45.375 C52.72412109 46.426875 52.72412109 46.426875 53.5625 47.5 C54.03816406 48.1084375 54.51382813 48.716875 55.00390625 49.34375 C56 51 56 51 56 54 C55.34 53.34 54.68 52.68 54 52 C52.35364957 52.00580723 50.70733778 52.05420354 49.0625 52.125 C43.5959654 51.72483538 40.87974097 49.63077302 37.375 45.625 C35.53229305 43.45496797 33.75998126 41.23730951 32 39 C30.45900552 37.12444751 28.91737662 35.24941603 27.375 33.375 C26.64796875 32.47136719 25.9209375 31.56773438 25.171875 30.63671875 C23.06243651 28.07579972 20.87112352 25.62876545 18.625 23.1875 C11.94436058 15.85996768 5.91526272 7.95230683 0 0 Z " fill="#44F076" transform="translate(31,33)"/>
<path d="M0 0 C1.485 0.99 1.485 0.99 3 2 C4.81352663 1.9432386 6.62617497 1.85584104 8.4375 1.75 C13.82831194 2.10157469 16.21632615 3.62089029 19.67211914 7.51464844 C21.72033237 10.02912963 23.7069218 12.58012724 25.64208984 15.18261719 C27.51471371 17.6888761 29.50448425 20.090999 31.5 22.5 C32.21027344 23.37527344 32.92054687 24.25054687 33.65234375 25.15234375 C36.40947684 28.49668655 39.23143525 31.78075797 42.0625 35.0625 C46.84410613 40.6066768 51.48423748 46.23576197 56 52 C55.505 52.99 55.505 52.99 55 54 C51.24793374 51.73256749 47.49871576 49.46046684 43.75 47.1875 C42.68652344 46.54490234 41.62304688 45.90230469 40.52734375 45.24023438 C38.99013672 44.30727539 38.99013672 44.30727539 37.421875 43.35546875 C36.47924805 42.78465576 35.53662109 42.21384277 34.56542969 41.62573242 C30.07451744 38.77980697 27.90466692 36.85537825 25.37890625 32.140625 C22.93432108 28.34563159 19.73462323 25.20263066 16.6640625 21.91015625 C13.2793456 18.21277489 10.12843135 14.3553226 6.984375 10.453125 C5.33547482 8.41472084 3.65133534 6.42092742 1.9375 4.4375 C0 2 0 2 0 0 Z " fill="#44F276" transform="translate(92,90)"/>
<path d="M0 0 C0.66 0.33 1.32 0.66 2 1 C1.59910156 1.44988281 1.19820312 1.89976563 0.78515625 2.36328125 C-2.67332821 6.27662308 -6.03135475 10.24901763 -9.3125 14.3125 C-13.25268119 19.17700451 -17.42161244 23.76472031 -21.73828125 28.296875 C-24.14937125 30.9433297 -24.14937125 30.9433297 -25.57421875 34.37109375 C-28.54500324 39.80706019 -34.29968753 42.32761041 -39.5 45.3125 C-40.54542969 45.93189453 -41.59085938 46.55128906 -42.66796875 47.18945312 C-46.72370825 49.58083346 -50.76388598 51.94077791 -55 54 C-53.66557604 51.11874006 -52.15702494 48.78650046 -50.12890625 46.34765625 C-49.27558716 45.31632568 -49.27558716 45.31632568 -48.4050293 44.26416016 C-47.49297729 43.17433838 -47.49297729 43.17433838 -46.5625 42.0625 C-45.93577393 41.30759277 -45.30904785 40.55268555 -44.66333008 39.77490234 C-40.42109621 34.67387085 -36.14677751 29.59991735 -31.84521484 24.54882812 C-28.90698998 21.09414828 -26.03671593 17.59077906 -23.1875 14.0625 C-22.45660156 13.17949219 -21.72570312 12.29648438 -20.97265625 11.38671875 C-19.78726654 9.95251457 -18.62136069 8.50137628 -17.49609375 7.01953125 C-15.34154282 4.4352978 -13.57348458 3.10620085 -10.2578125 2.4921875 C-8.30602807 2.33503083 -6.34846324 2.23522071 -4.390625 2.203125 C-1.81304098 2.24284285 -1.81304098 2.24284285 0 0 Z " fill="#43F377" transform="translate(87,90)"/>
<path d="M0 0 C2.95630458 2.8568773 5.56125267 5.85072059 8.125 9.0625 C12.12580938 14.01556815 16.34792264 18.68735195 20.73828125 23.296875 C22.55616199 25.46954076 23.6308763 27.11555764 24.8828125 29.578125 C26.99879845 33.44177997 29.64041308 34.96664991 33.5625 37 C34.80728889 37.66423747 36.0507622 38.33094568 37.29296875 39 C37.91220215 39.32871094 38.53143555 39.65742188 39.16943359 39.99609375 C43.58991354 42.42034202 47.78105488 45.24477053 52 48 C51.67 49.32 51.34 50.64 51 52 C45.53515324 49.90722247 40.5429964 47.15354625 35.4375 44.3125 C34.49197266 43.80783203 33.54644531 43.30316406 32.57226562 42.78320312 C26.63440523 39.46387622 23.94491723 37.09154112 21 31 C19.18544825 28.57889578 17.19118213 26.32809517 15.1875 24.0625 C14.65850098 23.45059814 14.12950195 22.83869629 13.58447266 22.20825195 C11.34853658 19.62929907 9.0930808 17.09708599 6.73046875 14.6328125 C2.37642014 10.06793627 0.71387098 6.29371968 0 0 Z " fill="#0A2D12" transform="translate(95,95)"/>
<path d="M0 0 C-0.63784247 3.6994863 -0.63784247 3.6994863 -2.46875 5.21875 C-4.71702184 7.83408663 -4.75239166 10.30704288 -5.1875 13.6875 C-5.42533203 15.45673828 -5.42533203 15.45673828 -5.66796875 17.26171875 C-5.83232422 18.61716797 -5.83232422 18.61716797 -6 20 C-6.66 20 -7.32 20 -8 20 C-8.33 19.01 -8.66 18.02 -9 17 C-9.61875 17.825 -10.2375 18.65 -10.875 19.5 C-11.57625 20.325 -12.2775 21.15 -13 22 C-13.66 22 -14.32 22 -15 22 C-15.2371875 22.55300781 -15.474375 23.10601562 -15.71875 23.67578125 C-17.30842845 26.55949674 -19.28516067 28.75333405 -21.5 31.1875 C-22.2940625 32.06792969 -23.088125 32.94835937 -23.90625 33.85546875 C-26 36 -26 36 -28 37 C-26.47650967 33.46679901 -24.3697049 31.04791612 -21.75 28.25 C-14.95711457 21.8509406 -14.95711457 21.8509406 -11 14 C-11.33 13.34 -11.66 12.68 -12 12 C-13.32 12 -14.64 12 -16 12 C-16 11.34 -16 10.68 -16 10 C-14.35 10 -12.7 10 -11 10 C-10.67 8.68 -10.34 7.36 -10 6 C-9.34 6 -8.68 6 -8 6 C-8 4.35 -8 2.7 -8 1 C-7.34 1 -6.68 1 -6 1 C-5.67 1.66 -5.34 2.32 -5 3 C-4.54625 2.505 -4.0925 2.01 -3.625 1.5 C-2 0 -2 0 0 0 Z " fill="#0B3416" transform="translate(97,78)"/>
<path d="M0 0 C1.76923828 0.04060547 1.76923828 0.04060547 3.57421875 0.08203125 C4.47785156 0.11683594 5.38148437 0.15164062 6.3125 0.1875 C6.3125 0.5175 6.3125 0.8475 6.3125 1.1875 C5.66925781 1.09726563 5.02601562 1.00703125 4.36328125 0.9140625 C0.34030155 0.7648507 -3.01725234 0.92950679 -6.33935547 3.43164062 C-10.50563764 7.336379 -14.09275905 11.76302056 -17.6875 16.1875 C-18.8940625 17.61449219 -18.8940625 17.61449219 -20.125 19.0703125 C-22.35846525 21.74249414 -24.53045808 24.45327362 -26.6875 27.1875 C-27.16558105 27.79255371 -27.64366211 28.39760742 -28.13623047 29.02099609 C-31.33163866 33.06743758 -34.51381821 37.12400088 -37.6875 41.1875 C-38.3475 40.1975 -39.0075 39.2075 -39.6875 38.1875 C-38.841875 37.22070312 -37.99625 36.25390625 -37.125 35.2578125 C-30.81500911 28.02325012 -24.61016334 20.74542305 -18.6875 13.1875 C-15.86895892 9.60806 -12.95290556 6.36917721 -9.6875 3.1875 C-9.28015625 2.64738281 -8.8728125 2.10726562 -8.453125 1.55078125 C-5.7378772 -0.54572645 -3.36188923 -0.0998581 0 0 Z " fill="#04230C" transform="translate(78.6875,91.8125)"/>
<path d="M0 0 C1.32 0.66 2.64 1.32 4 2 C3.2575 2.350625 2.515 2.70125 1.75 3.0625 C-1.17608629 5.1240608 -2.05990275 6.93278327 -3.74169922 10.00073242 C-6.13398994 13.80175468 -9.32722107 16.90830879 -12.4375 20.125 C-13.09298828 20.81464844 -13.74847656 21.50429687 -14.42382812 22.21484375 C-17.89919877 25.86101997 -21.42107584 29.45555488 -25 33 C-25 29 -25 29 -23.625 27.25 C-22 26 -22 26 -20 26 C-19.76023437 25.2678125 -19.52046875 24.535625 -19.2734375 23.78125 C-17.82138609 20.60989846 -16.15340908 18.88560857 -13.625 16.5 C-8.96147677 11.98594867 -5.31667932 7.57805158 -2 2 C-1.34 1.34 -0.68 0.68 0 0 Z " fill="#062D10" transform="translate(122,45)"/>
<path d="M0 0 C4.62558904 3.60604353 8.19152354 7.41479459 11.75 12.0625 C12.23082031 12.67416016 12.71164063 13.28582031 13.20703125 13.91601562 C15.46610307 16.82637974 17.53728786 19.58983972 19 23 C17.20353564 22.07172661 15.41296443 21.13204162 13.625 20.1875 C12.62726563 19.66542969 11.62953125 19.14335937 10.6015625 18.60546875 C8 17 8 17 6 14 C6.99 14 7.98 14 9 14 C7.18176822 9.904387 4.47545937 7.06529279 1.4609375 3.8046875 C0 2 0 2 0 0 Z " fill="#4CE478" transform="translate(129,121)"/>
<path d="M0 0 C0.99 0 1.98 0 3 0 C3.556875 1.051875 4.11375 2.10375 4.6875 3.1875 C6.6935916 6.70166745 9.09700029 9.16451191 12 12 C14.39735244 14.95174019 16.70691741 17.96678701 19 21 C18.67 21.66 18.34 22.32 18 23 C15.92894275 20.84100621 13.86835494 18.67339573 11.8125 16.5 C11.23435547 15.89929687 10.65621094 15.29859375 10.06054688 14.6796875 C0 3.9939089 0 3.9939089 0 0 Z " fill="#062C0F" transform="translate(58,48)"/>
<path d="M0 0 C0.66 0 1.32 0 2 0 C1.4081802 3.16703571 0.46412704 4.96911422 -1.65234375 7.3828125 C-2.18150391 7.99253906 -2.71066406 8.60226563 -3.25585938 9.23046875 C-3.81080078 9.85566406 -4.36574219 10.48085937 -4.9375 11.125 C-5.48857422 11.75792969 -6.03964844 12.39085938 -6.60742188 13.04296875 C-8.68779251 15.42414632 -10.76356831 17.76356831 -13 20 C-13.33 19.01 -13.66 18.02 -14 17 C-12.93603516 15.31420898 -12.93603516 15.31420898 -11.2890625 13.49609375 C-10.70382813 12.83802734 -10.11859375 12.17996094 -9.515625 11.50195312 C-8.89171875 10.82068359 -8.2678125 10.13941406 -7.625 9.4375 C-6.40725921 8.08346396 -5.19103911 6.7280583 -3.9765625 5.37109375 C-3.43080566 4.77224365 -2.88504883 4.17339355 -2.32275391 3.55639648 C-0.91089845 2.02051224 -0.91089845 2.02051224 0 0 Z " fill="#06270E" transform="translate(53,113)"/>
<path d="M0 0 C0.66 0 1.32 0 2 0 C0.54201725 3.40195976 -1.40354539 5.40354539 -4 8 C-4.7734375 9.3303125 -4.7734375 9.3303125 -5.5625 10.6875 C-7 13 -7 13 -10 14 C-10.70151152 15.3153341 -11.36525925 16.65117592 -12 18 C-13.625 19.75 -13.625 19.75 -15 21 C-15.66 20.67 -16.32 20.34 -17 20 C-16.44070801 19.35768433 -16.44070801 19.35768433 -15.87011719 18.70239258 C-14.16238549 16.73998519 -12.45618273 14.77625422 -10.75 12.8125 C-10.16347656 12.13896484 -9.57695313 11.46542969 -8.97265625 10.77148438 C-6.47508168 7.89506423 -4.02571227 5.03345218 -1.703125 2.01171875 C-1.14109375 1.34785156 -0.5790625 0.68398437 0 0 Z " fill="#48E676" transform="translate(58,111)"/>
<path d="M0 0 C-0.47202486 4.24822374 -2.96655518 6.19989709 -6 9 C-7.32 8.34 -8.64 7.68 -10 7 C-9.34 6.67 -8.68 6.34 -8 6 C-8 4.35 -8 2.7 -8 1 C-7.34 1 -6.68 1 -6 1 C-5.67 1.66 -5.34 2.32 -5 3 C-4.319375 2.2575 -4.319375 2.2575 -3.625 1.5 C-2 0 -2 0 0 0 Z " fill="#0B3716" transform="translate(97,78)"/>
<path d="M0 0 C3.63 0 7.26 0 11 0 C11.33 1.32 11.66 2.64 12 4 C8.04 3.67 4.08 3.34 0 3 C0 2.01 0 1.02 0 0 Z " fill="#04270C" transform="translate(74,84)"/>
<path d="M0 0 C1.98 0 3.96 0 6 0 C6 1.65 6 3.3 6 5 C4.824375 4.9690625 4.824375 4.9690625 3.625 4.9375 C1.01885039 4.81315937 1.01885039 4.81315937 -1 6 C-1 5.34 -1 4.68 -1 4 C-2.32 4 -3.64 4 -5 4 C-5 3.34 -5 2.68 -5 2 C-3.35 2 -1.7 2 0 2 C0 1.34 0 0.68 0 0 Z " fill="#185A29" transform="translate(86,86)"/>
<path d="M0 0 C0.33 0.66 0.66 1.32 1 2 C-3.28075369 7.5954014 -7.34403061 12.75802296 -13 17 C-11.44182816 13.35015184 -9.18875601 10.8314046 -6.5 7.9375 C-4.09463269 5.34079665 -1.96595796 2.94893694 0 0 Z " fill="#0B4319" transform="translate(82,98)"/>
<path d="M0 0 C0.74609375 1.703125 0.74609375 1.703125 1 4 C-0.65234375 6.359375 -0.65234375 6.359375 -2.9375 8.75 C-4.06478516 9.94882813 -4.06478516 9.94882813 -5.21484375 11.171875 C-5.80394531 11.77515625 -6.39304687 12.3784375 -7 13 C-7.33 12.01 -7.66 11.02 -8 10 C-6.34765625 7.51953125 -6.34765625 7.51953125 -4.0625 4.8125 C-3.31097656 3.91144531 -2.55945313 3.01039062 -1.78515625 2.08203125 C-0.90150391 1.05142578 -0.90150391 1.05142578 0 0 Z " fill="#08250F" transform="translate(82,100)"/>
<path d="M0 0 C1.76923828 0.04060547 1.76923828 0.04060547 3.57421875 0.08203125 C4.47785156 0.11683594 5.38148437 0.15164062 6.3125 0.1875 C6.3125 0.5175 6.3125 0.8475 6.3125 1.1875 C5.22582031 1.20876953 5.22582031 1.20876953 4.1171875 1.23046875 C-2.57790962 1.56076021 -6.03640343 2.28499281 -10.6875 7.1875 C-9.53915993 0.52712757 -6.38991111 -0.18979934 0 0 Z " fill="#0E471E" transform="translate(78.6875,91.8125)"/>
<path d="M0 0 C0 3.93169105 -1.39419615 5.16427228 -4 8 C-4.66 8 -5.32 8 -6 8 C-6 7.34 -6 6.68 -6 6 C-6.99 5.67 -7.98 5.34 -9 5 C-6.03 3.35 -3.06 1.7 0 0 Z " fill="#48D772" transform="translate(147,33)"/>
<path d="M0 0 C1.32 0.33 2.64 0.66 4 1 C0.37 3.31 -3.26 5.62 -7 8 C-7 7.01 -7 6.02 -7 5 C-4.46815512 2.64276511 -3.52809907 2 0 2 C0 1.34 0 0.68 0 0 Z " fill="#48DD74" transform="translate(40,136)"/>
<path d="M0 0 C0.99 0 1.98 0 3 0 C5.25 2.25 5.25 2.25 7 5 C6.609375 7.171875 6.609375 7.171875 6 9 C4.99712471 7.68969568 3.99777175 6.37669473 3 5.0625 C2.443125 4.33160156 1.88625 3.60070312 1.3125 2.84765625 C0 1 0 1 0 0 Z " fill="#072F11" transform="translate(113,100)"/>
<path d="M0 0 C1.32 0.66 2.64 1.32 4 2 C2.824375 2.680625 2.824375 2.680625 1.625 3.375 C-1.03698031 4.88428742 -1.03698031 4.88428742 -3 7 C-3 3 -3 3 -1.5 1.25 C-1.005 0.8375 -0.51 0.425 0 0 Z " fill="#07210D" transform="translate(122,45)"/>
<path d="M0 0 C0.33 0.66 0.66 1.32 1 2 C-0.65 3.98 -2.3 5.96 -4 8 C-4.66 7.34 -5.32 6.68 -6 6 C-4 4 -2 2 0 0 Z " fill="#072D10" transform="translate(67,98)"/>
<path d="M0 0 C1.32 0.66 2.64 1.32 4 2 C0.04 3.98 0.04 3.98 -4 6 C-3 2 -3 2 0 0 Z " fill="#08270F" transform="translate(130,40)"/>
<path d="M0 0 C2 1.375 2 1.375 4 3 C4 3.66 4 4.32 4 5 C3.34 5 2.68 5 2 5 C1.67 5.66 1.34 6.32 1 7 C-0.0625 5.1875 -0.0625 5.1875 -1 3 C-0.67 2.01 -0.34 1.02 0 0 Z " fill="#091D0D" transform="translate(32,35)"/>
<path d="M0 0 C1.32 0.33 2.64 0.66 4 1 C4.33 3.31 4.66 5.62 5 8 C2.74754119 5.31158141 1.11786042 3.35358125 0 0 Z " fill="#093314" transform="translate(79,73)"/>
</svg>
