<svg xmlns="http://www.w3.org/2000/svg" width="327" height="342" viewBox="0 0 327 342"><path fill="#50d060" fill-rule="evenodd" d="M159 8h2v1h3V8h14v1h6V8h2v1h16v1h1V9h73v1h13v2h2v-1h3v1h1v1h1v-2h1v1h1v1h1v1h1v1h1v1h1v1h-3v1h-4v-1h-1v-1h-1v-1h-1v-1h-1v-1h-3v-1h-22v-1h-11v1h-3v1h-28v-1h-2v-1h-14v1h-4v1h-20v-1h-24v1h-40v-1h-1v-1h-1v-1h1V9h40zM46 9h5v1h1V9h45v1h1V9h13v1h-2v1h-4v1h-4v1H85v-1h-1v-1H67v1h-3v1h-6v-1h-5v-1h-3v-1h-4zm244 0h2v1h-2zm3 0h1v1h-1zM33 11h4v1h3v1h-3v1h-2v1h-1v-1h-1v1h-1v-2h-1v1h-1v-1h1v-1h2zm266 3h-1v1h1zM25 19h3v2h1v1h-1v-1h-1v1h-2v1h-2v-1h-1v1h-1v-1h1v-1h2v-1h1zm280 1h1v1h1v1h1v1h-1v-1h-1v2h-1v1h-1v-1h-3v-1h4v-1h1v-1h-1zm4 4h1v1h1v1h1v1h1v1h-2v1h1v1h3v1h2v1h1v1h1v1h1v5h-5v-2h4v-3h-1v-1h-4v1h-3v-1h-1v-2h-2v-1h1v-1h-1v1h-1v-1h-1v-1h1v-2h2v1h1v1h1v-2h-1v-1h-1zM19 25h3v1h1v2h-2v-1h-3v-1h1zm-5 4h1v1h4v-1h2v2h-4v1h-2v4h-1v2h-1v-1h-1v1h-2v1H9v-3H8v-1h2v-2h1v-1h1v-1h1v-1h1zm298 6h1v1h1v1h-1v-1h-1zM9 42h1v1h2v1h1v12h-1v1H9v-1H8V44h1zm310 4h1v1h-1v3h-4v-1h2v-1h1v-1h1zM10 51H9v2h3v-1h-2zm306 7h3v9h-1v1h-1v1h-1v1h-1V59h1zM57 59h1v1h1v1h6v2h-1v1h1v1h-6v1h-2v2h-1v-1h-1v1h-1v1h-1v-2h1v-1h1v-1h1v-2h-1v-1h-1v-2h3zm3 0h6v1h-6zm10 0h6v1h-6zm7 0h4v1h1v-1h4v1h5v1h4v1h9v-1h3v-1h-2v-1h18v2h6v1h3v-1h2v-1h-2v-1h6v1h3v-1h19v1h-5v1h1v1h-1v1h-2v1h-13v1H81v-1h-2v-1h-3v-2h5v-1h-4zm15 0h1v1h-1zm69 0h1v1h-1zM52 62h1v4h-1zM9 64h1v1h1v-1h1v2h1v8h-1v-7H9v1H8v-2h1zm44 10h1v2h3v3h-1v1h-2v-1h-1zm-41 1h2v1h-1v7h-1v1H9v-1H8v-3h1v1h3zm167 2h1v1h19v1h3v1h14v-1h2v-1h26v1h6v1h6v2h-1v1h-2v1h-6v-2h-2v-1h-10v2h3v1h-6v-1h-5v-1h-8v1h-4v1h-24v-1h-1v-1h-5v1h-1v-1h-3v-1h-2v-2h-1v-1h1zm83 1h10v1h1v1h-1v2h1v1h-1v5h-1v1h-1v1h1v1h1v2h-1v-1h-1v2h-1v-5h-1v-3h1v-1h-2v-1h-4v-1h-1v-2h-2v1h-1v-1h1v-1h1v-1h1zm8 3h-1v1h-1v1h2zM55 81h3v2h-1v2h-2v4h1v1h1v2h-1v-1h-1v1h-1v1h-1v-9h1v-1h1zm-3 1h1v1h-1zm138 3h1v1h-1zm-33 3h10v1h2v1h4v1h-2v1h-16v1h-1v-1h-4v-1h-3v-1h8v-1h2zm159 0h1v1h1v3h-1v2h-1v-1h-1v-4h1zM73 89h20v1h6v-1h24v1h3v-1h15v1h4v1h-4v1h-21v-1h-3v1h-4v1h-8v1h-2v-1h-3v-1H88v1h-1v1h-6v-1h-2v-1h-6v-1h-3v-1h3zM9 90h1v1h1v-1h1v8H8v-4h1v-2H8v-1h1zm49 1h1v1h1v-1h3v1h-1v1h1v1h-3v-1h-1v-1h-1zm134 1h1v1h-1zm76 3h2v1h-1v1h-1zm48 2h1v1h1v3h1v1h-1v1h-1v-1h-1zM10 99h2v16h1v3h-1v10h-2v4h2v6h1v3h1v1h-1v-1h-1v-3h-1v1H9v1H8v-27h1v-3H8v-5h1v-1H8v-4h2zm43 6h1v3h1v2h-1v1h1v1h1v-5h1v6h1v15h-1v3h-1v-1h-1v2h-1v5h2v-1h1v2h1v11h-1v8h1v9h-1v7h-1v-1h-1v1h-1v2h-1v-4h1v-4h1v-1h2v-8h-3v-1h-1v3h-1v-2h-1v-1h1v-1h1v-6h-1v-3h1v2h1v-1h3v-9h-1v1h-3v4h-1v-1h-1v-2h1v-1h1v-10h-1v-10h-1v-1h2v9h1v-1h1v-1h2v-12h-1v1h-1v5h-1v-1h-1zm263 2h3v3h-1v1h-3v-3h1zm-305 2h-1v2h1zm305 5h2v1h1v6h-1v1h-3v-7h1zm-48 2h4v7h-2v-1h-2v-2h1v-3h-1zm47 10h3v1h1v2h-4zm-304 3h1v1h-1zm83 5h1v1h1v1h1v1h1v1h1v1h1v1h1v1h-1v-1h-2v1h-4v-1h-1v-2h-2v-2h2v-1h1zm222 0h3v16h-4v-14h1zm-61 4h1v1h-1zm4 0h1v1h-1zm16 0h6v1h-2v1h-3v1h3v1h-1v2h2v1h3v5h-1v1h-1v4h1v6h-1v-1h-3v1h-1v-1h1v-2h1v-8h1v-1h1v-1h-2v-1h-1v-2h-1v-2h-5v-2h-2v-1h4v-1h1zm-19 2h1v1h3v1h3v-1h1v1h3v1h-5v2h-2v3h-1v-1h-3v-1h-1v-2h1v1h2v-3h-2v1h-1v-1h1zM8 142h1v2h1v-1h2v10h1v6h-1v-6h-1v1H9v1H8v3H7v-3h1zm261 0h1v1h-1zm-258 6h-1v2h1zm96-1h1v1h1v1h1v1h1v1h1v1h1v1h-1v-1h-1v1h-1v1h-1v-1h-1v1h-1v-1h-1v-2h-2v-1h-1v-1h1v-1h3zm-51 4h-1v4h1zm200 2h2v1h1v5h-3v-1h-1v-4h1zm3 0h1v1h-1zm-2 2h-1v2h1zm-139 1h1v1h-1v1h1v1h1v2h-2v1h-1v1h2v1h1v-1h3v1h-2v1h-3v-1h-2v-1h-1v-1h-1v-2h1v-1h3v-1h-1v-1h1zm-108 3h1v1h1v21h1v7h-1v14h1v10h-1v-1h-1v1h-1v-2H9v2H8v-12h1v-3H8v-4h2v-4h1v-1h1v-7h-2v1H9v1H8v-7h1v-2h1v2h1v-3H9v-1H8v-10h2zm305 0h4v4h-1v1h-2v-1h-1zm-194 1h1v1h1v1h1v1h-1v-1h-1v-1h-1zm138 0h1v1h-1zm3 1h1v1h-1zm4 0h1v1h-1zm6 1h1v1h-1zm11 0h1v4h-1zm-20 1h1v1h-1zm5 0h3v1h4v1h1v2h-2v-1h-1v-1h-2v-1h-3zm-257 2h-1v2h1zm41-1h1v3h-1v1h-1v-1h1zm72 0h1v1h-1v1h-1v-1h1zm192 2h1v1h1v2h-1v1h-1v-1h-1v-2h1zm-206 7h4v1h1v1h-1v1h-1v1h-1v1h-1v1h-1v1h-1v-1h-1v1h-3v-3h2v-1h1v1h1v1h1v-1h1v-1h1v-2h-2zm4 1h-1v1h1zm154 0h2v1h1v-1h1v2h-1v1h1v6h-1v-1h-1v1h-3v-1h3v-6h-3v-1h1zm48 2h2v1h1v7h-1v3h1v5h-1v1h-1v-1h-2v-2h1v1h1v-1h1v-1h-1v-2h-1v1h-1v-11h1zm1 3h-1v3h1v-1h1v-2zm-264 1h1v1h1v1h1v-2h1v2h1v11h-1v17h1v8h1v1h-1v1h-1v5h-1v-1h-1v1h-1v3h3v1h1v1h1v4h-1v2h-1v7h-1v-1h-1v4h1v-1h1v4h1v7h-1v1h1v2h-1v2h-2v1h-1v1h-1v-2h1v-1h1v-3h-1v-1h-1v4h-1v1h-1v-4h1v-1h1v-14h-1v-1h-1v-1h1v-3h-1v-1h1v-1h1v5h1v-6h1v1h2v-4h-1v1h-1v1h-1v-1h-1v-10h1v-1h1v-2h2v-8h-2v-1h-2v8h-1v3h1v1h-2v-4h1v-2h-1v-6h2v-10h-1v-1h1v-5h1v-1h1v-1h2v-9h-1v1h-1v1h-2zm50 1h2v2h1v1h-1v1h-1v1h-1v1h-1v-1h1v-1h-2v-1h-2v-1h1v-1h3zm4 0h1v1h-1v1h-1v-1h1zm-2 2h-1v1h1zm-54 2h1v3h1v5h-1v1h-1v-3h1v-3h-1zm47 2h1v1h-1zm-5 2h4v2h-1v1h1v1h-1v2h-1v-1h-1v-1h1v-1h-1v-1h-1zm-2 3h1v3h1v2h-1v2h-1v-1h-1v-1h-1v-1h-1v-2h1v-1h2zm91 1h1v1h-1zm89 0h1v1h-1zm-130 1h1v1h-1zm12 0h3v2h-1v1h-2v1h2v1h-14v-1h1v-1h1v-1h1v1h2v-1h-1v-1h8zm17 0h6v3h6v2h-18v-1h-1v-2h4v-1h3zm-29 2h1v1h-1zm126 1h3v1h1v-1h1v2h-1v1h-1v-1h-3zm48 1h4v3h-3v-1h-1zm-50 3h1v1h-1zm-255 2H9v4h3v-3h-2zm248-1h5v1h5v1h3v1h-1v1h-1v1h-1v-1h1v-1h-1v1h-2v1h-30v1h-1v1h-1v1h-1v1h-1v1h-4v1h-3v-1h-1v-1h2v-1h3v1h3v-1h1v-1h1v-1h1v-1h-1v-2h-2v-1h8v2h5v-1h3v-1h12v-1h-2zm60 1h1v15h-1v2h1v2h-1v1h1v7h-1v2h-1v1h-2v-28h1v-1h2zm-90 3h1v1h-1v1h-1v-1h1zm-217 7h1v8h-1v-2h-1v1H8v-3h2v-3h1zm210 1h1v1h-1zm-5 5h5v1h2v1h-2v1h-1v2h-1v1h-2v1h-1v-1h-1v1h-1v1h-1v1h1v3h-1v1h1v4h-1v2h-3v1h-1v-3h1v-1h1v-1h2v-2h-2v-2h-1v-1h-1v-3h1v-1h1v1h1v-1h-1v-1h6v-1h1v1h1v-4h-2v1h-1zM9 222h1v1h1v-1h1v4h-2v-1H9v2H8v-4h1zm245 1h1v1h-1zm2 0h19v1h2v3h-3v-2h-1v-1h-3v1h-1v-1h-1v1h-2v1h6v1h1v1h4v3h-1v1h-1v-1h-3v-2h-15v-1h-1v2h-1v5h-1v-1h-1v1h-2v-3h-1v-2h1v1h1v1h2v-3h-1v-1h-2v-3h1v1h1v-1h5v-1h-2zm8 1h-1v1h3v-1zm-254 7h2v10h-1v1h-1v1H9v1H8v-5h1v-3H8v-4h2zm1 3h-1v3h1zm40-1h1v2h-1zm224 2h2v2h1v15h-1v-3h-1v1h-2v1h-1v-1h-1v-1h-1v-3h1v-1h2v-9h1zm1 3h-1v4h1v1h1v-5zm-40 0h3v1h3v1h7v1h1v-1h1v2h2v1h-4v-2h-2v1h-2v-1h-4v1h-1v1h-1v1h-1v-2h-2v1h-2v1h2v1h1v1h-1v-1h-1v1h-1v-1h-1v2h-1v-3h1v-1h1v-2h1v-2h1zm-27 3h1v1h-1zm45 0h1v3h-1zm-242 2h1v4h-1v11h1v10h-1v-5h-1v1H9v2H8v-16h2v-3h2zm197 0h1v1h1v1h1v-1h1v2h1v1h-1v1h-3v1h-1zm26 4h1v7h-3v-1h-1v1h-1v-1h1v-4h1v1h1v1h1zm-178 7h-1v2h1zm152 1h1v2h3v1h1v12h-1v1h-4v-1h1v-2h1v-1h-1v-1h-1zm-152 2h-1v1h1zm174 4h1v1h4v12h-1v2h-2v-1h-1v2h-1v-2h1v-13h-1zm3 2h-1v4h1v2h-1v4h2v-9h-1zm-165 1h4v1h3v-1h1v1h1v-1h12v1h-7v1h1v1h1v1h-4v1H71v-1h-3v-2h2v-1h-1zm48 0h2v1h-2zm-14 1h6v1h1v-1h2v1h11v1h1v-1h2v-1h1v4h-1v1h3v2h2v1h-2v2h-2v1h-1v-1h-7v1h-2v-1h1v-1h-2v-1h-1v-1h-3v-1h6v-2h-4v-1h-2v1h-1v-1h-1v1h-1v2h-1v-1h-2v-1h-8v-1h-9v-1h2v-1h1v1h1v-1h10zm-95 5h1v1h1v-1h2v12h-1v-1H9v-1H8zm124 2h1v1h-1zm184 1h2v2h1v1h-1v1h-1v3h-2v-5h1zm-209 5h4v1h-1v2h-2v-1h-1zm124 2h1v4h-1zM8 284h2v1h1v-1h1v7h-1v-1H8zm197 0h2v1h-2v1h1v1h-1v1h-2v1h-2v-1h-2v-1h1v-2h2v1h1v-1h2zm-96 1h1v1h1v4h-1v1h-1v-1h-1v1h-1v-1h-1v-3h1v-1h2zm31 0h3v1h13v-1h4v1h4v-1h17v1h2v1h4v1h3v1h-2v1h-46v-1h-1v1h-3v-1h-1v-2h2v-1h1zm92 0h3v1h1v1h-1v1h-1v1h1v1h-1v-1h-1v2h-1v-1h-1v-1h1zm-122 3h-1v1h1zm20 2h2v1h2v8h-1v-2h-2v1h-4v-1h-1v-1h-2v-1h3v-1h2v-2h1zm187 3h2v4h-1v2h1v3h-3v1h-1v-4h1v1h1v-4h-1v1h-1v-3h2zm-209 4h3v2h-3zm-99 2h3v2h1v6h1v1h1v1h-1v1h1v1h2v1h-1v1h-3v1h-1v-1h-1v-1h4v-1h-1v-1h-1v-1h1v-1h-1v-1h-3v1H8v-8h1zm308 4h2v4h-1v1h-2v-3h1zM9 310h1v1H9zm299 2h3v3h1v1h-2v1h-1v2h-4v1h-2v1h-2v-1h-1v-1h2v-1h1v1h2v-1h1v-1h2v-1h-1v-1h-1v-2h2zm-5 5h1v1h-1zm-276 5h1v1h1v1h1v1h1v1h1v1h1v1h1v1h-1v1h-1v1h-2v-1h-2v-1h-1v-2h-2v-4h2v1h1v-1h-1zm265 4h5v1h-1v3h-2v2h-1v1h-1v-1h-2v1h-1v-1h-2v-1h2v-2h1v-2h1v1h1v1h1v1h1v-1h1v-1h-1v-1h-2zm-226 4h1v1h10v-1h20v1h8v-1h15v1h2v1h-3v1h-8v-1H92v1H78v1H64v-1h-3v-1h-5v-1h10zm67 0h12v1h-1v1h2v1h-6v1h-2v-1h-6v-1h-4v-1h5zm24 0h16v1h1v1h-7v1h-5v-1h-13v-1h8zm40 0h24v2h-2v1h-23v-1h-1v-1h2zm40 0h7v1h7v-1h11v1h3v1h-3v1h-8v1h-16v-1h-2v-1h-1v-1h2z"/><path fill="#50d070" fill-rule="evenodd" d="M33 8h1v1h12v1h4v1h3v1h5v1h6v-1h3v-1h17v1h1v1h13v1h-5v1h-9v-1h-6v-1h-4v1h-1v-1h-3v1H56v-1H41v1h-2v-1h1v-1h-3v-1h-4v1h-2v-1h1v-1h2V9h-1zm78 1h8v1h-1v1h1v1h1v1h25v1h-9v1h-15v-1h-3v-1h-17v-1h4v-1h4v-1h2zm181 0h1v1h2v2h-1v-1h-3v1h-2v-2h3zm-84 2h14v1h2v1h-18v1h-5v1h-14v-1h-13v-1h-2v1h-14v1h-4v-1h-5v-1h11v-1h24v1h20v-1h4zm47 0h11v1h22v1h3v1h-24v-1h-15v1h-4v1h-21v-1h1v-1h24v-1h3zM31 13h1v2h1v-1h1v1h1v1h-1v1h-2v-1h-1v1h-2v-1h-1v1h-1v1h3v1h1v2h-1v1h-1v1h-1v1h-1v1h-1v1h-1v1h-1v1h-1v-2h-1v-1h-4v1h-1v1h-1v1h-1v1h-1v1h-1v1h-1v1h-1v1h-1v1H9v1H8v1h1v3h1v-1h2v-1h1v2h-1v4h1v1h-1v-1h-2v-1H9v2H8v12h1v1h3v7h-1v1h-1v-1H9v2H8V56H7V44h1v-5H7v-4h1v-1h1v-1h1v-1h1v-1h1v-2h2v-1h1v-2h1v-1h2v-1h1v-1h1v-1h1v1h1v-1h1v1h2v-1h2v-1h1v1h1v-1h-1v-2h-4v-1h2v-1h1v-1h1v-1h1v-1h2zm6 0h1v1h-1zm262 0h1v1h-1zM35 14h1v1h-1zm-4 4h1v1h-1zm264 0h1v1h1v1h1v1h1v1h1v1h1v1h-1v-1h-1v-1h-1v-1h-1v-1h-1v-1h-1zM22 20h1v1h-1v1h-1v-1h1zm284 3h3v2h1v1h1v2h3v2h-2v-1h-1v-1h-1v-1h-1v-1h-2v2h-1v1h1v1h-1v-1h-1v-1h-1v-2h-1v-1h-1v-1h2v1h1v-1h1zm2 6h1v1h-1zM17 31h3v1h-1v1h-1v1h-2v2h-1v1h-1v-1h1v-4h2zm292 0h1v1h-1zm2 3h1v2h-1zm3 3h1v1h-1zm2 2h1v1h-1zm3 8h1v2h-1zm-4 3h4v8h-3v1h-1v-5h1v-1h-1zm-156 8h2v2h2v1h1v1h1v1h1v1h1v1h1v1h1v1h1v1h1v1h1v1h1v1h1v1h-1v-1h-1v1h-2v1h-2v-1h-1v-1h-2v-1h-1v-1h-1v-1h-1v-2h-1v-1h-1v-1h-1v-1h-2v1h1v1h-5v-2h2v-1h1v-1h-1v-1h5v-1h-1zM56 59h1v1h-1zm2 0h2v1h6v-1h4v1h6v-1h1v1h4v1h-5v2h3v1h2v1h-6v-1h-3v-1h-6v1h-2v-1h1v-2h-6v-1h-1zm23 0h1v1h-1zm5 0h6v1h1v-1h12v1h2v1h-3v1h-9v-1h-4v-1h-5zm37 0h9v1h2v1h-2v1h-3v-1h-6zm196 0h1v6h-1zm-155 1h1v1h-1zM51 61h1v7h-1zm-39 4h1v1h-1zm45 1h1v3h-1v7h1v5h-1v-5h-3v-2h-1v-5h1v-1h1v-1h1v1h1zM7 67h1v15H7zm311 0h1v4h-1v-1h-1v5h1v1h1v25h-1v-3h-1v-1h-1v5h1v1h1v-1h1v5h-3v1h-1V93h1v1h1v1h1v-2h-1v-1h1v-3h-1v-1h1v-3h-1v3h-1v1h-1v-9h1v-4h-1v-6h1v-1h1v-1h1zm-146 1h1v1h1v1h-1v-1h-1zM56 71h-1v1h-1v1h2zm118 4h1v1h2v1h1v-1h1v2h-2v2h-1v1h1v1h1v-1h3v1h3v1h1v-1h5v1h1v1h-1v1h-1v-1h-1v1h-3v2h1v2h3v2h1v-1h1v1h1v-1h1v2h-1v2h-87v-1h8v-1h4v-1h3v1h21v-1h4v-1h-4v-1h14v1h-8v1h3v1h4v1h1v-1h16v-1h2v-1h-4v-1h10v-1h1v-1h1v-2h-1v-1h-2v-1h-1v-1h-1v-1h-1v-1h-1v-2h1v-1h-3v-1h2zm3 0h1v1h-1zM51 77h1v3h1v2h-1v10h-1zm129 0h1v1h-1zM13 78h1v6h-1zm186 0h2v1h-2zm17 0h2v1h-2v1h-14v-1h14zm34 0h3v1h1v-1h8v1h-1v1h-1v1h2v2h1v1h-10v-1h2v-1h1v-2h-6zm10 3h-1v1h1zm12-1h1v2h-1zm-53 2h8v1h5v1h-17v-1h4zM8 83h1v1h3v6h-1v1h-1v-1H9v1H8zm49 0h1v2h-1v1h1v2h1v1h14v1h-3v1h3v1h6v1h2v1h-8v-1h-3v-1h-1v1h-1v1h-5v-1h-1v-1h1v-1h-3v1h-1v1h1v1h-2v2h-1v11h-1v5h-1v-1h-1v-1h1v-2h-1v-3h-1V93h1v-1h1v-1h1v1h1v-2h-1v-1h-1v-4h2zm215 0h1v6h-1zm-6 1h1v1h2v1h-2v-1h-1zM13 85h1v1h-1zm177 1h1v1h-1zm-14 1h1v1h-1zm91 1h1v6h-1zM93 89h6v1h-6zm30 0h3v1h-3zM13 90h1v11h-1zm46 1h-1v1h1zM8 92h1v2H8zm80 0h12v1h3v1H87v-1h1zm182 0h1v1h1v23h1v2h1v4h-2v-6h-4V97h1v-1h1v-1h-1v-1h1zm-77 2h1v1h-1zm-142 6h1v2h-1zm-38 5h1v1h-1zm38 0h1v5h-1zm215 0h1v3h-1zm-208 1h1v2h-1zm-48 3h1v2h-1zm-2 1h1v3H8zm310 0h1v5h-1v-1h-2v1h-1v-4h3zm-267 1h1v7h1v1h-2zm6 0h1v2h-1zm209 2h1v1h-1zm-253 6h1v4h-1zm-6 1h1v11H7zm311 1h1v6h-1v-1h-3v-4h3zm-50 1h2v1h-2zm3 1h1v1h-1zm-261 5h2v1h-1v1h1v2h-2zm47 0h2v2h-2zm-6 1h1v1h1v1h-1v2h-1zm264 0h4v5h-3v2h-1zm-260 1h1v1h1v5h2v1h-1v1h-1v-2h-1v1h-2v-5h1zm3 1h1v3h-1zm33 0h1v1h1v1h1v2h-1v1h-2v2h1v1h1v1h1v1h-1v-1h-1v-1h-1v-1h-1v-2h-1v-1h-1v-1h1v-1h1v1h2v-1h-2v-1h1zm3 1h1v1h-1zm-7 1h1v1h-1zm-36 3h1v5h-1zm268 1h1v4h-1zm-220 1h1v1h-1zm168 0h8v1h-1v1h-4v1h2v2h-2v-1h-1v1h-2v-1h-3v-1h-1v1h-3v-1h-3v-1h9v-1h1zm14 0h1v1h-1zm-183 2h2v1h2v1h1v1h1v1h-1v-1h-1v-1h-2v1h-1v2h-1v-1h-1v-1h-1v-1h-1v-1h3zm157 0h1v2h-1zM7 142h1v1H7zm6 0h1v1h-1zm263 2h1v1h1v1h-1v-1h-1zm-16 1h1v1h-1zm59 0h1v4h-1zm-219 1h1v1h5v-1h1v2h-3v1h-1v1h1v1h1v1h1v1h1v1h-1v-1h-1v-1h-1v-1h-1v-1h-1v-2h-1v-1h-1zm155 0h1v1h3v1h1v2h-2v2h1v-1h1v2h-1v1h-1v-1h-2v1h-1v-2h1v-3h-1zm23 1h1v1h2v1h-1v1h-1v8h-1zm-268 1h1v2h-1zm41 1h1v1h1v1h-1v6h-1zm6 0h1v2h-1zm258 1h4v9h-4zm-260 1h1v4h-1zm263 1h-1v5h1zm-207 0h1v2h-2v1h-2v-2h1v1h1v-1h1zM7 154h1v1H7zm50 0h1v3h-1zm54 3h1v1h6v1h-3v1h-1v1h-1v-2h-1v-1h-1zM7 158h1v5H7zm248 0h1v1h3v2h1v1h1v-1h1v2h1v1h1v-1h-1v-2h3v1h6v1h-4v1h3v1h2v1h1v1h-1v1h-1v6h-1v1h-1v-1h-2v1h-1v-7h-1v-1h-8v-1h-3zm28 2h1v2h-1zm37 1h1v3h-1zm-5 2h1v1h2v-1h1v13h1v7h-1v-6h-1v-1h-2v1h-1v-8h1v1h1v-1h1v-2h-1v-1h-1v1h-1zm-198 1h1v1h3v-1h3v1h-1v1h1v1h-2v1h-1v1h-1v1h-1v2h-1v1h-1v1h-1v1h-1v-1h-1v1h-1v-1h1v-1h-4v-1h1v-1h1v-1h1v-1h1v1h2v-1h-2v-1h1v-1h1v-2h1zm-107 1h1v2h-1zm3 0h1v1h-1zm44 1h1v3h-1zm64 1h-1v1h1zm162-1h1v1h-1zm-163 2h-1v1h1zm161-1h1v1h-1zm-268 1h1v11h-1zm38 0h1v4h-1zm218 1h-1v2h1zm49 3h-1v2h1zM8 172h1v1h2v3h-1v-2H9v2H8zm47 0h1v1h1v7h-1v2h-1v-1h-1v-1h-1v-5h1v-2h1zm53 1h1v1h-1v1h-1v1h-2v1h-1v-1h1v-1h1v-1h2zm-4 5h1v2h3v-1h1v1h1v1h-1v1h-1v1h-1v1h-1v1h-1v1h-1v1h-1v1h-1v1h-1v1h-2v1h-1v2h-1v1h-1v-1h1v-1h-1v-1h1v-2h-3v-1h1v-1h1v-1h1v-1h1v-1h3v1h2v1h1v-1h1v-1h1v-1h1v-1h1v-1h-1v1h-1v1h-1v1h-1v-1h1v-2h-2v1h-2v-1h1v-1h1v-1h1zm6 1h1v1h-1zm-53 2h1v1h-1zm42 0h1v1h-1v1h-1v-1h1zm-48 1h1v3h-1zm219 0h1v1h1v10h-1v1h1v3h-1v1h-1v-1h-3v-14h3zm48 2h1v3h-1zm-215 2h-1v1h1zm168 0h-1v3h1zM7 186h1v9H7zm92 1h-1v1h1zm-86 3h1v2h-1zm78 0h1v1h-1v1h-1v1h-1v-1h1v-1h1zm-33 2h1v3h-1v-1h-1v-1h1zm257 0h2v2h1v-2h1v6h-4zm-264 2h1v6h1v1h-1v7h1v2h-2zm105 0h14v1h-3v1h-4v2h1v1h-9v-1h-2v-1h2v-1h1zm27 0h1v5h-1zm-171 2h1v2h-1zm76 0h1v1h1v1h1v1h-1v-1h-1v-1h-1zm-80 1h1v3H8zm50 0h1v4h-1v9h-1v-10h1v-1h-1v-1h1zm-46 2h1v3h-1zm129 1h1v1h-1zm125 0h1v1h-1zm49 0h1v1h3v2h-1v1h-2v1h-1zm5 1h1v8h-1zm-87 1h25v1h2v1h-12v1h-3v1h-5v-2h-8v-1h1zM7 204h1v4H7zm222 0h1v2h-1zm43 0h1v1h-1zm-4 1h1v1h1v1h-1v-1h-1v1h-2v-1h2zm2 0h1v1h-1zm-45 3h1v1h-1v1h-1v1h-1v1h2v1h3v-1h3v1h-1v1h-1v1h-1v1h-1v1h-1v1h-1v1h-1v1h-3v-1h-5v1h-1v1h-1v1h-1v-2h1v-1h2v-2h1v1h1v-1h1v-1h1v-1h2v-2h1v-1h-1v-1h1v-1h1v-1h1zm10 0h1v1h-1zm84 2h2v3h-2zM7 213h1v3H7zm311 5h1v2h-1zm-308 1h1v2h1v1h-1v1h-1v-1H9v1H8v-3h2zm48 0h1v11h-1v-6h-1v-2h1zm-45 2h1v1h-1zm38 1h1v2h-1zm267 0h1v1h-1zm-305 1h1v3h-1zm240 0h1v1h-1zm2 0h1v1h-1zm20 0h1v1h-1zm45 0h1v3h-1zm-265 1h1v1h1v3h-3v-3h1zm156 1h1v1h-1zm4 0h1v1h1v1h-2v2h-1v-1h-1v-1h1v-1h1zm2 0h1v1h-1zm35 0h1v1h-1zm-3 1h1v2h1v2h-1v2h1v3h2v-1h1v3h1v4h-1v3h1v2h-1v3h3v-1h2v1h2v-1h-1v-1h11v2h1v1h1v1h1v-1h2v-1h1v3h-19v1h-1v1h-1v-1h-1v-1h-4v-6h-1v-2h-1v-1h4v-1h-2v-2h-1v1h-1v2h-1v-1h-1v-1h2v-1h-7v-1h4v-1h1v-1h1v1h1v-4h1v-2h-1zm29 0h1v4h-1zm-22 2h1v3h-2v-1h1zm-205 1h1v4h-1zm267 1h1v45h-1v-2h-2v2h-1v-42h2v4h1v-4h-1v-1h1zM7 231h1v1H7zm6 0h1v2h-1zm200 0h2v2h-1v-1h-1zm60 0h1v6h-2v-1h1zm5 0h1v3h-1zm-268 3h1v3h-1zm3 0h1v1h-1zm38 1h1v1h-1zm7 0h1v12h-1v2h-1v-3h1v-5h-1v-5h1zm-50 1h1v3H8zm205 0h1v2h-1v6h1v2h-1v-2h-1v1h-1v-1h-1v-1h-1v-1h1v-1h-1v-2h1v-1h3zm24 1h3v1h1v1h-2v-1h-2zm38 1h2v5h-1v-1h-1zM7 241h1v13H7zm44 0h1v7h-1zm181 0h1v1h-1zm9 0h1v1h2v-1h1v1h1v1h-4v-1h-1zm-186 1h1v1h1v2h-1v1h-1zm176 1h1v4h1v-2h1v1h1v-1h1v1h1v1h-2v4h-1v-1h-1v-1h-1v4h-1v9h1v13h-1v8h-1v-8h1v-13h-1v-10h1v-7h-1v-1h1zm41 0h2v2h-2zm-34 1h1v1h-1v1h-1v-1h1zm-25 3h1v2h-1v1h-3v5h1v1h1v-1h1v1h1v2h-1v-1h-3v-2h-1v-6h1v-1h3zm-162 2h1v8h-1zm208 4h1v1h-1zm-202 3h1v1h-1zm1 2h1v4h-1v2h-3v1h-1v1h2v1h1v-1h2v1h1v-1h1v1h1v-1h4v-1h-6v-1h9v1h1v1h-2v2h3v1h-5v-1h-7v1h-6v-6h1v-1h1v-1h2v-2h1zm-7 3h1v4h-1zm182 2h1v1h1v5h-1v1h1v3h-2v-4h1v-2h-1zm85 1h-1v5h1zm-228 0h6v1h-6zm29 0h7v2h-2v1h-1v-1h1v-1h-3v1h-9v-1h7zM7 265h1v5H7zm76 0h2v1h6v1h-2v1h-4v1h-4v-1h4v-1h-1v-1h-1zm16 0h4v1h-4zm10 0h1v1h-1zm-17 1h1v1h-1zm-2 2h8v1h-8zm20 0h1v1h1v-1h2v1h4v2h-6v1h3v1h1v1h2v1h-1v1h2v-1h7v1h-3v1h-7v-1h-5v2h-4v2h1v1h2v-2h1v4h-1v1h1v2h-1v-1h-1v1h-2v1h-1v2h-1v-3h1v-1h1v-2h-1v-11h-1v-2h-1v-1h2v1h2v1h1v-2h1zm103 2h1v2h-1v1h-1v-1h-2v6h-1v-7h4zm-82 2h1v1h2v5h-1v-2h-2v2h-1v-1h-2v1h-1v-1h1v-1h-1v-1h2v-2h2zm-20 2h-1v1h2v-1zm207 2h1v17h-2v1h-2v-14h1v8h1v3h1zM8 280h1v1h2v1h1v2h-1v1h-1v-1H8zm5 1h1v2h-1zm192 0h5v1h2v1h-1v1h-1v1h-1v1h-1v2h-2v1h-1v1h-15v1h-19v-1h17v-1h2v-1h-3v-1h-4v-1h-2v-1h5v1h2v1h4v-2h8v2h-1v1h2v1h2v-1h2v-1h1v-1h1v-2h-2v1h-2v1h-1v-1h-1v-1h2v-1h1v-1h1zm7 0h1v1h-1zm19 3h1v5h-1v1h1v1h-1v-1h-1v-1h1zm-96 1h5v1h-1v1h-2v2h1v1h3v1h-4v1h-3v-1h-2v-1h-2v2h-1v-4h1v-1h1v1h2v-1h1v-1h1zm25 0h4v1h-4zm-147 2h1v4h-1zm128 2h1v1h-1zM8 290h3v1h1v8H9v1H8v8h1v1H7v-9h1v-6h1v-2H8zm98 0h1v1h1v-1h1v1h1v-1h1v3h-1v1h-2v1h6v1h1v1h7v-2h2v1h2v1h1v1h4v-1h2v3h-1v-1h-6v-1h-3v1h-1v-1h-1v1h-2v1h-7v-1h-1v-2h-3v2h1v1h-2v-1h-1v-6h2v-1h-2zm44 0h12v1h-12zm83 0h1v1h-1zm-222 2h-1v1h1zm0 2h-1v1h1zm117-1h1v1h-1zm191 1h1v14h-1v-5h-2v2h-1v3h2v2h-1v1h1v1h-1v-1h-1v1h-1v1h-1v1h-1v1h-2v-3h-3v1h-2v1h-1v-1h1v-1h1v-1h2v-1h1v-1h1v-1h1v-1h1v-1h1v-1h1v-2h1v-1h3zm-8 12h1v1h-1zm4 4h-1v1h2v-1zM8 310h1v1h1v1h1v1h1v1h1v-1h3v-1h1v-1h1v2h1v1h-2v1h-1v1h-2v-1h-2v-1h-1v-1h-1v-1H9v-1H8zm8 0h1v1h-1zm4 5h1v1h1v1h-1v-1h-1zm4 4h1v1h1v1h1v2h1v1h-1v-1h-2v4h1v1h1v1h1v1h2v1h2v-1h1v-1h3v1h30v1H56v1h5v1h3v1h-6v-1h-6v-1H42v-1h-1v1h-1v-1h-2v1h-1v1h-2v1h-3v-1h-1v-1h-2v-1h-1v-1h-1v-1h-1v-1h-1v-1h-1v-1h-1v-2h-1v-1h-1v-1h-1v-1h3v-1h1v1h1v-1h-1zm275 0h1v1h1v1h2v-1h2v-1h2v2h-2v1h-1v1h-1v1h-1v1h-1v1h-1v1h-1v1h-1v1h-2v-2h1v-1h-5v1h-1v-1h1v-1h2v-1h1v-1h1v-1h1v-1h1v-1h1zm-3 1h1v1h-1zm-8 8h2v1h-1v2h-2v1h2v1h-3v1h-4v-1h-1v-3h2v-1h5zm-221 2h10v1H67zm30 0h8v1h-8zm23 0h13v1h-5v1h4v1h6v1h-31v-1H94v1H78v-1h14v-1h19v1h8v-1h3v-1h-2zm25 0h12v1h-12zm28 0h6v1h-1v1h-4v1h-5v1h-8v-1h-15v-1h16v1h5v-1h7v-1h-1zm17 0h7v1h-2v1h1v1h23v-1h2v-2h16v1h-2v1h1v1h2v1h6v1h-7v-1h-2v1h-2v-1h-5v1h-2v-1h-32v-1h-5v-2h1zm72 0h10v1h2v1h1v1h-6v1h-15v-1h8v-1h3v-1h-3zm28 2h2v2h-2zm3 0h1v1h-1zm-153 1h5v1h-5z"/><path fill="#60d070" fill-rule="evenodd" d="M32 9h1v1h-1v1h-1v-1h1zm-2 3h1v1h-1zm-2 1h1v1h-1v1h-1v-1h1zm14 0h1v1h-1v1h-5v1h-2v1h-1v-1h1v-1h1v-1h6zm3 0h1v1h-1zm10 0h1v1h18v-1h4v1h6v1H55zm62 0h1v1h3v1H93v-1h24zm28 0h4v1h5v1h-18v-1h9zm27 0h2v1h13v1h-29v-1h14zm34 0h5v1h16v1h-26v-1h5zm46 0h3v1h1v1h-8v-1h4zm11 0h4v1h25v1h-27v-1h-2zM25 16h1v1h-1v1h-1v2h-1v-2h1v-1h1zm3 0h1v1h2v-1h1v1h1v2h-1v1h-1v-1h1v-1h-1v1h-1v-1h-3v-1h1zm275 1h1v1h1v1h1v1h1v1h1v1h1v1h-1v-1h-1v-1h-1v-1h-1v-1h-1v-1h-1zM18 23h1v1h-1v1h-1v-1h1zm282 1h1v1h-1zM23 28h1v1h-1v1h-1v-1h1zm293 2h1v1h1v1h-1v-1h-1zm3 3h1v1h1v3h-1v-3h-1zM7 34h1v1H7zm9 0h1v1h-1zm294 0h1v1h-1zm2 2h1v1h1v1h-1v-1h-1zM12 39h2v27h-1v-1h-1v-1h1v-4h-1v-4h1V43h-1zm306 0h2v1h-1v1h-4v-1h3zm-3 14h1v1h-1zm4 4h2v5h-1v-3h-1zM52 58h1v1h-1zm110 0h1v1h1v1h-1v-1h-1zM51 60h1v1h-1zm114 1h1v1h1v2h1v1h1v1h-1v-1h-1v-1h-1v-2h-1zm-99 2h6v1h3v1H65v-1h1zm91 0h2v1h1v1h1v1h1v1h-1v-1h-1v-1h-2v-1h-1zm162 2h1v1h-1zM51 68h1v9h-1zm123 2h1v1h1v1h-1v1h-1v-1h1v-1h-1zm-8 1h1v1h1v1h-1v-1h-1zm6 0h1v2h-2v2h-1v-1h-1v-1h1v-1h2zm146 0h1v5h-1zM58 72h1v2h-1zm257 4h1v4h-1zm-62 2h1v1h-1zm20 0h1v8h-1zm47 2h1v3h-1zM13 84h1v1h-1zm175 0h1v5h-3v-2h-1v-2h3zm2 0h1v1h-1zm11 0h6v1h-6zM57 85h1v1h1v1h-1v-1h-1zm122 0h1v1h-1zm87 0h1v1h-1zM13 86h1v4h-1zm131 1h10v1h-10zm31 0h1v1h1v-1h1v1h1v1h-8v-1h4zm17 1h1v1h-1zM51 92h1v8h-1zm18 0h1v1h3v1h-5v-1h1zm-11 2h1v2h-1v1h1v2h-1v-2h-1v-1h1zm209 0h1v1h-1zm-254 7h1v4h-1zm38 1h1v3h-1zm7 0h1v4h-2v-3h1zm-45 4h1v13h-1zm307 2h1v3h-1zm-269 2h1v1h-1zm222 4h1v4h-1zm-6 2h1v6h-1zm53 0h1v1h-1zm-48 6h1v1h-1zm-259 1h1v14h-1zm255 0h3v1h-3zm-211 7h2v1h-1v3h1v2h-2zm35 0h1v1h1v1h-1v-1h-1zm-4 2h2v1h2v1h-2v-1h-2zm-37 1h1v3h-1zm44 0h1v1h1v2h1v1h1v1h-1v-1h-1v-1h-1v-1h-1zm-7 2h1v1h1v1h-1v-1h-1zm232 0h1v6h-1zm-56 3h3v1h-3zm-163 1h1v1h1v1h1v1h1v1h1v1h1v1h-1v2h-4v-3h1v1h1v-1h1v1h1v-1h-1v-1h-1v-1h-1v-1h-1v-1h-1zm-6 3h1v1h1v1h-1v-1h-1zm5 0h2v2h-1v1h-1v1h-1v-3h1zm-87 3h1v3h-1zm264 1h1v2h-1zm-22 3h1v3h-1zm3 1h2v1h-1v1h-1zm-201 1h1v3h-1zm56 0h1v1h1v1h-1v1h1v1h-1v1h1v1h1v-1h1v2h-4v-1h-1v-1h-1v1h-1v-1h-1v-1h1v-1h2v-1h2v-1h-1zm1 3h-1v1h1zm2 0h1v1h1v1h-1v-1h-1zm-4 5h1v1h-1zm208 0h1v2h-1zm-60 2h1v1h-1zm-146 1h1v1h-1zm0 4h1v1h-1zm141 0h1v1h-1zm-135 1h1v1h1v1h-1v1h-1v1h-1v-1h1v-1h1v-1h-1v1h-1v-1h1zm2 0h1v1h-1zm143 0h1v1h1v1h-2zm8 0h1v1h-1v1h-1v-1h1zm-161 1h1v1h-1v1h-1v-1h1zm2 1h2v1h-2zm154 0h1v2h-1zm-217 3h1v10h-1zm56 1h1v1h-1zm9 1h1v1h-1v1h-1v-1h1zm204 2h1v8h-1zm-220 4h1v1h-1zm8 2h1v1h-1v1h-1v1h-1v1h-1v1h-1v-1h1v-1h1v-1h1v-1h1zm-11 1h1v1h-1v1h-1v1h-1v1h-1v-1h1v-1h1v-1h1zm173 3h1v3h-1zm50 2h1v2h-1zm-221 2h1v1h-1v1h-1v-1h1zm-86 2h1v11h-1v-4h-1v-1h1zm75 1h1v1h-1v2h-1v-2h1zm-30 2h1v2h-1v1h-1v-1h1zm262 0h1v6h-1zm-232 2h1v1h-1zm-31 2h1v1h-1zm125 0h1v1h-1zm50 2h1v1h-1zm-2 2h1v1h-1zm90 6h1v1h-1zm-99 3h1v1h-1v1h-1v-1h1zm98 1h2v5h-1v-3h-1zm-104 5h1v1h-1zm105 2h1v3h-1zm-108 1h1v1h-1zm-199 1h1v1h-1zm207 1h1v1h-1zm31 0h1v1h-1zm25 0h2v1h-2zm-225 1h1v5h-1zm198 1h1v1h-1zm29 0h1v1h-1zm42 1h1v4h-1zm-105 1h1v1h-1zm34 5h1v2h-1zm-35 1h1v5h-1v1h-1v-1h1zm64 1h1v1h-1zm-38 1h9v3h-1v-2h-8zm0 2h7v1h-1v1h-5v-1h-1zm32 0h1v6h-1zm-38 2h1v1h-1v1h-1v-1h1zM7 240h1v1H7zm50 1h1v5h-1zm174 1h1v1h-1zm9 0h2v1h-2v1h-1v-1h1zm6 0h2v1h-2zm3 2h1v6h1v1h-2zm-197 1h1v1h-1zm162 0h1v3h-1zm40 1h1v1h2v-1h1v1h2v1h1v1h-2v-1h-2v1h-3zm15 0h2v1h-2zm51 0h1v7h-1zm-269 2h1v1h-1zm162 1h1v1h-1v4h-1v-4h1zm-3 1h1v1h-1zm68 0h1v1h-1zm-68 2h1v3h-1zm42 0h3v1h-3v1h-1v-1h1zm6 0h3v1h12v1h-13v-1h-2zm16 0h5v1h-5zm-67 1h1v2h-1zm-195 2h1v3h-1zm224 3h1v1h-1zm-22 3h1v5h-1zm-156 1h1v1h-1zm-3 2h5v1h6v1h-4v1h-1v-1h-1v1h-1v-1h-2v1h-1v-1h-2v-1h1zm-4 1h1v4h-1zm34 0h14v1H85zm36 0h3v1h-3zm93 2h1v3h-1zm-155 1h7v1h-7zm26 0h5v1h-5zm-13 1h11v1H72zm20 0h12v1H92zm13 3h1v1h-1zm28 0h1v1h-1zm74 0h1v6h-1zm4 0h1v1h1v7h-1v1h-1v1h-1v-1h-4v-1h2v-1h1v-1h1v1h2v-1h-2v-3h2v-1h-1zm-101 2h2v1h-2zm1 2h5v1h-4v1h-1zm12 0h2v1h-2zm8 0h2v2h1v5h-1v1h-1v-1h1v-2h-1v-1h-2v-2h1zm83 5h1v1h-1zm-201 2h1v4h-1zm97 0h1v1h-1zm92 0h1v1h-1zm-72 1h1v1h2v1h1v1h-1v1h-2v-1h-1zm80 0h1v1h-1v1h-1v1h-1v-1h1v-1h1zm-76 1h1v1h-1zm52 0h6v2h-4v-1h-2zm20 3h1v1h-1v1h-1v-1h1zm-78 2h1v1h-1zm13 0h9v1h15v1h-16v-1h-2v1h-10v-1h4zm49 0h5v2h-24v-1h19zm-177 1h1v6h-1zm187 0h5v1h-5zm120 0h1v17h-1v1h-1v2h-2v1h-1v-1h1v-1h1v-1h1v-1h1zm-192 1h1v1h-1zm6 0h1v1h-1zm-20 3h8v2h-7v-1h-1zm-101 3h1v5h-1v-2h-1v-2h1zm108 0h1v1h1v-1h3v1h6v1h-13v-1h2zm13 1h1v1h-1v1h-1v-1h1zm-121 7h1v1h-1zm297 1h1v1h-1zM7 309h1v1H7zm8 0h1v1h-1zm293 0h1v2h-1zm6 1h2v1h-2zm-8 1h1v1h-1v1h-1v-1h1zm-288 1h2v1h-2zm-1 2h3v1h-1v1h1v1h3v1h1v2h1v1h-1v-1h-1v1h-3v1h1v1h1v1h1v1h-1v-1h-1v-1h-1v-1h-1v-1h-1v-2h-1v-1h-1v-1h-1v-1h1v-1h1zm5 1h1v1h1v1h-1v-1h-1zm290 0h1v1h-1v1h-1v1h-1v1h-1v1h-1v-1h1v-1h1v-1h1v-1h1zm-285 5h1v1h-1zm268 1h1v1h-1v1h-1v-1h1zm10 0h1v1h-1v2h-2v-1h1v-1h1zm-277 1h1v1h1v1h-1v-1h-1zm3 3h1v1h1v1h1v1h1v1h-1v-1h-1v-1h-1v-1h-1zm259 1h1v1h-1v1h-1v-1h1zm-254 3h1v1h-1zm246 0h1v1h-1zm-103 1h11v1h-1v2h5v1h32v1h2v-1h5v1h1v1h-1v-1h-1v1h-22v-1h-2v1h-33v-1h-1v1h-14v-1h-2v1h-47v-1h-5v1h-7v-1h-5v1H63v-1H43v1h-8v-1h-3v-1h3v-1h2v-1h1v-1h2v1h1v-1h1v1h10v1h6v1h36v-1h13v1h38v-1h16v1h8v-1h5v-1h4v-1h1zm93 0h9v3h1v1h4v-1h4v1h1v1h-1v-1h-1v1h-10v1h-4v-1h-8v1h-12v-1h-2v1h-14v-1h5v-1h25v-1h6v-1h-1v-1h-2zm23 1h1v1h-1v1h-1v1h-1v1h-1v-2h2v-1h1zm-265 1h1v1h1v1h-1v-1h-1zm117 2h-1v1h5v-1zm88 0h2v1h-2z"/><path fill="#60e070" fill-rule="evenodd" d="M35 8h37v1H35zm74 0h12v1h-12zm119 0h10v1h-10zm41 0h8v1h-8zm19 0h2v1h-2zm3 0h3v1h-3zm4 1h1v1h1v1h1v1h1v1h-1v-1h-1v-1h-1v-1h-1zM43 13h2v1h-2zm3 0h9v1h-9zm57 0h14v1h-14zm108 0h11v1h-11zm44 0h3v1h-3zm7 0h1v1h-1zM28 14h1v1h-1v1h-1v1h-1v1h-1v-1h1v-1h1v-1h1zm272 0h1v1h1v1h-1v-1h-1zm-8 1h1v1h1v1h1v1h-1v-1h-1v-1h-1zM33 17h1v1h-1zm268 7h1v1h1v1h-1v-1h-1zm9 0h1v1h1v1h1v1h-1v-1h-1v-1h-1zm5 5h1v1h-1zM21 30h1v1h-1zm286 0h1v1h1v1h1v1h1v1h-1v-1h-1v-1h-1v-1h-1zm11 2h1v1h-1zm2 5h1v2h-1zM13 38h1v1h-1zm301 0h1v1h1v1h-1v-1h-1zM7 39h1v3H7zm312 6h1v1h-1zm0 5h1v7h-1zM7 56h1v8H7zm47 2h83v1H54zm92 0h2v1h-2zm-94 1h1v1h-1zm-40 1h1v4h-1zm151 0h1v1h1v1h1v1h-1v-1h-1v-1h-1zm151 0h1v9h-1zM59 65h4v1h-4zm28 0h20v1H87zm33 0h1v1h-1zm7 0h2v1h-2zm13 0h12v1h-12zm29 1h1v1h1v1h1v1h1v1h-1v-1h-1v-1h-1v-1h-1zm150 0h1v5h-1zM52 69h1v7h-1zm5 0h1v2h-1zm0 3h1v4h-1zm116 0h1v1h1v1h1v1h-2v1h-3v-3h2zm5 3h1v1h1v1h-1v-1h-1zm141 0h1v7h-1zm-147 2h1v1h1v1h-1v-1h-1zm29 1h14v1h-14zm71 0h1v1h-1zM12 83h1v9h-1zm307 0h1v16h-1zM7 84h1v5H7zm172 0h1v1h-1zm15 0h7v1h-7zm13 0h7v1h-7zm31 0h14v1h-14zm25 0h3v1h-3zm-74 1h1v2h1v2h1v1h-2v-1h-1zm-9 1h1v1h-1zm93 0h1v5h-1zM58 87h1v1h10v1H59v-1h-1zm88 1h6v1h-6zm168 2h1v2h-1zm-121 1h1v1h-1zM52 92h1v15h-1zm7 2h1v1h-1zm213 0h1v22h-1zm-5 1h1v21h-1zM57 97h1v6h-1zm257 1h1v1h-1zm-302 3h1v2h-1zm307 1h2v4h-1v-2h-1zm-262 4h1v2h-1zm-5 4h1v1h-1zm268 1h1v5h-1zm0 6h1v4h-1v5h-1v-5h1zm-6 1h1v3h-1zm-302 4h1v13h-1zm255 0h1v1h-1zm47 5h1v1h-1zm-223 3h1v1h1v1h1v1h1v1h-1v-1h-1v-1h-1v-1h-1v1h-1v-1h1zm228 0h1v3h1v2h-1v-1h-1zM7 132h1v5H7zm45 1h1v4h-1zm36 0h1v1h-1zm173 5h3v1h2v1h-9v-1h4zm53 0h1v5h-1zm-214 1h1v1h1v1h1v1h1v1h1v1h1v1h1v1h1v1h1v1h1v1h1v1h1v1h1v1h1v1h-1v-1h-1v-1h-1v-1h-1v-1h-1v-1h-1v-1h-1v-1h-1v-1h-1v-1h-1v1h-1v-1h1v-1h-1v1h-1v2h-2v1h1v1h1v1h-1v-1h-1v-1h-1v-1h1v-1h1v-1h1v-1h1v-1h-1v-1h-1v-1h-1zm183 1h1v1h-1zm37 1h1v1h-1v2h1v6h-1v8h1v1h-1v1h-1v-10h1v-6h-1v-2h1zm-223 3h1v1h1v1h-1v-1h-1zm165 0h14v1h-14zm21 0h1v7h-1zm-271 1h1v7h-1zm242 0h1v1h-1zm60 0h1v5h-1zM7 148h1v4H7zm270 0h1v5h-1zm-170 6h1v1h1v1h-1v-1h-1zm6 0h1v1h1v-1h1v1h1v1h1v1h1v1h1v1h-1v-1h-1v-1h-1v-1h-1v1h-1v-1h-1v-1h-1zm147 0h1v5h-1zm17 0h1v5h-1zm-166 2h1v1h1v1h-1v1h-1v-1h1v-1h-1v1h-1v-1h1zm172 0h1v4h-1zm-170 5h1v1h-1zm201 0h1v2h-1zm-302 1h1v7h-1zm307 1h1v1h1v1h-1v3h1v1h-1v-1h-1v-3h1v-1h-1zm-203 1h1v1h-1zm8 1h1v1h-1zm-9 1h1v1h-1v1h-1v1h-1v-2h2zm160 1h6v1h-6zm44 3h1v4h1v2h-1v-1h-1zm-262 1h1v10h-1zm-45 1h1v4h-1zm97 0h1v1h-1zm-57 1h1v9h-1zm214 2h1v1h-1zm-152 1h1v1h-1zm200 1h1v5h-1zm-211 1h1v1h-1zm-3 3h1v1h-1zm166 0h1v2h-1zm54 3h1v4h-1v-1h-1v-2h1zm-224 1h1v1h-1v1h-1v-1h1zm-4 4h1v1h-1zm222 0h1v2h-1zm6 1h1v3h-1v1h1v1h-1v10h-1v-13h1zm-163 3h13v1h-13zm26 0h1v1h-1zm-171 1h1v2h-1zm45 0h1v3h-1zm38 1h1v1h-1zm45 0h1v4h7v1h-7v-1h-1zM7 197h1v4H7zm259 0h1v1h-1zm-116 2h6v1h-6zm12 0h6v1h-6zm16 0h4v1h-4zm74 2h12v1h-12zm20 0h1v2h-1zm42 5h1v1h-1zm-75 1h14v1h-14zm26 0h4v1h-4zm54 0h1v3h-1zm-85 2h1v1h-1v1h-1v-1h1zm80 0h1v10h-1zm-93 4h1v1h-1zm-2 1h1v1h-1v1h-1v-1h1zm10 0h1v1h-1v1h-1v-1h1zm90 1h1v2h-1zm-307 1h1v7h-1zm308 2h1v1h-1v4h-1v-4h1zm-110 5h1v1h-1v1h-1v4h-1v-4h1v-1h1zm42 0h1v1h-1zm62 0h1v5h-1zm-257 1h1v1h-1zm162 0h1v1h-1zm-167 1h1v4h-1zm198 0h1v1h-1zm-193 1h1v2h-1zm262 2h1v2h1v5h-1v3h1v2h-1v-1h-1v-6h1v-2h-1zm-105 1h1v1h-1zm53 0h4v1h-4zm11 1h1v1h-1zm-23 1h1v1h-1zm-243 2h1v5h-1zm227 2h1v1h8v1h-10v-1h1zm39 0h1v15h-1zM7 236h1v4H7zm201 0h1v14h-1zm65 1h1v5h-1zm-59 1h1v3h-1v2h1v2h-1v-1h-1v-5h1zm21 0h1v1h-1zm7 3h1v1h-1zm77 0h1v3h1v2h-1v26h1v3h-1v1h1v2h-1v5h-1v-8h1v-2h-1zm-267 5h1v3h-1zm203 0h2v1h-2zm3 0h11v1h-11zm-22 1h1v11h-1zm14 0h1v1h-1zm-238 2h1v6h-1zm199 1h1v4h1v-4h1v6h-1v-1h-2v-3h-1v-1h1zm50 2h1v1h-1zm10 0h3v1h-3zm-63 1h1v13h-1zm6 5h1v3h-1zm22 1h1v6h-1zm-184 4h1v6h-1zm6 0h2v1h-2zm12 0h19v1H70zm29 0h28v1h1v5h-1v-5H99zm115 3h1v1h-1zm-160 3h2v1h-2zm15 0h3v1h-3zm14 0h1v1h-1zm8 0h1v1h-1zm117 1h1v4h-1zm6 0h1v1h-1zm-202 1h1v16h-1zm119 0h2v1h-2zm79 1h1v2h1v1h-2zm-105 1h1v2h-1zm108 1h1v7h-2v1h1v1h-1v1h-1v-1h1v-1h-1v-1h1v-1h1zm-88 2h2v1h-2zm111 0h1v10h-1zm-131 1h1v3h-1zm23 0h1v1h1v2h2v1h1v2h1v1h2v1h-2v1h-1v-1h-2v-1h-1v4h-1v-9h-1zm80 1h1v1h-1v1h-1v-1h1zm2 0h2v1h-2zM7 282h1v2H7zm126 1h-1v1h1zm11 1h12v1h-12zm26 0h1v1h-1zm2 0h7v1h-7zm27 0h2v1h-2zm-94 1h1v1h-1zm214 2h1v6h-1zm-307 2h1v10h-1zm-5 1h1v2H7zm98 0h1v2h-1zm90 0h9v1h-9zm-30 1h6v1h-6zm-54 2h1v1h4v1h-5zm8 1h8v1h-8zm15 0h1v3h-1zm180 1h1v5h-1zm-209 1h1v1h-1zm-98 1h1v2H7zm126 2h1v1h-1zm-2 1h1v1h-1zm182 5h1v1h-1v1h-1v-1h1zm-4 4h1v1h-1zm-2 1h1v1h-1zm8 2h1v1h-1v1h-1v-1h1zm-296 1h1v1h1v1h1v1h1v1h-1v-1h-1v1h-1v-1h1v-1h-1v1h-1v-1h1v-1h-1zm-6 2h1v1h-1zm3 3h1v1h1v1h-1v-1h-1zm8 0h1v1h1v1h1v1h1v1h-1v-1h-1v-1h-1v-1h-1zm275 0h1v1h-1zm-5 5h1v1h-1zm-264 1h1v1h-1zm7 5h1v1h-1zm2 0h2v1h-2zm14 0h26v1H53zm44 0h4v1h-4zm20 0h43v1h-43zm51 0h32v1h-32zm53 0h12v1h-12zm40 0h21v1h-21zm-115 5h5v1h-5z"/><path fill="#40d060" fill-rule="evenodd" d="M97 9h1v1h-1zm105 0h1v1h-1zm74 0h1v1h-1zm19 1h1v3h-1zm3 4h1v1h-1zm1 3h3v2h1v1h2v1h1v1h1v1h-1v-1h-1v1h-5v-1h1v-1h2v-1h-3v-1h-4v-1h3zM18 27h3v2h-2v1h-4v-2h1v1h1v-1h1zm296 6h4v1h1v3h-5v-1h-1v-1h-1v-1h2zM9 34h1v1H9zm306 12h4v1h-1v1h-1v1h-2zM9 51h1v1h2v1H9zm129 8h3v1h-3zm-85 1h1v2h1v1h1v2h-1v1h-1v1h-1zM9 67h3v7h1v1h-1v6H9v-1H8v-1h1v-3h1v-1H9v-4H8v-3h1zm168 11h1v1h1v2h-3v-1h1zM53 79h1v1h2v-1h1v2h-2v2h-1v1h-1zm182 2h10v1h2v2h-9v-1h-3zm34 0h1v2h-2v-1h1zm2 7h1v3h-1v-1h-1v-1h1zm-79 5h1v1h-1zM8 98h4v1h-2v1H8zm0 6h1v1H8zm48 10h1v12h-2v1h-1v1h-1v-9h1v1h1v-5h1zm-45 24h1v5h-2v1H9v-2H8v-2h1v-1h2zm81 0h1v1h-1zm-36 1h1v3h-1v2h1v4h-3v1h-1v-1h1v-6h-1v-2h3zm220 1h7v1h-1v3h1v1h-3v-1h-2v-2h1v-1h-3zm-20 2h2v3h-2v-1h-1v-1h1zm-204 2h1v3h-1zm230 6h1v2h-1v3h-1v-4h1zm-177 1h1v1h-1zm-94 2h1v3h-1v1h1v3h-1v-1h-1v3H8v-7h1v-1h2zm245 2h1v2h-1zm-203 2h1v1h3v1h-1v5h1v2h-2v1h-1v4h-1v-6h1v-2h1v-2h-1v-2h-1zm-1 3h1v4h-1zm68 0h1v2h2v1h-3v1h-1v-1h-2v-1h1v-1h2zm158 0h1v1h-1zm-6 1h2v1h2v-1h1v2h-4v-1h-1zm3 3h2v1h2v1h-3v-1h-1zm-166 9h1v1h2v2h-1v1h-1v1h-1v-1h-1v-1h-1v1h-1v-1h1v-1h1v-1h1zm158 3h3v6h-3zm4 0h1v1h-1zm45 3h2v2h-1v1h-1zm-306 2h2v7h-1v1h-1v4H8v-10h1v-1h1zm46 2h1v9h-2v1h-1v1h-1v-9h2v-1h1zm260 4h1v2h1v1h-1v1h-1v-1h-1v-2h1zm-224 3h1v1h1v1h1v1h-1v1h1v1h-1v1h-1v-1h-1v-3h-1v1h-1v-1h1v-1h1zm50 4h11v1h-8v1h1v1h-2v-1h-1v1h-1v-1h-1v-1h1zm34 0h6v3h-6zm91 5h3v1h1v-1h1v5h-4v-1h-5v-1h3v-1h1zM9 203h1v1h2v3H9zm222 1h1v1h2v2h1v1h-1v1h-1v1h-1v1h-3v-1h-3v1h-1v-1h1v-1h1v-1h1v-1h1v-1h1v-1h1zM9 210h1v2h1v-1h1v2h-1v1h-1v3H8v-5h1zm44 0h2v1h2v8h-2v2h-1v1h-1v-4h1v-1h-1zm162 10h1v1h1v-1h2v4h-1v-1h-1v1h-5v-1h1v-1h1v-1h1zm48 4h3v1h-3zm5 0h1v1h-1zm2 0h3v1h1v2h3v-1h1v7h-1v2h1v2h-1v-2h-2v1h-1v-5h1v1h1v-1h1v-3h-4v-1h-1v-1h-1v-1h-1zM9 225h1v1h2v5h-2v1H8v-5h1zm242 3h2v1h1v3h-2v-1h-1zm-42 1h1v1h1v2h2v2h-2v1h-1v1h-1zm-153 2h1v4h-2v-1h-1v6h-1v-8h1v1h1v-1h1zm-45 10h1v6h-2v3H8v-6h1v-1h1v-1h1zm222 0h1v2h2v-1h2v3h-2v-1h-2v-1h-1v1h-1v-2h1zm-1 12h1v1h3v1h-1v6h1v1h-4v-1h-1v-4h1v3h1v-5h-2v-1h1zm-176 1h1v2h-1zm-3 2h1v1h1v3h-1v1h-1zm3 1h1v1h-1zm-45 6h1v7h-2v1H9v-1H8v-4h1v-2h2zm198 3h1v1h1v1h-1v2h-1zm-83 3h1v1h-1zm109 5h1v4h-1v6h1v2h-1v-1h-3v-5h-1v-3h1v-2h1v1h2zm-92 11h13v1h-13zm62 0h2v1h-2zm30 2h1v4h-1zm-126 1h1v1h-1zm124 1h1v1h-1zm83 7h1v4h-1v-1h-1v-2h1zM10 307h3v1h1v1h1v1h1v1h-1v1h-5v-2H9v-2h1zm4 2h-1v1h1v1h1v-1h-1zm290 5h2v1h1v1h1v1h-2v1h-1v1h-2v-1h1v-1h-1v1h-1v1h-2v-1h1v-1h1v-1h1v-1h1zM26 327h1v1h-1zm265 0h3v1h1v1h-1v1h-1v-1h-1v-1h-1zm-47 3h7v1h-7z"/><path fill="#60e080" fill-rule="evenodd" d="M258 13h4v2h-5v-1h1zM46 14h9v1h-9zm-11 2h1v1h-1v1h-1v1h-1v1h-1v1h-1v1h-1v-1h1v-1h1v-1h1v-1h1v-1h1zm-7 7h1v1h-1v1h-1v1h-1v1h-1v1h-1v-1h1v-1h1v-1h1v-1h1zm275 3h1v1h-1zm10 1h1v1h1v1h-1v-1h-1zM20 31h1v1h-1v1h-1v1h-1v1h-1v1h-1v1h-1v1h-1v-1h1v-1h1v-1h1v-1h1v-1h1v-1h1zm294 8h1v1h-1zm6 0h1v1h-1zm0 8h1v10h-1zm-6 2h1v11h-1zM63 65h2v1h-2zm15 0h9v1h-9zm29 0h13v1h-13zm14 0h6v1h-6zm8 0h11v1h-11zm23 0h5v1h-5zm168 0h1v14h-1v-4h-1v-4h1zm-6 4h1v21h-1zm-141 1h1v1h1v1h1v1h1v1h1v1h-1v-1h-1v-1h-1v-1h-1v-1h-1zM57 71h1v1h-1zm113 4h1v1h1v1h-1v-1h-1zm7 8h1v1h1v1h-1v-1h-1zm143 0h1v19h-1zm-129 1h3v1h-3zm23 0h24v1h-24zm38 0h11v1h-11zm-61 4h1v1h1v1h-1v-1h-1zm82 3h1v15h-1zm41 1h1v6h-1zM60 94h5v1h-5zm15 0h118v1H75zm239 5h1v19h-1zm6 7h1v2h-1zm-47 5h1v3h-1zm41 10h1v6h-1zm6 0h1v12h-1zm-53 2h1v1h-1zm5 0h1v1h-1zm42 5h1v10h-1zm-227 6h1v1h-1zm168 5h1v1h-1v1h-1v-1h1zm-162 2h1v1h-1zm227 1h1v2h-1zm-6 1h1v2h-1zm-60 3h1v6h-1zm6 0h1v4h-1zm54 4h1v11h-1zm6 0h1v8h-1zm-215 3h1v1h-1zm155 0h1v1h-1zm-151 3h1v1h-1zm145 2h1v9h10v1h-10v-1h-1zm6 1h1v2h-1zm-148 1h1v1h-1zm202 3h1v14h-1zm6 2h1v3h-1zm-196 1h1v1h-1v1h-1v1h-1v-1h1v-1h1zm150 1h1v1h-1zm8 0h1v1h-1zm-170 2h1v1h-1v1h-1v1h-1v-1h1v-1h1zm154 0h1v6h-1zm6 0h1v1h-1zm-152 1h1v1h-1v1h-1v1h-1v1h-1v-1h1v-1h1v-1h1zm200 0h1v4h-1zm-48 1h1v12h-1zm-159 6h1v1h-1v1h-1v1h-1v-1h1v-1h1zm-11 2h1v1h-1v1h-1v-1h1zm7 2h1v1h-1zm205 1h1v7h-1zm-48 1h1v14h-1zm-169 1h1v1h-1zm-3 3h1v1h-1v1h-1v-1h1zm9 0h1v1h-1v1h-1v1h-1v1h-1v1h-1v1h-1v1h-1v1h-1v-1h1v-1h1v-1h1v-1h1v-1h1v-1h1v-1h1zm211 4h1v15h-1zm6 2h1v1h-1zm-180 1h1v1h-1zm-48 4h1v1h-1v1h-1v-1h1zm64 1h6v1h-6zm27 0h1v1h-1zm89 0h1v2h-1zm-30 2h10v1h-10zm-10 1h1v1h-1v1h-1v-1h1zm40 1h1v1h-1zm-1 2h1v1h-1v1h-1v1h-1v-1h1v-1h1zm43 2h1v2h-1zm-82 4h1v1h-1v1h-1v1h-1v-1h1v-1h1zm-5 5h1v1h-1v1h-1v1h-1v1h-1v1h-1v-1h1v-1h1v-1h1v-1h1zm87 3h1v4h-1zm6 0h1v1h-1zm-69 5h1v1h-1zm27 0h1v1h-1zm-60 1h1v1h-1v1h-1v-1h1zm-3 3h1v1h-1zm99 0h1v67h-1zm-57 1h10v1h-10zm-2 3h1v14h-1zm65 3h1v3h-1zm-83 1h1v1h-1v1h-1v-1h1zm83 4h1v4h-1zm-106 1h1v2h-1zm16 2h1v1h-1zm0 2h1v5h-1zm-16 3h1v10h-1zm-6 2h1v3h-1zm42 1h1v1h1v1h-2zm28 0h1v1h-1zm-16 1h9v1h-9zm58 2h1v1h-1zm0 3h1v15h-1zm-260 6h1v1h-1zm6 0h4v1h-4zm23 0h10v1H89zm-36 6h1v1h-1zm3 0h13v1H56zm28 0h7v1h-7zm130 2h1v10h-1v2h-1v1h-1v1h-1v-1h1v-1h1v-2h1zm-80 2h1v11h-1zm74 1h1v4h-1v1h-1v-1h1zm-103 1h1v2h-1zm215 0h1v1h-1zm-209 3h1v3h-1zm209 0h1v13h-1v-4h-1v-4h1zm-192 1h1v11h-1zm77 1h1v1h-1v1h-1v1h-1v-1h1v-1h1zm-69 4h2v1h-2zm5 0h3v1h-3zm15 0h14v1h-14zm15 0h1v1h-1zm8 0h6v1h-6zm14 0h6v1h-6zm-82 2h1v5h-1zm98 0h1v1h-1zm-4 4h1v1h-1zM7 292h1v5H7zm98 0h1v4h-1zm29 1h1v1h-1zm-18 1h3v1h-3zm-11 3h1v2h1v1h24v1h-24v-1h-1v-1h-1zm29 0h1v2h-1zm-2 3h1v1h-1zm182 0h1v5h-1zm-4 8h1v1h-1zm-299 6h1v1h1v1h2v1h1v2h-1v-2h-2v-1h-1v-1h-1zm291 1h1v1h-1v1h-1v1h-1v-1h1v-1h1zm-279 2h1v1h-1zm273 4h1v1h-1v1h-1v-1h1zm-276 2h1v1h1v1h-1v-1h-1zm273 0h1v1h-1zm7 3h1v1h-1v1h-1v-1h1zm-272 5h1v1h1v1h-1v-1h-1zm263 3h1v1h-1zm-259 1h1v1h-1z"/><path fill="#50e070" fill-rule="evenodd" d="M72 8h2v1h-2zm6 0h1v1h-1zm2 0h13v1H80zm24 0h5v1h-5zm17 0h3v1h-3zm20 0h5v1h-5zm46 0h2v1h-2zm3 0h1v1h-1zm33 0h5v1h-5zm15 0h4v1h-4zm26 0h5v1h-5zm13 0h2v1h-2zm7 0h4v1h-4zm6 0h1v1h-1zM33 9h1v1h-1zm-4 4h1v1h-1zm9 0h1v1h-1zm3 0h1v1h-1zm29 0h3v1h-3zm28 0h5v1h-5zm124 0h6v1h-6zm80 3h1v1h-1zm12 13h1v1h1v1h-1v-1h-1zm3 10h1v1h-1zM7 42h1v2H7zm308 3h1v1h-1v3h-1v-3h1zm2 0h2v1h-2zm2 4h1v1h-1zm-182 9h2v1h-2zm7 0h2v1h-2zm4 0h9v1h-9zm10 0h1v1h-1zm3 0h1v1h1v1h-1v-1h-1zM54 59h2v1h-2zm-2 1h1v1h-1zM7 64h1v3H7zm45 2h1v3h-1zm265 4h1v5h-1zM55 71h1v2h-2v-1h1zm120 2h1v1h1v2h1v1h-1v-1h-2v-1h1v-1h-1zM52 76h1v4h-1zm121 1h2v1h-2zm42 1h1v1h-1zm30 0h5v1h-5zM7 82h1v2H7zm312 0h1v1h-1zM52 83h1v9h-1zm128 2h1v1h-1zm137 0h1v3h-1zm-50 1h1v2h-1zM69 88h4v1h-4zm9 0h26v1H78zm37 0h14v1h-14zm26 0h5v1h-5zm11 0h4v1h-4zm16 0h3v1h-3zM7 89h1v31H7zm182 0h1v2h-1zm83 0h1v5h-1zm-81 1h1v1h-1zM12 92h1v3h-1zm181 0h1v1h-1zm124 1h1v2h-1zm2 6h1v3h-1zm-307 1h1v1h-1zm0 3h1v2h-1zm307 1h1v17h-1zm-307 2h1v6h-1zm40 1h1v3h-1zm5 1h1v3h-1zm-5 3h1v7h-1zm267 15h1v4h-1zM7 131h1v1H7zm45 0h1v2h-1zm267 3h1v3h-1zM7 137h1v5H7zm45 0h1v3h-1zm204 1h2v1h-1v1h-1zm4 0h1v1h-1zm19 1h2v1h-2zm3 0h1v1h-1zm-188 2h1v1h-1zm160 0h1v4h-1zm29 0h1v3h-1zm36 0h1v1h-1zM7 143h1v5H7zm312 1h1v1h-1zm-218 2h1v1h-1zm218 3h1v1h-1zm-267 2h1v5h-1zm231 0h1v5h-1zM7 152h1v2H7zm5 0h1v1h-1zm305 0h1v5h-1zm-63 1h1v5h-1zm23 0h1v1h-1zm0 6h1v1h-1zm42 1h1v3h-1zm-57 2h1v1h-1zM7 163h1v23H7zm117 0h1v1h1v1h-1v-1h-1zm195 1h1v1h-1zm0 4h1v1h1v1h-2zm-262 1h1v2h-1zm-5 1h1v3h-1zm-40 1h1v1h-1zm305 1h1v2h-1zm2 3h1v1h-1zm-307 1h1v1h-1zm93 0h1v1h-1v1h-1v-1h1zm161 0h1v5h-1zm-214 6h1v3h-1zm47 0h1v1h-1v1h-1v-1h1zm220 1h1v2h-1zm0 4h1v5h-1zm-307 5h1v2h-1zm129 1h16v1h-16zm29 0h4v1h-4zm147 0h1v1h-1zM7 195h1v2H7zm45 0h1v4h-1zm214 3h1v2h-1zm-118 1h2v1h-2zm20 0h10v1h-10zM7 201h1v3H7zm45 0h1v7h-1zm212 0h1v1h-1zm-34 3h1v1h-1zm41 0h1v1h-1zm48 1h1v2h-1zm-83 2h3v1h-3zm17 0h12v1h-12zM7 208h1v5H7zm219 0h1v1h-1v1h-1v1h-1v1h-1v1h-1v-1h1v-1h1v-1h1v-1h1zm-6 6h1v1h-1v1h-1v1h-1v1h-1v-1h1v-1h1v-1h1zM7 216h1v15H7zm312 1h1v2h-1zm-262 3h1v2h-1zm154 2h2v1h-1v1h-1v1h-1v1h-1v-1h1v-1h1zm-199 1h1v1h-1zm307 0h1v5h-1zm-267 1h1v1h-1zm200 0h5v1h-5zm25 0h1v1h-1zm-220 1h1v1h-1zm193 1h1v2h-1zm-193 2h1v1h-1zm-5 1h1v2h-1zm156 0h1v7h-1zm63 0h1v1h-1zm-57 1h1v1h-1zm105 1h1v2h-1zM7 232h1v4H7zm5 0h1v1h-1zm305 1h1v4h-1zm2 6h1v2h-1zm-76 2h1v1h-1zm-191 1h1v3h-1zm221 0h1v1h-1zm-23 4h1v1h-1zm-238 2h1v1h-1zm238 0h1v2h-1zm-198 1h1v7h-1zm178 1h1v2h-1zM7 254h1v11H7zm204 1h1v1h-1zm-159 6h1v2h-1zm178 1h1v13h-1zm87 2h1v5h-1zm-109 2h1v4h-1zm-81 3h1v1h-1zm107 0h1v1h-1zM7 270h1v12H7zm122 1h2v1h-2zm84 1h1v2h-1zm106 1h1v2h-1zm-192 3h1v1h-1zm2 1h1v1h-1zm188 2h1v12h-1v-3h-1v-8h1zm-212 1h1v3h1v2h-2zm125 3h1v6h-1zM7 284h1v6H7zm5 3h1v2h-1zm93 2h1v1h-1zm57 1h9v1h-9zm68 0h1v1h3v-1h1v1h1v1h-5v-1h-1zM8 292h1v2H8zm2 0h1v1h-1zm96 0h2v1h-2zm4 1h1v2h-3v-1h2zm209 0h1v1h-1zm-309 1h1v1h-1zm-3 5h1v1H7zm102 0h3v1h-3zm195 14h1v1h-1v1h-1v-1h1zm-6 6h1v1h-1v1h-1v-1h1zm-5 5h1v1h-1zm-255 5h1v1h-1zm3 0h12v1H41zm38 0h6v1h-6zm12 0h6v1h-6zm10 0h16v1h-16zm59 0h2v1h-2zm7 0h1v1h-1zm33 0h2v1h-2zm18 0h3v1h-3zm15 0h6v1h-6zm24 0h4v1h-4z"/><path fill="#50c060" fill-rule="evenodd" d="M86 7h5v1h-5zm23 0h3v1h-3zm9 0h3v1h-3zm19 0h18v1h-18zm21 0h66v1h-66zm85 0h17v1h-17zM51 9h1v1h-1zm233 0h6v1h-6zm10 0h1v1h-1zM23 20h1v1h-1zm-3 1h1v1h-1zm-2 4h1v1h-1zm-2 2h1v1h-1zm5 1h2v1h-1v1h-1zm119 36h12v1h-12zM13 68h1v7h-1zm0 8h1v1h-1zm45 0h1v8h-1zm123 1h1v1h-1zm16 0h24v1h-24zm48 0h17v1h-17zm27 0h1v1h-1zm-6 9h1v1h-1zM62 87h2v1h-2zm9 0h7v1h-7zm13 0h19v1H84zm73 0h11v1h-11zm109 1h1v9h-1zm-73 1h1v1h-1zm75 1h1v5h-1zm-74 2h1v1h-1zm72 18h1v3h-1zm-208 2h1v15h-1zm208 5h1v3h-1zm2 0h1v3h-1zm-217 3h1v8h-1zm40 9h1v1h-1zm-33 9h1v11h-1zm-45 1h1v2h-1zm38 4h1v6h-1zm213 0h11v1h-11zm12 0h1v1h-1zm-15 2h1v1h-1zm-151 3h1v1h1v1h-1v-1h-1zm-97 5h1v4h-1zm246 1h1v6h-1zm23 1h1v5h-1zm-224 2h1v3h-1zm61 0h1v1h1v1h1v1h-1v-1h-1v-1h-1zm-106 1h1v2h-1zm38 0h1v9h-1zm216 3h3v1h-3zm-152 2h1v1h-1zm8 0h1v1h-1zm148 0h1v1h-1zm-213 2h1v5h-1zm57 0h1v1h-1zm141 1h1v1h-1zm20 0h4v1h-4zm-12 2h1v1h-1zm9 0h2v1h-2zm-8 2h1v2h-1zm-151 5h1v1h-1v1h-1v-1h1zm-3 3h1v1h-1zm-53 3h1v11h-1zm-45 1h1v5h-1zm38 6h1v3h-1zm39 2h1v1h-1v1h-1v1h-1v-1h1v-1h1zm4 5h1v1h-1v1h-1v1h-1v-1h1v-1h1zm88 2h1v2h-1zm-40 3h12v1h-12zm21 0h19v1h-19zm20 0h1v1h-1zm-125 3h1v8h-1zm-45 1h1v3h-1zm215 1h1v1h-1v1h-1v1h-1v-1h1v-1h1zm10 3h30v1h-30zm-225 2h1v6h-1zm45 4h1v4h-1zm-7 2h1v2h-1zm177 0h1v1h-1v1h-1v1h-1v1h-1v-1h1v-1h1v-1h1zm-7 5h1v1h-1v1h-1v-1h1zm45 4h2v1h-2zm-59 1h1v1h-1zm-194 1h1v4h-1zm246 3h2v1h-2zm9 0h4v1h1v4h-1v-4h-4zm11 0h1v2h-1zm-72 4h1v4h-1zm30 1h1v1h-1zm17 0h1v1h-1zm-203 2h1v3h-1zm228 0h1v1h-1zm-266 2h1v7h-1zm221 1h1v1h-1zm-4 2h1v1h-1zm8 3h1v1h-1v1h-1v-1h1zm18 0h1v1h-1zm-198 4h1v4h-1zm218 4h2v1h-2zm-218 1h1v4h-1zm-45 4h1v11h-1zm60 6h3v1h-3zm4 0h1v1h-1zm22 0h18v1H99zm27 0h1v1h-1zm-72 6h5v1h-5zm15 0h2v1h-2zm12 0h3v1h-3zm10 0h11v1H91zm13 0h1v1h-1zm-91 8h1v2h-1zm190 3h1v1h-1zm-91 12h1v1h-1zm15 0h1v1h-1zm191 4h1v2h-1zm-5 7h1v1h-1zm-299 3h1v1h-1zm304 0h1v2h-1zM8 309h1v1H8zm302 7h1v1h-1v1h-1v-1h1zm-12 2h1v1h-1v1h-1v-1h1zM35 328h1v1h-1zm241 0h2v1h-2zm18 2h1v1h-1z"/><path fill="#50b060" fill-rule="evenodd" d="M55 7h16v1H55zm22 0h9v1h-9zm14 0h18v1H91zm30 0h6v1h-6zm11 0h5v1h-5zm23 0h3v1h-3zm105 0h17v1h-17zm35 12h1v1h1v1h1v1h-1v-1h-1v-1h-1zM180 76h1v1h-1zM58 160h1v1h-1zm201 8h5v1h-5zm16 0h5v1h-5zm-10 4h1v1h-1zm0 12h1v4h-1zm-178 9h1v1h-1v1h-1v-1h1zm52 6h1v1h-1zm94 12h1v1h-1v1h-1v-1h1zm-9 9h1v1h-1v1h-1v1h-1v1h-1v1h-1v1h-1v1h-1v1h-1v1h-1v-1h1v-1h1v-1h1v-1h1v-1h1v-1h1v-1h1v-1h1zm-17 7h1v7h-1zm29 9h1v1h-1v1h-1v1h-1v1h-1v1h-1v1h-1v-1h1v-1h1v-1h1v-1h1v-1h1zm43 0h1v1h-1zm0 15h1v1h-1zM71 270h10v1H71zm32 0h1v1h-1zm27 0h1v1h-1zm-18 7h1v1h-1zm13 0h2v1h-2zm80 2h1v1h-1v1h-1v-1h1zm-3 3h1v1h-1zm-86 11h1v1h-1zm4 0h7v1h-7zm-90 30h1v1h1v1h1v1h1v1h1v1h-1v-1h-1v-1h-1v-1h-1v-1h-1zm271 3h1v1h-1zm-263 2h125v1H38zm132 0h106v1H170zm108 0h8v1h-8zm9 0h1v1h-1zm-257 6h1v1h-1z"/><path fill="#40a050" fill-rule="evenodd" d="M34 7h7v1h-7zm11 0h1v1h-1zm3 0h6v1h-6zm231 0h15v1h-15zm34 31h1v1h-1zm0 12h1v1h-1zm0 9h1v14h-1zM191 85h2v1h-2zm72 0h1v1h-1zm50 3h1v34h-1zM6 93h1v9H6zm0 11h1v1H6zm0 5h1v11H6zm307 17h1v4h-1zm0 8h1v18h-1zM6 144h1v12H6zm256 1h1v1h-1zm51 9h1v18h-1zM6 164h1v11H6zm109 0h1v1h-1zm198 12h1v17h-1zm-48 1h1v1h-1zM6 179h1v9H6zm133 15h1v1h-1zm174 4h1v4h-1zm0 6h1v20h-1zm-78 5h1v1h-1zM6 217h1v13H6zm307 9h1v4h-1zm-76 22h1v6h-1zm76 13h1v1h-1zm-254 1h1v1h-1zm254 3h1v3h-1zM6 272h1v12H6zm307 0h1v8h-1zm-209 5h1v14h-1zm9 0h1v1h-1zm2 0h9v1h-9zm91 1h1v1h-1zM6 289h1v7H6zm107 4h1v1h-1zm200 1h1v1h-1zm0 6h1v1h-1zm-1 16h1v1h-1zm-12 11h1v1h-1z"/><path fill="#50e060" fill-rule="evenodd" d="M74 8h4v1h-4zm5 0h1v1h-1zm14 0h11v1H93zm31 0h17v1h-17zm22 0h13v1h-13zm15 0h3v1h-3zm17 0h6v1h-6zm8 0h1v1h-1zm3 0h1v1h-1zm2 0h32v1h-32zm51 0h22v1h-22zm37 0h5v1h-5zm37 37h1v1h-1zM139 58h5v1h-5zm18 0h1v1h-1zM53 59h1v1h-1zm-1 2h1v1h-1zm192 17h1v1h-1zM73 88h5v1h-5zm31 0h11v1h-11zm25 0h12v1h-12zm27 0h1v1h-1zm11 0h1v1h-1zM12 95h1v5h-1zm0 10h1v1h-1zm0 7h1v3h-1zm0 6h1v4h-1zm0 18h1v2h-1zm246 2h1v1h-1zm-246 3h1v3h-1zm0 18h1v3h-1zm108 0h1v1h-1zm-68 8h1v3h-1zm-40 2h1v2h-1zm0 8h1v4h-1zm40 8h1v3h-1zm-40 3h1v4h-1zm40 5h1v2h-1zm122 0h8v1h-8zm-33 4h1v1h-1zM12 212h1v3h-1zm40 6h1v3h-1zm0 4h1v2h-1zm-40 2h1v8h-1zm245 0h1v1h-1zm-205 7h1v4h-1zm-40 7h1v5h-1zm0 9h1v1h-1zm40 13h1v1h-1zm-40 8h1v2h-1zm305 9h1v2h-1zm-83 11h1v1h-1zM85 329h6v1h-6zm77 0h5v1h-5zm40 0h16v1h-16zm37 0h18v1h-18zm-95 2h5v1h-5z"/><path fill="#206030" fill-rule="evenodd" d="M50 15h2v1h-2zm240 0h1v1h-1zm9 9h1v1h1v1h-1v-1h-1zm17 5h1v1h1v1h-1v-1h-1zm5 9h1v2h-1zm-7 6h2v1h-2zm4 0h2v1h-2zM51 58h1v1h-1zm9 8h4v1h-4zm24 0h1v1h-1zm2 0h19v1H86zm24 0h47v1h-47zm48 0h1v1h-1zM60 95h2v1h-2zm88 0h29v1h-29zm33 0h12v1h-12zm-91 34h1v1h-1v1h-1v1h-1v-1h1v-1h1zm2 0h1v1h1v1h-1v-1h-1zm3 3h1v1h1v1h1v1h-1v-1h-1v-1h-1zm161 5h1v1h-1zm5 0h19v1h-19zm20 0h1v1h-1zm-178 3h1v1h1v1h1v1h1v1h1v1h-1v-1h-1v-1h-1v-1h-1v-1h-1zm158 7h1v1h-1zm-147 18h1v1h-1zm-3 3h1v1h-1v1h-1v-1h1zm-3 3h1v1h-1v1h-1v1h-1v1h-1v1h-1v-1h1v-1h1v-1h1v-1h1zm-11 11h1v1h-1v1h-1v-1h1zm42 10h1v1h-1zm43 0h1v1h-1zm49 9h1v1h-1v1h-1v-1h1zm-9 9h1v1h-1v1h-1v-1h1zm-7 7h1v1h-1v1h-1v1h-1v1h-1v1h-1v-1h1v-1h1v-1h1v-1h1zm33 12h1v3h-1zm23 9h1v6h-1zm-27 5h1v1h-1zm4 3h1v2h-1zm0 3h1v1h-1zm-33 2h1v3h-1zM51 270h1v1h-1zm61 8h1v14h-1zm102 4h1v1h-1zm-73 1h9v1h-9zm23 0h16v1h-16zm48 1h1v1h-1v1h-1v-1h1zm-3 3h1v1h-1v1h-1v1h-1v-1h1v-1h1zm-74 6h1v1h-1zm174 14h1v1h-1zm10 3h1v1h-1v1h-1v-1h1zm-24 10h1v1h-1v1h-1v-1h1zm10 3h1v1h-1v1h-1v-1h1zm-10 9h1v1h-1v1h-1v-1h1z"/><path fill="#308040" fill-rule="evenodd" d="M298 11h1v1h-1zm4 4h1v1h1v1h1v1h-1v-1h-1v-1h-1zM35 17h1v1h-1v1h-1v-1h1zm-5 5h1v1h-1v1h-1v-1h1zm281 2h1v1h1v1h1v1h1v1h-1v-1h-1v-1h-1v-1h-1zM24 28h1v1h-1v1h-1v1h-1v-1h1v-1h1zm296 5h1v1h-1zM6 38h1v11H6zm0 13h1v5H6zm0 19h1v9H6zm169 12h1v1h1v1h-1v-1h-1zm25 3h25v1h-25zm40 0h17v1h-17zM86 135h1v1h1v1h-1v-1h-1zm4 4h1v1h-1zm163 1h1v5h-1zm-161 1h1v1h-1zm192 2h1v3h-1zm-185 5h1v1h-1zm177 0h1v3h-1zm-15 2h1v2h-1zm23 0h1v4h-1zm-8 3h1v5h-1zm8 3h1v6h-1zm-160 11h1v1h-1v1h-1v-1h1zm131 1h1v1h-1zm-138 6h1v1h-1v1h-1v1h-1v-1h1v-1h1zm156 2h1v24h-1zm-164 6h1v1h-1v1h-1v1h-1v1h-1v1h-1v1h-1v-1h1v-1h1v-1h1v-1h1v-1h1zm-21 16h1v1h-1zm147 2h20v1h-20zm29 0h1v1h-1zm15 24h1v1h-1zm-72 1h1v1h-1zm41 9h1v1h-1zm-19 9h1v12h-1zm42 2h1v1h-1zM68 262h6v1h-6zm7 0h1v1h-1zm12 0h15v1H87zm142 1h1v1h-1zm0 5h1v8h-1zm0 15h1v6h-1zm8 8h1v1h-1zm-102 1h1v1h-1zM6 301h1v1H6zm0 7h1v1H6zm298 4h1v1h-1v1h-1v-1h1zm6 6h1v1h-1v1h-1v-1h1zm-19 6h1v1h-1v1h-1v1h-1v-1h1v-1h1zm-269 2h1v1h-1zm276 3h1v1h-1v1h-1v-1h1z"/><path fill="#409050" fill-rule="evenodd" d="M295 8h1v1h-1zM20 32h1v1h-1v1h-1v1h-1v1h-1v1h-1v-1h1v-1h1v-1h1v-1h1zm293 13h1v5h-1zM6 57h1v11H6zm153 9h1v1h1v1h1v1h1v1h1v1h-1v-1h-1v-1h-1v-1h-1v-1h-1zm7 7h1v1h1v1h1v1h1v1h1v1h-1v-1h-1v-1h-1v-1h-1v-1h-1zM6 81h1v12H6zm187 4h4v1h-4zm67 0h3v1h-3zm4 0h1v1h-1zm-70 5h1v1h-1zM6 102h1v2H6zm0 3h1v4H6zm0 15h1v24H6zm257 25h12v1h-12zm-10 5h1v2h-1zM6 156h1v8H6zm102 1h1v1h1v1h-1v-1h-1zm145 2h1v5h-1zm8 1h1v1h-1zM6 175h1v2H6zm0 3h1v1H6zm107 0h1v1h-1v1h-1v-1h1zM6 188h1v16H6zm93 4h1v1h-1v1h-1v1h-1v1h-1v1h-1v-1h1v-1h1v-1h1v-1h1zm-6 6h1v1h-1v1h-1v-1h1zm46 2h1v1h-1zm45 0h1v1h-1zm49 0h1v1h-1zM6 208h1v9H6zm263 0h1v1h-1zm-20 16h1v1h-1zm64 0h1v2h-1zM6 230h1v17H6zm242 13h1v1h-1zm2 10h1v1h-1zM6 259h1v13H6zm126 11h1v1h-1zm2 1h1v1h-1zm-7 8h1v12h-1zM6 284h1v3H6zm0 4h1v1H6zm121 4h1v1h-1zm186 3h1v5h-1zM6 296h1v5H6zm0 7h1v3H6zm5 12h1v1h1v1h-1v-1h-1zm290 0h1v1h-1zm-287 3h1v1h-1zm2 2h1v1h1v1h1v1h1v1h1v1h-1v-1h-1v-1h-1v-1h-1v-1h-1zm9 9h1v1h-1z"/><path fill="#50c070" fill-rule="evenodd" d="M294 18h1v1h-1zM24 19h1v1h-1zm-3 1h1v1h-1zm-2 2h1v1h-1zm279 0h1v1h1v1h-1v-1h-1zM11 30h1v1h-1v1h-1v1H9v1H8v-1h1v-1h1v-1h1zm141 34h1v1h-1zm-94 2h1v1h-1zm0 8h1v2h-1zm-45 3h1v1h-1zm45 7h1v1h-1zm1 3h1v1h-1zm120 0h1v1h-1zm12 0h1v1h-1zm75 0h1v1h-1zm-72 4h1v1h-1zm72 6h1v8h-1zM58 108h1v4h-1zm208 0h1v2h-1zm0 6h1v3h-1zm0 6h1v4h-1zm7 2h1v1h-1zm-215 5h1v1h-1zm-7 1h1v1h-1zm39 2h1v1h-1zm-77 7h1v2h-1zm45 0h1v1h-1zm224 1h1v1h-1zm-28 1h1v1h-1zm-241 4h1v2h-1zm0 6h1v4h-1zm45 0h1v8h-1zm54 1h1v1h-1zm-99 10h1v5h-1zm112 5h1v1h-1zm-112 1h1v2h-1zm244 0h1v1h-1zm8 3h1v1h-1zm-207 1h1v11h-1zm45 7h1v1h-1zm9 0h1v1h-1zm-99 2h1v3h-1zm88 0h1v1h-1zm-88 8h1v3h-1zm78 2h1v1h-1zm93 10h1v1h-1zm-30 1h9v1h-9zm-96 1h1v2h-1zm-45 6h1v3h-1zm255 1h1v1h-1zm-255 8h1v5h-1zm0 10h1v1h-1zm266 0h1v4h-1zm-18 4h7v1h-7zm-248 3h1v1h-1zm45 1h1v1h-1zm-45 1h1v1h-1zm259 0h1v1h-1zm-18 1h1v1h-1zm-241 1h1v2h-1zm194 1h1v2h-1zm72 0h1v13h-1zm-72 6h1v2h-1zm32 0h1v1h-1zm-226 2h1v4h-1zm45 1h1v2h-1zm-45 6h1v5h-1zm240 0h3v1h-3zm4 0h2v1h-2zm18 0h1v1h-1zM96 264h3v1h-3zm111 2h1v5h-1zm-194 3h1v9h-1zm46 1h10v1H59zm25 0h7v1h-7zm-71 10h1v1h-1zm217 11h1v1h-1zM13 305h1v1h-1zm3 4h1v1h1v1h-1v-1h-1zm300 3h1v1h-1zm-9 7h1v1h-1zm-4 5h1v1h-1v1h-1v-1h1zm-7 5h1v1h-1v1h-1v1h-1v-1h1v-1h1z"/><path fill="#205020" fill-rule="evenodd" d="M31 9h1v1h-1v1h-1v1h-1v1h-1v1h-1v-1h1v-1h1v-1h1v-1h1zm8 6h3v1h-3zm19 0h5v1h-5zm53 0h7v1h-7zm37 0h19v1h-19zm101 0h37v1h-37zM23 17h1v1h-1zm-8 8h1v1h-1v1h-1v1h-1v1h-1v1h-1v-1h1v-1h1v-1h1v-1h1zm-8 8h1v1H7zm314 15h1v1h-1zm0 7h1v1h-1zM53 57h1v1h-1zm3 0h4v1h-4zm21 0h3v1h-3zm15 0h3v1h-3zm35 0h2v1h-2zm22 0h6v1h-6zm15 2h1v1h-1zm2 2h1v1h-1zm2 2h1v1h-1zm153 2h1v1h-1zm-147 4h1v1h-1zm100 20h1v1h-1zm47 0h1v1h-1zm-47 4h1v3h-1zm47 0h1v1h-1zm-47 5h1v1h-1zm47 0h1v1h-1zm-47 4h1v2h-1zm47 2h1v2h-1zm-47 1h1v1h-1zm0 4h1v5h-1zm47 16h1v1h-1zm0 5h1v4h-1zm-63 7h1v1h-1zm-5 2h1v1h-1zm-138 13h1v1h1v1h-1v-1h-1zm206 2h1v1h-1zm-59 6h1v1h-1zm3 0h2v1h-2zm6 0h4v1h-4zm12 8h1v1h-1zm38 1h1v1h-1zm-271 5h1v1h-1zm0 2h1v3h-1zm52 1h1v1h-1v1h-1v-1h1zm-4 4h1v1h-1zm-3 3h1v1h-1v1h-1v1h-1v1h-1v-1h1v-1h1v-1h1zm226 7h1v2h-1zm-137 1h1v1h-1zm44 12h1v1h-1zm-3 3h1v1h-1zm-2 2h1v1h-1zM50 224h1v5h-1zm221 9h1v5h-1zm-33 1h2v1h-2zm7 0h1v1h-1zm-30 4h1v4h-1zm0 5h1v5h-1zm56 1h1v1h-1zm-2 1h1v1h-1zm-54 13h1v9h-1zm106 7h1v2h-1zm-106 5h1v2h-1zm-9 4h1v1h-1zm9 0h1v6h-1zm-9 3h1v1h-1zm115 3h1v1h-1zm0 8h1v1h-1zm-186 11h1v1h-1zm186 2h1v3h-1zm-11 5h1v1h-1z"/><path fill="#60d080" fill-rule="evenodd" d="M29 12h1v1h-1zm13 2h4v1h-4zm214 0h1v1h-1zm6 0h3v1h-3zM26 15h1v1h-1zm3 7h1v1h-1zm280 1h1v1h-1zm-8 2h1v1h1v1h1v1h1v1h1v1h1v1h1v1h1v1h1v1h-1v-1h-1v-1h-1v-1h-1v-1h-1v-1h-1v-1h-1v-1h-1v-1h-1zm18 15h1v1h-1zm1 6h1v1h-1zm0 16h1v3h-1zm-160 4h1v1h1v1h1v1h1v1h1v1h1v1h1v1h2v1h1v1h-1v-1h-2v-1h-1v-1h-1v-1h-1v-1h-1v-1h-1v-1h-1v-1h-1zM58 70h1v2h-1zm118 2h1v1h1v1h1v1h-1v-1h-1v-1h-1zm-3 7h1v1h1v1h1v1h1v1h-1v-1h-1v-1h-1v-1h-1zm147 0h1v1h-1zM58 96h1v1h-1zm0 3h1v3h-1zm215 7h1v5h-1zM87 135h1v1h1v1h-1v-1h-1zm3 3h1v1h1v1h1v1h-1v-1h-1v-1h-1zm13 13h1v1h1v1h-1v-1h-1zm7 19h1v1h-1v1h-1v1h-1v-1h1v-1h1zm0 10h1v1h-1zm-16 16h1v1h-1v1h-1v-1h1zm-5 2h1v1h1v1h-1v-1h-1zm51 2h1v1h-1zm91 2h1v1h-1zm-14 14h1v1h-1zm5 5h1v1h-1v1h-1v-1h1zm27 30h1v1h-1zm71 2h1v1h-1zm0 2h1v2h-1zm-186 17h1v1h-1zm76 13h1v1h-1zm-2 2h1v1h-1v1h-1v1h-1v-1h1v-1h1zm-4 3h1v1h-1zm-76 1h1v1h-1zm19 0h2v1h-2zm48 0h5v1h-5zm-182 6h1v1h-1zm92 2h1v1h1v1h-1v-1h-1zm206 8h1v1h-1zm-2 1h1v1h-1zm10 1h1v1h-1zM9 312h1v1h1v1h-1v-1H9zm11 1h1v1h1v1h-1v-1h-1zm293 1h1v1h-1zm-6 6h1v1h-1v1h-1v1h-1v-1h1v-1h1zm-15 4h1v1h-1v1h-1v-1h1zm10 0h1v1h-1v1h-1v-1h1zm-280 1h1v1h1v1h1v1h1v1h1v1h1v1h-1v-1h-1v-1h-1v-1h-1v-1h-1v-1h-1zm276 3h1v1h-1v1h-1v1h-1v-1h1v-1h1zm-9 6h1v1h2v1h-2v-1h-1v1h-1v-1h1zm-256 1h2v1h-2zm10 0h20v1H43zm51 0h5v1h-5zm12 0h5v1h-5zm52 0h2v1h-2zm16 0h1v1h-1zm34 0h2v1h-2zm45 0h2v1h-2zm14 0h8v1h-8z"/><path fill="#207030" fill-rule="evenodd" d="M300 13h1v1h-1zm8 8h1v1h-1zm7 7h1v1h-1zm3 3h1v1h-1zM82 66h2v1h-2zm3 0h1v1h-1zm20 0h5v1h-5zM62 95h2v1h-2zm10 0h41v1H72zm54 0h22v1h-22zm51 0h4v1h-4zm-90 37h1v1h-1v1h-1v-1h1zm197 8h1v3h-1zm-23 15h1v1h-1zm-136 11h1v1h-1zm159 0h1v1h-1zm-175 4h1v1h-1zm64 22h3v1h-3zm8 0h1v1h-1zm39 20h1v1h-1v1h-1v1h-1v-1h1v-1h1zm-10 10h1v1h-1zm61 9h1v1h-1zm7 22h1v1h-1zm-49 6h1v2h-1zm-119 3h6v1h-6zm16 0h1v1h-1zm-22 9h1v1h-1zm31 7h1v5h-1zm2 5h4v1h-4zm13 0h14v1h-14zm30 0h21v1h-21zm-68 9h1v1h-1zm119 0h1v1h-1zm-97 8h1v1h-1zm-4 1h3v1h-3zm178 7h1v1h-1zm-2 14h1v1h-1z"/><path fill="#40a060" fill-rule="evenodd" d="M313 51h1v8h-1zm0 22h1v15h-1zm-48 12h1v1h-1zm48 37h1v4h-1zm0 8h1v4h-1zm0 22h1v2h-1zm-59 15h1v1h-1zm2 1h3v1h-3zm57 4h1v4h-1zm-48 4h1v1h-1zm0 2h1v3h-1zm-126 15h1v1h-1zm45 0h1v4h-1zm129 0h1v5h-1zm-174 2h1v4h-1zm174 7h1v2h-1zm-98 27h1v1h-1zm98 1h1v31h-1zm-57 2h1v10h-1zm-7 20h1v1h-1zm64 10h1v3h-1zm-185 2h1v2h-1zm0 4h1v1h-1zm185 0h1v4h-1zm-209 6h1v3h-1zm10 3h1v1h-1zm199 3h1v14h-1zm-209 11h1v1h-1zm0 6h1v1h-1zm209 4h1v3h-1zm0 14h1v1h-1zm-13 1h1v1h-1zm-285 3h1v1h-1z"/><path fill="#40c060" fill-rule="evenodd" d="M277 9h7v1h-7zm25 8h1v1h1v1h1v1h-2v1h-2v1h-2v-1h-1v-1h-1v-1h3v1h3v-1h-1zM17 26h1v2h-1v1h-1v-1h1zM8 71h1v4h1v1H9v3H8zm235 6h2v1h-2zm25 12h1v1h-1zm15 50h1v1h-1zm-1 2h1v3h-1zm-226 1h1v2h-1zm206 1h2v1h-2zm13 0h1v1h-1zm7 9h1v3h-1zm-269 5h1v1h-1zm40 2h1v1h-1zm3 0h1v2h-1zm66 1h1v1h-1v1h-1v-1h1zm157 0h2v1h1v-1h1v7h-3v-1h-1v-1h-2v-1h-5v-1h5v-2h2zm-9 1h2v1h-2zm4 0h2v1h-2zm-216 3h1v1h-1zm223 4h1v1h-1zm-99 26h1v3h-1zm83 6h1v1h-1zm-29 8h1v1h-1zm-178 3h1v3h-1zm172 3h1v1h-1v1h-1v-1h1zm38 11h3v1h-3zm9 0h1v1h-1zm-20 5h1v1h-1zm22 2h1v1h-1zm-2 1h1v2h-1zM58 253h1v1h-1zm173 2h2v5h-1v-3h-1zm4 0h1v6h-1zm-106 15h1v1h-1zm106 8h1v6h-1zm80 35h1v1h-1z"/><path fill="#307040" fill-rule="evenodd" d="M301 14h1v1h-1zM36 16h1v1h-1zm269 2h1v1h1v1h-1v-1h-1zm4 4h1v1h1v1h-1v-1h-1zm-4 8h1v1h1v1h1v1h1v1h1v1h1v1h1v1h1v1h-1v-1h-1v-1h-1v-1h-1v-1h-1v-1h-1v-1h-1v-1h-1zM6 35h1v1H6zm0 2h1v1H6zm0 12h1v2H6zm61 17h11v1H67zm105 13h1v1h1v1h1v1h-1v-1h-1v-1h-1zm6 6h1v1h-1zM66 95h2v1h-2zm49 0h10v1h-10zm-27 42h1v1h-1zm3 3h1v1h-1zm185 6h1v2h-1zm-15 2h1v2h-1zm-161 1h1v1h-1zm2 2h1v1h1v1h1v1h-1v-1h-1v-1h-1zm174 0h1v2h-1zm-15 1h1v3h-1zm0 6h1v2h-1zm15 1h1v1h-1zm-162 4h1v1h-1zm-1 3h1v1h-1zm140 0h1v1h-1zm20 4h1v6h-1zM87 197h1v1h-1zm169 3h1v1h-1zm17 0h1v4h-1zm-64 23h1v1h-1zm37 20h1v1h-1zm33 9h1v1h-1zm-50 3h1v3h-1zm-155 7h1v1h-1zm2 0h6v1h-6zm7 0h4v1h-4zm44 0h1v1h-1zm6 8h1v1h-1zm96 6h1v7h-1zm0 13h1v2h-1zm-94 8h1v2h-1zm-26 4h8v1h-8zm211 8h1v1h-1zm-15 2h1v1h-1zM9 313h1v1H9zm284 9h1v1h-1v1h-1v-1h1zm-5 5h1v1h-1z"/><path fill="#204020" fill-rule="evenodd" d="M63 15h2v1h-2zm44 0h1v1h-1zm2 0h2v1h-2zm9 0h1v1h-1zm28 0h2v1h-2zm21 0h3v1h-3zm81 0h1v1h-1zm44 2h1v1h-1zm29 39h1v1h-1zM62 57h2v1h-2zm13 0h2v1h-2zm5 0h3v1h-3zm6 0h6v1h-6zm9 0h2v1h-2zm30 0h2v1h-2zm4 0h7v1h-7zm18 0h2v1h-2zm8 0h1v1h-1zm166 7h1v1h-1zM179 74h1v1h-1zm142 3h1v1h-1zm-56 9h1v1h-1zm9 2h1v1h-1zm0 2h1v3h-1zm47 0h1v1h-1zm0 2h1v1h-1zm0 11h1v1h-1zm-47 3h1v1h-1zm0 2h1v1h-1zm47 3h1v2h-1zm-47 3h1v2h-1zm47 5h1v2h-1zm0 4h1v2h-1zm0 3h1v1h-1zm0 8h1v1h-1zm0 7h1v9h-1zm-208 9h1v1h1v1h-1v-1h-1zm208 2h1v2h-1zm0 3h1v1h-1zm-54 5h1v1h-1zm3 0h1v1h-1zm51 6h1v3h-1zm0 4h1v1h-1zm0 3h1v5h-1zM91 188h1v1h-1zm230 2h1v1h-1zm-233 1h1v1h-1zm233 2h1v1h-1zm0 24h1v2h-1zm0 14h1v1h-1zm-77 3h1v1h-1zm2 0h1v1h-1zm13 11h1v1h-1zm9 0h1v1h-1zm53 14h1v1h-1zm-193 3h1v1h-1zm193 5h1v1h-1zm-106 2h1v1h-1zm106 0h1v2h-1zm-186 3h1v1h-1zm71 1h1v1h-1zm0 2h1v2h-1zm115 4h1v1h-1zm0 2h1v1h-1zm0 4h1v1h-1zm0 4h1v1h-1zm-130 3h1v1h-1zm130 12h1v1h-1zm-302 7h1v1h-1z"/><path fill="#205030" fill-rule="evenodd" d="M33 7h1v1h-1v1h-1V8h1zm-7 7h1v1h-1v1h-1v1h-1v-1h1v-1h1zm16 1h8v1h-8zm10 0h6v1h-6zm234 0h3v1h-3zm7 3h1v1h-1zm4 4h1v1h1v1h-1v-1h-1zM17 23h1v1h-1v1h-1v-1h1zm304 12h1v3h-1zm0 5h1v1h-1zm-5 4h2v1h-2zm5 1h1v3h-1zm0 4h1v6h-1zM167 62h1v1h-1zm154 4h1v11h-1zm-146 4h1v1h1v1h1v1h1v1h-1v-1h-1v-1h-1v-1h-1zm146 24h1v4h-1zm-47 2h1v2h-1zm0 3h1v3h-1zm0 5h1v1h-1zM98 135h1v1h1v1h1v1h1v1h1v1h-1v-1h-1v-1h-1v-1h-1v-1h-1zm182 2h1v1h-1zm-172 8h1v1h1v1h-1v-1h-1zm9 9h1v1h-1zm146 6h2v1h-2zM50 175h1v1h-1zm35 20h1v1h-1zm147 5h1v1h-1zm-8 8h1v1h-1zm24 18h1v3h-1zm-33 16h1v1h-1zm28 1h1v1h-1zm5 1h1v1h-1zm-33 4h1v3h-1zm33 3h1v1h-1zm-33 3h1v4h-1zm0 18h1v2h-1zm0 8h1v1h-1zm106 6h1v2h-1zm-92 5h1v1h-1zM6 310h1v1H6zm14 2h1v1h1v1h1v1h-1v-1h-1v-1h-1zm273 22h1v1h-1v1h-1v-1h1z"/><path fill="#60c070" fill-rule="evenodd" d="M30 11h1v1h-1zm263 6h1v1h-1zM22 19h1v1h-1zm-8 8h1v1h-1v1h-1v-1h1zm37 32h1v1h-1zm116 4h1v1h1v1h1v1h1v1h1v1h-1v-1h-1v-1h-1v-1h-1v-1h-1zM13 66h1v2h-1zm45 1h1v3h-1zm121 8h1v1h-1zM58 85h1v1h-1zm6 2h3v1h-3zm109 0h2v1h-2zm-84 44h1v1h-1zm-3 3h1v1h-1zm11 1h1v1h1v1h1v1h1v1h-1v-1h-1v-1h-1v-1h-1zm10 10h1v1h1v1h1v1h-1v-1h-1v-1h-1zm-94 3h1v1h-1zm102 5h1v1h-1zm-13 25h1v1h-1zm-9 9h1v1h-1v1h-1v-1h1zm-6 9h1v1h-1zm-74 7h1v1h-1zm266 22h1v1h-1zM13 236h1v1h-1zm194 4h1v4h-1zm33 3h1v1h-1zm-33 3h1v7h-1zm-194 4h1v3h-1zm239 3h1v1h-1zm21 0h2v1h-2zm-66 2h1v11h-1zM51 269h1v1h-1zm51 1h1v1h-1zm105 1h1v1h-1zM13 303h1v2h-1zm307 5h1v1h-1zM7 310h1v1h1v1H8v-1H7zm11 1h1v1h-1zm6 6h1v1h1v1h1v1h-1v-1h-1v-1h-1zm4 4h1v1h-1zm204 14h1v1h-1zm2 0h5v1h-5zm45 0h9v1h-9zm10 0h1v1h-1z"/><path fill="#60c060" fill-rule="evenodd" d="M112 7h6v1h-6zm112 0h19v1h-19zM60 87h2v1h-2zm7 0h4v1h-4zm11 0h6v1h-6zm25 0h40v1h-40zm53 0h1v1h-1zm12 0h5v1h-5zm10 0h1v1h-1zM15 308h1v1h-1z"/><path fill="#70e080" fill-rule="evenodd" d="M314 40h1v1h-1zm0 5h1v1h-1zm6 0h1v1h-1zM65 65h13v1H65zm92 0h2v1h-2zm11 9h1v1h1v1h1v1h1v1h1v1h-1v-1h-1v-1h-1v-1h-1v-1h-1zM65 94h10v1H65zm29 48h1v1h1v1h1v1h1v1h1v1h1v1h1v1h1v1h1v1h-1v-1h-1v-1h-1v-1h-1v-1h-1v-1h-1v-1h-1v-1h-1v-1h-1zm166 9h1v2h-1zm-146 2h1v1h-1zm-8 1h1v1h1v1h1v1h1v1h1v1h1v1h-1v-1h-1v-1h-1v-1h-1v-1h-1v-1h-1zm15 15h1v1h-1zm151 1h1v1h-1zm-56 57h1v1h-1zM52 269h1v1h-1zm154 10h1v1h-1zm-95 2h1v5h-1zm74 3h3v1h-3zm7 0h1v1h-1zm-81 7h1v2h-1zm-97 26h1v1h-1zm2 2h1v1h1v1h1v1h1v1h-1v-1h-1v-1h-1v-1h-1zm14 14h1v1h1v1h-1v-1h-1z"/><path fill="#307030" fill-rule="evenodd" d="M37 15h1v1h-1zM6 36h1v1H6zm53 30h1v1h-1zm9 29h4v1h-4zm193 51h1v1h-1zm0 10h1v2h-1zm-117 36h14v1h-14zm22 0h7v1h-7zm10 0h5v1h-5zm7 0h1v1h-1zm72 8h1v1h-1zm2 0h6v1h-6zM82 262h1v1h-1zm21 0h7v1h-7zm5 39h1v1h-1zm9 0h13v1h-13zm190 8h1v1h-1v1h-1v-1h1z"/><path fill="#105020" fill-rule="evenodd" d="M6 34h1v1H6zm48 23h2v1h-2zm111 3h1v1h-1zm8 8h1v1h-1zM50 69h1v11h-1zm9 17h1v1h-1zm133 1h1v1h1v1h-1v-1h-1zM50 94h1v4h-1zm0 16h1v4h-1zm220 14h3v1h-3zm-152 31h1v1h1v1h-1v-1h-1zm8 9h1v1h-1zm138 5h1v1h-1zM50 203h1v2h-1zm177 2h1v1h-1v1h-1v-1h1zm-177 2h1v2h-1zm0 16h1v1h-1zm165 7h1v1h-1zm48 24h11v1h-11zM50 267h1v2h-1zm143 25h1v1h-1zm4 0h3v1h-3zm6 0h1v1h-1zm114 20h1v1h-1zm-14 13h1v1h-1z"/><path fill="#309040" fill-rule="evenodd" d="M32 20h1v1h-1zM6 79h1v2H6zm219 6h3v1h-3zm7 0h8v1h-8zm25 0h2v1h-2zm18 60h1v1h-1zm9 1h1v4h-1zm-31 7h1v4h-1zm31 1h1v2h-1zm-11 15h1v1h-1zm-155 4h1v1h-1zm-8 8h1v1h-1zm-7 7h1v1h-1v1h-1v1h-1v1h-1v-1h1v-1h1v-1h1zm167 19h1v1h-1zM6 248h1v1H6zm0 3h1v4H6zm231 7h1v3h-1zm-177 4h1v1h-1zm3 0h5v1h-5zm174 14h1v6h-1zm-110 2h1v1h-1zm175 36h1v1h-1z"/><path fill="#309050" fill-rule="evenodd" d="M296 9h1v1h1v1h-1v-1h-1zM28 24h1v1h-1v1h-1v1h-1v1h-1v-1h1v-1h1v-1h1zM15 37h1v1h-1zm258 40h1v1h-1zm-76 8h3v1h-3zm31 0h4v1h-4zm31 0h1v1h-1zm-65 8h1v1h-1zm59 52h1v5h-1zm0 7h1v1h-1zm0 5h1v2h-1zm-132 13h1v1h-1v1h-1v1h-1v-1h1v-1h1zM6 177h1v1H6zm108 0h1v1h-1zm-3 3h1v1h-1zm-17 17h1v1h-1zm184 26h1v1h-1zm-41 24h1v1h-1zM6 249h1v2H6zm231 5h1v4h-1zm0 7h1v2h-1zm0 14h1v1h-1zm0 7h1v5h-1zm74 35h1v1h-1zm-12 11h1v1h-1z"/><path fill="#40b060" fill-rule="evenodd" d="M276 145h1v1h-1zM58 161h1v3h-1zm65 0h1v1h1v1h-1v-1h-1zm160 6h1v1h-1v1h-1v-1h1zm-3 1h1v1h-1zm-15 5h1v3h-1zm0 8h1v3h-1zm0 7h1v12h-1zm-81 9h1v2h-1zm-2 3h1v1h-1zm55 8h1v1h-1zm-3 2h1v1h-1zm-3 3h1v1h-1zm27 17h1v1h-1zm-2 1h1v1h-1zm23 2h1v3h-1zm-23 9h1v3h-1zm-128 24h1v2h-1zm73 17h1v1h-1zm-83 10h2v1h-2zm194 12h1v1h-1zm2 9h1v1h-1zm-15 3h1v1h-1z"/><path fill="#104020" fill-rule="evenodd" d="M83 15h2v1h-2zm163 0h2v1h-2zm48 4h1v1h-1zM50 67h1v2h-1zm122 0h1v1h-1zM50 93h1v1h-1zm215 12h1v3h-1zm-215 4h1v1h-1zm0 5h1v1h-1zm217 10h1v1h-1zm2 0h1v1h-1zm-1 36h2v1h-2zM50 179h1v1h-1zm0 23h1v1h-1zm223 2h1v1h-1zM50 222h1v1h-1zm0 7h1v1h-1zm221 3h1v1h-1zm-33 14h1v1h-1zm-188 6h1v3h-1zm202 2h1v1h-1zm10 0h1v1h-1zM50 265h1v2h-1zm94 27h3v1h-3zm48 0h1v1h-1zm2 0h3v1h-3zm6 0h2v1h-2zm116 21h1v1h-1zm-293 2h1v1h-1z"/><path fill="#207040" fill-rule="evenodd" d="M299 12h1v1h-1zm8 8h1v1h-1zm12 12h1v1h-1zM78 66h4v1h-4zM64 95h2v1h-2zm49 0h2v1h-2zm12 0h1v1h-1zM86 196h1v1h-1zm186 9h1v1h-1zm-43 53h1v1h-1zm0 3h1v1h-1zm0 6h1v1h-1zm-94 7h1v4h-1zm75 12h1v1h-1zm-4 4h1v1h-1v1h-1v-1h1zm26 2h3v1h-3zm4 0h1v1h-1zm-101 2h1v3h-1zm-30 6h1v1h-1zm2 1h1v1h-1zm201 19h1v1h-1v1h-1v-1h1zm-12 11h1v1h-1z"/><path fill="#408050" fill-rule="evenodd" d="M313 40h1v1h-1zM6 56h1v1H6zm158 15h1v1h1v1h-1v-1h-1zm7 7h1v1h-1zm6 6h1v1h-1zm-88 54h1v1h-1zm4 4h1v1h1v1h1v1h1v1h1v1h1v1h-1v-1h-1v-1h-1v-1h-1v-1h-1v-1h-1zm12 12h1v1h1v1h1v1h-1v-1h-1v-1h-1zm5 5h1v1h1v1h1v1h-1v-1h-1v-1h-1zm143 5h1v2h-1zM89 199h1v1h1v1h-1v-1h-1zm15 73h1v1h-1zm23 19h1v1h-1zM6 306h1v1H6zm0 3h1v1H6zm4 5h1v1h-1zm3 3h1v1h-1zm8 8h1v1h-1zm2 2h1v1h1v1h-1v-1h-1z"/><path fill="#60f080" fill-rule="evenodd" d="M34 8h1v1h-1zm260 0h1v1h-1zM53 58h1v1h-1zm140 32h1v1h-1zm0 3h1v1h-1zm79 98h1v4h-1zm-132 2h1v1h-1zm132 4h1v2h-1zm-38 4h8v1h-8zm4 34h1v1h-1zM62 263h4v1h-4zm76 21h3v1h-3zm98 6h1v2h-1z"/><path fill="#40c050" fill-rule="evenodd" d="M223 77h4v1h-4zm6 0h14v1h-14zm33 0h2v1h-2zM53 143h1v2h-1zm0 17h1v4h-1zm3 1h1v3h-1z"/><path fill="#50a060" fill-rule="evenodd" d="M291 15h1v1h-1zM128 263h1v1h-1zm-76 7h1v1h-1zm52 3h1v1h-1zm20 4h1v1h-1zm-20 15h1v5h-1zm-67 36h1v1h-1zm126 0h7v1h-7zm123 0h1v1h-1zm-260 2h1v1h1v1h1v1h1v1h-1v-1h-1v-1h-1v-1h-1z"/><path fill="#50b050" fill-rule="evenodd" d="M71 7h6v1h-6zm56 0h5v1h-5zm150 0h1v1h-1zm-90 70h2v1h-2zm3 0h5v1h-5zm-75 216h1v1h-1z"/><path fill="#70f080" fill-rule="evenodd" d="M260 150h1v1h-1zm12 33h1v8h-1zm0 12h1v2h-1zm-132 4h1v1h-1zm93 2h1v1h-1zm17 23h1v1h-1zm-123 39h1v1h-1zm6 8h1v1h-1zm55 13h4v1h-4z"/><path fill="#30a050" fill-rule="evenodd" d="M14 38h1v1h-1zm111 125h1v1h-1zm112 100h1v12h-1zm0 24h1v4h-1z"/><path fill="#40b050" fill-rule="evenodd" d="M182 77h5v1h-5zm82 0h8v1h-8zM128 269h1v1h-1zm7 14h1v1h-1zm-21 10h1v1h-1zm3 0h1v1h-1z"/><path fill="#60f070" fill-rule="evenodd" d="M61 263h1v1h-1zm175 2h1v11h-1zm0 21h1v4h-1z"/><path fill="#409040" fill-rule="evenodd" d="M6 68h1v1H6zm270 92h1v1h-1zm-42 40h1v1h-1zM6 204h1v4H6zm0 51h1v4H6zm55 7h2v1h-2zM6 287h1v1H6zm0 15h1v1H6z"/><path fill="#308030" fill-rule="evenodd" d="M140 192h1v1h-1zm3 0h1v1h-1zm15 0h8v1h-8zm-56 70h1v1h-1zm18 0h1v1h-1zm2 0h3v1h-3z"/><path fill="#306040" fill-rule="evenodd" d="M301 26h1v1h1v1h1v1h-1v-1h-1v-1h-1zm19 18h1v1h-1zM65 66h2v1h-2zm92 0h1v1h-1zm60 149h1v1h-1zm31 17h1v1h-1zm0 13h1v1h-1zm-144 54h1v1h-1zM7 311h1v1h1v1H8v-1H7z"/><path fill="#206020" fill-rule="evenodd" d="M163 58h1v1h-1zm-69 73h1v1h-1zm163 6h1v1h-1zm2 0h2v1h-2zm-5 1h1v1h-1zm-151 38h1v1h-1zm-3 3h1v1h-1v1h-1v-1h1zm129 24h1v1h-1zm28 42h1v1h-1z"/><path fill="#208030" fill-rule="evenodd" d="M284 163h1v2h-1zm-143 29h2v1h-2zm-25 70h4v1h-4zm5 0h1v1h-1zm4 0h1v1h-1zm11 21h1v1h-1z"/><path fill="#50a050" fill-rule="evenodd" d="M41 7h4v1h-4zm5 0h2v1h-2zm8 0h1v1h-1zm224 0h1v1h-1zM131 270h1v1h-1zm-95 58h1v1h-1z"/><path fill="#208040" fill-rule="evenodd" d="M31 21h1v1h-1zm28 74h1v1h-1zm225 67h1v1h-1zm0 3h1v1h-1zm-13 41h1v1h-1zm-42 56h1v1h-1zm0 2h1v3h-1zm6 28h1v1h-1z"/><path fill="#408040" fill-rule="evenodd" d="M294 7h1v1h-1zm19 32h1v1h-1zM6 69h1v1H6zm270 89h1v1h-1zm-163 4h1v1h-1zm137 61h1v1h-1zm-42 1h1v1h-1zM6 247h1v1H6zm0 60h1v1H6z"/><path fill="#306030" fill-rule="evenodd" d="M304 29h1v1h-1zM112 167h1v1h-1zm151 33h1v1h-1zm-47 16h1v1h-1zm32 17h1v1h-1zm-7 10h1v1h-1zm4 0h1v1h-1zm3 5h1v1h-1zm0 2h1v1h-1z"/><path fill="#40d050" fill-rule="evenodd" d="M53 142h1v1h-1zm0 3h1v3h-1zm-42 11h1v1h-1zm43 5h1v2h-1zm-1 3h1v1h-1zm0 53h1v1h-1z"/><path fill="#50c050" fill-rule="evenodd" d="M189 77h1v1h-1zm6 0h2v1h-2zm26 0h2v1h-2zm6 0h2v1h-2z"/><path fill="#206040" fill-rule="evenodd" d="M64 66h1v1h-1zm183 177h1v1h-1zm-112 30h1v1h-1zm78 10h1v1h-1z"/><path fill="#60e060" fill-rule="evenodd" d="M12 135h1v1h-1zm0 9h1v1h-1zm0 71h1v1h-1zm0 55h1v1h-1z"/><path fill="#308050" fill-rule="evenodd" d="M33 19h1v1h-1zM21 31h1v1h-1zm101 138h1v1h-1z"/><path fill="#70d080" fill-rule="evenodd" d="M320 40h1v1h-1zM159 65h1v1h-1zm-70 72h1v1h-1z"/><path fill="#60d060" fill-rule="evenodd" d="M143 87h1v1h-1zm11 0h2v1h-2z"/><path fill="#204030" fill-rule="evenodd" d="M321 268h1v1h-1zm0 15h1v2h-1z"/><path fill="#106020" fill-rule="evenodd" d="M191 86h1v1h-1zm92 52h1v1h-1z"/><path fill="#60c080" fill-rule="evenodd" d="M273 123h1v1h-1zM86 195h1v1h-1z"/><path fill="#105030" fill-rule="evenodd" d="M50 205h1v2h-1z"/><path fill="#50b070" fill-rule="evenodd" d="M53 270h1v1h-1zm-22 65h1v1h-1z"/><path fill="#305030" fill-rule="evenodd" d="M289 15h1v1h-1z"/><path fill="#60b060" fill-rule="evenodd" d="M292 16h1v1h-1z"/><path fill="#40d070" fill-rule="evenodd" d="M177 81h1v1h-1z"/><path fill="#40a040" fill-rule="evenodd" d="M179 86h1v1h-1z"/><path fill="#40e060" fill-rule="evenodd" d="M281 139h1v1h-1z"/><path fill="#407040" fill-rule="evenodd" d="M101 150h1v1h-1z"/><path fill="#50e080" fill-rule="evenodd" d="M254 152h1v1h-1z"/><path fill="#409060" fill-rule="evenodd" d="M91 200h1v1h-1z"/><path fill="#509060" fill-rule="evenodd" d="M104 298h1v1h-1z"/><path fill="#60b070" fill-rule="evenodd" d="M29 322h1v1h-1z"/></svg>