<svg xmlns="http://www.w3.org/2000/svg" width="327" height="341" viewBox="0 0 327 341"><path fill="#50d060" fill-rule="evenodd" d="M38 8h24v1h1V8h2v1h11V8h13v1h24V8h21v1h8V8h8v1h14V8h16v1h8V8h18v1h16V8h9v1h19V8h14v1h29v1h-2v1h-2v1h1v1h-2v-1h-25v-1h-7v1H116v-1h-4v1h-12v1H85v-1h-7v-1H63v1H51v-1h-4v-1h-3V9h-6zm57 2h-1v1h-3v1h5v-1h-1zm200-1h1v1h1v1h1v1h1v1h1v1h-1v-1h-1v-1h-1v-1h-1v-1h-1zM90 11h-1v1h1zm201 2h1v1h-1zm10 1h1v1h-1v1h-2v2h-3v-2h2v-1h3zM28 16h2v1h2v1h-2v-1h-2v1h-1v2h2v-1h1v2h-1v1h-1v-1h-4v-1h1v-2h1v-1h2zm-6 4h1v1h-1zm287 4h1v1h1v1h-1v1h-2v3h1v1h1v1h2v1h4v1h2v-2h1v5h-1v-1h-1v1h-3v-1h-1v-1h-1v-1h-1v-1h-1v-1h-1v-1h-1v-1h-1v-1h-1v-1h1v-1h-1v-1h1v-1h2zM14 28h1v1h-1v1h3v1h-1v1h1v1h-2v3h-1v1h-1v1H9v-1h1v-5h2v-1h1v-2h1zm300 0h1v1h1v1h1v1h1v1h-1v-1h-1v-1h-1v-1h-1zM8 34h1v3H8zm307 4h1v1h-1zM9 44h3v18h-1v-5H9v-1H8V45h1zm137 16h4v1h64v1h1v1h-1v1h-21v1h-2v1h-45v-1h-3v-1h-6v1h-2v1h-24v-2h-3v-1h-6v1H91v1h-1v1H80v1h-1v1h-1v1h-1v-1h1v-1h1v-2h-1v-1h-1v1h-1v1h-1v-1h1v-1h1v-2h1v-1h4v1h12v-1h19v1h17v-1h16zm169 0h2v1h1v10h-1v1h-2zm-84 1h5v2h-1v1h-2v1h-1v1h1v1h-1v-1h-2v-4h1zM11 65h1v53H9v-1H8v-5h1v-5H8V90h1v-2h1v-5h1v-6h-1v4H9v-4H8V67h1v-1h1v1h1zm229 1h1v1h1v1h1v1h1v1h1v1h1v3h-4v1h-1v-1h-1v-2h1v1h2v-2h-1v-2h-1v1h-1v2h-2v-1h1v-1h-1v1h-1v-1h-1v-1h-1v-1h1v-1h1v2h2v-1h1zM74 67h1v1h1v1h-3v-1h1zm160 0h1v1h-1zm11 4h-1v1h1zM65 74h1v1h1v-1h2v4h-1v1h-1v1h-1v-4h-1zm-3 2h1v1h-1v1h-1v-1h1zm186 3h6v1h1v1h1v1h1v1h1v1h1v1h1v1h1v1h1v7h1v1h1v1h-1v1h-1v1h-1v-1h-1v1h-1v-6h-1v-1h-1v-1h1v-2h3v-1h-1v-1h-1v-1h-1v-1h-1v-1h-1v-1h-1v-1h-1v-1h-1v1h-1v3h-1v-1h-2v-1h-1v-1h1v-1h-1v1h-1v-1h1zM60 80h1v1h1v1h1v2h-1v1h-1v-1h1v-1h-1v1h-1v-1h-1v-2h1zm-4 3h1v4h-1zm197 3h1v1h-1zM56 89h1v2h2v-2h1v4h-1v1h-1v-2h-1v-1h-1zm-1 3h1v5h-1zm3 5h2v43h-2v-1h-1v-1h-1v-6h1v-5h-1v1h-1v-1h1v-4h1v-3h-1v-17h1v-5h1zm257 0h2v1h1v2h-1v1h-2zm-56 4h1v1h1v1h1v1h2v18h-1v2h-1v2h-1v1h-1v9h2v1h1v-1h1v13h-1v1h1v2h-2v5h2v3h-4v-2h-1v-10h3v-1h1v-2h-1v-1h-2v-2h-1v-18h1v-6h-1v-2h1v-3h-1v-6h1v-1h-1zm-201 4h-1v7h1v-1h1v-5h-1zm258-1h1v2h1v3h-1v3h1v1h-1v3h-2v-11h1zm-305 4h-1v2h1zm122 11h10v1h3v1h-9v-1h-1v2h11v-1h11v-1h-2v-1h6v1h-1v1h5v2h-1v1h3v1h-10v-1h-8v1h-8v-1h-1v-1h-6v-1h-2v-1h2v-1h-2zm47 0h19v1h-1v1h3v1h3v1h3v-1h2v1h2v4h-2v1h1v1h1v3h-1v-1h-2v2h-1v-3h1v-3h-3v-2h-4v-1h1v-1h-5v2h-8v-1h1v-1h2v-1h2v-1h-14v1h2v1h1v1h-3v1h-8v-1h5v-1h1v-2h2zm23 0h8v3h-1v-2h-7zM9 120h1v1H9zm2 0h1v2h-1zm193 3h-1v1h1zm3 2h-1v1h1zM9 125h1v1h2v6h-2v1H9v-4H8v-2h1zm111 2h2v1h1v4h-1v1h-1v-4h-3v-1h2zm195 1h1v3h1v5h-1v1h1v1h-1v1h-1zm-200 3h1v1h2v1h1v-1h1v2h-2v1h-2v-1h-1zm-104 2h1v24H8v-22h2v-1h1zm47 1h-1v2h1zm149 4h1v2h1v-1h1v-1h1v3h1v5h-1v2h-2v1h-1v2h-1v-2h1v-2h2v-1h1v-4h-2v1h-1v-2h-1zm-152 2h1v3h-1zm51 0h3v1h2v1h1v1h-1v1h-1v-1h-1v-1h-2v-1h-1zm-48 3h1v1h1v32h-3v-1h-1v-17h1v-1h1v-2h1v-1h-1v-1h-1v-1h-1v-7h1v-1h1zm43 2h3v2h3v1h-3v-1h-3zm7 0h1v1h-1v1h-1v-1h1zm-50 2h-1v4h2v-3h-1zm257-1h2v1h1v4h-1v2h-2zm-214 7h1v3h1v-1h2v3h1v4h1v2h-1v2h-1v7h-1v-6h-1v-1h-1v10h-1v-12h1v-1h3v-4h-2v1h-1v-3h-1zm106 1h1v3h1v-2h1v-1h1v9h-3v1h-1v-2h1v-3h-1zm-152 1h1v1h-1zm-46 3h1v2h1v-1h1v7h-1v2H9v1H8v-5h1zm49 1h-1v6h1v2h1v-8zm257 1h2v1h1v3h-1v-1h-2zm-304 3h-1v2h1zm249-1h1v2h1v-1h2v8h-1v2h-1v3h-2v4h-1v-7h1v-3h3v-2h-1v-1h-2zm-53 6h1v1h3v7h-2v2h-1v1h3v3h-2v1h-1v-2h-1v-10h1v-1h-1zm-197 1h1v3h1v7h-1v-2h-1v2H9v-1H8v-7h2zm48 1h-1v1h1zm-4 0h1v1h-1zm0 2h1v1h-1zm1 5h1v3h-1zm4 0h1v2h-1zm-51 3h1v1h2v1h1v2h-1v-1h-1v1H9v-1H8zm93 0h1v2h2v-2h1v2h1v1h1v1h-1v2h1v2h-1v3h-2v-1h-2v3h3v1h1v-2h1v1h4v1h1v1h4v2h3v1h-8v-1h-9v-1h-1v-7h1v-6h-1zm-46 1h1v4h-1zm50 2h-1v4h1zm107-1h1v3h-2v2h-1v-1h-3v-2h2v1h2v-1h1zm47 0h1v5h1v-1h1v1h2v11h-2v2h-1v1h-1v12h2v1h2v6h-2v1h-1v-1h-1v2h-1v-3h1v-1h1v1h2v-4h-2v1h-1v-1h-1v-18h1v-2h2v-1h1v-4h-3v-2h-1zm-201 2h2v6h-1v-3h-2v3h-1v-4h1v-1h1zm258 0h1v1h1v5h1v2h-1v6h-1v2h-1v2h1v1h-2v-6h-1v-7h1v-4h1zm-305 3h1v3h-1zm-3 1h2v5H9v1H8zm3 4h1v11h-1v-2h-1v1H9v-1H8v-5h2v1h1zm181 0h5v1h-5zm-133 1h1v29h-1v-1h-1v-3h-1v-1h-1v-6h1v-2h1v-1h1v-2h-1v-2h-1v-2h-1v-8h1v2h2zm52 1h-1v1h1zm31-1h48v1h1v1h4v-1h4v-1h3v1h1v1h1v-1h1v2h1v1h-13v1h-39v-1h-16v1h-10v-1h4v-1h-4v-2h14zm68 3h1v1h1v1h-1v-1h-1zm-152 3h-1v2h1zm-3 5h1v5h-1zm-44 6h1v3h-1zm304 0h2v3h1v11h-1v1h-2v-2h2v-3h-1v2h-1v1h-1v-5h1zm-257 2h-1v4h1v1h1v-5zm-49 7h1v6H9v-1H8v-1h1v-1H8v-2h1zm2 0h1v6h-1zm44 1h1v2h-1zm2 3h3v11h-1v-1h-1v-1h-1v-1h-1v5h-1v-5h1v-7h1zm199 2h1v1h2v2h-1v1h-3v-1h1v-1h1v-1h-1v1h-1v1h-1v1h-1v1h-1v-1h1v-1h1v-1h1v-1h1zm-198 2h-1v2h1v1h1v-1h-1zm-49 3h1v1h1v-1h1v14h-1v-1h-1v2H9v1H8v-8h1v-5H8v-1h1zm306 1h3v9h-1v3h-2v-3h-1v-1h1zm-304 3h-1v2h1zm235 1h1v1h2v-1h1v3h1v1h-1v1h-1v-1h-1v-2h-2zm-188 1h2v5h-1v-2h-2v1h-1v-2h1v-1h1zm-2 7h1v2h2v3h-1v-1h-1v1h-1zm3 1h1v1h-1zm2 0h1v1h-1zm177 0h1v2h1v1h-2v-1h-1v-1h1zm2 1h4v1h-4zm-162 1h14v1H78zm24 0h2v1h-2zm12 0h1v1h-1v1h-1v1h1v3h-1v2h-1v-2h1v-2h-4v-1h-4v-2h9zm121 0h1v1h-1zm-82 2h1v1h8v1h17v1h21v-1h10v-1h-4v-1h13v1h4v1h5v1h3v1h2v1h1v1h-10v1h-14v-1h-30v1h-13v-1h-11v-1h-1v-1h-2v-2h-1v-1h1zm13 0h4v1h-4zm59 0h1v1h-1zm-214 1h1v5h-1v-1h-1v1H8v-3h1v-1h1v1h1zm144 1h-1v1h1zm-63 0h6v1h-6zm122 3h-1v1h9v-1zm-103 2h1v1h1v1h1v1h-1v-1h-2zm205 1h1v2h-1zm-170 1h4v1h1v1h-1v1h-1v-2h-3zm-135 1h1v7h-1zm304 2h2v4h-2zM9 262h1v1H9zm137 0h1v1h-1v1h-3v1h1v1h-1v1h-1v1h-1v1h-1v1h-1v1h-3v1h-2v2h1v1h-1v2h-1v1h-2v1h-1v-1h-2v1h-1v-2h-1v-2h1v-1h1v1h1v2h1v-2h-1v-1h1v-1h1v-3h1v1h3v-1h1v-1h-2v-1h3v-1h3v1h1v-1h1v-1h1v-1h-2v-1h-1v-1h6zm-6 6h-1v1h1zm-27 1h1v4h-1v-1h-1v-2h1zm19 0h1v1h-1zM9 272h1v3H8v-2h1zm2 0h1v4h-1zm104 0h1v1h-1zm13 1h1v1h-1zm4 3h-1v1h2v-1zm-121 6h1v11h-1zm99 1h1v1h4v-1h1v2h3v4h1v2h-1v1h-1v1h-2v-1h-4v-1h-2zm205 6h2v1h1v6h-3zM9 291h1v8H9v-1H8v-5h1zm306 15h3v2h-1v1h-1v-1h-1v3h-1v1h-2v1h-1v-1h1v-3h-2v-1h2v-1h3zm-302 3h1v1h-1v2h1v1h-1v-1h-1v-2h1zm2 0h1v2h-1zm-5 1h1v1h-1zm7 0h1v1h1v1h1v1h1v2h-1v-1h-1v1h-2v-2h-1v-1h1zm289 2h1v2h3v1h-1v1h-4v-2h-1v-1h2zM26 322h1v1h1v-1h1v1h1v1h1v1h1v1h1v1h-1v1h-1v1h-1v-1h-3v-2h-1v-1h-2v-1h1v-1h1zm4 3h-1v1h1zm2 1h-1v1h1zm260-1h4v3h-1v1h-1v-3h-2zm-3 2h2v1h1v1h1v1h-3v-2h-1zm-139 1h5v1h14v1h29v-1h6v1h11v-1h21v1h2v-1h10v-1h2v1h15v1h4v1h-2v1h-4v1h-17v-1h-3v1h-1v-1h-26v-1h-10v1h-5v-1h-30v1h-6v-1h-5v1h-10v-1h-11v1h-2v1h-20v-1h-9v-1h-6v-2h29v1h4v-1h3v1h11v-1h1zm-96 1h9v1h7v1h1v-1h3v-1h10v1h5v2h1v1H68v-1H57v-1h-5v-1h2z"/><path fill="#50d070" fill-rule="evenodd" d="M35 8h3v1h6v1h3v1h4v1h12v1H49v-1H38v1h-2v1h-1v2h-1v1h-1v1h-1v1h-1v1h-1v-1h1v-1h1v-1h-2v-1h-2v1h-1v-2h1v-1h1v-1h1v-1h1v-1h1v-1h1V9h2zm259 0h2v1h-2zM63 11h15v1H63zm49 0h4v1h55v1h6v1h-57v-1h-18v1h-1v-1h-1v-1h12zm144 0h7v1h25v1h3v1h-19v-1h-12v-1h-2v1h-2zM79 12h6v1h14v1H81v-1h-2zm107 0h7v1h3v-1h35v1h-1v1h-52v-1h8zm51 0h18v1h-8v1h-3v-1h-7zm55 2h1v1h1v1h1v1h1v1h3v-2h3v1h1v4h2v-1h1v1h1v1h1v1h1v2h-2v1h-1v2h-1v-1h-1v-1h-1v-1h-1v-2h-1v-1h-1v-1h-2v-1h-1v-1h-1v-1h-1v-1h-1v-1h-1v-1h-1zm10 1h1v1h-1zM24 19h1v1h-1v1h4v2h-1v1h-1v1h-1v1h-2v2h-1v1h-1v1h-1v1h-1v1h-1v1h-1v1h-1v1h-1v-2h2v-1h-1v-1h1v-1h-3v-1h1v-2h1v-1h1v-1h1v-1h1v-1h1v-1h1v-1h2v-1h1zm280 0h1v1h-1zm3 3h-1v2h1zm3 2h1v1h-1zm3 3h1v1h-1zM7 35h1v1H7zm310 1h1v1h1v2h-1v-1h-4v-1h3zM8 37h1v1h4v1h-1v4h1v2h-1v-1H9v1H8v-3h3v-2h-1v1H8zm305 8h1v4h1v-4h4v5h-1v1h1v23h-2v1h-2v-3h2v-1h1V61h-1v-1h-2v10h-1v-7h-1v-2h1v-1h1v-6h-2v-1h2v-1h-2zM12 52h1v1h-1zm-4 4h1v1h1v8h1v2h-1v-1H9v1H8zm142 4h8v1h-8zm10 0h4v1h-4zm74 0h1v1h-1zM77 61h1v1h-1v1h-1v1h-1v1h-1v1h1v1h-1v1h-1v1h3v-1h1v1h1v1h-1v1h-1v1h-1v1h-2v1h-1v2h-1v1h-1v1h-1v1h-1v1h-1v1h-1v1h-1v1h-1v1h-1v-2h2v-1h1v-1h1v-1h1v-1h1v-4h-2v1h-1v-2h1v-2h1v-2h1v1h1v-1h1v-1h-1v1h-1v-1h1v-1h2v1h1v-1h-1v-1h1v-1h1v-2h2v-1h1zm5 0h3v1h-3zm4 0h8v1h-8zm27 0h17v1h-17zm101 0h7v1h1v-1h9v1h-1v4h-39v-1h2v-1h21v-1h1v-1h-1zm22 0h1v1h1v1h1v1h1v1h-1v-1h-1v-1h-1v-1h-1zM11 62h1v3h-1zm91 1h6v1h3v2H90v-1h1v-1h11zm35 1h6v1h3v1h-11v-1h2zm-57 2h1v1h-1v1h-1v1h-1v-1h1v-1h1zm163 2h1v1h-1zm-5 2h1v1h-1zm7 0h1v1h-1zm68 1h1v2h-1zM65 72h1v1h-1v2h-1v1h-2v1h-1v1h-1v2h-1v3h1v1h1v3h1v1h-1v-1h-1v2h-1v2h-2v-2h-1v3h-1v-3h1v-2h1v-4h-1v-1h1v-1h1v-1h1v-2h1v-1h1v-1h1v-1h1v-1h1v-1h1zm181 0h1v3h2v1h1v1h1v1h2v1h-5v1h1v1h-1v-1h-2v-1h-1v-1h-1v-1h-1v-1h-1v-2h4zM8 77h1v4h1v7H9v2H8zm307 3h2v1h2v35h-1v2h1v4h-1v1h1v11h-1v5h1v1h-1v2h-1v1h1v2h1v6h-1v2h1v1h-1v4h1v8h-1v3h1v7h-1v5h1v9h-1v-5h-1v-1h-1v2h-1v-5h-1v-1h1v-2h-1v-10h-1v-2h1v-7h1v-4h-1v-8h1v6h2v-2h1v-4h-1v-1h-2v-6h-1v-8h1v7h1v-1h1v-18h-1v8h-1v-6h-1v-6h-1v-5h1v-11h-1v-6h1v1h1v-4h-1v-1h1zM61 83h1v1h-1zm197 0h1v1h1v1h-1v-1h-1zM12 84h1v2h-1zm242 4h1v1h-1zm8 0h1v3h1v4h-1v-1h-1zm1 8h1v8h-2v-1h-1v-1h-1v-1h-1v-3h1v-1h1v1h1v-1h1zm53 1h-1v4h2v-1h1v-2h-1v-1zM55 97h1v5h-1zm262 7h-1v1h-1v11h2v-3h1v-1h-1v-3h1v-3h-1zm-260 1h1v1h1v5h-1v1h-1zm-49 2h1v5H8zm2 1h1v2h-1zm45 5h1v14h-1zm-47 4h1v1h3v2h-1v-1h-1v1H9v1h1v3h1v-2h1v4h-2v-1H9v2H8zm120 2h2v1h-2zm3 0h2v1h2v1h-2v1h2v1h6v1h1v1h-10v-1h-2v-1h-5v1h-1v1h2v2h1v1h-1v1h-1v1h-2v-2h-1v-1h-2v1h-1v-1h1v-1h1v-1h2v-1h1v-1h1v-1h1v-1h7v-1h-2zm5 1h1v1h-1zm19 0h2v1h-2zm6 0h1v1h-1zm18 0h1v1h-1zm19 0h3v1h7v-1h2v2h1v1h-2v-1h-2v1h-3v1h-1v-1h1v-1h-3v-1h-3zm-32 1h12v2h-1v1h-5v1h-4v-1h-3v-1h1zm97 1h1v8h-1v1h1v5h-1v1h-1v-1h-2v-9h1v-1h1v-2h1zm-66 1h5v1h-1v1h4v1h-4v1h-1v-1h1v-1h-4zm-3 3h1v1h-1zm17 0h2v4h-1v-1h-1zm-5 1h1v1h-1zm-151 1h1v5h-1v3h-1v-4h1zm62 0h1v1h-1v1h-1v1h-1v-1h1v-1h1zM8 129h1v4h1v-1h2v1h-1v1h-1v1H8zm200 2h2v1h1v6h-1v1h-1v1h-1v-2h-1v-5h1zm-94 1h1v2h1v1h2v-1h2v1h-1v1h-1v1h-1v1h-1v1h-1v-1h1v-2h-2v1h-1v2h-2v1h2v2h-2v-1h-2v-1h-2v-1h1v-1h1v-1h1v-1h1v-1h1v-1h1v-1h1zm6 0h1v2h-1zm-63 2h1v2h-1zm-2 4h1v2h-1zm157 0h1v3h-2v-2h1zm-109 4h1v1h-1v1h-1v-1h1zm103 0h1v6h-1zm-151 1h1v2h-1zm54 2h1v1h-1zm102 1h2v2h-1v-1h-1zm-154 1h1v1h1v3h-2zm44 0h3v1h3v1h-2v6h-2v1h-1v-3h1v-1h1v-1h-1v-2h-1v4h-1zm-46 1h1v7h-1zm154 0h2v6h-1v1h-1v2h-1v-3h-1v-3h1v-2h1zm54 1h1v1h-1zm-1 3h2v5h-2zm-50 2h1v2h-1zm-157 2h1v2h-1v7h1v5h-1v-5h-1v-7h1zm50 0h2v6h-1v-4h-1zm-97 1h4v2h-1v-1H9v6H8zm49 2h2v8h-1v-2h-1zm259 1h-1v3h2v1h1v-3h-1v-1zm-104 0h1v4h-1zm-7 3h1v12h1v3h-1v6h1v2h3v1h1v9h2v2h-1v-1h-1v-1h-1v1h-4v-1h-1v-2h-1v1h-1v-1h-1v-1h2v-1h1v-1h1v1h1v-6h-1v3h-1v-4h1v-1h-1zm3 0h3v6h-3v-1h-1v-4h1zm-102 1h1v6h-1v-2h-1v-2h1zm211 2h-1v2h1zm-215 0h1v1h1v6h1v7h1v-1h1v4h-1v-1h-1v-2h-1v2h-2v-2h1v-4h-1v4h-1v-4h1zm110 3h1v5h-1zm-155 1h1v1h-1zm206 1h1v5h-1v2h1v6h-1v2h1v1h-2v-1h-1v1h-1v-5h-1v-2h1v-4h2v-3h1zm-250 1h1v2h-1zm93 0h1v3h-1zm-51 3h1v2h-1zm262 1h-1v4h1zm-108 0h2v3h-3v-1h1zm-199 1h1v2h1v3h-1v-1H9v-1H8v-2h1v1h1zm202 4h1v1h-1zm-152 1h1v1h-1zm-52 1h1v1h1v1H9v3H8zm3 1h1v3h-1zm95 0h1v2h-1zm-51 1h1v5h1v-3h2v3h1v3h-1v3h-2v-2h-1v-1h-1v4h-1v-11h1zm157 0h1v2h-1zm102 2h1v3h-1zm-208 1h1v4h-1v2h-1v-1h-3v-3h2v1h2zm-50 2h-1v1h1zm257 2h1v5h1v6h2v-1h-1v-2h1v-2h1v-6h1v14h-1v2h1v19h-1v2h1v48h-1v2h1v5h-1v4h1v11h-4v-2h-1v-20h1v-1h-1v-24h1v-2h-1v-2h1v-2h-1v-6h1v3h2v-3h1v-9h-3v8h-1v-16h1v2h2v-1h1v-11h-1v-3h-2v8h-1v5h-1v-6h1v-16h-1v-1h1v-2h-1zm-202 1h31v1h-14v2h4v1h-4v1h-9v-1h-3v-2h-4v-1h-1v1h-1v-1h1zM8 194h1v2H8zm190 4h5v1h-5zm12 0h1v1h-1zm52 0h2v3h-1v4h1v5h-1v2h1v2h-2v-1h-2v-12h1v-1h1zm-208 1h2v5h-1v-2h-1zm3 0h1v2h-1zm-49 2h1v1h1v11H9v7H8zm3 2h1v7h-1zm43 6h2v3h-1v3h1v5h-1v2h1v2h-1v4h1v3h-1v1h-1zm3 3h2v5h-1v-1h-1zm-46 1h1v4h-1zm249 7h1v1h1v-1h2v5h-1v2h-1v1h-1v1h-1v1h-1v1h-1v1h-4v1h1v2h-2v2h-1v1h-2v-3h-1v1h-2v-2h1v-1h1v1h3v-3h-1v1h-1v1h-1v-1h1v-1h1v-1h2v-1h1v-1h1v1h3v-1h1v-2h-2v1h-1v1h-1v-1h1v-1h1v-2h1v-1h1v-1h1zM8 222h1v1H8zm254 1h-1v1h1zm-1 1h-1v1h1zM8 224h1v8H8zm3 1h1v5h-1zm46 2h1v2h1v1h-1v-1h-1zm-49 6h1v5H8zm2 1h1v2h-1zm44 2h2v4h1v-1h2v2h1v3h-1v1h2v1h6v1h-1v2h12v-1h-1v-1h-4v-1h5v1h14v-1h4v1h2v-1h4v1h3v2h4v1h4v2h-1v3h-1v2h2v1h1v6h-1v1h-1v-1h-2v-1h-2v-8h1v-3h-1v-1H98v-1h-6v1h4v1h-4v-1H56v-1h-1v-2h-1v-1h1v-4h-1zm-42 3h1v2h-1zm237 1h1v1h-1v1h-1v1h-1v1h-1v2h-1v-2h1v-1h1v-1h1v-1h1zm-192 3h-1v5h1v-1h1v1h1v-3h-2zm-47 0h1v1h1v5h-1v1H9v1H8v-5h1v-1h1zm85 4h-1v1h2v-1zm5 0h-1v1h1zm136-1h2v1h2v-1h3v1h-1v1h-4v1h-1v-1h-2v1h-1v1h2v1h2v1h-1v1h-1v1h-1v1h-1v1h-1v-1h-9v-1h10v-1h-1v-1h-2v-1h-3v-1h4v-1h2v-2h2zm-122 1h1v1h-1zm38 1h1v1h-1zm38 0h16v1h4v1h-10v1h-21v-1h-17v-1h23v1h1v-1h1v1h3zm36 0h1v1h1v1h-5v-1h3zm-75 2h1v1h1v1h2v1h1v1h-1v1h-1v1h1v1h-1v-1h-1v1h-1v1h-2v-1h-4v1h-1v-2h1v-1h1v-1h2v1h1v-1h-1v-2h1v-1h1zm1 4h-1v2h1zM8 254h2v1H9v3h1v4H9v1h1v4h1v-2h1v7h-1v-2h-1v2H9v1H8zm3 0h1v4h-1zm150 0h6v1h1v1h-1v-1h-6zm31 0h4v1h-4zm14 0h4v1h13v1h-13v-1h-4zm-96 2h-1v3h1zm59-1h3v1h-3zm148 1h-1v2h1zm-167 3h1v2h-1v1h-1v1h-2v1h-1v1h-1v1h-1v1h-1v-1h1v-1h-1v1h-1v1h-1v1h1v1h-1v1h-1v-1h1v-1h-1v1h-1v-1h1v-1h-3v1h-3v1h-1v-1h1v-1h1v-1h1v-1h1v-1h1v-1h2v1h1v1h2v-1h3v-1h1v-1h1v-1h1v-1h1zm166 1h-1v4h2v-4zm-201 0h1v1h-1zm-3 6h2v3h-1v1h-1v2h1v1h1v11h-3v-1h-1v8h2v1h4v1h1v1h-1v1h-2v1h-2v-2h-2v-3h-1v-5h-1v-5h1v2h1v-3h1v1h1v-1h1v-2h-1v-4h-2v-6h1v-1h1zm3 0h1v3h-1zm-104 2h-1v1h1zm119 3h1v2h-1v1h-1v-2h1zm6 0h2v1h-1v1h-1v1h-2v-2h2zm-21 2h1v3h-1zM8 275h2v1H9v17H8zm126 0h1v1h-1zm-123 1h1v6h-1zm114 0h1v1h1v2h1v-1h2v1h1v1h-2v1h-1v1h-1v-1h1v-1h-6v1h-1v1h-1v3h1v2h1v2h-1v1h-1v-1h-1v-4h-2v-1h2v-2h1v-1h1v-1h1v-1h1v-1h1v-1h1zm-10 2h1v4h-1zm16 0h1v1h-1zm186 4h-1v3h1zm-195 4h1v1h-1zm194 3h-1v7h3v-6h-1v-1zm-305 4h1v8h-1zm-3 5h1v1h1v1H9v2H8zm307 3h2v1h1v1h1v5h-1v1h-1v1h-1v2h-2v1h-1v1h-1v-1h1v-1h1v-1h1v-3h1v1h1v-1h1v-2h-3v1h-3v1h-1v-2h1v-1h1v-1h1v1h1v-1h-1v-1h1zm-304 6h1v1h4v1h2v1h-2v-1h-1v1h-1v-1h-1v1h-1v1h-1v-1H9v-2h2zm295 3h1v1h-1zm-287 4h1v1h1v-1h1v2h1v1h-5v1h1v1h-1v-1h-1v-1h-1v-1h-2v-1h5zm284 0h2v2h4v1h-1v1h-2v-1h-1v1h-2v1h-1v1h-4v2h2v1h1v1h-1v1h-1v1h-1v2h-1v-1h-1v-2h-4v-1h1v-1h1v-1h1v-1h1v-1h1v-1h1v-1h1v-1h2v-1h1v-1h1zm-279 4h1v1h-1zm-1 2h4v1h1v2h-1v-1h-1v1h-1v1h-2v-1h-1v-1h-1v-1h2zm6 2h1v1h1v1h1v1h-1v-1h-1v-1h-1zm-5 3h1v1h1v1h1v1h-1v-1h-1v-1h-1zm9 0h1v1h-1zm-2 1h1v1h2v5h-1v1h-1v-1h-1v-1h-2v-1h-1v-2h2v1h1v-1h1v-1h-1zm258 0h1v1h-1v1h1v2h3v-1h1v2h-1v1h-1v-1h-4v-1h-2v-1h1v-1h1v-1h1zm-146 2h3v1h3v1h-11v-1h5zm78 0h6v1h-6zm-173 1h6v1h-2v1h5v1h11v1H42v-2h3v-1h3zm36 0h18v2h6v1h9v1h-15v-1h-1v1H90v-1h-1v-2h-5zm47 0h4v1h-4zm38 0h29v1h-29zm35 0h11v1h-11zm32 0h2v1h-2zm29 0h6v3h-2v1h-6v-1h4v-1h2v-1h-4zm-126 2h11v1h10v-1h5v1h6v-1h30v1h5v-1h10v1h26v1h-44v-1h-6v1h-11v-1h-8v1h-36v-1h2zm104 1h3v1h-3zm-162 1h6v1h-6zm174 0h4v1h-4zm-222 1h2v1h-2z"/><path fill="#60e070" fill-rule="evenodd" d="M43 7h18v1H43zm41 0h8v1h-8zm38 0h4v1h-4zm100 0h7v1h-7zm26 0h1v1h-1zm12 0h15v1h-15zm21 0h9v1h-9zM38 12h2v1h-2zm3 0h5v1h-5zm22 0h13v1h-8v1h-1v-1h-1v1h-3zm-14 1h2v1h-2zm-22 1h1v1h-1v1h-1v-1h1zm7 2h1v1h-1v1h-1v1h-1v1h-1v-1h1v-1h1v-1h1zm268 0h1v1h1v1h1v1h-1v-1h-1v-1h-1zM23 18h1v1h-1zm283 2h1v1h-1zM20 21h1v1h-1zm8 1h1v1h-1v1h-1v1h-1v-1h1v-1h1zm280 0h1v1h1v1h-1v-1h-1zM19 31h1v1h-1v1h-1v-1h1zm300 2h1v1h-1zm-8 1h1v1h1v1h1v2h1v1h-1v-1h-1v-2h-1v-1h-1zM15 35h1v1h-1v1h-1v3h-1v-3h1v-1h1zm-8 1h1v1H7zm312 0h1v3h-1zM13 42h1v40h-1v-9h-1v-4h1v-2h-1v-6h1V50h-1v-2h1zm302 2h4v1h1v1h-1v-1h-4v1h-1v-1h1zM7 45h1v10H7zm307 3h1v1h-1zm0 6h1v6h-1zM78 60h1v1h-1zm2 0h17v1H80zm26 0h29v1h-29zm60 0h4v1h-4zm23 0h15v1h-15zm19 0h24v1h-24zM81 66h1v1h-1zm4 0h3v1h-3zm25 0h3v1h-3zm22 0h14v1h-14zm41 0h3v1h-3zm7 0h15v1h-15zm31 0h1v1h-1zm2 0h4v1h-4zm5 0h2v1h-2zm101 0h1v6h-1zM7 67h1v11H7zm239 4h1v1h1v1h-1v-1h-1zm68 1h1v8h-1zm-65 3h2v1h1v1h1v1h1v1h1v1h-1v-1h-1v-1h-1v-1h-1v-1h-2zm69 1h1v5h-1v-2h-2v-1h2zm-62 5h1v1h-1zm58 2h1v6h-1zM55 84h1v5h-1zm-42 2h1v1h-1zm48 0h1v1h-1v6h-1v-6h1zm201 1h1v1h1v1h1v1h-1v-1h-1v-1h-1zm57 0h1v2h-1zM7 89h1v3H7zm6 3h1v10h-1v-1h-1v-8h1zm245 0h1v5h-1zM7 93h1v8H7zm257 0h1v5h-1zm55 2h1v2h-1zM60 98h1v83h-1zm259 1h1v15h-1zM7 102h1v6H7zm251 0h1v6h-1zm6 0h1v3h-1zm-252 5h2v3h-1v1h-1zm252 0h1v5h-1zM7 110h1v8H7zm6 5h1v25h-1v-4h-1v-7h1v-1h-1v-12h1zm245 0h1v12h-1zm6 1h1v8h-1zm-138 3h1v1h-1zm187 0h1v2h-1zm-142 1h1v1h-1zm40 0h1v1h-1zm-87 2h1v1h-1v1h-1v-1h1zm87 0h1v3h-1zm-83 2h1v1h-1v2h-1v-2h1zm15 1h3v1h-3zm22 0h9v1h-9zm26 0h10v1h-10zm122 0h1v1h-1zm-194 1h1v1h-1zm200 3h1v4h-1zM7 131h1v1H7zm107 0h1v1h-1v1h-1v-1h1zm97 0h1v8h-1zm-90 2h1v1h-1zM7 135h1v23H7zm257 0h1v5h-1zm-151 2h1v2h-1zm145 3h1v11h-1zm60 0h1v3h-1zm-54 1h1v2h-1zm-251 1h1v7h-1zm98 1h1v1h-1zm153 1h1v12h-1zm55 1h1v5h-1zm-219 1h1v1h-1zm111 1h1v14h-1zm-198 3h1v3h-1zm93 0h1v3h-1zm152 2h1v20h-1zm-246 4h1v1h1v4h-2zm88 0h1v2h-1zm214 0h1v2h-1zm-50 1h1v2h-1zM7 160h1v3H7zm312 0h1v3h-1zm-264 1h1v1h-1zm156 1h1v8h-1zm53 3h1v11h-1zM7 166h1v2H7zm0 6h1v6H7zm204 2h1v7h-1zm-199 2h1v2h1v11h-1v-1h-1v-4h1v-2h-1zm88 6h1v8h-1zm214 0h1v1h-1zm5 0h1v17h-1zm-259 1h1v24h-1zm204 1h1v5h-1zm-53 3h1v3h1v1h-1v4h-1zm-5 1h1v1h-1zm52 1h1v10h-1zM7 190h1v3H7zm93 2h1v6h-1zm7 0h3v1h-3zm7 0h3v1h-3zm5 0h1v1h-1zm145 1h1v6h-1zm-251 2h1v10h-1v5h1v22h-1v-1h-1v-30h1zm89 3h1v1h-1zm4 0h1v1h-1zm6 0h7v1h-7zm19 0h6v1h-6zm23 0h31v1h-31zm57 0h1v1h-1zm108 2h1v1h-1zm-6 1h1v1h-1zm0 3h1v2h-1zm-303 1h1v3h-1zm303 2h1v1h-1zm-49 1h1v7h-1zm-204 2h1v25h-1zm259 1h1v1h-1zm-6 1h1v3h-1zm6 1h1v5h-1zm-61 2h1v3h-1zm6 5h1v5h-1zm55 0h1v5h-1zM7 221h1v3H7zm251 1h1v1h-1zm55 3h1v1h-1zm5 2h1v2h-1zm-57 1h1v1h-1v1h-1v1h-1v-1h1v-1h1zm58 2h1v9h-1zm-306 3h1v5h-1v-1h-1v-3h1zm47 4h1v8h-1zm183 0h1v1h-1v1h-1v1h-1v-1h1v-1h1zm9 0h1v1h-1zm-239 3h1v12h-1v-2h-1v-9h1zm-6 1h1v1H7zm232 0h1v1h-1zm-177 4h1v1h-1zm15 0h13v1H77zm25 0h7v1h-7zm11 0h2v1h-2zm130 1h1v1h-1v1h-1v-1h1zM7 251h1v2H7zm62 0h1v1h-1zm4 0h2v1h-2zm13 0h1v1h-1zm15 0h6v1h-6zm-89 2h2v2h-1v2h1v10h-1v1h1v1h-1v1h1v27h-1v1h1v1h-1v4h-1v2h1v1h-1v1H8v-4h1v-1h1v-1h2v-12h1v-4h-1zm143 1h2v1h8v1h-11v-1h1zm-145 1h1v2h-1zm166 0h1v1h-1zm2 0h8v1h-8zm12 0h8v1h-8zm14 0h5v1h-5zm22 0h2v1h-2zm3 0h1v1h-1zm-77 2h1v1h-1zm-38 1h1v4h-1zm-5 6h1v5h-1zm37 0h1v1h-1zm-32 3h1v2h-1zm17 2h1v1h-1v1h-1v-1h1zm8 2h1v1h-1v1h-1v-1h1zM7 272h1v3H7zm102 0h1v4h-1zm18 1h1v1h-1zm-13 1h1v9h-1zm21 1h1v1h-1zm-26 2h1v5h-1zm209 0h1v2h-1zm-187 2h1v1h-1zm-6 2h1v1h-1zm3 0h1v1h-1v1h-1v-1h1zm-10 2h1v1h-1zm-2 1h1v1h-1zm8 1h1v1h-1v1h-1v-1h1zm194 0h1v1h-1zm-197 4h1v1h-1v1h-1v-1h1zm198 1h1v7h-1zm-210 3h1v5h-1zm8 0h1v1h-1v1h-1v-1h1zm-5 4h1v1h-1zm206 2h1v2h-1zm1 5h1v2h-1zm-305 2h1v2h-1zm8 8h1v2h-1zm279 1h1v1h-1zm-277 2h2v1h1v2h1v1h-1v-1h-1v-1h-1v1h-1v-1h1v-1h-1zm284 0h1v1h-1zm-287 5h1v1h-1zm11 3h1v1h1v1h1v1h-1v-1h-1v-1h-1zm4 3h16v1H36zm49 0h16v1H85zm86 0h2v1h-2zm15 0h7v1h-7zm78 0h18v1h-18zm-160 5h12v1h-12zm32 0h5v1h-5zm15 0h18v1h-18zm25 0h1v1h-1zm2 0h16v1h-16zm20 0h24v1h-24zm37 0h11v1h-11zm33 0h3v1h-3z"/><path fill="#60d070" fill-rule="evenodd" d="M294 7h1v1h-1zM46 12h3v2h-1v-1h-2zm-10 1h3v1h-3v1h-1v-1h1zm15 0h12v1H51zm17 0h13v1H68zm31 0h2v1h-2zm3 0h18v1h-18zm75 0h1v1h-1zm53 0h14v1h-14zm17 0h25v1h-25zm45 2h1v1h-1zm11 1h1v1h1v1h-1v-1h-1zM24 17h1v1h-1zm271 1h1v1h-1zm11 1h1v1h-1zm-3 1h2v1h-2zM29 21h1v1h-1zm271 1h1v1h1v1h-1v-1h-1zm6 0h1v2h-1zM23 26h1v1h-1zm289 0h1v1h-1zM7 34h1v1H7zm309 4h2v1h1v1h-4v-1h1zM12 39h1v4h-1zm-2 1h1v2H8v-1h2zm2 5h1v3h-1zm0 5h1v1h-1zm301 2h2v1h-2zm0 2h1v1h-1zm0 5h1v2h-1zM77 60h1v1h-1v1h-1v1h-1v-1h1v-1h1zm81 0h2v1h-2zm6 0h2v1h-2zm-79 1h1v1h-1zm136 0h1v1h-1zM73 64h1v1h-1zm167 1h1v1h1v1h-1v-1h-1zM80 67h1v1h-1zm153 0h1v1h-1zm11 2h1v1h-1zM67 70h1v1h-1v1h-1v-1h1zm247 0h1v2h-1zM73 73h1v1h-1v1h-1v-1h1zm240 0h1v4h-1zm4 1h2v2h-1v2h-2v1h2v2h-1v-1h-2v3h-1v1h-1v-5h1v1h1v-5h2zM58 79h1v1h-1v1h-1v1h-1v-1h1v-1h1zm9 1h1v1h-1v1h-1v-1h1zm188 0h1v1h-1zm-8 1h1v1h1v1h1v1h1v1h1v1h1v1h1v1h-1v-1h-1v-1h-1v-1h-1v-1h-1v-1h-1v-1h-1zm10 1h1v1h-1zM62 84h1v1h-1v1h-1v-1h1zm193 5h1v1h1v1h1v1h-1v-1h-1v-1h-1zm58 1h1v1h1v4h-1v-1h-1zM60 93h1v5h-1zm253 7h1v11h-1zm0 16h1v3h-1zm-162 3h1v1h-1zm15 0h13v1h-13zm45 0h1v1h1v1h-1v1h-1v-1h1v-1h-1zm-85 4h4v1h2v1h-3v1h1v1h-1v-1h-1v-1h1v-1h-1v1h-1v1h-1v-1h-2v-1h2zm-4 1h1v1h-1zm90 0h1v2h-1zm-17 2h5v1h-5zm6 0h2v1h-2zm-83 1h1v1h-1zm9 1h1v1h-1zm-2 1h1v1h-1v1h-1v1h-1v1h-1v-1h1v-1h1v-1h1zm87 1h1v8h-1zm51 0h1v1h-1zm50 1h1v9h1v7h-1v8h1v1h-1v1h-1v-11h1v-4h-1zm-199 5h2v2h-1v2h-1v1h-1v-1h-2v-1h3zm203 6h1v1h1v2h-1v-2h-1zm-207 2h1v1h-1zm-2 2h1v1h-1v1h-1v-1h1zm104 2h1v6h-1zm-110 1h1v2h1v1h-1v1h-1zm110 7h1v4h-1zm102 2h1v1h-1zm-1 2h1v6h-1zm-101 4h1v5h-1zm101 4h1v3h-1zm-101 6h1v7h-1zm-110 2h1v4h-1zm212 2h1v2h-1zm-254 3h1v1h-1zm254 0h1v1h-1zm-108 6h1v1h-1zm6 0h1v3h-1zm101 1h1v4h-1zm-108 1h2v1h-2zm1 2h1v1h-1zm-3 1h1v1h-1zm9 1h1v3h-2v-1h1zm-158 4h1v2h-1zm47 1h1v1h-1zm108 0h1v1h-1zm3 0h1v1h-1zm101 0h1v2h-1zm-50 3h1v3h-1zm50 5h1v1h-1zm-253 1h1v3h-1zm253 1h1v4h-1zm0 7h1v2h-1zm0 8h1v2h-1zm-62 8h1v3h-3v-1h1v-1h1zm3 1h3v1h1v1h-1v1h-1v-1h1v-1h-1v1h-1v-1h-1zm-194 3h1v2h-1zm193 0h1v1h1v1h-1v1h-1v-1h1v-1h-1zm-2 3h1v1h-1v1h-1v-1h1zm62 1h1v1h-1zm-69 6h1v2h-1v1h-1v-1h1zm-177 1h6v1h4v1h1v1H66v-2h1zm29 0h2v1h-2v1h-2v-1h2zm218 0h1v2h-1zm-215 1h1v1h-1zm-45 1h1v2h-1zm127 0h9v1h-9zm46 0h1v1h1v-1h1v1h1v-1h1v2h-4v-1h-1zm6 0h1v1h1v-1h2v1h1v-1h3v1h-1v1h-1v1h-3v-1h-2v-1h-1zm81 2h1v2h-1zm-244 1h3v1h-3zm17 0h5v1h-5zm9 0h5v1h-5zm11 0h1v1h1v3h-1v-3h-1zm130 1h1v1h-1v1h-1v1h-1v1h-1v-1h1v-1h1v-1h1zm-14 3h3v1h-3zm5 0h1v1h-1zm2 0h3v1h-3zm-77 2h1v1h-1v1h-1v1h-1v-1h1v-1h1zm160 1h1v11h-1zm-198 3h1v5h-1zm32 2h1v1h-1zm-37 1h2v1h1v-1h1v2h-2v1h-1v1h-1zm32 3h1v1h-1zm-34 3h1v3h-1zm31 0h2v1h-2v1h-1v1h-1v1h-1v1h-1v-1h1v-1h1v-1h1v-1h1zm174 1h1v2h-1zm-203 3h2v4h1v2h-1v1h-1v-1h-1zm-2 2h1v5h-1zm7 0h1v2h-1zm19 0h1v1h-1zm180 0h1v1h-1zm-182 2h1v1h-1zm-10 2h6v1h-1v3h-1v1h-2v1h-2v1h1v1h-1v-1h-1v-2h-1v-3h1v-1h1zm4 1h-1v1h1zm3-1h1v1h-1zm-15 3h1v1h-1zm3 0h1v1h-1zm-9 3h1v4h-1zm1 5h1v2h-1zm10 0h1v1h-1v1h-1v-1h1zm-9 3h2v2h2v1h-2v1h-1v1h-1zm4 1h1v1h-1zm200 2h1v2h3v2h1v2h-1v-1h-1v-1h-2v2h-1zM8 302h1v1H8zm306 2h1v1h-1zm5 2h1v1h-1zM8 307h3v1H9v1H8zm7 0h1v1h1v1h-1v-1h-1zm302 2h1v1h-1v1h-1v-1h1zm-299 1h1v1h1v1h1v1h1v1h-1v-1h-1v-1h-1v-1h-1zm-8 1h1v1h1v1h1v1h1v1h-1v-1h-1v-1h-1v-1h-1zm295 0h1v1h-1zm6 3h1v1h-1v1h-1v1h-1v-1h1v-1h1zm-288 1h1v1h-1zm-9 1h1v1h-1zm286 0h1v1h-1zm-282 1h6v3h-1v1h-3v-1h-1v-2h-1zm287 0h1v1h1v1h-1v1h-1v1h-1v1h-1v1h-1v1h-1v2h-2v1h-1v-1h1v-1h1v-1h1v-1h-1v-1h-2v-2h4v-1h1v-1h2zm-278 2h1v1h1v1h1v1h1v1h-1v-1h-2v-2h-1zm-5 4h1v1h1v1h-1v-1h-1zm10 1h1v1h-1zm258 1h1v1h-1zm-255 2h1v2h12v1h-3v1h-3v2h39v1H69v1h-4v-1H53v1h-5v-1H36v1h-1v-1h-2v-2h1v-4h1zm-8 1h1v1h-1zm255 0h5v1h-1v1h2v1h4v2h-5v1h-14v-1h-4v-1h2v-3h11zm14 0h1v1h-1v1h-1v1h-1v-1h1v-1h1zm-266 3h1v1h1v1h-1v-1h-1zm71 1h1v1h2v1H87v-1h14zm72 0h8v1h-8zm19 0h6v1h-6zm-76 1h20v1h-20zm25 0h10v1h-10zm81 0h13v1h-13zm24 0h9v1h-9zm13 0h9v1h-9z"/><path fill="#50e070" fill-rule="evenodd" d="M35 7h8v1h-8zm26 0h2v1h-2zm19 0h4v1h-4zm12 0h3v1h-3zm24 0h6v1h-6zm10 0h4v1h-4zm40 0h8v1h-8zm26 0h17v1h-17zm24 0h6v1h-6zm13 0h4v1h-4zm17 0h2v1h-2zm6 0h8v1h-8zm23 0h6v1h-6zm15 0h3v1h-3zM40 12h1v1h-1zm36 0h3v1h-3zm95 0h15v1h-15zm22 0h3v1h-3zm38 0h6v1h-6zm24 0h1v1h-1zm3 0h2v1h-2zm42 2h1v1h1v1h-1v-1h-1zM25 16h1v1h-1zm278 2h1v2h-1zm-4 3h1v1h-1zM12 29h1v1h-1v1h-1v1h-1v1H9v1H8v-1h1v-1h1v-1h1v-1h1zm307 5h1v2h-1zm-5 12h1v2h-1zm4 4h1v1h-1zM12 51h1v1h-1zm0 2h1v8h-1zm-2 7h1v5h-1zm69 0h1v1h-1zm18 0h9v1h-9zm38 0h4v1h-4zm35 0h19v1h-19zm34 0h4v1h-4zm28 0h2v1h-2zm3 0h1v1h-1zm-122 6h19v1h-19zm33 0h27v1h-27zm30 0h4v1h-4zm51 0h5v1h-5zM12 67h1v2h-1zm230 0h1v1h-1zM70 68h1v1h-1v1h-1v-1h1zm-4 4h1v1h-1v1h-1v-1h1zm-54 1h1v8h-1zm235 0h1v1h1v1h-2zm3 3h1v1h1v1h-1v-1h-1zM13 82h1v4h-1v1h1v5h-1v1h-1v-1h1v-5h-1v-1h1zm247 3h1v1h1v1h-1v-1h-1zm3 4h1v2h-1zm51 0h1v1h-1zM7 92h1v1H7zm5 9h1v1h1v5h-2v-1h1v-3h-1zm43 1h1v11h-1zm209 3h1v2h-1zm-251 5h1v5h-1v1h-1v-2h1v-1h-1v-2h1zm251 2h1v4h-1zm54 4h1v2h-1zm-308 3h1v5h-1zm117 0h1v1h2v-1h1v1h2v1h-7v1h-1v-1h1v-1h1zm20 1h8v1h-8zm15 0h9v1h-9zm10 0h7v1h-7zm29 0h7v1h-7zm115 0h1v7h-1zm-2 2h1v10h-1zm4 0h1v1h-1zm-193 1h1v1h-1zm21 2h19v1h-19zm28 0h17v1h-17zm37 0h1v1h-1zm-85 1h1v1h-1zm-114 2h1v1h-1zm194 0h1v5h-1zm5 1h1v2h-1zm-156 4h1v5h-1zm263 1h1v5h-1zm-306 2h1v2h-1zm194 1h1v5h-1zm-194 2h1v1h1v2h-1v4h-1v-4h1v-1h-1zm93 1h1v1h-1v1h-1v-1h1zm159 0h1v1h-1zm0 3h1v1h-1zm-163 1h1v1h-1v1h-1v-1h1zm-46 1h1v3h-1zm-43 2h1v1h-1zm194 1h1v27h-1zm-193 1h1v1h-1v2h-1v-2h1zm92 0h2v1h-1v3h1v3h-2zm213 2h1v2h-1zm-305 2h1v4h-1v-1h-1v-2h1zm305 1h1v4h-1zm-308 4h1v2h-1zm45 0h1v3h-1zm209 1h1v6h-1zm-252 2h2v11h-1v-7h-1zm199 0h1v1h-1zm-156 1h1v3h-1zm261 4h1v2h-1zm2 0h1v3h-1zM7 168h1v4H7zm98 0h1v2h1v2h-1v3h1v4h-1v1h-1zm-50 2h1v5h-1zm156 0h1v4h-1zm-199 4h2v4h-1v-2h-1zm251 2h1v2h-1zm53 0h1v4h-1zm2 0h1v5h-1zm-112 2h1v6h-1zm-194 4h1v2h-1zm302 1h1v4h-1zm-304 1h1v3h-1v1H9v-3h1zm253 0h1v2h-1zm-57 2h1v1h-1zm5 0h1v1h-1zm-199 2h1v1h1v6h-1v6h-1v-8h1v-4h-1zm252 1h1v4h-1zm-209 1h1v1h-1zm55 2h4v1h-4zm7 0h2v1h-2zm3 0h34v1h-34zm46 0h17v1h-17zm34 0h3v1h-3zm-145 1h1v6h-1zm48 5h3v1h-3zm4 0h5v1h-5zm30 0h17v1h-17zm48 0h13v1h-13zm18 0h6v1h-6zm-193 4h1v3h-1zm253 2h1v1h-1zm55 2h1v2h-1zm-308 2h1v9h1v1h-1v1H9v-6h1zm253 2h1v2h-1zm-208 2h1v3h-1zm209 3h1v5h-1zm-3 8h1v1h-1v1h-1v-1h1zm-206 1h1v4h-1zm-46 1h2v6h-1v-1H9zm254 0h1v1h-1zm-251 6h1v1h1v1h-1v1h-1zm0 6h1v1h1v2h-1v-1h-1zm228 3h1v1h-1zm-179 5h1v1h-1zm48 0h4v1h-4zm5 3h1v10h-1zm71 1h1v1h-1zm2 0h3v1h-3zm-175 1h1v1h-1zm1 2h1v1h-1zm135 1h1v1h1v1h-1v-1h-1zm-138 1h1v1h-1v2h1v3h-1v-2H9v-3h1zm141 0h1v2h-1zm6 0h4v1h-4zm25 0h5v1h3v1h-4v-1h-4zm8 0h2v1h-2zm6 0h10v1h-10zm-31 1h2v1h-2zm3 0h1v1h-1zm4 0h4v1h-4zm5 0h1v1h-1zm32 0h1v1h-1zm-100 1h1v3h-1zm42 2h1v1h-1zm-141 3h1v6h-1zm99 2h1v1h-1zm-99 5h1v1h-1zm99 1h1v3h-1zm5 0h1v5h-1zm-104 1h1v2h-1zm0 5h1v7H9v-6h1zm123 2h1v1h-1zm-24 5h1v1h-1zm207 0h1v3h-1zm2 2h1v1h-1zm-306 1h1v1h-1zm306 1h1v2h-1zM9 287h1v4H9zm3 0h1v2h-1zm-2 7h1v7h-1v1H9v-2h1zm2 12h2v2h-2zm295 3h1v1h-1zm-3 3h1v1h-1v1h-1v1h-1v-1h1v-1h1zm-279 7h1v1h-1zm27 9h4v1h-4zm29 0h4v1h-4zm20 0h3v1h-3zm22 0h20v1h-20zm23 0h3v1h-3zm16 0h9v1h-9zm11 0h13v1h-13zm20 0h28v1h-28zm34 0h14v1h-14zm32 0h5v1h-5z"/><path fill="#40d060" fill-rule="evenodd" d="M62 8h1v1h-1zm3 0h11v1H65zm24 0h13v1H89zm14 0h4v1h-4zm9 0h1v1h-1zm22 0h8v1h-8zm16 0h14v1h-14zm30 0h8v1h-8zm26 0h16v1h-16zm25 0h19v1h-19zm62 1h2v1h1v1h1v1h1v1h1v1h1v1h-2v1h-2v1h-1v-1h-1v-2h-2v-1h-2v-1h1v-2h2zM94 10h1v1h1v1h-5v-1h3zm-5 1h1v1h-1zm200 0h1v1h-1zm6 1h-1v1h1v1h1v-1h-1zM28 17h2v1h1v1h-2v1h-2v-2h1zm282 9h2v1h1v1h1v1h1v1h1v2h2v2h-2v-1h-4v-1h-2v-1h-1v-1h-1v-3h2zm-4 1h1v1h-1zM12 30h1v1h-1v1h-1v-1h1zm-3 3h1v4H9zm227 29h1v1h1v1h1v1h1v3h-1v1h-2v-2h-1v1h-1v-1h-2v-1h-1v-1h1v-1h2v-1h1zM76 63h1v1h1v1h1v2h-1v1h-3v-2h1v-1h1v-1h-1v1h-1v1h-1v-1h1v-1h1zm-4 4h1v1h-1zm169 2h1v2h1v2h-2v-1h-1v-2h1zm3 2h1v1h-1zM64 75h1v1h1v5h-1v1h-3v-1h-1v-1h-1v1h-1v-1h1v-2h2v-1h1v-1h1zm189 5h1v1h1v1h1v1h1v1h1v1h1v1h1v1h1v1h-3v2h-2v-1h-1v-1h-1v-2h-2v-1h-1v-1h1v-3h1zM56 91h1v1h1v2h1v3h-1v1h-1v5h-1v-7h1v-4h-1zm203 15h1v1h-1zm0 7h1v3h-1zm0 5h1v6h-1zm-203 2h1v3h-1zm80 1h11v1h-11zm44 0h14v1h-2v1h-2v1h-1v1h-9v-1h3v-1h-1v-1h-2zm-30 3h8v1h-8zm56 1h1v1h-1zm-150 2h1v5h-1zm151 0h1v2h-1zm2 0h2v2h-1v-1h-1zm-92 2h4v3h-2v1h-1v-1h-2v-2h1zm-61 9h1v1h1v1h2v4h-1v-1h-1v1h-1v1h-1zm49 3h2v1h2v1h1v2h-2v1h-1v1h-3v-2h-2v-1h2v-2h1zm104 1h2v4h-1v1h-2v-4h1zm50 0h1v2h2v1h1v2h-1v1h-3zm-52 6h1v1h-1zm-151 4h1v1h1v1h1v1h-1v2h-1v1h-1zm45 5h1v3h1v-1h2v2h-1v2h-2v1h-1zm158 1h1v2h4v3h-2v1h-1v-2h-1v5h2v1h1v2h-3v3h-1zm-52 1h1v3h-1zm-196 7h1v6h-1v-3h-1v2H8v-2h1v-1h2zm196 4h1v1h-1zm-151 5h1v1h3v1h-1v2h1v5h-2v1h-1v1h-1v-5h-1v-1h1zm151 6h1v2h1v-1h2v3h-2v-1h-2zm52 7h1v2h3v4h-1v1h-2v2h-1zm-248 2h1v2h-1zm179 3h9v1h-4v1h-4v-1h-1zm-89 3h1v1h1v1h-1v-1h-1zm7 1h3v1h-3zm30 0h16v1h-16zm-82 5h1v2h1v2h1v2h-1v1h-1v2h-1zm203 13h1v1h1v-1h2v4h-2v-1h-1v1h-1zm-203 2h1v1h1v3h1v1h1v1h-3v1h-1zm260 3h1v3h-2v-1h1zM56 231h1v1h1v1h1v1h1v2h-2v1h-1v1h-1zm189 6h3v2h1v2h-1v1h-1v1h-1v1h-1v1h-5v1h-1v-2h-1v1h-1v1h-1v-1h1v-1h1v-1h1v-1h1v-1h2v-1h1v-1h1v-1h1zm-132 11h1v1h-1zm39 2h1v1h-1zm2 0h1v1h-1zm-41 2h1v5h-1v-1h-1v-2h1zm100 1h9v1h-9zm-69 4h1v1h4v3h-1v1h-2v1h-7v-1h1v-1h1v-1h1v-1h1v-1h1zm-11 12h3v1h-1v1h-3v-1h1zm-5 5h1v1h1v2h-1v-2h-1zm3 2h2v1h-2zm178 33h3v3h-1v1h-1v1h-3v-2h2zm-296 1h2v1h1v-1h1v2h-1v1h1v2h-3v-1h-1v-1h1v-1h-1v1h-1v-1h1zm-2 1h1v1h-1zm14 14h1v1h1v1h-1v-1h-1zm4 0h1v1h-1zm263 1h2v3h-2v-1h-1v-1h1zm-229 3h11v1h-3v1h-1v-1h-7z"/><path fill="#60e080" fill-rule="evenodd" d="M33 8h1v1h-1v1h-1v1h-1v1h-1v1h-1v1h-1v-1h1v-1h1v-1h1v-1h1V9h1zm10 5h1v1h-1zm23 0h1v1h-1zm-31 2h1v1h-1zm270 4h1v1h-1zM21 20h1v1h-1zm276 0h1v1h1v1h-1v-1h-1zm10 1h1v1h-1zM19 22h1v1h-1v1h-1v1h-1v1h-1v1h-1v1h-1v1h-1v-1h1v-1h1v-1h1v-1h1v-1h1v-1h1zm6 3h1v1h-1v1h-1v1h-1v1h-1v1h-1v1h-1v-1h1v-1h1v-1h1v-1h1v-1h1zm278 1h1v1h1v1h1v1h1v1h1v1h1v1h1v1h1v1h-1v-1h-1v-1h-1v-1h-1v-1h-1v-1h-1v-1h-1v-1h-1zM17 33h1v1h-1v1h-1v-1h1zM7 37h1v8H7zm6 3h1v2h-1zm306 6h1v20h-1zM7 55h1v12H7zm75 11h3v1h-3zm6 0h22v1H88zm107 0h16v1h-16zm17 0h1v1h-1zm5 0h1v1h-1zm3 0h7v1h-7zM79 68h1v1h-1zm155 0h1v1h1v1h1v1h1v1h-1v-1h-1v-1h-1v-1h-1zM77 70h1v1h-1v1h-1v1h-1v1h-1v1h-1v1h-1v1h-1v1h-1v-1h1v-1h1v-1h1v-1h1v-1h1v-1h1v-1h1zm242 2h1v5h-1zm-71 1h1v1h1v1h-1v-1h-1zm-8 1h1v1h1v1h-1v-1h-1zM7 78h1v11H7zm238 1h1v1h1v1h-1v-1h-1zm74 2h1v6h-1zM55 82h1v2h-1zm8 2h1v1h-1v1h-1v-1h1zm250 1h1v4h-1zm6 4h1v6h-1zm-55 1h1v3h-1zm-6 7h1v5h-1zm61 0h1v2h-1zm-55 1h1v4h-1zM7 101h1v1H7zm0 7h1v2H7zm251 0h1v3h-1zm0 5h1v2h-1zm61 1h1v15h-1zM7 118h1v13H7zm118 2h1v1h-1v1h-1v-1h1zm188 1h1v4h-1zm-192 3h1v1h-1v1h-1v-1h1zm143 0h1v11h-1zm-135 1h1v1h-1v1h-1v1h-1v1h-1v-1h1v-1h1v-1h1zm2 0h12v1h-12zm182 1h1v1h-1zm-55 1h1v7h-1zM7 132h1v3H7zm105 1h1v1h-1v1h-1v1h-1v1h-1v1h-1v1h-1v1h-1v-1h1v-1h1v-1h1v-1h1v-1h1v-1h1zm94 0h1v2h-1zm113 0h1v12h-1zm-199 1h1v1h-1v1h-1v1h-1v1h-1v1h-1v-1h1v-1h1v-1h1v-1h1zm138 3h1v3h-1zm-145 4h1v1h-1v1h-1v-1h1zm200 1h1v4h-1zm-213 5h1v2h-1zm219 3h1v4h-1zm-61 1h1v1h-1zm-158 2h1v3h-1zm164 3h1v1h-1zm55 0h1v4h-1zm-6 1h1v2h-1zM7 158h1v2H7zm0 5h1v3H7zm312 0h1v14h-1zm-61 9h1v4h-1zm55 1h1v1h-1zm-49 3h1v8h-1zm49 0h1v11h-1zM7 178h1v12H7zm312 0h1v4h-1zm-61 1h1v4h-1zm-158 2h1v1h-1zm0 9h1v2h-1zm106 0h1v1h-1zm6 1h1v2h-1zM7 193h1v28H7zm112 5h12v1h-12zm139 1h1v7h-1zm6 0h1v9h-1zm55 0h1v1h-1zm0 2h1v10h-1zm-6 1h1v1h-1zm-300 3h1v5h-1zm245 4h1v1h-1zm0 3h1v3h-1zm61 0h1v1h-1zm-61 6h1v1h-1zm61 0h1v2h-1zm-62 5h1v1h-1v1h-1v1h-1v1h-1v1h-1v1h-1v1h-1v1h-1v1h-1v1h-1v1h-1v1h-1v1h-1v1h-1v-1h1v-1h1v-1h1v-1h1v-1h1v-1h1v-1h1v-1h1v-1h1v-1h1v-1h1v-1h1v-1h1zM7 224h1v17H7zm257 1h1v1h-1v1h-1v1h-1v-1h1v-1h1zm55 0h1v5h-1zm-6 1h1v10h-1zm-55 5h1v1h-1v1h-1v1h-1v1h-1v1h-1v1h-1v-1h1v-1h1v-1h1v-1h1v-1h1zm61 8h1v51h-1zM7 242h1v9H7zm231 0h1v1h-1v1h-1v1h-1v1h-1v1h-1v1h-1v1h-1v-1h1v-1h1v-1h1v-1h1v-1h1v-1h1zm-175 3h3v1h-3zm11 0h3v1h-3zm16 0h1v1h-1zm10 0h2v1h-2zm141 3h1v2h-1v1h-1v1h-1v-2h1v-1h1zm-90 1h1v1h-1v1h-1v-1h1zm-96 2h1v1h-1zm2 0h12v1H57zm18 0h11v1H75zm-68 2h1v19H7zm6 2h1v2h-1zm185 0h6v1h-6zm37 0h1v1h-1zm-82 1h1v1h-1zm-10 1h1v1h-1v1h-1v1h-1v1h-1v1h-1v1h-1v1h-1v1h-1v1h-1v1h-1v1h-1v1h-1v-1h1v-1h1v-1h1v-1h1v-1h1v-1h1v-1h1v-1h1v-1h1v-1h1v-1h1zm-29 5h1v5h-1zm-6 2h1v5h-1zm37 1h1v1h-1v1h-1v1h-1v1h-1v1h-1v-1h1v-1h1v-1h1v-1h1zm-132 2h1v1h-1zm0 2h1v1h-1zm116 2h1v1h-1v1h-1v-1h1zm-21 2h1v3h1v1h-1v-1h-1zm29 0h1v1h-1v1h-1v-1h1zm176 0h1v15h-1zm-187 1h1v1h-1v1h-1v1h-1v1h-1v-1h1v-1h1v-1h1zM7 275h1v33H7zm123 5h1v1h-1v1h-1v1h-1v1h-1v-1h1v-1h1v-1h1zm-6 6h1v1h-1v1h-1v1h-1v-1h1v-1h1zm-16 5h1v7h-1zm7 4h1v1h-1v1h-1v1h-1v1h-2v1h-2v-1h2v-1h2v-1h1v-1h1zm198 1h1v8h-1v1h-1v1h-1v1h-1v1h-1v-1h1v-1h1v-1h1v-1h1zm-300 1h1v1h-1zm306 0h1v7h-1zm-306 2h1v7h-1v-1h-1v-2h1zm306 8h1v1h-1v1h-1v-1h1zM9 310h1v1H9zm292 4h1v1h-1v1h-1v1h-1v1h-1v1h-1v1h-1v1h-1v1h-1v1h-1v-1h1v-1h1v-1h1v-1h1v-1h1v-1h1v-1h1v-1h1zm-278 2h2v1h-2zm-7 1h1v1h1v1h1v1h-1v-1h-2zm291 1h1v1h-1v1h-1v1h-1v1h-1v1h-1v-1h1v-1h1v-1h1v-1h1zm-287 3h1v1h-1zm6 7h1v1h-1zm143 5h7v1h-7zm8 0h1v1h-1zm17 0h4v1h-4zm77 0h1v1h-1zm19 0h1v2h-1zm-258 1h1v1h-1z"/><path fill="#206030" fill-rule="evenodd" d="M295 7h1v1h1v1h-1V8h-1zM57 14h9v1h-9zm215 0h5v1h-5zm20 2h1v1h1v1h1v1h-1v-1h-1v-1h-1zm13 1h1v1h-1zM6 37h1v10H6zm308 6h2v1h-2zm5 0h1v1h-1zM6 53h1v15H6zm62 15h1v1h-1v1h-1v1h-1v-1h1v-1h1zm-6 6h1v1h-1zm-2 2h1v1h-1v1h-1v1h-1v1h-1v1h-1v-1h1v-1h1v-1h1v-1h1zM6 77h1v60H6zm8 6h1v4h-1zm0 7h1v1h-1zm243 3h1v1h-1zm0 2h1v4h-1zM14 99h1v17h-1zm243 11h1v2h-1zm-131 8h8v1h-8zM14 129h1v2h-1zm-8 9h1v1H6zm8 4h1v3h-1zm-8 1h1v26H6zm93 2h1v1h-1zm-85 2h1v35h-1zm93 12h1v9h-1zm106 9h1v1h-1zM6 171h1v14H6zm207 4h1v3h-1zm-106 5h1v9h-1zm-93 3h1v15h-1zm-8 4h1v14H6zm207 1h1v3h-1zm-56 3h36v1h-36zm38 0h4v1h-4zm18 2h1v5h-1zm-114 6h1v1h-1zm158 5h1v10h-1zM6 206h1v82H6zm8 4h1v6h-1zm0 8h1v12h-1zm243 0h1v3h-1zM14 231h1v6h-1zm243 3h1v1h-1v1h-1v1h-1v1h-1v1h-1v-1h1v-1h1v-1h1v-1h1zm-243 4h1v6h-1zm234 5h1v1h-1zm-185 1h1v1h-1zm2 0h26v1H65zm36 0h12v1h-12zm13 0h1v1h-1zm132 1h1v1h-1v1h-1v1h-1v-1h1v-1h1zm-232 4h1v3h-1zm93 4h1v1h-1zm128 3h1v1h-1zm-81 1h1v1h-1zm-140 3h1v5h-1zm0 6h1v11h-1zm0 16h1v11h-1zm-8 9h1v12H6zm0 16h1v1H6zm309 5h1v1h-1zm-298 8h1v1h1v1h1v1h1v1h-1v-1h-1v-1h-1v-1h-1zm13 1h1v1h1v1h1v1h1v1h1v1h-1v-1h-1v-1h-1v-1h-1v-1h-1zm270 5h1v1h-1zm-276 1h1v1h-1z"/><path fill="#50b060" fill-rule="evenodd" d="M119 6h53v1h-53zm60 0h4v1h-4zm12 0h10v1h-10zM32 8h1v1h-1zm-7 7h1v1h-1zm-7 7h1v1h-1v1h-1v1h-1v1h-1v-1h1v-1h1v-1h1zm295 4h1v1h-1zM11 29h1v1h-1v1h-1v1H9v1H8v1H7v-1h1v-1h1v-1h1v-1h1zm11 0h1v1h-1v1h-1v-1h1zm294 0h1v1h1v1h-1v-1h-1zm4 4h1v1h-1zm0 22h1v20h-1zM100 67h14v1h-14zm39 0h9v1h-9zm36 0h3v1h-3zm12 0h21v1h-21zm25 0h21v1h-21zm29 9h1v1h1v1h1v1h1v1h-1v-1h-1v-1h-1v-1h-1zm5 5h1v1h1v1h1v1h1v1h-1v-1h-1v-1h-1v-1h-1zm74 4h1v22h-1zm-69 1h1v1h1v1h1v1h-1v-1h-1v-1h-1zM54 92h1v1h-1zm7 2h1v2h-1zm204 6h1v5h-1zm55 10h1v36h-1zm-55 8h1v21h-1zm-53 1h1v1h-1zm-90 3h1v1h-1v1h-1v1h-1v-1h1v-1h1zm29 4h2v1h-2zm7 0h1v1h-1zm24 0h2v1h-2zm-58 5h1v1h-1v1h-1v-1h1zm-14 3h1v1h-1zm-5 5h1v1h-1zm8 3h1v1h-1v1h-1v-1h1zm-52 1h1v1h-1zm204 5h1v9h-1zm55 2h1v9h-1zm-55 15h1v24h-1zm55 0h1v5h-1zm-259 8h1v2h-1zm259 2h1v10h-1zm-259 5h1v2h-1zm259 6h1v1h-1zm0 2h1v13h-1zm-112 11h1v1h-1zm112 4h1v3h-1zm-259 4h1v5h-1zm196 15h1v1h-1v1h-1v-1h1zm-3 3h1v1h-1v1h-1v1h-1v-1h1v-1h1zm-8 8h1v1h-1zm-185 3h1v1h-1zm259 9h1v1h-1zm-228 7h5v1h-5zm228 13h1v1h-1zm0 20h1v4h-1zm-204 10h1v1h-1v1h-1v-1h1zm204 5h1v3h-1zm-8 14h1v1h-1v1h-1v-1h1zm-3 3h1v1h-1v1h-1v1h-1v-1h1v-1h1zm-19 7h1v1h-1v1h-1v-1h1zm-254 3h2v1h-2zm12 0h17v1H48zm24 0h50v1H72zm177 0h7v1h-7zm30 0h7v1h-7zm18 1h1v1h-1v1h-1v1h-1v-1h1v-1h1zm-161 6h5v1h-5zm17 0h2v1h-2zm13 0h9v1h-9zm20 0h6v1h-6zm8 0h1v1h-1zm2 0h10v1h-10z"/><path fill="#50c060" fill-rule="evenodd" d="M172 6h7v1h-7zm92 2h3v1h-3zm20 0h7v1h-7zM31 9h1v1h-1zm265 0h1v1h1v1h1v1h1v1h1v1h-1v-1h-1v-1h-1v-1h-1v-1h-1zM28 12h1v1h-1v1h-1v1h-1v-1h1v-1h1zm-2 4h1v1h-1zm-3 3h1v1h-1zm288 5h1v1h1v1h-1v-1h-1zM14 26h1v1h-1v1h-1v1h-1v-1h1v-1h1zm10 1h1v1h-1zm295 5h1v1h-1zm1 2h1v1h-1zM14 37h1v1h-1zm194 30h4v1h-4zm31 5h1v1h-1zm6 8h1v1h-1zm5 3h1v1h-1zM54 84h1v2h-1zm196 1h1v1h-1zM54 90h1v2h-1zm7 1h1v3h-1zm196 1h1v1h-1zM59 93h1v1h-1zm-5 3h1v1h-1zm5 0h1v1h-1zm2 0h1v47h-1zm-7 2h1v34h-1zm92 28h5v1h-5zm13 0h23v1h-23zm25 0h5v1h-5zm20 0h1v1h1v3h-1v-3h-1zm-81 4h1v1h-1zm-1 3h1v1h-1zm83 0h1v5h-1zm-96 2h1v1h-1zm-55 2h1v9h-1zm52 1h1v1h-1zm101 3h1v1h-1zm-104 2h1v1h-1zm-42 1h1v6h-1zm-7 4h1v1h-1zm151 1h1v1h-1zm-151 2h1v7h-1zm7 1h1v18h-1zm0 20h1v1h-1zm-7 1h1v5h-1zm7 5h1v2h-1zm-7 2h1v5h-1zm50 3h1v2h-1zm-43 1h1v23h-1zm40 4h1v1h-1zm100 9h10v1h-10zm-97 2h1v1h-1zm2 0h2v1h-2zm8 0h21v1h-21zm37 0h35v1h-35zm48 0h9v1h-9zm12 0h1v1h-1zm-157 5h1v5h-1zm7 8h1v10h-1zm194 12h1v1h-1zm-194 1h1v11h-1zm190 3h1v1h-1v1h-1v-1h1zm-4 4h1v1h-1zm-186 5h1v3h-1zm189 3h1v1h-1v1h-1v-1h1zm-189 1h1v3h-1zm43 5h4v1h-4zm11 1h1v1h-1zm39 1h12v1h-12zm16 0h7v1h-7zm49 0h6v1h-6zm-104 3h1v6h-1zm-25 1h2v1h-2zm7 0h3v1h-3zm18 19h1v1h-1zm0 11h1v1h-1zm197 30h1v1h-1v1h-1v1h-1v1h-1v-1h1v-1h1v-1h1zm2 0h1v1h-1zm-23 13h1v2h-1zm-253 2h10v1H38zm84 0h43v1h-43zm120 0h7v1h-7zm14 0h16v1h-16zm42 0h1v1h-1zm-3 1h1v1h-1zm-173 6h3v1h-3zm12 0h2v1h-2z"/><path fill="#50e060" fill-rule="evenodd" d="M63 7h17v1H63zm32 0h21v1H95zm35 0h36v1h-36zm44 0h18v1h-18zm35 0h7v1h-7zm24 0h13v1h-13zm16 0h3v1h-3zm62 18h1v1h-1zM10 57h1v3h-1zm129 3h7v1h-7zM10 77h1v6h-1zm2 4h1v3h-1zm0 6h1v5h-1zm0 16h1v3h-1zm0 10h1v1h-1zm134 7h1v1h-1zm11 0h1v1h-1zm159 7h1v4h-1zm0 9h1v1h-1zm-304 2h1v1h-1zm0 3h1v1h-1zm0 5h1v1h-1zm0 2h1v2h-1zm0 4h1v2h-1zm-2 11h1v2h-1zm2 2h1v9h-1zm199 16h1v3h-1zm-201 2h1v1h-1zm201 2h1v1h-1zm-201 2h1v10h-1v-1H9v-3h1zm2 2h1v4h-1zm142 3h12v1h-12zm29 0h9v1h-9zm14 0h3v1h-3zm-187 9h1v1h-1zm1 17h1v1h-1v6h-1v-6h1zm-1 32h1v1h-1zm2 1h1v2h-1zm-2 2h1v1h-1zm170 1h2v1h-2zm7 0h3v1h-3zm-177 6h1v1h-1zm0 12h1v3h-1zm-1 10h2v12h-1v-7H9zm3 4h1v1h-1zm44 42h25v1H56zm48 0h19v1h-19zm45 0h1v1h-1zm6 0h7v1h-7zm86 0h7v1h-7zm9 0h9v1h-9z"/><path fill="#40a050" fill-rule="evenodd" d="M35 6h1v1h-1zm2 0h8v1h-8zm20 0h20v1H57zm37 0h2v1h-2zm4 0h14v1H98zm111 0h8v1h-8zm9 0h1v1h-1zm4 0h50v1h-50zM21 19h1v1h-1v1h-1v-1h1zm291 17h1v1h-1zM80 59h1v1h-1zm14 0h19v1H94zm40 0h51v1h-51zm52 0h14v1h-14zm25 0h19v1h-19zm31 7h1v1h1v1h-1v-1h-1zM81 67h1v1h-1zm6 0h6v1h-6zm29 0h21v1h-21zm36 0h7v1h-7zm10 0h1v1h-1zm2 0h5v1h-5zm18 0h1v1h-1zM77 71h1v1h-1v1h-1v-1h1zm170 0h1v1h1v1h-1v-1h-1zm-10 1h1v1h-1zM73 75h1v1h-1zm178 0h1v1h1v1h1v1h1v1h-1v-1h-1v-1h-1v-1h-1zM71 77h1v1h-1zm190 8h1v1h1v1h1v1h-1v-1h-1v-1h-1zm4 27h1v1h-1zm-147 14h1v1h-1zm-5 5h1v1h-1v1h-1v-1h1zm-6 17h1v1h-1zm158 12h1v3h-1zm-158 31h1v1h-1zm158 27h1v6h-1zm0 7h1v1h-1zm-22 11h1v1h-1zm-3 3h1v1h-1v1h-1v-1h1zm-4 4h1v1h-1v1h-1v1h-1v-1h1v-1h1zm-121 2h1v1h-1zm15 36h1v1h-1zm-3 3h1v1h-1zm-2 2h1v1h-1v1h-1v1h-1v1h-1v1h-1v1h-1v1h-1v1h-1v-1h1v-1h1v-1h1v-1h1v-1h1v-1h1v-1h1zm195 19h1v2h-1zm-16 17h1v1h-1zm-13 1h1v1h-1z"/><path fill="#50c070" fill-rule="evenodd" d="M34 8h1v1h-1zm-4 2h1v1h-1v1h-1v-1h1zm277 10h1v1h1v1h1v1h1v1h-1v-1h-1v-1h-1v-1h-1zM20 31h1v1h-1v1h-1v1h-1v1h-1v1h-1v1h-1v-1h1v-1h1v-1h1v-1h1v-1h1zm300 4h1v3h-1zm-7 3h1v1h-1zm7 8h1v3h-1zm0 5h1v3h-1zm-7 12h1v8h-1zm7 12h1v3h-1zm0 5h1v3h-1zM54 83h1v1h-1zm0 3h1v4h-1zm7 2h1v3h-1zm193 1h1v1h1v1h-1v-1h-1zm-42 32h1v1h-1zm-81 5h15v1h-15zm58 0h5v1h-5zm-61 1h1v1h-1zm-2 2h1v1h-1v1h-1v-1h1zm-5 5h1v1h-1v1h-1v1h-1v1h-1v1h-1v1h-1v1h-1v1h-1v-1h1v-1h1v-1h1v-1h1v-1h1v-1h1v-1h1zm-67 2h1v1h-1zm54 0h1v1h-1v1h-1v-1h1zm97 5h1v2h-1zm7 0h1v5h-1zm-158 5h1v2h-1zm0 3h1v2h-1zm7 1h1v2h-1zm144 0h1v10h-1zm0 11h1v2h-1zm-151 4h1v5h-1zm0 6h1v1h-1zm0 14h1v1h-1zm46 14h1v1h-1zm-46 3h1v2h-1zm210 24h1v1h-1v1h-1v1h-1v1h-1v1h-1v1h-1v-1h1v-1h1v-1h1v-1h1v-1h1zm-210 6h1v4h-1zm198 6h1v1h-1v1h-1v-1h1zm-191 2h1v1h-1zm187 2h1v1h-1v1h-1v1h-1v-1h1v-1h1zm-194 1h1v4h-1zm61 3h1v1h-1zm0 2h1v3h-1zm62 0h4v1h-4zm-120 4h2v1h-2zm3 0h4v1h-4zm12 0h2v1h-2zm15 0h3v1h-3zm13 0h4v1h-4zm7 0h1v1h-1zm8 5h1v3h-1zm0 12h1v2h-1zm-2 29h1v1h-1v1h-1v-1h1zm197 9h1v1h-1zm-300 5h1v1h1v1h1v1h1v1h-1v-1h-1v-1h-1v-1h-1zm292 1h1v1h-1zm11 0h1v1h-1zm-14 13h1v1h-1zm-3 1h1v1h-1zm-2 2h1v1h-1zm-205 5h2v1h-2zm29 0h4v1h-4zm7 0h9v1h-9zm16 0h6v1h-6zm7 0h3v1h-3zm11 0h5v1h-5zm48 0h9v1h-9zm15 0h32v1h-32z"/><path fill="#205020" fill-rule="evenodd" d="M297 9h1v1h-1zM40 14h1v1h-1zm10 0h2v1h-2zm20 0h46v1H70zm131 0h12v1h-12zm23 0h5v1h-5zm17 0h26v1h-26zm40 0h2v1h-2zm22 1h1v1h-1zm4 4h1v1h-1zM6 34h1v3H6zm0 13h1v5H6zm71 12h1v1h-1v1h-1v1h-1v1h-1v-1h1v-1h1v-1h1zm-6 6h1v1h-1v1h-1v1h-1v-1h1v-1h1zM6 69h1v5H6zm57 4h1v1h-1zM6 75h1v1H6zm55 0h1v1h-1zm196 29h1v3h-1zm0 11h1v3h-1zm-120 3h23v1h-23zm26 0h12v1h-12zm15 0h3v1h-3zm17 0h12v1h-12zm18 6h1v1h-1zm44 0h1v1h-1zm0 17h1v2h-1zm0 9h1v1h-1zm0 2h1v2h-1zm0 3h1v2h-1zm0 4h1v2h-1zm0 7h1v2h-1zM6 170h1v1H6zm251 21h1v2h-1zm0 5h1v1h-1zM53 223h1v4h-1zm209 6h1v1h-1v1h-1v-1h1zm-14 1h1v1h-1v1h-1v-1h1zm11 2h1v1h-1zm-8 8h1v1h-1v1h-1v1h-1v-1h1v-1h1zm-135 19h1v2h-1zm-9 6h1v2h-1zm9 2h1v8h-1zm0 12h1v2h-1zm-9 14h1v2h-1zm-94 23h1v1h-1z"/><path fill="#60c070" fill-rule="evenodd" d="M291 14h1v1h-1zm29 24h1v2h-1zm0 6h1v2h-1zm0 5h1v2h-1zM72 65h1v1h-1v1h-1v-1h1zm248 13h1v2h-1zm-108 44h1v2h-1zm-9 4h1v1h-1zm2 64h1v1h-1zm44 40h1v1h-1v1h-1v-1h1zm9 2h1v1h-1zm-30 16h1v1h-1zm2 0h1v1h-1zm-175 4h2v1h-2zm4 0h1v1h-1zm5 0h8v1h-8zm10 0h13v1H74zm30 0h3v1h-3zM8 310h1v1h1v1H9v-1H8zm23 13h1v1h-1zm-9 1h1v1h1v1h-1v-1h-1zm12 2h1v1h-1zm137 1h6v1h-6zm10 0h10v1h-10zm106 0h1v1h-1zm-251 7h12v1H36zm17 0h12v1H53zm16 0h20v1H69zm22 0h27v1H91zm56 0h1v1h-1zm107 0h33v1h-33z"/><path fill="#205030" fill-rule="evenodd" d="M294 6h1v1h-1zM39 14h1v1h-1zm2 0h9v1h-9zm11 0h5v1h-5zm14 0h4v1h-4zm201 0h5v1h-5zm10 0h4v1h-4zm6 0h5v1h-5zm6 0h1v1h-1zm2 1h1v1h-1zm13 1h1v1h-1zm2 2h1v1h-1zm7 25h1v1h-1zm3 0h3v1h-3zM73 63h1v1h-1v1h-1v-1h1zm-8 8h1v1h-1v1h-1v-1h1zm192 28h1v5h-1zm0 8h1v3h-1zm0 5h1v3h-1zm-123 6h3v1h-3zm41 0h3v1h-3zm82 7h1v16h-1zm-44 5h1v10h-1zm0 14h1v10h-1zm44 7h1v1h-1zm0 3h1v1h-1zm0 3h1v2h-1zm0 4h1v5h-1zm-44 4h1v3h-1zm44 3h1v23h-1zm-44 1h1v1h-1zm0 4h1v2h-1zm0 5h1v3h-1zm0 7h1v3h-1zm44 12h1v7h-1zm0 17h1v4h-1zm1 19h1v1h-1zm-6 6h1v1h-1zm-136 22h1v6h-1zm0 14h1v4h-1zM14 317h1v1h1v1h1v1h-1v-1h-1v-1h-1zm7 7h1v1h1v1h1v1h-1v-1h-1v-1h-1zm14 2h1v1h-1z"/><path fill="#40c060" fill-rule="evenodd" d="M102 8h1v1h-1zm5 0h5v1h-5zm160 0h17v1h-17zm24 0h3v1h-3zm-1 3h1v1h-1zm4 1h1v1h1v1h-1v-1h-1zm-1 2h1v1h-1zM25 17h1v1h-1v1h-1v-1h1zm293 14h1v1h-1zM56 92h1v2h-1zm3 2h1v2h-1zm-5 3h1v1h-1zm76 29h1v1h-1zm77 3h1v1h-1zm-2 1h1v3h-1zm0 8h1v3h-1zm2 4h1v6h-1zm-2 1h1v6h-1zm0 17h1v1h-1zm-101 1h1v2h-1zm-43 9h1v2h-1zm0 6h1v2h-1zm-7 2h1v2h-1zm7 5h1v1h-1zm40 0h1v5h-1zm3 2h1v2h-1zm-3 12h1v1h-1zm2 0h5v1h-5zm90 0h8v1h-8zm-91 2h2v1h-2zm3 0h1v1h-1zm3 0h6v1h-6zm27 0h16v1h-16zm51 0h5v1h-5zM61 222h1v3h-1zm184 14h1v1h-1v1h-1v1h-1v1h-1v1h-1v-1h1v-1h1v-1h1v-1h1zm-137 10h6v1h-6zm201 62h1v1h-1v3h-3v1h-1v-1h1v-1h1v-1h1v-1h1zm1 5h1v1h-1zm-20 13h1v1h-1z"/><path fill="#50a060" fill-rule="evenodd" d="M34 17h1v1h-1zm271 12h1v1h-1zm2 2h1v1h-1zm-67 33h1v1h-1zm25 34h1v2h-1zm0 9h1v2h-1zm55 0h1v3h-1zm0 39h1v4h-1zm-55 11h1v2h-1zm55 2h1v3h-1zm0 4h1v2h-1zm0 7h1v5h-1zm0 15h1v1h-1zm0 2h1v1h-1zm-55 7h1v14h-1zm55 7h1v2h-1zm0 5h1v4h-1zm0 6h1v10h-1zm0 13h1v5h-1zm0 6h1v14h-1zm-87 15h1v1h-1zm87 0h1v19h-1zm0 20h1v7h-1zm0 8h1v11h-1zm0 15h1v4h-1zm0 9h1v2h-1zm-32 28h1v1h-1zm-2 1h1v1h-1z"/><path fill="#207030" fill-rule="evenodd" d="M14 53h1v1h-1zm0 4h1v3h-1zm0 25h1v1h-1zm0 5h1v3h-1zm0 4h1v1h-1zm0 2h1v1h-1zm0 23h1v2h-1zm0 4h1v9h-1zm0 11h1v2h-1zm0 4h1v7h-1zm0 10h1v2h-1zm85 1h1v1h-1zm8 22h1v1h-1zm0 6h1v1h-1zm0 5h1v1h-1zm-93 3h1v1h-1zm94 9h1v1h-1zm9 0h12v1h-12zm17 0h2v1h-2zm4 0h19v1h-19zm61 0h3v1h-3zm-185 7h1v5h-1zm0 11h1v1h-1zm0 7h1v2h-1zm243 5h1v1h-1zm-243 9h1v1h-1zm0 7h1v1h-1zm0 7h1v3h-1zm77 0h2v1h-2zm7 0h3v1h-3zm15 0h1v1h-1zm-99 4h1v1h-1zm229 0h1v1h-1v1h-1v-1h1zm-229 4h1v2h-1zm0 6h1v2h-1zm139 0h1v1h-1zm-139 7h1v1h-1zm116 4h1v1h-1zm-116 8h1v5h-1zm103 5h1v1h-1zM14 293h1v1h-1zm96 7h1v1h-1zm189 15h1v1h-1z"/><path fill="#60d080" fill-rule="evenodd" d="M39 13h4v1h-4zm5 0h4v1h-4zm-8 1h1v1h-1zm257 2h1v1h1v1h-1v-1h-1zm12 2h1v1h-1zM22 19h1v1h-1zm274 0h1v1h-1zM30 20h1v1h-1zm283 24h1v1h-1zm0 11h1v4h-1zM78 69h1v1h-1zm160 3h1v1h1v1h-1v-1h-1zm75 5h1v2h-1zM69 78h1v1h-1v1h-1v-1h1zm-4 4h1v1h-1v1h-1v-1h1zm248 2h1v1h-1zm0 5h1v1h-1zm0 38h1v4h-1zm0 32h1v1h-1zm0 12h1v2h-1zm0 3h1v2h-1zm0 13h1v1h-1zm0 16h1v1h-1zm-58 32h1v1h-1zm58 1h1v3h-1zm0 4h1v18h-1zm-71 8h1v1h-1zm-188 2h2v1h1v1h-1v-1h-2zm184 1h1v2h-1v1h-1v1h-1v-1h1v-1h1zm-130 12h1v1h-1zm0 6h1v1h-1zm205 0h1v2h-1zm0 19h1v8h-1zm-205 2h1v1h-1zm0 8h1v1h-1zm200 10h1v1h-1zm-293 8h1v2h-1zm6 7h1v1h-1zm271 0h1v1h-1v1h-1v-1h1zm10 0h1v1h-1v1h-1v-1h1zm-278 3h1v1h1v1h-1v-1h-1zm269 5h1v1h-1v1h-1v-1h1zm-261 2h1v1h-1zm240 0h1v1h-1zm15 0h3v2h-1v-1h-1v1h-1z"/><path fill="#307040" fill-rule="evenodd" d="M14 39h1v14h-1zm0 22h1v1h-1zm0 3h1v11h-1zm0 14h1v2h-1zm93 72h1v1h-1zm0 2h1v2h-1zm0 37h1v1h-1zm-53 63h1v1h-1zm184 1h1v1h-1zm-82 3h1v1h-1zm6 0h22v1h-22zm30 0h17v1h-17zm41 0h2v1h-2zm-92 2h1v1h-1zm11 1h1v1h-1zm-23 11h1v1h-1v1h-1v-1h1zM14 298h1v7h-1zm297 6h1v1h-1zm-296 2h1v1h1v1h1v1h1v1h1v1h1v1h-1v-1h-1v-1h-1v-1h-1v-1h-1v-1h-1zm8 8h1v1h1v1h1v1h-1v-1h-1v-1h-1zm4 4h1v1h1v1h-1v-1h-1zm-1 11h1v1h-1z"/><path fill="#40a060" fill-rule="evenodd" d="M36 15h1v1h-1v1h-1v-1h1zm-13 2h1v1h-1v1h-1v-1h1zm8 3h1v1h-1v1h-1v-1h1zm270 5h1v1h-1zm5 5h1v1h-1zm2 2h1v1h1v1h1v1h1v1h-1v-1h-1v-1h-1v-1h-1zm-67 33h1v1h-1zM93 67h2v1h-2zm66 0h1v1h-1zm25 0h3v1h-3zm50 2h1v1h1v1h1v1h-1v-1h-1v-1h-1zm4 4h1v1h1v1h1v1h-1v-1h-1v-1h-1zm11 0h1v1h1v1h-1v-1h-1zM72 76h1v1h-1zm193 14h1v2h-1zm0 3h1v5h-1zm0 12h1v2h-1zm0 4h1v3h-1zm0 4h1v4h-1zm-142 8h1v1h-1zm142 20h1v4h-1zm-155 4h1v1h-1v1h-1v1h-1v-1h1v-1h1zm155 14h1v1h-1zm55 3h1v1h-1zm-55 1h1v2h-1zm0 29h1v2h-1zm0 16h1v10h-1zm55 2h1v2h-1zm0 12h1v3h-1zm-55 2h1v1h-1zm55 6h1v1h-1zm-76 5h1v1h-1zm76 38h1v1h-1zm-191 9h1v1h-1v1h-1v-1h1zm-3 3h1v1h-1zm194 8h1v5h-1zm0 10h1v2h-1zm-16 8h1v1h-1zm-10 20h1v1h-1v1h-1v1h-1v1h-1v-1h1v-1h1v-1h1z"/><path fill="#308040" fill-rule="evenodd" d="M293 6h1v1h-1zm3 14h1v1h-1zM14 38h1v1h-1zm68 29h1v1h-1zm151 1h1v1h-1zM54 82h1v1h-1zm11 1h1v1h-1zm200 6h1v1h-1zM99 148h1v1h-1zm8 3h1v1h-1zm-8 3h1v18h-1zm0 28h1v4h-1zm0 6h1v10h-1zm10 3h1v1h-1zm42 57h1v1h-1v1h-1v-1h1zm90 2h1v1h-1v1h-1v1h-1v-1h1v-1h1zm-4 4h1v1h-1zm-82 2h1v1h-1zm2 0h5v1h-5zm-15 1h1v1h-1zm-2 2h1v1h-1v1h-1v-1h1zm8 4h1v1h-1zm-13 1h1v1h-1v1h-1v1h-1v1h-1v-1h1v-1h1v-1h1zm-8 8h1v1h-1v1h-1v1h-1v1h-1v1h-1v-1h1v-1h1v-1h1v-1h1zm-16 28h1v1h-1zm199 5h1v1h-1v1h-1v1h-1v-1h1v-1h1zm7 5h1v1h-1zm-296 2h1v1h1v1h-1v-1h-1zm276 5h1v1h-1zm5 7h1v1h-1zm-275 6h1v1h1v1h1v1h-1v-1h-1v-1h-1z"/><path fill="#40b060" fill-rule="evenodd" d="M33 7h1v1h-1zm-9 9h1v1h-1zm9 2h1v1h-1v1h-1v-1h1zm-14 3h1v1h-1zm10 1h1v1h-1v1h-1v1h-1v1h-1v-1h1v-1h1v-1h1zm285 5h1v1h-1zm-78 33h1v1h1v1h1v1h1v1h-1v-1h-1v-1h-1v-1h-1zM95 67h5v1h-5zm19 0h2v1h-2zm34 0h3v1h-3zm12 0h2v1h-2zm3 0h1v1h-1zm8 0h4v1h-4zm7 0h3v1h-3zm87 25h1v1h-1zM54 93h1v3h-1zm211 24h1v1h-1zm-146 8h1v1h-1zm34 1h5v1h-5zm-42 7h1v1h-1zm154 6h1v2h-1zm-161 1h1v1h-1zm-2 2h1v1h-1v1h-1v-1h1zm9 2h1v1h-1zm154 1h1v3h-1zM61 175h1v1h-1zm0 7h1v1h-1zm204 7h1v3h-1zm-164 10h1v1h-1zm90 0h8v1h-8zm18 0h2v1h-2zm36 35h1v1h-1zm-128 60h1v1h-1zm202 14h1v1h-1zm-16 4h1v1h-1zm7 4h1v1h-1zm-4 4h1v1h-1v1h-1v-1h1z"/><path fill="#60c060" fill-rule="evenodd" d="M165 327h6v1h-6zm12 0h4v1h-4zm14 0h51v1h-51zm81 0h7v1h-7z"/><path fill="#409050" fill-rule="evenodd" d="M34 6h1v1h-1zm238 0h9v1h-9zm15 0h1v1h-1zM37 14h1v1h-1zm262 9h1v1h1v1h-1v-1h-1zm4 4h1v1h1v1h-1v-1h-1zM83 67h4v1h-4zm161 1h1v1h1v1h1v1h-1v-1h-1v-1h-1zM79 69h1v1h-1v1h-1v-1h1zm-4 4h1v1h-1v1h-1v-1h1zm-6 6h1v1h-1v1h-1v-1h1zm186 0h1v1h1v1h1v1h1v1h1v1h1v1h-1v-1h-1v-1h-1v-1h-1v-1h-1v-1h-1zm9 9h1v1h-1zm-139 31h1v1h-1v1h-1v-1h1zm-8 8h1v1h-1v1h-1v1h-1v1h-1v-1h1v-1h1v-1h1zm124 111h1v1h-1zm-3 3h1v1h-1v1h-1v-1h1zm-6 6h1v1h-1zm-87 7h1v1h-1v1h-1v-1h1zm-8 8h1v1h-1v1h-1v-1h1zm8 4h1v1h-1v1h-1v-1h1zm-7 7h1v1h-1v1h-1v-1h1zm-17 5h1v1h-1zm-2 2h1v1h-1zm12 0h1v1h-1zM14 305h1v1h-1zm306 2h1v1h-1zm-15 3h1v1h-1zm-10 9h1v1h-1v1h-1v1h-1v1h-1v-1h1v-1h1v-1h1zm8 4h1v1h-1zM31 334h1v1h-1z"/><path fill="#60f080" fill-rule="evenodd" d="M34 7h1v1h-1zm280 37h1v1h-1zm5 33h1v4h-1zm-61 34h1v2h-1zm0 23h1v3h-1zm-158 15h1v4h-1zm219 5h1v2h-1zm-219 10h1v17h-1zm158 12h1v3h-1zm61 1h1v1h-1zm-61 6h1v6h-1zm0 23h1v3h-1zm0 13h1v3h-1zm-109 32h1v1h-1v1h-1v1h-1v1h-1v1h-1v1h-1v-1h1v-1h1v-1h1v-1h1v-1h1zm-27 27h1v1h-1zm-11 21h1v1h-1z"/><path fill="#40b050" fill-rule="evenodd" d="M77 6h3v1h-3zm35 0h1v1h-1zm203 22h1v1h-1zM78 59h2v1h-2zm3 0h13v1H81zm32 0h21v1h-21zm38 8h1v1h-1zm18 0h2v1h-2zm12 0h1v1h-1zm2 0h1v1h-1zm-80 74h1v1h-1zm-3 3h1v1h-1zm16 139h1v1h-1z"/><path fill="#207040" fill-rule="evenodd" d="M295 19h1v1h-1zM14 54h1v3h-1zm0 6h1v1h-1zm0 15h1v3h-1zm0 5h1v2h-1zm0 12h1v1h-1zm0 2h1v5h-1zm0 24h1v2h-1zm0 15h1v2h-1zm93 16h1v1h-1zm0 5h1v4h-1zm0 15h1v5h-1zm0 6h1v4h-1zm-93 28h1v3h-1zm0 44h1v1h-1zm0 7h1v4h-1zm0 40h1v4h-1zm298 9h1v1h-1zm4 8h1v1h-1zm-15 14h1v1h-1z"/><path fill="#70e080" fill-rule="evenodd" d="M299 22h1v1h1v1h-1v-1h-1zm15 17h1v1h-1zm5 0h1v1h-1zm-77 37h1v1h1v1h1v1h-1v-1h-1v-1h-1zm-119 46h1v1h-1v1h-1v-1h1zm7 3h1v1h-1zm-15 14h1v1h-1v1h-1v-1h1zm143 71h1v1h-1zM66 245h8v1h-8zm25 0h9v1h-9zm28 36h1v1h-1v1h-1v-1h1zm7 3h1v1h-1v1h-1v-1h1zm-17 14h1v1h-1zM7 308h1v1h1v1H8v-1H7zm10 11h1v1h2v2h1v1h-1v-1h-1v-1h-1v-1h-1zm10 10h1v1h1v1h1v1h1v1h1v1h-1v-1h-1v-1h-1v-1h-1v-1h-1zm264 4h1v1h-1z"/><path fill="#306030" fill-rule="evenodd" d="M288 14h1v1h-1zm2 0h1v1h-1zM6 185h1v2H6zm197 6h1v1h-1zM6 201h1v5H6zm180 55h4v1h-4zm26 0h13v1h-13zm14 0h3v1h-3zM6 288h1v3H6zm0 15h1v4H6zm0 5h1v1H6z"/><path fill="#50b070" fill-rule="evenodd" d="M25 26h1v1h-1zm-2 2h1v1h-1zm290 11h1v1h-1zm7 15h1v1h-1zm0 29h1v2h-1zm-64 8h1v1h-1zM114 297h1v1h-1zM7 309h1v1H7zm144 25h2v1h-2zm4 0h4v1h-4zm9 0h2v1h-2zm11 0h11v1h-11zm17 0h2v1h-2zm3 0h1v1h-1zm11 0h1v1h-1zm10 0h6v1h-6z"/><path fill="#104020" fill-rule="evenodd" d="M194 14h5v1h-5zm19 0h1v1h-1zm2 0h1v1h-1zm3 0h6v1h-6zm12 0h5v1h-5zm8 0h2v1h-2zm64 0h1v1h-1zm-89 109h1v1h-1zm0 4h1v2h-1zm-87 3h1v1h-1zm-7 7h1v1h-1zm-66 85h1v1h-1zm207 9h1v1h-1zm52 52h1v3h-1zm0 17h1v2h-1zm-11 13h1v1h-1zm12 1h1v1h-1zm-14 13h1v1h-1z"/><path fill="#309040" fill-rule="evenodd" d="M231 59h5v1h-5zM99 149h1v5h-1zm0 23h1v10h-1zm50 78h1v1h-1v1h-1v1h-1v1h-1v-1h1v-1h1v-1h1zm-6 6h1v1h-1zm-5 5h1v1h-1zm9 3h1v1h-1zm-7 7h1v1h-1zm-5 5h1v1h-1v1h-1v1h-1v-1h1v-1h1zm172 32h1v1h-1v1h-1v-1h1z"/><path fill="#50b050" fill-rule="evenodd" d="M46 6h5v1h-5zm34 0h6v1h-6zm33 0h6v1h-6zm70 0h8v1h-8zM65 327h7v1h-7z"/><path fill="#50a050" fill-rule="evenodd" d="M45 6h1v1h-1zm6 0h6v1h-6zm35 0h8v1h-8zm10 0h2v1h-2zm105 0h8v1h-8zm16 0h1v1h-1zm2 0h3v1h-3zm-82 61h2v1h-2z"/><path fill="#105020" fill-rule="evenodd" d="M298 10h1v1h-1zm-69 4h1v1h-1zM62 87h1v1h-1zm195 7h1v1h-1zm0 24h1v6h-1zm-44 7h1v2h-1zm-84 2h1v1h-1v1h-1v1h-1v-1h1v-1h1zm84 2h1v1h-1zm-95 9h1v1h-1zm139 5h1v7h-1zm0 50h1v3h-1zm6 35h1v1h-1zm-147 53h1v1h-1zm198 32h1v1h-1z"/><path fill="#307030" fill-rule="evenodd" d="M55 81h1v1h-1zm52 109h1v1h-1zm5 1h5v1h-5zm17 0h5v1h-5zm7 0h2v1h-2zm66 0h1v1h-1zm2 0h1v1h-1zM64 244h1v1h-1zm29 0h5v1h-5zm38 24h1v1h-1zM26 317h1v1h-1z"/><path fill="#105030" fill-rule="evenodd" d="M213 140h1v4h-1zm0 14h1v11h-1zm0 16h1v3h-1zm0 11h1v4h-1z"/><path fill="#60d060" fill-rule="evenodd" d="M143 119h8v1h-8zm9 0h4v1h-4zm10 0h4v1h-4zm17 0h1v1h-1zm20 0h4v1h-4z"/><path fill="#204020" fill-rule="evenodd" d="M116 14h1v1h-1zm83 0h2v1h-2zm15 0h1v1h-1zm26 0h1v1h-1zm-80 104h3v1h-3zm21 0h2v1h-2zm12 0h2v1h-2zm14 0h1v1h-1zM53 227h1v1h-1zm63 31h1v1h-1zm-9 6h1v1h-1zm0 31h1v1h-1z"/><path fill="#309050" fill-rule="evenodd" d="M297 21h1v1h1v1h-1v-1h-1zM80 68h1v1h-1zM70 78h1v1h-1zm-7 7h1v1h-1v1h-1v-1h1zm173 170h1v1h-1zm-90 10h1v1h-1zm-3 3h1v1h-1v1h-1v1h-1v-1h1v-1h1zm-4 4h1v1h-1zm-3 3h1v1h-1zm-4 4h1v1h-1zm-24 20h1v1h-1zm-78 34h1v1h-1z"/><path fill="#306040" fill-rule="evenodd" d="M14 62h1v2h-1zm170 194h2v1h-2zm6 0h2v1h-2zm19 0h3v1h-3zm16 0h1v1h-1zm4 0h4v1h-4zM29 320h1v1h-1z"/><path fill="#206020" fill-rule="evenodd" d="M6 52h1v1H6zm0 16h1v1H6zm0 6h1v1H6zm0 2h1v1H6zm0 61h1v1H6zm0 2h1v4H6zm0 30h1v1H6zm187 22h2v1h-2zm54 53h1v1h-1zm53 70h1v1h-1z"/><path fill="#40a040" fill-rule="evenodd" d="M36 6h1v1h-1zm149 53h1v1h-1zm15 0h11v1h-11z"/><path fill="#409040" fill-rule="evenodd" d="M281 6h6v1h-6zm7 0h3v1h-3zm-46 231h1v1h-1zm-120 40h1v1h-1z"/><path fill="#60f070" fill-rule="evenodd" d="M293 7h1v1h-1zM100 158h1v6h-1z"/><path fill="#206040" fill-rule="evenodd" d="M107 158h1v1h-1zm106 33h1v2h-1zM14 206h1v3h-1zm11 122h1v1h-1z"/><path fill="#208040" fill-rule="evenodd" d="M99 147h1v1h-1zm0 39h1v2h-1zm52 74h1v1h-1v1h-1v1h-1v-1h1v-1h1z"/><path fill="#70f080" fill-rule="evenodd" d="M319 44h1v1h-1zM100 198h1v1h-1zm158 13h1v1h-1zm-137 68h1v1h-1v1h-1v-1h1z"/><path fill="#408040" fill-rule="evenodd" d="M291 6h2v1h-2zm-79 193h1v1h-1zm-94 82h1v1h-1z"/><path fill="#408050" fill-rule="evenodd" d="M67 81h1v1h-1zm32 117h1v1h-1zm197 120h1v1h-1z"/><path fill="#308030" fill-rule="evenodd" d="M110 191h2v1h-2zm188 125h1v1h-1z"/><path fill="#70e090" fill-rule="evenodd" d="M301 24h1v1h1v1h-1v-1h-1z"/><path fill="#308050" fill-rule="evenodd" d="M66 82h1v1h-1zm-2 2h1v1h-1z"/><path fill="#40c050" fill-rule="evenodd" d="M56 94h1v2h-1z"/><path fill="#50e080" fill-rule="evenodd" d="M206 135h1v2h-1z"/><path fill="#60c080" fill-rule="evenodd" d="M54 251h1v1h-1zm234 83h1v1h-1z"/><path fill="#409060" fill-rule="evenodd" d="M302 26h1v1h-1z"/><path fill="#40d050" fill-rule="evenodd" d="M316 31h1v1h-1z"/><path fill="#30a040" fill-rule="evenodd" d="M230 59h1v1h-1z"/><path fill="#40d070" fill-rule="evenodd" d="M205 184h1v1h-1z"/><path fill="#208030" fill-rule="evenodd" d="M62 244h1v1h-1z"/><path fill="#509050" fill-rule="evenodd" d="M120 279h1v1h-1z"/><path fill="#005020" fill-rule="evenodd" d="M116 282h1v1h-1z"/><path fill="#30a050" fill-rule="evenodd" d="M318 309h1v1h-1z"/></svg>