<svg width="65" height="52" viewBox="0 0 65 52" fill="none" xmlns="http://www.w3.org/2000/svg">
<g filter="url(#filter0_d_844_463)">
<path d="M37.5395 7.25793C39.5966 7.79569 40.8282 9.89923 40.2905 11.9563L38.8299 17.5433L39.9473 17.8354C41.0421 18.1216 41.9031 18.8513 42.388 19.7815C43.0281 18.4707 43.9719 17.1831 45.315 16.267L45.3225 16.262L45.9995 15.8025L46.162 15.6981C47.858 14.6656 50.0792 15.0931 51.266 16.7114L51.7181 17.3277C52.6149 18.5313 53.4748 20.0793 53.9286 21.8413C55.5691 22.3195 57.1599 23.1669 58.4446 24.4437L58.505 24.4774L58.5307 24.5319L59.0291 25.0601C60.3915 26.5036 60.4332 28.7462 59.1255 30.2393L58.6148 30.822C58.6101 30.8273 58.6053 30.8327 58.6005 30.838C55.9505 33.8294 52.4543 34.4115 49.4424 34.0463C41.5858 43.0857 30.3599 45.3324 19.048 42.3753C12.5075 40.6655 6.57334 36.4704 4.46168 29.0431C4.43745 28.9579 4.41608 28.8718 4.39779 28.7851L4.38018 28.7009L4.18485 27.7743C4.17572 27.731 4.16706 27.6876 4.15943 27.6441C3.59526 24.4246 4.0161 21.3691 4.99816 18.5359L5.07203 18.3395L5.29265 17.8003L5.36455 17.6353C6.14412 15.9552 8.02114 15.0602 9.82963 15.5329L10.2767 15.6498L10.6661 14.1599C11.2039 12.1029 13.3075 10.8713 15.3645 11.409L16.4819 11.7011L16.774 10.5837C17.3118 8.52663 19.4153 7.29501 21.4724 7.83272L27.0594 9.29328L27.2541 8.54834C27.7919 6.49129 29.8954 5.25966 31.9525 5.79738L37.5395 7.25793ZM20.829 29.4694C20.8564 29.5086 20.8825 29.5488 20.9084 29.5892L20.865 29.6393L20.9183 29.8918L20.9363 29.9762L21.1538 30.033C21.1856 30.1009 21.2155 30.1698 21.2435 30.2399L21.2132 30.2234L21.2553 30.2706C21.3284 30.4585 21.3873 30.654 21.431 30.8559C21.4715 30.7785 21.5043 30.6959 21.5273 30.6082C21.5295 30.5997 21.5308 30.591 21.5328 30.5825L21.2553 30.2706C21.2513 30.2603 21.2476 30.2501 21.2435 30.2399L21.5604 30.4133C21.5684 30.3194 21.5648 30.2268 21.5503 30.1367L21.1538 30.033C21.0815 29.8789 20.9994 29.7308 20.9084 29.5892L21.0946 29.3764C20.9977 29.2996 20.8883 29.2359 20.7695 29.1872L20.829 29.4694ZM20.9929 30.2455L21.1813 30.2058L20.9589 30.0843L20.9929 30.2455Z" fill="#F9F4DA"/>
<path d="M55.7308 27.1743C54.3726 25.8245 52.2787 25.1577 50.3546 25.2118C50.6374 23.2166 49.8092 21.2094 48.6309 19.628L48.1615 18.988L47.4843 19.4477C46.1768 20.3394 45.3725 22.1983 45.132 23.7272C44.9614 24.8365 45.0045 26.0415 45.4412 27.1107C44.8419 27.2724 44.1761 27.536 43.6059 27.586C42.4657 27.6858 41.2136 27.7564 40.0962 27.4643L37.6007 26.8119L38.9736 21.5601L34.1316 20.2943L36.5658 10.9827L30.9788 9.52211L29.8104 13.9917L20.4987 11.5575L19.2329 16.3995L14.3908 15.1337L13.0277 20.3482L8.85602 19.2577L8.63548 19.7969C7.82607 22.132 7.52035 24.5192 7.95153 26.9797L8.14703 27.9062L8.1648 27.9904C9.80252 33.7507 14.3973 37.1802 20.0215 38.6505C30.8976 41.4937 41.1496 38.961 47.9244 29.7893C50.6417 30.6588 53.6866 30.5794 55.7188 28.2854L56.2293 27.7026L55.7308 27.1743ZM20.9515 12.8696L24.6762 13.8433L23.6051 17.9404L19.8805 16.9667L20.9515 12.8696ZM19.6857 17.7117L23.4104 18.6854L22.3393 22.7825L18.6146 21.8088L19.6857 17.7117ZM14.8437 16.4458L18.9408 17.5169L17.8697 21.614L13.7726 20.543L14.8437 16.4458ZM27.1814 24.0483L23.0842 22.9772L24.1553 18.8801L28.2525 19.9512L27.1814 24.0483ZM28.4472 19.2062L24.3501 18.1352L25.4211 14.038L29.5183 15.1091L28.4472 19.2062ZM32.0234 25.3141L27.9263 24.243L28.9974 20.1459L33.0945 21.217L32.0234 25.3141ZM33.2893 20.4721L29.1921 19.401L30.2632 15.3038L34.3603 16.3749L33.2893 20.4721ZM34.5551 15.63L30.4579 14.5589L31.529 10.4618L35.6261 11.5329L34.5551 15.63ZM36.8655 26.5799L32.7684 25.5089L33.8395 21.4117L37.9366 22.4828L36.8655 26.5799ZM20.8652 29.6393C20.8004 29.5826 20.6984 29.5161 20.5867 29.4869C20.1397 29.37 19.6699 29.6451 19.553 30.0921C19.4362 30.5391 19.7113 31.0089 20.1582 31.1257C20.6052 31.2426 21.075 30.9675 21.1919 30.5205C21.2211 30.4088 21.213 30.2873 21.1953 30.2031C21.0916 30.2954 20.9976 30.3504 20.8486 30.3114C20.6624 30.2627 20.5523 30.0748 20.601 29.8886C20.6772 29.7493 20.7809 29.6571 20.8652 29.6393Z" fill="#019BC6"/>
</g>
<defs>
<filter id="filter0_d_844_463" x="3.90614" y="5.67126" width="60.2232" height="41.9801" filterUnits="userSpaceOnUse" color-interpolation-filters="sRGB">
<feFlood flood-opacity="0" result="BackgroundImageFix"/>
<feColorMatrix in="SourceAlpha" type="matrix" values="0 0 0 0 0 0 0 0 0 0 0 0 0 0 0 0 0 0 127 0" result="hardAlpha"/>
<feOffset dx="4.05" dy="4.05"/>
<feComposite in2="hardAlpha" operator="out"/>
<feColorMatrix type="matrix" values="0 0 0 0 0.00392157 0 0 0 0 0.607843 0 0 0 0 0.776471 0 0 0 1 0"/>
<feBlend mode="normal" in2="BackgroundImageFix" result="effect1_dropShadow_844_463"/>
<feBlend mode="normal" in="SourceGraphic" in2="effect1_dropShadow_844_463" result="shape"/>
</filter>
</defs>
</svg>
