<svg width="73" height="77" viewBox="0 0 73 77" fill="none" xmlns="http://www.w3.org/2000/svg">
<g filter="url(#filter0_d_844_431)">
<rect x="48.3511" y="54.4604" width="32.8239" height="21.041" transform="rotate(-160 48.3511 54.4604)" fill="#F9F4DA"/>
<path d="M27.2557 65.3985C26.1437 65.301 25.1158 64.7652 24.3986 63.9099L22.963 62.1983C21.47 60.4178 21.7028 57.7641 23.4827 56.2705L56.5233 28.5464C57.3783 27.829 58.4832 27.4806 59.5951 27.578C60.707 27.6753 61.7348 28.2105 62.4521 29.0657L63.8889 30.7786C65.3822 32.559 65.1497 35.2129 63.3696 36.7065L30.328 64.4298L30.1647 64.5601C29.3346 65.1892 28.2981 65.4898 27.2557 65.3985Z" fill="#F9F4DA"/>
<path d="M19.5449 14.3037L29.5541 17.9467L18.1543 49.2672L8.14511 45.6242L19.5449 14.3037Z" fill="#F9F4DA"/>
<path d="M28.1574 64.0948C25.9485 64.3699 23.8882 62.8669 23.4968 60.65L23.1081 58.4496C22.9141 57.3504 23.1648 56.2191 23.8049 55.3047C24.4451 54.3903 25.4222 53.7675 26.5215 53.5737L51.0557 49.247C53.3443 48.8435 55.5269 50.3719 55.9307 52.6605L56.3193 54.8622C56.5132 55.9614 56.2623 57.0926 55.6221 58.0069C54.9819 58.9212 54.0049 59.5438 52.9057 59.7376L28.3711 64.0628L28.1574 64.0948Z" fill="#F9F4DA"/>
<path d="M18.0914 25.6407C15.9074 24.8458 14.7814 22.431 15.5763 20.247L16.3405 18.1474C17.1354 15.9635 19.5502 14.8374 21.7342 15.6323L62.2653 30.3844C64.4493 31.1793 65.5753 33.5942 64.7804 35.7781L64.0162 37.8777C63.2213 40.0617 60.8065 41.1878 58.6225 40.3929L18.0914 25.6407Z" fill="#F9F4DA"/>
<path d="M57.6086 40.5951C56.4966 40.4979 55.4689 39.963 54.7514 39.1078L38.7391 20.0234C38.0216 19.1683 37.6733 18.0629 37.7709 16.9509C37.8684 15.8389 38.404 14.8113 39.2593 14.0941L40.9716 12.6579C42.7521 11.1651 45.4057 11.3982 46.8992 13.1781L62.9114 32.2606C64.4052 34.0408 64.1732 36.6949 62.3932 38.189L60.6806 39.6263L60.5172 39.7567C59.6873 40.3858 58.651 40.6863 57.6086 40.5951ZM31.9649 63.7238C30.1845 65.2167 27.5311 64.984 26.0375 63.2042L10.0244 44.1217C9.307 43.2668 8.95869 42.1617 9.05595 41.0499C9.15322 39.9381 9.6882 38.9105 10.5431 38.1931L12.2563 36.7556C13.1113 36.0382 14.2163 35.6898 15.3281 35.7871C16.4399 35.8844 17.4676 36.4193 18.1849 37.2743L34.1968 56.3589C34.9142 57.214 35.2626 58.3192 35.1651 59.4311C35.0676 60.543 34.5322 61.5707 33.677 62.288L31.9649 63.7238Z" fill="#F9F4DA"/>
<path d="M29.1723 65.6478C28.0731 65.8418 26.9418 65.591 26.0274 64.9509C25.1129 64.3108 24.4902 63.3336 24.2964 62.2344L16.8052 19.7584C16.6114 18.6593 16.8622 17.5283 17.5023 16.6141C18.1425 15.6998 19.1196 15.0773 20.2187 14.8835L22.4208 14.495C23.5199 14.3012 24.6513 14.552 25.5655 15.1922C26.4797 15.8323 27.102 16.8094 27.2958 17.9084L34.7852 60.3842C35.1887 62.6727 33.661 64.8551 31.3727 65.2591L29.1723 65.6478ZM47.3275 59.8854C45.1437 59.0904 44.0175 56.6756 44.8124 54.4917L53.3335 31.08C54.1284 28.8961 56.5433 27.7701 58.7272 28.5649L60.828 29.3295C63.0119 30.1244 64.138 32.5392 63.3431 34.7232L54.8224 58.135C54.4406 59.1838 53.6579 60.0381 52.6465 60.5098C51.635 60.9814 50.4774 61.0319 49.4287 60.6501L47.3275 59.8854Z" fill="#F9F4DA"/>
<path d="M23.2355 26.7636C22.2022 26.8934 21.1543 26.6355 20.2972 26.0352C19.3828 25.3949 18.7605 24.4174 18.5668 23.3181L18.2278 21.3946C17.8247 19.1061 19.353 16.9242 21.6414 16.5205L42.9779 12.7571C44.0772 12.5632 45.2083 12.814 46.1227 13.4543C47.037 14.0946 47.6595 15.0718 47.8532 16.1711L48.192 18.0949C48.5951 20.3834 47.0668 22.5653 44.7785 22.969L23.4419 26.7324L23.2355 26.7636Z" fill="#F9F4DA"/>
<path d="M40.8243 26.2057C39.7266 25.8063 38.7182 25.1946 37.8566 24.4057C36.9932 23.6153 36.294 22.6624 35.7993 21.6015C35.3046 20.5406 35.0241 19.3925 34.9735 18.223C34.9231 17.0548 35.103 15.8881 35.5034 14.7895L35.5845 14.575C37.3392 10.1094 42.3574 7.80692 46.9175 9.46476L46.9173 9.46424C46.9179 9.46447 46.9184 9.46509 46.9191 9.46532C46.9196 9.46551 46.9202 9.46531 46.9207 9.4655C48.0197 9.86491 49.0296 10.4768 49.8921 11.2664C50.7554 12.0568 51.4543 13.0097 51.9489 14.0705C52.4437 15.1314 52.7246 16.2796 52.7751 17.4491C52.8257 18.6186 52.6448 19.7867 52.2435 20.8863C51.844 21.9839 51.2327 22.9923 50.444 23.8538C49.6536 24.7172 48.7003 25.4162 47.6394 25.9109C46.5786 26.4056 45.4306 26.6863 44.2613 26.7368C43.0942 26.7873 41.9285 26.6077 40.8309 26.2081L40.8243 26.2057ZM28.2826 28.4235C24.5673 31.5512 19.0611 31.1022 15.8776 27.512L15.7281 27.3387L15.7219 27.3316C12.5624 23.5644 13.0321 17.9622 16.8034 14.7925C16.8065 14.7898 16.8094 14.7867 16.8126 14.784C16.8152 14.7818 16.8184 14.7797 16.8211 14.7775C16.8238 14.7752 16.8262 14.7726 16.8289 14.7703C16.8313 14.7684 16.8339 14.7666 16.8362 14.7647C20.6098 11.6059 26.2164 12.1267 29.3673 15.8659L29.3688 15.8677C32.5459 19.642 32.0317 25.2638 28.2845 28.422L28.2826 28.4235ZM59.3263 43.208C54.5609 44.0376 50.0266 40.9221 49.0592 36.2125L49.0156 35.9872L49.0119 35.9662C48.1691 31.1251 51.3976 26.5225 56.2328 25.6555C56.2432 25.6536 56.2537 25.6516 56.2641 25.6498C61.0936 24.8214 65.7192 28.0278 66.5663 32.8929C66.5664 32.8939 66.5668 32.8948 66.567 32.8958C67.4102 37.7379 64.1798 42.3376 59.3478 43.2044C59.3407 43.2057 59.3334 43.2068 59.3263 43.208ZM56.1265 61.6156C52.4113 64.7432 46.9057 64.2943 43.722 60.7048L43.5721 60.5317L43.5587 60.5155C40.412 56.7433 40.8975 51.142 44.655 47.9752L44.6568 47.9737C48.4311 44.7966 54.0533 45.3105 57.2114 49.0585L57.2125 49.0603C60.3896 52.8344 59.8762 58.4562 56.1278 61.6144L56.1265 61.6156ZM16.6612 50.737C11.8204 51.5798 7.2172 48.3514 6.35068 43.5158C6.34946 43.509 6.348 43.5019 6.34682 43.4951C5.50413 38.6547 8.73157 34.051 13.5674 33.1839C13.5743 33.1827 13.5813 33.1818 13.5883 33.1806C18.4163 32.34 23.0538 35.5598 23.9028 40.4198L23.9028 40.4221C24.7457 45.2632 21.5174 49.8662 16.6823 50.7333C16.6753 50.7345 16.6682 50.7358 16.6612 50.737ZM26.0032 66.9265C24.9055 66.5271 23.8969 65.9157 23.0353 65.1269C22.1719 64.3364 21.4729 63.3831 20.9782 62.3222C20.4835 61.2613 20.2029 60.1132 20.1524 58.9437C20.102 57.7768 20.2814 56.6113 20.681 55.5137L20.7584 55.3083C21.1576 54.2876 21.7424 53.3488 22.4834 52.5395C23.2738 51.6761 24.2267 50.9769 25.2876 50.4822C26.3485 49.9875 27.4967 49.7065 28.6662 49.656C29.8314 49.6057 30.9949 49.7853 32.091 50.1835C32.0926 50.1841 32.0945 50.1844 32.0961 50.185C32.0974 50.1854 32.0986 50.1863 32.0998 50.1868C32.1009 50.1871 32.102 50.1871 32.1031 50.1875C32.1048 50.1882 32.1066 50.1892 32.1083 50.1899C33.2039 50.5893 34.2108 51.1996 35.0709 51.9871C35.9343 52.7776 36.633 53.7307 37.1277 54.7916C37.6224 55.8525 37.9033 57.0007 37.9538 58.1702C38.0043 59.3397 37.8237 60.5075 37.4223 61.6071C37.0229 62.7046 36.4116 63.713 35.6229 64.5745C34.8324 65.4379 33.8792 66.1369 32.8182 66.6317C31.7574 67.1263 30.6094 67.4074 29.44 67.458C28.273 67.5084 27.1073 67.3284 26.0097 66.9289L26.0032 66.9265Z" fill="#F9F4DA"/>
<path d="M59.2281 31.77L60.6647 33.4828L27.6231 61.2061L26.1875 59.4942L59.2281 31.77Z" fill="#E434AA"/>
<path d="M60.0618 36.4385L19.5307 21.6863L20.295 19.5866L60.8261 34.3387L60.0618 36.4385Z" fill="#E434AA"/>
<path d="M43.6757 15.8829L59.688 34.9656L57.9753 36.4032L41.9632 17.3187L43.6757 15.8829ZM14.9614 39.9793L30.9731 59.0636L29.2611 60.4992L13.2483 41.4167L14.9614 39.9793Z" fill="#E434AA"/>
<path d="M51.7866 53.3915L52.1751 55.5934L27.6408 59.9184L27.2523 57.7179L51.7866 53.3915Z" fill="#E434AA"/>
<path d="M23.1516 18.6392L30.6409 61.1151L28.4404 61.5036L20.9493 19.0276L23.1516 18.6392ZM50.8679 56.6957L48.7669 55.931L57.288 32.5193L59.3886 33.2839L50.8679 56.6957Z" fill="#E434AA"/>
<path d="M15.6393 43.8736L13.5387 43.109L22.0599 19.6973L24.1605 20.4619L15.6393 43.8736Z" fill="#E434AA"/>
<path d="M43.7088 16.9012L44.0476 18.8248L22.7111 22.5882L22.3722 20.6646L43.7088 16.9012Z" fill="#E434AA"/>
<path d="M19.5248 18.0017C21.5079 16.3303 24.4784 16.5947 26.1494 18.5777C27.8202 20.5624 27.5559 23.5329 25.5727 25.2043C23.588 26.8751 20.6175 26.6108 18.9462 24.6272C17.2676 22.6257 17.5274 19.6679 19.5248 18.0017M47.3669 51.1931C49.3516 49.5223 52.3222 49.7866 53.9934 51.7702C55.6642 53.7549 55.4 56.725 53.4164 58.3963C51.4317 60.0671 48.4616 59.8029 46.7902 57.8197C45.124 55.8223 45.3838 52.8645 47.3669 51.1931ZM62.4206 33.6145C62.8674 36.1703 61.1647 38.603 58.6048 39.0622C56.0497 39.5071 53.6169 37.8047 53.1579 35.2445C52.713 32.6894 54.4153 30.2566 56.9756 29.7975C59.5429 29.3571 61.9757 31.0594 62.4206 33.6145M19.7572 41.144C20.2021 43.6991 18.4998 46.1319 15.9395 46.591C13.3844 47.0358 10.9516 45.3335 10.4929 42.7734C10.0481 40.2183 11.75 37.7854 14.3103 37.3263C16.8653 36.8814 19.3108 38.5883 19.7572 41.144ZM45.4817 13.4197C46.062 13.6304 46.595 13.9533 47.0504 14.3702C47.5057 14.787 47.8743 15.2896 48.1352 15.8491C48.3961 16.4086 48.5441 17.014 48.5708 17.6308C48.5974 18.2475 48.5022 18.8635 48.2906 19.4434C48.0799 20.0237 47.757 20.5568 47.3401 21.0121C46.9232 21.4674 46.4207 21.8361 45.8612 22.097C45.3017 22.3579 44.6963 22.5059 44.0795 22.5325C43.4627 22.5592 42.8468 22.464 42.2669 22.2523C41.6866 22.0417 41.1535 21.7187 40.6982 21.3018C40.2429 20.885 39.8742 20.3824 39.6133 19.8229C39.3524 19.2634 39.2044 18.658 39.1778 18.0412C39.1511 17.4245 39.2463 16.8085 39.458 16.2286C40.3424 13.7986 43.0394 12.5308 45.4817 13.4197ZM30.6605 54.1406C31.2408 54.3513 31.7738 54.6742 32.2292 55.0911C32.6845 55.508 33.0531 56.0105 33.314 56.57C33.5749 57.1295 33.7229 57.7349 33.7496 58.3517C33.7762 58.9684 33.681 59.5844 33.4694 60.1643C33.2587 60.7446 32.9358 61.2777 32.5189 61.733C32.102 62.1883 31.5995 62.557 31.04 62.8179C30.4805 63.0788 29.8751 63.2268 29.2583 63.2534C28.6415 63.2801 28.0256 63.1849 27.4457 62.9732C26.8654 62.7626 26.3323 62.4396 25.877 62.0227C25.4217 61.6059 25.053 61.1033 24.7921 60.5438C24.5312 59.9843 24.3832 59.3789 24.3566 58.7621C24.3299 58.1454 24.4251 57.5294 24.6368 56.9495C24.8474 56.3692 25.1704 55.8362 25.5872 55.3808C26.0041 54.9255 26.5067 54.5569 27.0662 54.296C27.6256 54.0351 28.2311 53.8871 28.8478 53.8604C29.4646 53.8337 30.0806 53.929 30.6605 54.1406" fill="#E434AA"/>
</g>
<defs>
<filter id="filter0_d_844_431" x="6.21316" y="8.92648" width="64.5375" height="62.5898" filterUnits="userSpaceOnUse" color-interpolation-filters="sRGB">
<feFlood flood-opacity="0" result="BackgroundImageFix"/>
<feColorMatrix in="SourceAlpha" type="matrix" values="0 0 0 0 0 0 0 0 0 0 0 0 0 0 0 0 0 0 127 0" result="hardAlpha"/>
<feOffset dx="4.05" dy="4.05"/>
<feComposite in2="hardAlpha" operator="out"/>
<feColorMatrix type="matrix" values="0 0 0 0 0.894118 0 0 0 0 0.203922 0 0 0 0 0.666667 0 0 0 1 0"/>
<feBlend mode="normal" in2="BackgroundImageFix" result="effect1_dropShadow_844_431"/>
<feBlend mode="normal" in="SourceGraphic" in2="effect1_dropShadow_844_431" result="shape"/>
</filter>
</defs>
</svg>
