<?xml version="1.0" encoding="UTF-8"?>
<svg version="1.1" xmlns="http://www.w3.org/2000/svg" width="512" height="512">
<path d="M0 0 C1.45108658 0.00273422 1.45108658 0.00273422 2.93148804 0.00552368 C17.26440977 0.05095174 31.21023917 0.55983928 45.3125 3.3125 C46.65803955 3.55395752 46.65803955 3.55395752 48.03076172 3.80029297 C107.84088904 14.62287989 165.35495829 48.68064457 202.3125 97.3125 C202.72918945 97.85277832 203.14587891 98.39305664 203.57519531 98.94970703 C211.2584873 108.9447116 218.00092968 119.40459036 224.3125 130.3125 C224.70679199 130.98974121 225.10108398 131.66698242 225.50732422 132.36474609 C238.68961173 155.2833756 247.29510918 180.85822563 252.625 206.6875 C252.77243652 207.39817627 252.91987305 208.10885254 253.07177734 208.84106445 C256.05705422 224.48314535 256.6888264 240.11951323 256.625 256 C256.62284485 256.96838806 256.6206897 257.93677612 256.61846924 258.93450928 C256.56738903 273.25143438 256.18100217 287.24098845 253.3125 301.3125 C253.10850586 302.33859375 252.90451172 303.3646875 252.69433594 304.421875 C244.29332858 345.70542788 227.37134929 383.17484615 201.3125 416.3125 C200.56355469 417.26769531 199.81460937 418.22289062 199.04296875 419.20703125 C193.0261098 426.58834325 186.45990477 433.37099754 179.75 440.125 C178.87569336 441.00857178 178.00138672 441.89214355 177.10058594 442.80249023 C162.19180842 457.63999406 144.62128552 470.01291532 126.3125 480.3125 C125.68649902 480.67263184 125.06049805 481.03276367 124.41552734 481.40380859 C98.38093308 496.30981273 68.95993866 505.9577205 39.3125 510.3125 C38.10787109 510.48982666 36.90324219 510.66715332 35.66210938 510.84985352 C24.00482646 512.448825 12.44063902 512.6709053 0.6875 512.625 C-0.76733292 512.62226578 -0.76733292 512.62226578 -2.2515564 512.61947632 C-16.60306055 512.57408309 -30.56692918 512.0687347 -44.6875 509.3125 C-45.58452637 509.15152832 -46.48155273 508.99055664 -47.40576172 508.82470703 C-108.56677604 497.75767837 -166.70094563 462.4996428 -203.6875 412.3125 C-204.39132813 411.43851562 -205.09515625 410.56453125 -205.8203125 409.6640625 C-218.03200317 394.29806059 -228.17355446 376.43485278 -235.6875 358.3125 C-236.01266602 357.53583984 -236.33783203 356.75917969 -236.67285156 355.95898438 C-245.82738948 333.80272928 -251.67815003 311.08517219 -254.6875 287.3125 C-254.77338379 286.65162384 -254.85926758 285.99074768 -254.94775391 285.30984497 C-255.62823615 279.73237529 -255.86134085 274.23313676 -255.890625 268.6171875 C-255.89763931 267.71523148 -255.90465363 266.81327545 -255.91188049 265.88398743 C-255.92930732 262.98510703 -255.93573387 260.08643087 -255.9375 257.1875 C-255.93817474 256.19763092 -255.93884949 255.20776184 -255.93954468 254.18789673 C-255.92380838 239.6780013 -255.4744755 225.59056021 -252.6875 211.3125 C-252.44604248 209.96696045 -252.44604248 209.96696045 -252.19970703 208.59423828 C-241.37712011 148.78411096 -207.31935543 91.27004171 -158.6875 54.3125 C-158.14722168 53.89581055 -157.60694336 53.47912109 -157.05029297 53.04980469 C-147.0552884 45.3665127 -136.59540964 38.62407032 -125.6875 32.3125 C-125.01025879 31.91820801 -124.33301758 31.52391602 -123.63525391 31.11767578 C-100.7166244 17.93538827 -75.14177437 9.32989082 -49.3125 4 C-48.60182373 3.85256348 -47.89114746 3.70512695 -47.15893555 3.55322266 C-31.51641634 0.56786213 -15.88080394 -0.0623098 0 0 Z " fill="#F1F1F1" transform="translate(255.6875,-0.3125)"/>
<path d="M0 0 C5.14558118 3.33070686 8.35220493 8.36576517 9.94921875 14.26171875 C10.3541997 18.7221161 10.29841094 23.157299 10.2421875 27.6328125 C10.23794266 28.91027847 10.23369781 30.18774445 10.22932434 31.50392151 C10.21542325 34.87920172 10.18853025 38.25385927 10.1552124 41.62896729 C10.12437196 45.08136654 10.11078935 48.53383045 10.09570312 51.98632812 C10.062692 58.74496201 10.01253536 65.50330448 9.94921875 72.26171875 C8.34533793 72.30911298 6.74105331 72.34297773 5.13671875 72.37109375 C4.24339844 72.39139648 3.35007813 72.41169922 2.4296875 72.43261719 C-1.12847049 72.18746851 -2.71801698 70.88607856 -5.05078125 68.26171875 C-6.36328125 66.01171875 -6.36328125 66.01171875 -7.05078125 64.26171875 C-10.33592148 65.3909857 -13.09334473 66.87806524 -15.98828125 68.76171875 C-21.80944747 72.4502708 -27.16629206 74.11882383 -34.05078125 73.26171875 C-39.48957991 71.4125272 -42.8243985 67.88585037 -46.05078125 63.26171875 C-47.88589915 57.75636506 -48.08999304 51.45888564 -46.28515625 45.90625 C-41.76183212 37.67188882 -32.51278176 33.99722036 -24.01171875 31.07421875 C-18.77192969 29.63638745 -13.43757437 28.91258724 -8.05078125 28.26171875 C-8.23138374 20.92721557 -8.23138374 20.92721557 -10.80078125 14.19921875 C-14.65377809 10.88136036 -18.38718447 9.65763316 -23.52734375 9.7265625 C-27.74827441 10.62171343 -31.45259804 12.71982569 -35.21459961 14.77124023 C-39.78924543 17.26171875 -39.78924543 17.26171875 -43.05078125 17.26171875 C-45.6115007 8.37451594 -45.6115007 8.37451594 -44.05078125 4.26171875 C-41.57421875 2.75 -41.57421875 2.75 -38.42578125 1.57421875 C-36.89050781 0.98060547 -36.89050781 0.98060547 -35.32421875 0.375 C-24.09492713 -3.44403116 -11.11636516 -5.37888637 0 0 Z " fill="#DE0F1C" transform="translate(231.05078125,407.73828125)"/>
<path d="M0 0 C6.57912893 7.1596403 6.7084244 14.15876372 6.62109375 23.45703125 C6.62254898 24.70377121 6.62400421 25.95051117 6.62550354 27.23503113 C6.62342767 30.5269899 6.6024716 33.81816961 6.57452393 37.10998535 C6.55846165 39.80176185 6.56847969 42.49318648 6.57864285 45.18497181 C6.58726254 48.40071691 6.57216614 51.6163146 6.55859375 54.83203125 C6.56152939 56.03825638 6.56446503 57.24448151 6.56748962 58.48725891 C6.54846336 60.15996101 6.54846336 60.15996101 6.52905273 61.86645508 C6.52364975 62.84826248 6.51824677 63.83006989 6.51268005 64.84162903 C6.125 67.3125 6.125 67.3125 4.8106842 69.12162781 C1.89495026 71.18148366 -0.43711546 70.78669097 -3.875 70.3125 C-7.37029336 67.57705302 -9.01087693 65.61472975 -9.875 61.3125 C-10.74382812 61.86679687 -11.61265625 62.42109375 -12.5078125 62.9921875 C-13.67166681 63.72428941 -14.8357411 64.45604169 -16 65.1875 C-16.56976563 65.55230469 -17.13953125 65.91710937 -17.7265625 66.29296875 C-23.78263757 70.07801567 -29.65454061 72.40773822 -36.875 71.3125 C-43.21160079 69.18109792 -46.8071666 65.93120845 -50.125 60.125 C-51.47666992 55.05623781 -51.97232181 49.96511676 -49.9296875 45.02734375 C-44.48703263 35.87067596 -35.29146798 31.43162824 -25.3125 28.5625 C-20.51012931 27.35164585 -15.80733856 26.71679005 -10.875 26.3125 C-11.12470682 19.99491733 -11.46456978 15.21297802 -15.875 10.3125 C-19.89191158 7.8577207 -24.28569571 7.65234011 -28.875 8.3125 C-33.23304916 9.64285185 -37.36434367 11.14034259 -40.984375 13.94921875 C-42.875 15.3125 -42.875 15.3125 -45.875 15.3125 C-46.37836767 13.68854003 -46.87758976 12.06329459 -47.375 10.4375 C-47.6534375 9.53257812 -47.931875 8.62765625 -48.21875 7.6953125 C-48.875 5.3125 -48.875 5.3125 -48.875 3.3125 C-33.22203127 -4.27537204 -16.31225985 -9.5745873 0 0 Z " fill="#DE0D1A" transform="translate(378.875,409.6875)"/>
<path d="M0 0 C0.78375 0.00451172 1.5675 0.00902344 2.375 0.01367188 C4.29170014 0.02535907 6.20836048 0.04329092 8.125 0.0625 C7.125 2.0625 7.125 2.0625 3.9140625 3.140625 C2.52711458 3.53504253 1.13901388 3.925421 -0.25 4.3125 C-7.34221468 6.38848347 -13.56086658 9.16967622 -19.875 13.0625 C-19.545 14.7125 -19.215 16.3625 -18.875 18.0625 C28.61864652 35.15935469 87.83805123 28.53565031 137.125 24.0625 C137.82778076 23.99977905 138.53056152 23.93705811 139.25463867 23.87243652 C151.49869936 22.77387505 163.65035912 21.31390673 175.75 19.125 C176.57363037 18.9794165 177.39726074 18.83383301 178.24584961 18.68383789 C187.91027333 16.92545914 187.91027333 16.92545914 195.3503418 11.2590332 C196.31235106 9.13393054 196.31235106 9.13393054 197.125 6.0625 C198.115 6.3925 199.105 6.7225 200.125 7.0625 C200.875 10.25 200.875 10.25 201.125 14.0625 C194.35882452 24.56618194 178.28086443 28.00554484 166.75390625 30.54296875 C158.86120954 32.20379719 150.93757113 33.23918919 142.9375 34.1875 C141.5526683 34.35753568 140.16790231 34.52810728 138.78320312 34.69921875 C114.72487621 37.63622542 90.77177596 38.24928836 66.54858398 38.24780273 C62.59152368 38.249984 58.63474561 38.26821154 54.67773438 38.28710938 C-25.41162331 38.46333792 -25.41162331 38.46333792 -43.875 25.0625 C-44.875 24.0625 -44.875 24.0625 -45.25 20.8125 C-44.875 17.0625 -44.875 17.0625 -42.8125 14.4375 C-36.59163543 9.40786482 -31.42982978 6.17584168 -23.8125 3.8125 C-23.03583984 3.55726563 -22.25917969 3.30203125 -21.45898438 3.0390625 C-14.20603296 0.70534401 -7.59060719 -0.08362533 0 0 Z " fill="#DE101D" transform="translate(169.875,305.9375)"/>
<path d="M0 0 C6.81215324 6.15675657 9.58427777 15.8260826 10.18359375 24.7265625 C10.31843349 30.48501253 9.79367206 35.53698738 8 41 C7.74347656 41.84175781 7.48695313 42.68351562 7.22265625 43.55078125 C3.55582483 54.6771753 -2.4833437 63.08451944 -11 71 C-13.48092682 73.4610794 -15.94158935 75.94073177 -18.39453125 78.4296875 C-19.19246094 79.23664063 -19.99039063 80.04359375 -20.8125 80.875 C-21.60269531 81.67679687 -22.39289063 82.47859375 -23.20703125 83.3046875 C-25.34049751 85.36355704 -27.48964491 87.31436194 -29.73046875 89.25 C-51.15996812 106.72974145 -51.15996812 106.72974145 -62.23828125 130.8984375 C-62.62552848 149.03791299 -54.9190138 160.83708718 -44.98510742 175.15600586 C-37.55249466 185.91972556 -37.55249466 185.91972556 -36 190 C-36.33 190.66 -36.66 191.32 -37 192 C-55.88797175 177.20381323 -75.15483259 158.10794855 -81 134 C-81.86652884 125.80827971 -81.57249122 118.03794373 -77 111 C-70.18073241 103.06333328 -62.19140293 96.47300052 -54 90 C-18.4158211 64.52177266 -18.4158211 64.52177266 2 28 C2.60726904 18.45575484 1.98949501 9.37904793 0 0 Z " fill="#DE0F1B" transform="translate(290,6)"/>
<path d="M0 0 C-0.92039062 0.46148437 -1.84078125 0.92296875 -2.7890625 1.3984375 C-12.14715749 6.18221188 -20.68945749 11.57046398 -29 18 C-29.57556641 18.4424707 -30.15113281 18.88494141 -30.74414062 19.34082031 C-40.01833396 26.55928617 -49.86848399 35.25681495 -53 47 C-53.9621652 55.65948683 -53.86530959 62.59273486 -48.78125 69.87109375 C-46.5724439 72.51100455 -44.18120627 74.86331717 -41.67578125 77.21875 C-37.31681383 81.85205803 -34.38986226 87.63224977 -34 94 C-33.92652344 94.73863281 -33.85304688 95.47726563 -33.77734375 96.23828125 C-33.20457768 105.68157832 -37.17247243 112.12354897 -43.125 119.1875 C-47.72073771 124.06902308 -52.91766798 128.1199898 -59 131 C-59.66 130.67 -60.32 130.34 -61 130 C-60.57847656 129.38511719 -60.15695312 128.77023438 -59.72265625 128.13671875 C-59.17480469 127.32847656 -58.62695312 126.52023438 -58.0625 125.6875 C-57.51722656 124.88699219 -56.97195313 124.08648437 -56.41015625 123.26171875 C-52.71502153 117.33517303 -52.58030974 108.76163275 -54 102 C-56.39505147 97.92681934 -59.48117981 95.11043565 -63 92 C-72.97628354 81.43464067 -74.4132677 72.77520779 -74.20703125 58.6796875 C-73.7731306 45.2367534 -66.56794957 35.70317632 -57.109375 26.57421875 C-43.81477059 15.05015745 -26.37725593 7.72696382 -10.125 1.4375 C-9.45259277 1.17348389 -8.78018555 0.90946777 -8.08740234 0.63745117 C-3.3616198 -1.12053993 -3.3616198 -1.12053993 0 0 Z " fill="#DE0E1B" transform="translate(331,80)"/>
<path d="M0 0 C0.27674561 0.86052979 0.55349121 1.72105957 0.83862305 2.60766602 C1.89105737 5.87886407 2.94420734 9.14983009 3.99780273 12.4206543 C4.4489246 13.82160727 4.89978178 15.22264552 5.3503418 16.6237793 C6.00755908 18.6673946 6.66572791 20.71070098 7.32421875 22.75390625 C7.54289108 23.43360977 7.76156342 24.11331329 7.98686218 24.81361389 C9.10569043 28.27916012 10.24410955 31.73643847 11.41918945 35.18334961 C11.64778152 35.85651718 11.8763736 36.52968475 12.1118927 37.22325134 C12.74190705 39.07204696 13.37760154 40.91890416 14.01367188 42.765625 C15.27300614 46.89524391 15.77362214 50.69882071 16 55 C16.66 55 17.32 55 18 55 C18.07476562 54.34692871 18.14953125 53.69385742 18.2265625 53.02099609 C19.5979977 43.13355333 22.76731564 34.02141177 26 24.625 C26.552932 22.99638163 27.10502089 21.36747677 27.65625 19.73828125 C28.86888295 16.15866447 30.08938057 12.5818492 31.31738281 9.00747681 C32.22361624 6.34237751 33.10983073 3.67050781 34 1 C39.28 1 44.56 1 50 1 C49.23276717 5.60339699 48.60337301 8.34126332 46.76953125 12.41015625 C46.06981201 13.99304443 46.06981201 13.99304443 45.35595703 15.60791016 C44.5919458 17.31793213 44.5919458 17.31793213 43.8125 19.0625 C40.03319564 27.61991661 36.49065223 36.20769688 33.30078125 45.00390625 C32.99362686 45.84484329 32.68647247 46.68578033 32.37001038 47.55220032 C30.85008701 51.72062416 29.35654439 55.89599828 27.89770508 60.08618164 C27.34160808 61.6229029 26.78460396 63.15929628 26.2265625 64.6953125 C25.98935989 65.40551041 25.75215729 66.11570831 25.50776672 66.84742737 C24.31053427 70.07549954 23.4585324 71.74079929 20.42333984 73.45654297 C15.92019226 74.17142006 11.54822745 74.16179465 7 74 C6.76498276 73.38851105 6.52996552 72.77702209 6.28782654 72.14700317 C3.80550887 65.68849637 1.3226895 59.2301826 -1.16040039 52.77197266 C-2.08272538 50.37293196 -3.0049293 47.97384472 -3.92700195 45.57470703 C-5.26480517 42.09394797 -6.60309916 38.61337785 -7.94140625 35.1328125 C-8.3757901 34.00208313 -8.81017395 32.87135376 -9.25772095 31.70635986 C-11.22740825 26.58402626 -13.20474039 21.46521453 -15.21435547 16.35839844 C-15.54507553 15.51646942 -15.87579559 14.67454041 -16.21653748 13.80709839 C-16.822137 12.268576 -17.4305642 10.73116238 -18.04237366 9.19509888 C-20 4.22058701 -20 4.22058701 -20 2 C-17.41703099 1.66361334 -14.83368737 1.3307835 -12.25 1 C-11.15558594 0.85691406 -11.15558594 0.85691406 -10.0390625 0.7109375 C-6.65143196 0.27978452 -3.42145141 0 0 0 Z " fill="#DE0D1A" transform="translate(269,405)"/>
<path d="M0 0 C6.27 0 12.54 0 19 0 C19.09068665 11.770779 19.16393769 23.54132261 19.20724869 35.31237316 C19.22804501 40.77926391 19.25621613 46.24590143 19.30175781 51.71264648 C19.34550074 56.99707307 19.3691968 62.28125742 19.37950897 67.56585121 C19.38684958 69.573101 19.40118284 71.58033886 19.42292023 73.58748436 C19.58747364 89.4242366 18.12700128 101.52246145 9 115 C5.45008694 114.40099158 2.45188857 113.44788874 -0.8125 111.9375 C-1.60269531 111.57527344 -2.39289063 111.21304688 -3.20703125 110.83984375 C-4.09455078 110.42412109 -4.09455078 110.42412109 -5 110 C-4.39753454 105.76177142 -3.34642626 101.98330051 -1.96191406 97.94091797 C0.81495936 88.34113441 0.50084186 78.86572861 0.390625 68.9453125 C0.3831476 66.94750541 0.37746177 64.94969089 0.37347412 62.95187378 C0.35833567 57.74040824 0.319158 52.52940171 0.2746582 47.31811523 C0.23344857 41.9816712 0.21540868 36.64515167 0.1953125 31.30859375 C0.15265015 20.87216361 0.08239933 10.43619211 0 0 Z " fill="#DE0B18" transform="translate(150,378)"/>
<path d="M0 0 C-3.44717676 2.04464896 -6.54373901 2.43838561 -10.5 2.875 C-20.13584475 4.15844238 -28.77801705 6.76782903 -37 12 C-37 13.65 -37 15.3 -37 17 C-25.98840276 20.2902271 -15.52880268 20.45766933 -4.1328125 20.43359375 C-2.20783304 20.43817249 -0.28285521 20.44348297 1.64212036 20.44947815 C5.67147461 20.45837483 9.70063043 20.45603398 13.72998047 20.44604492 C17.79464478 20.43693205 21.85873076 20.44359396 25.92333984 20.46655273 C52.55317578 20.61635539 78.8122227 20.36553838 104.88742065 14.26609802 C107.20255813 13.97448602 108.79226154 14.2950005 111 15 C108.58858944 16.11696047 106.17173556 17.21831584 103.75 18.3125 C103.08742188 18.62123047 102.42484375 18.92996094 101.7421875 19.24804688 C92.14854119 23.54708649 81.82765624 25.40421125 71.5 27.0625 C70.44844727 27.23241455 69.39689453 27.4023291 68.31347656 27.57739258 C56.51494114 29.37970625 44.65132937 30.12616427 32.74121094 30.76635742 C30.05822191 30.93255584 30.05822191 30.93255584 27.71386719 31.51416016 C23.75882769 32.22219619 19.85412729 32.16271147 15.84375 32.16796875 C14.49742493 32.17296135 14.49742493 32.17296135 13.12390137 32.17805481 C11.21753448 32.18311397 9.31115875 32.18546345 7.40478516 32.18530273 C4.56526803 32.18745063 1.72616515 32.20550773 -1.11328125 32.22460938 C-46.21471105 32.36610868 -46.21471105 32.36610868 -63 22 C-63.4375 19.875 -63.4375 19.875 -63 17 C-54.26352152 5.87555074 -35.58820682 2.3437831 -22.44140625 0.3046875 C-14.98195377 -0.35574076 -7.48030583 -0.14084258 0 0 Z " fill="#DF1622" transform="translate(217,201)"/>
<path d="M0 0 C-0.33 1.65 -0.66 3.3 -1 5 C9.17302891 11.66795908 22.69196031 10.3942272 34.4375 10.375 C35.28551178 10.37678253 36.13352356 10.37856506 37.00723267 10.38040161 C52.12860423 10.38448468 66.62091538 8.97292244 81.50268555 6.25366211 C86.16363989 5.78023054 88.98945582 7.4419957 92.875 9.875 C96.51757573 12.11658506 100.13659922 14.16996805 104 16 C87.75097505 24.8557186 66.20822412 27.66643178 48 28 C47.08138184 28.02046387 46.16276367 28.04092773 45.21630859 28.06201172 C0.89964002 28.92984096 0.89964002 28.92984096 -14 15 C-15 14 -15 14 -15.5625 10.8125 C-14.92839312 6.51466447 -14.54047886 6.16604252 -11.25 3.6875 C-9.86132604 2.74885927 -8.44398099 1.85110558 -7 1 C-5.97132813 0.39091797 -5.97132813 0.39091797 -4.921875 -0.23046875 C-3 -1 -3 -1 0 0 Z " fill="#DE101C" transform="translate(207,282)"/>
<path d="M0 0 C0.66 0.33 1.32 0.66 2 1 C1.01 2.485 1.01 2.485 0 4 C-0.16699232 7.12521833 -0.16699232 7.12521833 0 10 C1.76772219 10.49051977 3.53944073 10.96663674 5.3125 11.4375 C6.29863281 11.70433594 7.28476563 11.97117188 8.30078125 12.24609375 C19.38067954 14.5041934 30.69923365 14.18622788 41.95727539 14.18530273 C44.89940245 14.18747191 47.84114294 14.20562834 50.78320312 14.22460938 C65.99906117 14.27170346 81.54722718 14.16854149 96.26269531 9.89355469 C105.82201655 7.1438416 105.82201655 7.1438416 110.03710938 8.80078125 C114.00864883 11.26190104 117.04125936 14.41583451 120 18 C115.57748578 20.94834282 110.85727211 21.42975323 105.6875 22.4375 C104.19573242 22.74397461 104.19573242 22.74397461 102.67382812 23.05664062 C85.03230549 26.5544348 67.6698173 28.49125073 49.67578125 28.33618164 C46.73670232 28.31239237 43.7985275 28.31568325 40.859375 28.32226562 C0.91365905 28.26470335 0.91365905 28.26470335 -12 18 C-12.61875 17.525625 -13.2375 17.05125 -13.875 16.5625 C-15 15 -15 15 -15.625 12.6875 C-14.617263 8.35423092 -11.56188558 6.44587265 -8 4 C-5.42139694 2.45376405 -2.85946463 0.95315488 0 0 Z " fill="#DE0E1B" transform="translate(196,242)"/>
<path d="M0 0 C0.33 0.66 0.66 1.32 1 2 C-2.86485431 10.73793149 -10.37110202 15.45425701 -19 19 C-31.84463854 23.89902781 -44.75788235 26.50442913 -58.40625 27.98046875 C-59.18462723 28.0652951 -59.96300446 28.15012146 -60.76496887 28.23751831 C-103.99926557 32.88911851 -148.35193947 35.18616787 -191.4375 28.125 C-192.81518555 27.90118652 -192.81518555 27.90118652 -194.22070312 27.67285156 C-200.5117243 26.53935512 -206.15553687 24.57536633 -212 22 C-212 21.67 -212 21.34 -212 21 C-209.3539713 21.14278226 -206.70821857 21.28916264 -204.0625 21.4375 C-203.32708984 21.47681641 -202.59167969 21.51613281 -201.83398438 21.55664062 C-201.09599609 21.59853516 -200.35800781 21.64042969 -199.59765625 21.68359375 C-198.93258057 21.72025146 -198.26750488 21.75690918 -197.58227539 21.79467773 C-195.31767506 21.97474097 -193.07656502 22.22025723 -190.82080078 22.48535156 C-173.50071883 24.43758722 -155.90835797 24.18641834 -138.50610352 24.18530273 C-134.70252308 24.18749136 -130.89923278 24.20573999 -127.09570312 24.22460938 C-104.33173126 24.27940329 -82.0015471 22.82118123 -59.5625 18.9375 C-58.69177856 18.78926788 -57.82105713 18.64103577 -56.9239502 18.48831177 C-37.00832213 15.0510726 -18.02010424 9.30187567 0 0 Z " fill="#DE1420" transform="translate(385,330)"/>
<path d="M0 0 C5.25181863 3.19296615 9.48628097 6.70264238 11.4140625 12.6796875 C12.4743164 20.60092328 12.52106731 27.93297458 7.9375 34.70703125 C7.43476563 35.35800781 6.93203125 36.00898438 6.4140625 36.6796875 C5.95257813 37.34097656 5.49109375 38.00226563 5.015625 38.68359375 C-3.60190743 49.86013962 -17.83782144 55.61605785 -30.5859375 60.6796875 C-31.69195312 61.12699219 -32.79796875 61.57429688 -33.9375 62.03515625 C-41.15263726 64.82412091 -41.15263726 64.82412091 -44.5859375 63.6796875 C-43.18794922 62.98746094 -43.18794922 62.98746094 -41.76171875 62.28125 C-28.32664494 55.47324719 -11.88195594 46.1294343 -5.5234375 31.7421875 C-3.45135648 24.82591708 -3.56959129 16.21510428 -6.5859375 9.6796875 C-12.78196107 2.88316825 -17.35970498 1.63472076 -26.3359375 1.1171875 C-27.03332031 1.07400391 -27.73070312 1.03082031 -28.44921875 0.98632812 C-30.16125672 0.88079154 -31.87357311 0.7797884 -33.5859375 0.6796875 C-23.9529567 -9.23543081 -11.30007901 -5.76952675 0 0 Z " fill="#DE121F" transform="translate(375.5859375,202.3203125)"/>
<path d="M0 0 C0.13517903 2.75164432 0.23415251 5.49664521 0.3125 8.25 C0.35439453 9.02730469 0.39628906 9.80460937 0.43945312 10.60546875 C0.4871648 12.83837508 0.45769426 14.81265046 0 17 C-2.3359375 19.4375 -2.3359375 19.4375 -5 21 C-5.969375 21.5775 -6.93875 22.155 -7.9375 22.75 C-11.36896349 24.15059734 -13.34071794 24.62285652 -17 24 C-20.51699254 21.49902753 -22.26530384 19.24849719 -23.125 15.0625 C-23.3207286 11.70985842 -22.92563991 10.86666467 -21.1875 7.75 C-15.99095685 2.40789542 -7.28670035 0 0 0 Z " fill="#F1E8E9" transform="translate(368,445)"/>
<path d="M0 0 C1.197498 14.93546111 1.197498 14.93546111 -1.4296875 19.46484375 C-5.73503797 23.00076412 -10.30522773 23.83792969 -15.7890625 23.44140625 C-18 23 -18 23 -20.625 21.5625 C-22.69401672 17.70660521 -22.74208052 14.27652591 -22 10 C-19.47749708 5.35859462 -15.92773503 3.48202557 -11 2 C-2.55 0 -2.55 0 0 0 Z " fill="#F1EEEE" transform="translate(223,445)"/>
</svg>
