<svg width="71" height="71" viewBox="0 0 71 71" fill="none" xmlns="http://www.w3.org/2000/svg">
<g filter="url(#filter0_d_844_466)">
<path d="M41.6192 6.42757C44.3928 5.96486 47.3009 6.96913 49.1963 9.05375L49.3765 9.25866L49.3875 9.27165L49.3984 9.28504L63.5486 26.2178C65.6481 28.7258 65.7647 31.8922 64.857 34.3884L57.2928 55.1707C56.3816 57.6743 54.2555 60.0142 51.0448 60.5928L51.0425 60.5929L29.3898 64.4841L29.3753 64.4869C27.9303 64.7416 26.4438 64.6103 25.0654 64.1073C25.0644 64.107 25.0633 64.1066 25.0622 64.1062C25.0612 64.1058 25.0599 64.1058 25.0589 64.1054C23.6851 63.604 22.4671 62.7502 21.5273 61.6296L21.5129 61.6122L21.499 61.595L16.8056 55.8796C16.5174 55.5405 16.0856 54.9832 15.7889 54.2553C15.6437 53.8992 15.4593 53.3022 15.4368 52.584C15.0132 52.3976 14.5221 52.148 13.9918 51.7933C13.0822 51.1849 12.2012 50.3746 11.185 49.3139L11.0943 49.2198L11.0098 49.1198L7.23264 44.6676L7.21583 44.6471C5.41958 42.503 4.60908 39.3487 5.68681 36.3876L13.2505 15.6066C14.3161 12.6788 16.9239 10.7477 19.7215 10.2584L41.5856 6.43334L41.6192 6.42757Z" fill="#F9F4DA"/>
<path d="M60.2306 28.9908L46.0802 12.0577C45.1845 11.0028 43.7042 10.464 42.3309 10.6931L20.4666 14.5179C19.0566 14.7644 17.8049 15.7368 17.314 17.0854L9.75028 37.8667C9.25941 39.2153 9.60978 40.7712 10.5305 41.8702L14.3073 46.3225C16.1839 48.2811 16.8174 48.5117 17.8576 48.8903C21.2441 50.1229 23.748 48.7154 25.0478 45.1441L32.5152 24.6278C32.621 24.3382 32.9588 23.9729 32.6739 23.8692L30.3895 23.0377C30.1001 22.9324 29.3703 23.155 29.265 23.4443L21.7976 43.9606C21.2214 45.5437 19.1787 46.5843 16.9896 44.2722L13.1011 39.6297C12.9636 39.4738 12.9289 39.2481 13.001 39.0498L20.5648 18.2686C20.6361 18.0728 20.8958 17.9446 21.1062 17.9075L42.9193 14.0843C43.025 14.0695 43.1327 14.0808 43.2329 14.1173C43.3332 14.1538 43.4229 14.2143 43.4943 14.2936L57.5789 31.1797C57.7126 31.3448 57.616 31.5254 57.5425 31.7274L49.9787 52.5086C49.9065 52.7069 49.8737 52.9135 49.6703 52.9476L27.9545 56.8131C27.7673 56.8495 27.5674 56.7767 27.4324 56.6231L23.8319 52.2069C23.7226 52.076 23.5661 51.9864 23.4058 52.0123C21.8641 52.2716 21.5918 52.2816 20.2418 52.261C19.9089 52.2562 19.4084 52.2761 20.1223 53.1051L24.8406 58.8508C25.294 59.3914 25.8817 59.8031 26.5446 60.0444C27.2098 60.2878 27.9274 60.3512 28.6249 60.2282L50.2778 56.3371C51.6917 56.0823 52.7386 55.0404 53.2295 53.6918L60.7932 32.9106C61.2837 31.5618 61.1518 30.0895 60.2306 28.9908ZM38.4693 44.5903C33.7041 42.8559 33.1334 41.1595 33.6459 38.6628C33.6973 38.3925 33.5922 38.0086 33.3321 37.914L31.0038 37.0665C30.7157 36.9617 30.3565 37.2267 30.2521 37.5136C29.1479 40.5473 29.4598 44.8236 37.3404 47.6919C43.0446 49.7681 47.1225 48.742 48.5503 44.8192C49.9659 40.9297 47.7096 38.9525 42.4438 36.2066C37.1207 33.4321 36.6886 32.852 37.1654 31.5419C37.5585 30.4618 38.5639 29.1965 42.7045 30.7035C46.4039 32.05 47.4786 33.3403 47.1321 36.0383C47.0951 36.2904 47.248 36.5365 47.4898 36.6245L49.8279 37.4755C49.9718 37.5279 50.1298 37.5196 50.268 37.4535C50.4062 37.3786 50.5078 37.2587 50.5494 37.1054C51.7496 32.6787 49.6255 29.6392 43.8558 27.5392C38.7229 25.6709 34.8726 26.7241 33.5502 30.3572C32.1159 34.298 34.7659 36.4958 39.5155 38.7762C45.1992 41.4993 45.344 42.5276 44.9221 43.6869C44.1891 45.7007 42.2605 45.9701 38.4693 44.5903Z" fill="#0CA95B"/>
</g>
<defs>
<filter id="filter0_d_844_466" x="2.88692e-05" y="0" width="74.9927" height="74.9928" filterUnits="userSpaceOnUse" color-interpolation-filters="sRGB">
<feFlood flood-opacity="0" result="BackgroundImageFix"/>
<feColorMatrix in="SourceAlpha" type="matrix" values="0 0 0 0 0 0 0 0 0 0 0 0 0 0 0 0 0 0 127 0" result="hardAlpha"/>
<feOffset dx="4.05" dy="4.05"/>
<feComposite in2="hardAlpha" operator="out"/>
<feColorMatrix type="matrix" values="0 0 0 0 0.0470588 0 0 0 0 0.662745 0 0 0 0 0.356863 0 0 0 1 0"/>
<feBlend mode="normal" in2="BackgroundImageFix" result="effect1_dropShadow_844_466"/>
<feBlend mode="normal" in="SourceGraphic" in2="effect1_dropShadow_844_466" result="shape"/>
</filter>
</defs>
</svg>
