<svg width="71" height="71" viewBox="0 0 71 71" fill="none" xmlns="http://www.w3.org/2000/svg">
<g filter="url(#filter0_d_844_458)">
<path d="M26.2227 10.8811C28.1245 10.1792 30.1724 9.59726 32.2342 9.21307L32.2355 9.21304C36.3888 8.44065 41.6889 10.069 43.5194 15.0982L46.997 24.6528C48.7253 29.4015 46.3914 34.7889 41.5102 36.5656L31.4877 40.2135C30.1123 40.7141 29.341 42.4397 29.8143 43.74L31.4829 48.3245C32.2179 50.3441 31.1765 52.5775 29.1569 53.3126L25.7065 54.5685C23.2622 55.4581 20.827 55.2941 18.6766 54.2605C16.6388 53.281 15.0881 51.6397 13.9454 49.9131C12.6334 47.9347 11.6511 46.1406 10.9445 44.1796C10.2384 42.22 9.8666 40.2573 9.61262 38.0102C8.98666 32.5416 12.0089 28.1993 16.5646 26.5411L16.6737 26.5014L16.149 25.0597C15.5515 23.4179 14.9107 21.0959 15.8333 18.6226C16.7307 16.2168 18.7564 14.6001 20.9762 13.3174L21.2706 13.1496C22.7572 12.3134 24.4395 11.5397 26.2215 10.8816L27.5408 14.4531L26.2227 10.8811Z" fill="#F9F4DA"/>
<path d="M45.256 15.638C47.893 14.6782 50.4603 14.9391 52.6734 16.1496C54.6809 17.2477 56.1359 18.9799 57.191 20.5473L57.4476 20.9325C60.0619 24.9058 61.5172 28.6052 61.6386 33.0425C61.6876 34.773 61.6742 36.9931 60.9103 39.0247C60.0117 41.4143 58.2317 43.1898 55.6289 44.1372L54.675 44.4844L55.0521 45.5205C56.0683 48.3126 55.5847 50.9292 54.4393 53.0119C53.3732 54.9505 51.7651 56.4023 50.3788 57.4153L50.3783 57.4151C46.2608 60.4256 42.348 61.6171 38.0782 61.8874C34.7697 62.0966 28.9233 61.422 26.8691 55.7782L23.3914 46.2232C21.6045 41.3139 24.064 35.6021 29.1365 33.7558L39.159 30.1079C40.2245 29.7201 40.9784 28.2469 40.5273 27.0074L38.9054 22.5512C38.0886 20.307 39.2458 17.8256 41.4898 17.0087L45.256 15.638Z" fill="#F9F4DA"/>
<path d="M27.57 14.5324C25.8574 15.1649 24.2729 15.9068 22.9241 16.6867C18.9508 18.9824 18.7519 20.8329 19.8059 23.7289L21.1978 27.553L31.2316 23.901L31.6956 25.1757L17.8958 30.1984C14.9798 31.2597 13.0643 33.9417 13.4793 37.5677C13.9487 41.7248 14.7762 44.1248 17.1909 47.7653C18.9854 50.4765 21.459 51.9728 24.3753 50.9113L27.8256 49.6555L26.157 45.0712C24.9515 41.7591 26.7534 37.795 30.1565 36.5564L40.179 32.9085C42.969 31.893 44.3595 28.7851 43.3399 25.9838L39.8624 16.4294C38.8725 13.7098 35.8348 12.5021 32.9471 13.0391C31.1182 13.3799 29.2824 13.9004 27.57 14.5324V14.5324ZM23.2631 19.583C24.2993 19.2059 25.4592 19.7579 25.8444 20.816C26.2279 21.8696 25.6916 23.0298 24.655 23.4071C23.6148 23.7857 22.4623 23.2402 22.0788 22.1866C21.6933 21.1286 22.2229 19.9616 23.2631 19.583V19.583Z" fill="#14B6E5"/>
<path d="M42.9691 21.0725L44.5909 25.5284C45.8481 28.9823 43.9773 32.9558 40.638 34.1712L30.6155 37.8191C27.8703 38.8183 26.4541 41.9949 27.4548 44.7442L30.9326 54.2994C31.9222 57.0182 34.8685 57.7575 37.805 57.5718C41.3207 57.3493 44.4281 56.4097 47.8274 53.924C50.0869 52.2728 52.0421 49.8944 50.9885 46.9996L49.5965 43.1751L39.5744 46.8229L39.1103 45.5478L54.1499 40.0738C57.0658 39.0125 57.413 36.583 57.3159 33.1605C57.2195 29.6362 56.0742 26.6298 53.6043 22.9629C51.8267 20.322 49.6553 18.6384 46.7349 19.7013L42.9689 21.0721L42.9691 21.0725ZM46.1387 47.3208C47.1794 46.942 48.3318 47.4875 48.7156 48.542C49.1005 49.5993 48.5708 50.7663 47.5306 51.1449C46.4944 51.522 45.3349 50.9699 44.9501 49.9126C44.5663 48.8581 45.1025 47.6979 46.1387 47.3208V47.3208Z" fill="#FCBA28"/>
</g>
<defs>
<filter id="filter0_d_844_458" x="0" y="0" width="74.9927" height="74.9928" filterUnits="userSpaceOnUse" color-interpolation-filters="sRGB">
<feFlood flood-opacity="0" result="BackgroundImageFix"/>
<feColorMatrix in="SourceAlpha" type="matrix" values="0 0 0 0 0 0 0 0 0 0 0 0 0 0 0 0 0 0 127 0" result="hardAlpha"/>
<feOffset dx="4.05" dy="4.05"/>
<feComposite in2="hardAlpha" operator="out"/>
<feColorMatrix type="matrix" values="0 0 0 0 0.988235 0 0 0 0 0.729412 0 0 0 0 0.156863 0 0 0 1 0"/>
<feBlend mode="normal" in2="BackgroundImageFix" result="effect1_dropShadow_844_458"/>
<feBlend mode="normal" in="SourceGraphic" in2="effect1_dropShadow_844_458" result="shape"/>
</filter>
</defs>
</svg>
