<svg xmlns="http://www.w3.org/2000/svg" width="1254" height="1254"><path fill="#0b0f0c" d="M0 0h1254v1254H0z"/><path fill="#181e19" d="M862 104h2q.037 6.968.055 13.934.008 2.37.02 4.74c.013 2.272.018 4.543.023 6.814l.015 2.14c0 3.075-.133 5.431-1.113 8.372h8v-5l4 1-.437 1.625c-.655 2.763-1.096 5.574-1.563 8.375h62l2-5h2l1 4q10.357.037 20.715.055 3.525.008 7.048.02c3.376.013 6.752.018 10.128.023l3.185.015h2.972l2.61.007c2.25-.115 4.186-.491 6.342-1.12v2h40v-6h2v6h219v2H939v2h-2v2l3.25-1.562c2.465-1.07 3.471-1.474 6.188-1.125L948 150v3l-1.5-.562c-3.65-.64-6.84.013-10.5.562v-4l-73-1 1 7v3l-3-1v-8a1238302 1238302 0 0 0-117.285-.427l-2.512-.01q-19.881-.071-39.762-.145l-41.095-.149q-11.479-.04-22.957-.084c-41.797-.157-83.592-.215-125.389-.185l5 2-1 3h-7l-1-4a1249094 1249094 0 0 0-150.5-.427l-3.244-.01q-22.323-.06-44.647-.127-38.597-.112-77.195-.217l-3.058-.009Q114.678 147.901 0 148v-2l138-1v-4h4v-2l7 2-1 3-3-1v2h-2l-1-2h-2v2l1.815-.001a312765 312765 0 0 1 123.32-.055q20.762-.007 41.524-.021 21.466-.014 42.933-.017 11.989 0 23.977-.012c44.819-.041 89.619.363 134.431 1.106v-5h8v5h105l-1-11c.438-3.687.438-3.687 1-6h2v16l4.127-.007q19.708-.03 39.415-.045a20730 20730 0 0 0 20.24-.023c37.755-.064 75.473.278 113.218 1.075l-.219-1.863-.281-2.45-.281-2.425C799 137 799 137 799 134l3 1v10l59 1c-.04-13.448-.04-13.448-.09-26.896l-.008-5.038-.015-2.667c0-2.133.05-4.266.113-6.399z"/><path fill="#161b16" d="M440.278 63.373q12.27.109 24.54.203 25.091.2 50.182.424l1 3-1.995-.003a65779 65779 0 0 0-48.1-.049q-11.632-.007-23.262-.023-10.14-.015-20.28-.02-5.366 0-10.733-.01a5613 5613 0 0 0-11.994-.009l-3.579-.01-3.318.004-2.863-.003c-3.339.143-6.576.606-9.876 1.123l2.06-.001a400735 400735 0 0 1 138.187-.054h3.026q20.794-.006 41.59-.019 35.986-.022 71.973-.024h2.858C714.466 67.9 789.231 68.3 864 69v2l-138 1-1 4h-2v-4l-2.096.003q-25.796.034-51.593.049-12.477.007-24.954.023c-34.267.048-68.521-.01-102.784-.61-31.522-.552-63.037-.586-94.563-.537q-11.345.016-22.69.022-23.16.015-46.32.05v-2l-5 1v2H60l-1 5h-2v-5L0 71v-2h19l-1-5h5l1 3-4-1v2h346c-6.622-.662-12.902-1.14-19.508-1.098l-2.58.005c-2.68.005-5.358.018-8.037.03q-2.75.009-5.5.014-6.687.017-13.375.049v-3c41.108-1.025 82.162-.998 123.278-.627"/><path fill="#191f19" d="M339 485h3v25l5.362-.007q35.632-.041 71.263-.055l2.978-.002c76.258-.033 152.515.212 228.772.564l3.93.018q49.847.23 99.695.482v-11h2v10l283 1v-5h5v-6c1.063 1.875 1.063 1.875 2 4l-1 2 3 1h-3v2l-4 1 1 3h-2.416q-130.38-.027-260.758-.042h-3.942l-130.64-.013a930629 930629 0 0 1-131.84-.02q-48.094-.012-96.19-.016h-2.004l-61.157-.004h-3.878q-30.753-.002-61.505-.012-31.01-.009-62.02-.007-16.764.002-33.528-.005C148.404 512.86 104.706 512.849 61 514l-2 4h-2v-5H0v-2c40.446-.841 80.861-1.104 121.314-.91q11.415.052 22.828.094 20.331.077 40.661.168a83548 83548 0 0 0 54.132.224q50.533.201 101.065.424l-.215-2.253-.279-2.975-.278-2.94c-.297-3.694-.324-7.314-.29-11.02l.027-3.917z"/><path fill="#161d17" d="M30 1028h3v2h845v-2h9c-3 2-3 2-5.687 1.625L879 1029v2l2 1v1h6v2l-8 1-1-4H29z"/><path fill="#151b16" d="M941 426h2v2c9 .18 18 .344 27 .5l2.098.037c18.942.331 37.878.501 56.824.46 1.367-.004 1.367-.004 2.762-.006 9.045-.018 18.09-.045 27.134-.101 3.382-.02 6.765-.03 10.147-.04q2.373-.01 4.745-.031c2.17-.02 4.338-.026 6.508-.03l3.695-.023c2.952.224 4.607.681 7.087 2.234-27.67.66-55.321 1.18-83 1l-2 4h92l-1 6h-4v-4H859v-2l7-1v-2l-4 1v-2c4.66-2.715 8.013-3.368 13.382-3.34l2.16-.002c2.338.002 4.675.025 7.013.049q2.442.009 4.884.013c4.271.011 8.542.04 12.813.074 4.364.03 8.728.044 13.092.06q12.828.05 25.656.146z"/><path fill="#181d18" d="M371.454 772.882q14.799.007 29.598.004 27.294-.001 54.587.008 26.97.01 53.94.011h3.405l17.126.001q60.431.004 120.862.019 58.658.014 117.314.02h3.661l114.001.013q113.526.016 227.052.042v3H568l1 3-4 2 .562-1.937L566 777c-1.008-1.23-1.008-1.23-3.06-1.123l-2.768.003-3.166-.004-3.502.01h-3.666q-4.989.001-9.979.013-5.208.007-10.418.008-9.87.005-19.74.021-11.235.016-22.47.022-23.115.016-46.231.05l.562 1.938L442 780c-1 1-1 1-4.563 1.063L434 781l-1-4 1 2h3v-3H252v-2c39.817-1.143 79.625-1.14 119.454-1.118M510 900q71.445-.027 142.892-.042h2.156l71.562-.013q36.378-.007 72.755-.021a248852 248852 0 0 1 85.894-.019h2.137q15.617-.002 31.232-.01c70.13-.038 140.247.267 210.372 1.105v2c-5.98.881-11.72 1.106-17.758 1.006l-2.857-.034a2624 2624 0 0 1-6.107-.082q-4.852-.07-9.705-.125c-8.039-.096-16.078-.204-24.117-.312q-10.189-.136-20.378-.257-4.746-.06-9.49-.131-2.962-.036-5.924-.07l-2.604-.045c-4.906-.05-9.73.16-14.622.55-9.65.692-19.289.618-28.958.582l-6.14-.01q-8.38-.015-16.76-.04-9.06-.024-18.117-.04-15.675-.03-31.35-.071a72128 72128 0 0 0-45.328-.105q-36.774-.078-73.549-.168-35.714-.087-71.428-.166l-2.226-.005-69.307-.153A805638 805638 0 0 1 514 903l-1 3-3-2z"/><path fill="#171e18" d="M0 718h584v3l-95-1-1 5-4-1h3v-3h-8v3l2 1h-4v-5l-197 1-1 2-3-1v-2l-3.952.493c-4.623.51-9.164.642-13.81.62l-2.527.001c-2.768 0-5.536-.009-8.304-.016l-5.984-.005q-6.424-.005-12.847-.018-10.154-.019-20.307-.024-21.54-.018-43.082-.051c-15.52-.022-31.042-.043-46.563-.053q-10.098-.008-20.196-.029-6.27-.01-12.54-.013-2.913-.003-5.825-.01-3.967-.01-7.936-.009l-2.34-.01c-3.401.006-6.536.05-9.787 1.124h4l1 3c-4.485.944-7.515.944-12 0v-5H0z"/><path fill="#171d18" d="M579 347h5l-1 5h140v2l-13 1 1 4h-7v-4l-121-1 1 4c-7.429 2.429-7.429 2.429-11 1l1-4 8 2v-2l-411-1v-2c63.866-.694 127.725-1.096 191.595-1.064l7.18.004c22.534.01 45.07.031 67.604.055l25.106.026 2.526.002q20.81.02 41.621.03 12.672.007 25.343.026 8.554.012 17.11.015 4.92.001 9.84.012 5.312.01 10.626.008l3.155.01 2.851-.004 2.472.003c2.049.001 2.049.001 3.971-1.123v-2z"/><path fill="#131814" d="m498 972-1 5c2.296 1.148 4.077 1.308 6.625 1.563l2.477.253L508 979v2H197v-2l2.7-.004q12.601-.026 25.204-.128c4.319-.034 8.638-.06 12.957-.064q6.254-.008 12.508-.077 2.384-.02 4.768-.013c2.23.005 4.457-.021 6.686-.055l3.842-.02c4.179-.8 5.525-2.554 8.335-5.639h3v2l-3 2c3.275 1.092 5.63 1.11 9.076 1.09l3.84-.013 2.072-.014c3.747-.025 7.494-.031 11.242-.041l2.41-.008c8.965-.026 17.93.024 26.895.078l5.154.03 13.389.08q7.099.043 14.197.084 13.354.079 26.707.16l30.481.18q31.268.186 62.537.374l-1-3-3.792.007q-17.742.03-35.484.045-9.12.007-18.24.023-8.81.016-17.623.02-3.351.003-6.702.01c-22.48.053-22.48.053-32.159-1.105l1-2 113.98-.908 3.526-.029 3.23-.025 2.804-.022c2.153-.014 4.307-.016 6.46-.016"/><path fill="#171c17" d="M224 610h2v5l353 1v-2h3l-1-3h3c.928 4.333.928 7.667 0 12l-8-1v-2l3-2H195l-1-2h30z"/><path fill="#161c16" d="m968.317 1027.886 3.03.016 3.272.01 3.444.025 3.455.014q4.241.018 8.482.049v2l3.76-.092c77.403-1.835 154.832-.906 232.24.092v2l-93 1v4h-6l-1-4 3-1H886v-2l2.992-.031q13.93-.146 27.857-.308 7.161-.084 14.323-.158 6.906-.072 13.81-.156 2.641-.031 5.282-.056 3.686-.037 7.37-.086l2.228-.017c3.264-.048 5.502-1.157 8.455-1.302"/><path fill="#161b16" d="m625.748 717.871 3.499-.01 3.83.005 4.08-.007q5.605-.008 11.209-.004 6.043-.002 12.088-.01 11.838-.012 23.676-.012 9.617 0 19.234-.006 27.25-.014 54.5-.012h5.939q23.863-.002 47.727-.023 24.487-.023 48.973-.02 13.755.001 27.509-.014 11.705-.014 23.408-.005 5.976.007 11.952-.005 5.464-.011 10.927.002c1.952.003 3.903-.005 5.855-.013l3.476.014h3.018C949 718 949 718 951 720c-2.957 1.478-5.742 1.06-9 1l1 5h-3l1-6-3.318.045q-21.56.285-43.12.517l-3.542.04c-38.388.41-76.758.383-115.145-.04l-3.53-.038Q751.172 720.289 730 720l.062 2.437C730 725 730 725 729 726a92 92 0 0 1-5.063.062l-2.785-.027L719 726l1-3h8c-3.136-3.136-7.01-2.309-11.223-2.319l-2.898-.03c-3.17-.031-6.341-.048-9.512-.065l-6.583-.059c-5.783-.051-11.567-.09-17.35-.128-5.899-.04-11.797-.091-17.696-.141Q645.37 720.114 628 720v5h-6v-4h-6v2l3 1h-4v-5c3.646-.838 7.01-1.126 10.748-1.129"/><path fill="#1d251e" d="M778 184h55v2h-12v2h-2v-2h-17v9l139 1v1l-2.703-.003q-33.2-.033-66.401-.049-16.059-.007-32.117-.023c-45.803-.05-91.593.045-137.392.716l-9.26.134-2.252.033c-20.959.3-41.917.311-62.879.26q-7.55-.013-15.101-.02-14.447-.015-28.895-.048l-.312 1.938L583 202l-3 1c-.733 2.015-.733 2.015-1 4h-2v-12h39l-1-5 5-1v3h-2l-1 3 2.304-.007q10.832-.03 21.665-.045 5.567-.007 11.134-.023 5.388-.016 10.776-.02 3.021-.005 6.043-.018c8.073 0 16.04.365 24.078 1.113l1-2 7 2v-2h5v2l2.44-.492c4.207-.6 8.27-.651 12.513-.64l2.66-.005c2.879-.002 5.758.005 8.637.012l2.978.003c21.266.022 42.516.5 63.772 1.122l1-10h-21z"/><path fill="#0b100b" d="M867 431q14.199-.07 28.399-.104 6.592-.014 13.186-.047 6.36-.032 12.721-.039 2.429-.004 4.858-.021a999 999 0 0 1 6.794-.016l3.91-.014C940 431 940 431 943 433v-2h58l2 5H867z"/><path fill="#161b17" d="m880 610 4 1v3h2v-3h2v4l257 1v2H888l1 4-2.812-.062c-3.21-.096-3.21-.096-6.188 1.062v-4h6l-4-4v3h-39v-2h37z"/><path fill="#191f1a" d="M432 663h4v5l-1.74-.003q-20.958-.033-41.914-.049-10.134-.007-20.268-.023-9.775-.016-19.549-.02-3.735-.003-7.47-.01-5.219-.01-10.437-.009l-3.141-.01-2.868.004-2.495-.003c-2.309.042-2.309.042-5.118 1.123v3l-2-1v5h-2v-8H122l-1 4-1-5-2.705.214c-11.98.858-23.913.94-35.92.911l-3.203-.003C52.11 668.097 26.055 667.577 0 667v-1h56v-2h5v2h232v-2l1.757.48c3.455.8 6.962.892 10.493 1.082l2.258.131q2.745.158 5.492.307v-2l3.81.493c5.416.598 10.774.64 16.218.62l3.225.001c3.49 0 6.98-.008 10.47-.016l7.292-.005q9.566-.006 19.131-.024 9.774-.014 19.547-.02 19.154-.016 38.307-.049z"/><path fill="#161c17" d="m230 25-1 4v-2h-2v3l1.771-.018q29.02-.299 58.042-.544l2.264-.02c45.938-.39 91.86-.448 137.798.02l3.82.038Q453.347 29.71 476 30v2l-77 1 1 7h-5l-1-3h-5l1-5H226l-1-5h-5v-2c3.576-1.238 6.337-.75 10 0"/><path fill="#191f19" d="m445 190-1 4v-3h-4v4h39l1-4h-2l-1 2v-3h5l-1 6c3.122-1.309 3.122-1.309 5-4h-2v-2l5 1-1 3c4.761.944 9.373 1.137 14.208 1.114h2.427q3.945-.002 7.888-.016l5.49-.005q7.206-.006 14.411-.024 7.36-.014 14.72-.02 14.429-.016 28.856-.049v3h-87v4h-12v-3l5-1H349l-2 4-3-1 3-4c-.849.01-.849.01-1.714.018q-27.58.295-55.161.544l-2.12.02c-36.234.33-72.459.577-108.692-.02l-2.363-.038c-8.984-.15-17.967-.321-26.95-.524v-1c59.05-.998 118.09-1.129 177.148-1.072q18.198.016 36.396.022 37.228.015 74.456.05v-5c2.667-1.333 4.167-.671 7 0"/><path fill="#0c110d" d="m867.09 664.87 2.133-.005q3.534-.004 7.07.002 2.549 0 5.098-.004 6.946-.003 13.893.008 4.35.006 8.7.007c47.342.021 94.679.548 142.016 1.122v2H943v3l-76 1-1 5h-5l1-8h-2v2l-4-1h2v-2h-3v-2c4.083-.977 7.898-1.127 12.09-1.13"/><path fill="#161c17" d="M1118.938 28.938h3.02q39.021.017 78.042.062v3l-2.478-.003q-30.524-.033-61.046-.049-14.764-.007-29.527-.023-17.147-.021-34.293-.023h-2.856c-40.938.002-81.867.463-122.8 1.098v4h-8l1-7a7519 7519 0 0 1 32.688-.5l2.682-.036c47.854-.63 95.71-.547 143.568-.526"/><path fill="#161d16" d="m212 385 160 1 1 3H217l9 2-1 3-11-1 2 3a140 140 0 0 1-1 4c.386 2.681.386 2.681 1 5l-4 1-1-3c-3.832-.09-7.266.121-11 1v-4l3-1-3-1v-3h2v-2h-2v-2c.922-.09.922-.09 1.863-.184l2.45-.253 2.425-.247c2.423-.269 2.423-.269 5.262-1.316z"/><path fill="#161d18" d="M272 839h2v12h6c-2.117 2.43-3.535 3.845-6.625 4.875L271 856l-2-2c-1.937-.33-1.937-.33-4.174-.319l-2.609-.06-2.819-.035-2.883-.059c-3.047-.06-6.093-.106-9.14-.152q-3.094-.057-6.187-.117-7.594-.142-15.188-.258v2h-2v-2h-23v3h-2v-3h-49l-1 3-6-1v-2l-2-1-1 4h-2v-3H59l-1 2v-2h-4v-2l3-2 3 1c2.508.12 4.991.185 7.5.205l2.307.03q3.774.047 7.548.081l5.234.063q6.887.083 13.775.153 7.027.077 14.056.161 13.79.162 27.58.307v-3h2v2l3.313-.5C147 849 147 849 150 849v2h49l1-3 1 3h70z"/><path fill="#131914" d="m965.939 717.873 2.84-.005c3.16-.004 6.321 0 9.482.003l6.774-.006q9.224-.005 18.447 0c6.425.003 12.85 0 19.275 0q17.232-.004 34.463.006 15.622.005 31.246-.001 18.134-.01 36.267-.005 9.603.003 19.204-.001 9.03-.004 18.062.005 3.318 0 6.636-.002 4.523-.002 9.045.006l2.664-.007c4.019.013 7.734.128 11.656 1.134v1l-2.507.076c-3.748.116-7.495.239-11.243.361l-3.945.12-3.79.127-3.49.11c-2.855.089-2.855.089-4.85.726-2.749.607-5.191.488-8.004.361l-3.6-.146-3.935-.169a922 922 0 0 0-35.9-.664l-2.392.001q-7.468.007-14.936.029c-4.433.01-8.865.013-13.297.017-11.183.01-22.366.03-33.549.051-12.162.022-24.324.043-36.487.053q-7.87.008-15.741.029-4.88.01-9.76.013-2.25.003-4.503.01c-7.09.026-14.054.033-21.071-1.105v6h-5l.5-1.938c.54-1.87.54-1.87.5-3.062v-2c3.38-1.69 7.22-1.136 10.939-1.127"/><path fill="#171e19" d="M798 25c3.875.875 3.875.875 5 2l1 2 2.265-.007q14.618-.04 29.235-.055l2.39-.003c24.52-.024 49.03.149 73.548.565l2.134.036q12.714.218 25.428.464l-1 2H799v2h6l-3 1v2c-1.937-.312-1.937-.312-4-1l-1-3-101-1 1-5 3 1v2l97-1z"/><path fill="#171b17" d="M871 69h263v2c-52.626 1.213-105.232.963-157.867.627-11.5-.074-23.001-.139-34.502-.203Q906.316 71.224 871 71z"/><path fill="#171d18" d="m793 347-1 3-2-1v2l65 1v-6h2v6h83l1 2q-29.87.231-59.743.443-13.87.098-27.737.205-12.085.094-24.17.177-6.402.043-12.804.096-6.02.049-12.04.086-2.215.014-4.43.035-3.013.026-6.027.04l-3.413.025C788 355 788 355 786 354c.959 2.33.959 2.33 4 4h-5v-4h-60v-2l63-1v-3h-2v2h-2v-3c3.069-1.534 5.7-.55 9 0"/><path fill="#191f19" d="m272 744 1 4h181v2q-25.55.2-51.1.391-11.874.09-23.746.182c-36.719.286-73.434.516-110.154.427v-2l-2 1c-2.915.157-5.81.259-8.727.316l-2.614.063q-4.142.098-8.284.183l-5.61.131q-6.882.161-13.765.307v-2c3.38-1.69 7.223-1.244 10.945-1.316l2.682-.063q4.249-.098 8.498-.183l5.754-.131q7.06-.161 14.121-.307c-2.79-1.105-2.79-1.105-5-1v-2c2.667-1.333 4.167-.671 7 0"/><path fill="#131813" d="M859 261c2.938 1.25 2.938 1.25 6 3 .875 2.188.875 2.188 1 4h6l-1 4-2.59.184-3.347.253-3.34.247c-2.634.02-2.634.02-3.723 1.316-1.982.101-3.968.13-5.953.134l-3.922.013-4.344-.002-4.542.01q-6.186.013-12.372.012-5.156.002-10.31.008-12.16.013-24.318.01-12.563.001-25.124.026-10.769.019-21.536.018-6.439-.002-12.878.013-6.053.014-12.107.003-2.227-.003-4.453.007c-2.02.008-4.04.002-6.06-.005l-3.433.002C704 274 704 274 702 272c8.099-1.032 16.106-1.136 24.262-1.114h4.231q5.7.001 11.397.013 5.97.007 11.943.008 11.288.005 22.577.021 12.86.016 25.72.022 26.435.016 52.87.05v-9l3 1-1 5h7l-2.5-2.375C859 263 859 263 859 261"/><path fill="#141914" d="M1141.727 270.899q5.96.007 11.92.008 11.19.004 22.382.021 12.78.016 25.562.022 26.205.016 52.409.05v2c-3.38 1.024-6.452 1.12-9.974 1.114h-3.708l-4.06-.016-4.283-.005q-4.613-.005-9.224-.018-7.309-.019-14.618-.024c-11.234-.012-22.468-.034-33.703-.056-10.274-.02-20.548-.039-30.822-.048q-7.248-.008-14.495-.029-4.538-.01-9.075-.013-2.085-.003-4.168-.01c-7.75-.03-15.387.197-23.106.923-3.851.254-7.265-.15-11.076-.755l-3.864-.59L1075 273v-1a1799 1799 0 0 1 66.727-1.101"/><path fill="#181d18" d="M143 541h2v11h72v2H0v-2h143l-1-6c.438-2.875.438-2.875 1-5"/><path fill="#141a15" d="M719 974h6v2l-4 1 2 1v3H510v-2c8.979-.192 17.958-.353 26.938-.5l2.2-.036c38.264-.615 76.532-.548 114.8-.527l2.388.002q30.837.016 61.674.061z"/><path fill="#131814" d="M958.633 977.867q3.386 0 6.77-.004 9.005-.002 18.008.008 5.593.006 11.185.007c45.14.016 90.27.407 135.404 1.122v2H914v-2c14.889-.847 29.722-1.148 44.633-1.133"/><path fill="#181e18" d="M336 547h9l1 5h53v2h-56l1-5h-2v2h-2v-2h-3v3h2v2l-108 1-1 4h-11v-3l2-1-2-1v-2h117z"/><path fill="#171d18" d="M1043 352h211v2q-27.313.236-54.626.443-12.694.095-25.389.205c-43.68.38-87.312.309-130.985-.648z"/><path fill="#151a15" d="M724 541h1v6h5v5h24l-1-6h3v8h-27l1 5q-2.187.039-4.375.063l-2.46.035C721 559 721 559 719 558v-4h-99v-2q19.114-.034 38.23-.052 8.874-.007 17.749-.023 8.56-.016 17.117-.02 3.271-.003 6.543-.01 4.569-.01 9.138-.009l2.755-.01c6.24.01 6.24.01 8.468 1.124v-2h-2l1-4h4l-.062-2.437C723 542 723 542 724 541"/><path fill="#181e18" d="M875 1219h2l-1 6q33.56.035 67.123.052 15.582.007 31.164.023 13.58.015 27.157.02 7.192 0 14.385.01 6.765.012 13.53.008 2.488 0 4.975.006 3.387.006 6.775.001l3.836.003c3.098.017 3.098.017 6.055-1.123v2c-3.122 1.56-6.444 1.154-9.871 1.158l-2.493.015c-2.771.016-5.543.024-8.314.032l-5.942.03q-8.085.04-16.17.068-8.443.035-16.885.076-15.996.074-31.99.138-18.208.076-36.414.16-37.46.17-74.921.323l1-5h2v2l11 1-1-3 1-3 2 1-1 4h12z"/><path fill="#161c16" d="M0 271h145v3q-21.062.045-42.125.063l-3.135.002C66.48 274.09 33.25 273.87 0 273z"/><path fill="#161d17" d="M39 24h2v5c9.053.135 17.979-.243 27-1v2l3.624-.108c31.934-.911 63.81-.882 95.751-.454l2.904.038q17.86.241 35.721.524v2q-31.41.035-62.82.052-14.583.007-29.167.023-12.708.015-25.416.02-6.732 0-13.463.01-6.333.011-12.664.008-2.328 0-4.655.006-3.171.007-6.342.001l-3.59.003C45 32 45 32 42 31l-1 6h-2z"/><path fill="#131813" d="m486.937 1096.87 3.115-.009 3.378.006 3.46-.003q3.63 0 7.258.006 5.558.005 11.114-.007 3.52 0 7.043.004l3.365-.006 3.134.01 2.754.002c2.288.119 4.25.483 6.442 1.127v2q-9.475.037-18.951.055-3.223.008-6.446.02-4.635.017-9.271.023l-2.905.015h-2.729l-2.388.007c-2.514-.13-4.856-.572-7.31-1.12l1 5h50l-1 2-2.022-.016c-15.691-.106-31.308.17-46.978 1.016l-1 5-2-1v-1h-7l-1 2-1-5 4-1h-20l-1-2h17v-3h3v-3c2.487-1.244 4.155-1.127 6.937-1.13"/><path fill="#151a15" d="M1114 773h140v2c-32.339.772-64.652 1.146-97 1l.494 3.293c.47 3.446.608 6.672.569 10.144l-.028 3.184L1158 795l-3 1q-.04-4.407-.062-8.812l-.026-2.526-.01-2.432-.016-2.237C1155 778 1155 778 1156 775l-2.025.092c-13.333.595-26.628 1.073-39.975.908z"/><path fill="#161c17" d="m477 546 5 1-2 4c6.164.906 12.138 1.137 18.363 1.114h3.048c3.3 0 6.601-.008 9.901-.016l6.894-.005q9.045-.006 18.09-.024 9.24-.014 18.481-.02Q572.89 552.033 591 552v2h-15v2l6 2v-2h2l-1 4-10-1 1-4-93-1 1 5h-5v-5h-33v-2c11.01-1.125 21.944-1.1 33-1z"/><path fill="#141914" d="M176 978v3l-1.715-.003q-20.882-.034-41.765-.049-10.1-.007-20.199-.023-9.785-.016-19.569-.02-3.694-.003-7.388-.01c-14.756-.032-29.472.186-44.214.842l-3.497.145-3.094.141C32 982 32 982 29 981q-2.504.48-5 1c-1.913.015-3.827-.03-5.738-.121l-3.233-.147-3.341-.17-3.4-.158Q4.142 981.21 0 981v-2q27.112-.198 54.225-.391 12.594-.09 25.19-.182l22.008-.158q5.803-.04 11.605-.084c20.991-.156 41.98-.214 62.972-.185"/><path fill="#161b17" d="M0 616h175l1 4 2 1-1 2h-3l1-5H0z"/><path fill="#1a201a" d="m836 1223 4 1v4l-169-1-1-3q19.28-.046 38.563-.062l2.926-.003c30.153-.024 60.298.15 90.448.565l2.637.036q15.714.218 31.426.464z"/><path fill="#161c17" d="m1060 848 2 1-1 2h2l1-2v2h19l1-3 1 3h25v2h-25v3h-2v-2l-37-1-1 2v-2h-97v-2l111-1z"/><path fill="#171c17" d="m636.088 1016.978 4.497.03q6.062.04 12.122.093 6.35.05 12.7.092 12.006.085 24.011.18 13.677.107 27.352.203 28.116.203 56.23.424v2l-2.422.013q-29.17.155-58.339.326-14.105.085-28.211.158-12.294.065-24.588.14-6.51.04-13.02.072-6.128.03-12.256.071-2.249.015-4.497.023-3.072.015-6.143.039l-3.472.02c-2.797.126-5.331.5-8.052 1.138l-2-3c4.658-4.658 19.952-2.08 26.088-2.022"/><path fill="#141914" d="m942.125 1204.438 2.758.308L947 1205l1 3-1 2h42l1 2h-42l-1 5-3-1 2-3h-3l1-4h-2v2h-2l1 5-5 1-1-5q-11.097.09-22.192.236c-3.435.044-6.87.084-10.304.11-3.947.031-7.893.086-11.84.142l-3.747.02-3.458.06-3.055.033L878 1213l-2 3v-4h-3v-2h63l-1-5c2.623-1.312 4.23-.896 7.125-.562"/><path fill="#131713" d="M138 1205h11v5h-4v-3l-4 1v4c-26.7 1.259-53.29.759-80 0l-1 2-3-1a118 118 0 0 0-5.573-.205l-3.457-.06-3.732-.051-3.82-.063a5537 5537 0 0 0-10.047-.153q-5.128-.077-10.256-.161Q10.057 1212.145 0 1212v-2h137zm-81 9 3 1Z"/><path fill="#101610" d="M146.316 862.773q2.124.001 4.246.032l2.264.008c2.392.011 4.783.037 7.174.062q2.418.016 4.836.027 4.424.025 8.848.066c1.772.017 3.544.032 5.316.032h7v2h-2v2h38v2q-18.156.045-36.312.062l-2.712.003c-30.338.026-60.647-.253-90.976-1.065v-1l2.668-.076c19.859-.54 19.859-.54 39.707-1.362l3.836-.183c3.738-.508 4.18-2.337 8.105-2.606"/><path fill="#151914" d="M1187.72 1209.928q10.884.015 21.768.022 22.256.015 44.512.05v2q-22.683.236-45.366.443-10.542.095-21.084.205c-36.537.383-73.02.292-109.55-.648v-1c36.577-.938 73.134-1.131 109.72-1.072"/><path fill="#131813" d="M477 1205c6.625.75 6.625.75 10 3l-1-3h3l-1 6 2.37-.213c10.445-.85 20.83-.95 31.302-.955l5.575-.01q5.794-.009 11.588-.007c4.956 0 9.913-.014 14.87-.031q5.733-.015 11.467-.013 2.745 0 5.488-.013c2.541-.01 5.083-.007 7.624 0 .756-.007 1.513-.012 2.292-.018 5.196.032 5.196.032 7.424 2.26-10.693 1.386-21.441 1.127-32.2 1.098l-6.14-.005a11765 11765 0 0 1-16.063-.024q-8.215-.014-16.431-.02-16.083-.016-32.166-.049l-1 4h-3l1-5h-28v-1c7.686-.972 15.259-1.11 23-1z"/><path fill="#171e18" d="M238 886h136l-1 3H239z"/><path fill="#1a211b" d="m867.09 664.87 2.133-.005q3.534-.004 7.07.002 2.549 0 5.098-.004 6.946-.003 13.893.008 4.35.006 8.7.007c47.342.021 94.679.548 142.016 1.122v2H864v2h2l1 6c-2.076.553-3.844 1-6 1l1-8h-2v2l-4-1h2v-2h-3v-2c4.083-.977 7.898-1.127 12.09-1.13"/><path fill="#1a201b" d="M600 666h253l-2 1 1 4h-8l2-3-246-1z"/><path fill="#181e18" d="m119 594 133 1v2H120z"/><path fill="#141914" d="M1131 224h123v2c-30.816.713-61.614 1.097-92.437 1.063l-2.322-.003q-14.12-.017-28.241-.06z"/><path fill="#171c17" d="M356 1146h128v2q-24.369.231-48.738.443-11.316.098-22.63.205-9.86.095-19.72.177-5.223.043-10.445.096-5.826.057-11.652.1l-3.51.04-3.199.021-2.785.025C359 1149 359 1149 356 1148z"/><path fill="#141b15" d="M616 189h4v3h-2l-1 3h58l-1 2c-30.005.716-59.986 1.16-90 1l-.312 1.938L583 202l-3 1c-.733 2.015-.733 2.015-1 4h-2v-12h39l-1-5z"/><path fill="#141914" d="M989 773h124v3q-15.812.045-31.625.063l-2.38.002c-30.009.029-59.993-.349-89.995-1.065z"/><path fill="#151a15" d="m959.086 270.902 7.54.005q8.856.005 17.71.021 11.09.017 22.18.023 19.742.016 39.484.049v3q-14.501.035-29.002.052-6.735.007-13.471.023-6.517.016-13.033.02-2.47.003-4.939.01c-8.877.029-17.631-.123-26.478-.932-4.236-.238-8.343.117-12.554.573-3.85.388-7.652.223-11.507.035l-2.832-.136-2.934-.145-2.98-.145q-3.636-.176-7.27-.355v-1c13.34-1.339 26.695-1.127 40.086-1.098"/><path fill="#191f19" d="M1008 307v2c-25.16.983-50.242 1-75.415.605q-7.072-.106-14.146-.2-13.72-.191-27.439-.405l-1-2q15.105-.236 30.21-.443 7.02-.095 14.04-.205c24.616-.386 49.147-.28 73.75.648"/><path fill="#141a15" d="m1164 708 3.146.108q5.842.195 11.686.374 2.516.08 5.033.166c8.835.303 17.337.401 26.135-.648l1 1c2.701-.09 5.37-.237 8.063-.437l2.298-.159q2.82-.196 5.639-.404v3c-3.837.904-7.375 1.106-11.312 1.063l-3.239-.028L1210 712l-1 6 16 1-1 2h-22v-3h4l-1-2-7 1-1-4h9v-2l-3.64.016q-6.67.026-13.34.039-2.89.008-5.78.02c-2.764.013-5.53.018-8.295.023l-2.62.015c-6.097 0-6.097 0-8.325-1.113z"/><path fill="#0e140f" d="m896 575 1 2 4-1-1 3h-6l5 2v2q-6.994.037-13.99.055-2.38.008-4.76.02c-2.279.013-4.557.018-6.836.023l-2.156.015c-5.03 0-5.03 0-7.258-1.113l-3-6z"/><path fill="#191f19" d="M122 306c2-.043 4-.04 6 0l1 1c2.83.125 5.636.186 8.467.205l2.69.03q4.423.046 8.847.081l6.116.063q8.066.082 16.133.153 8.224.077 16.448.161 16.15.162 32.299.307v2h-91l-3 9-4-1 1-3 1 1 1-2h-3v-2l1.938-.312L126 311l1-3-6 1z"/><path fill="#121712" d="M255 271h91v3q-12.925.035-25.85.052-6.005.007-12.01.023c-17.742.05-35.423.005-53.14-1.075z"/><path fill="#181d18" d="M143 1097h2c1 3 1 3 0 7h54v-7h3l-1 7q4.406-.172 8.813-.375c.833-.03 1.666-.062 2.525-.094l2.432-.117 2.237-.095c2.306-.227 2.306-.227 4.993-2.319l-1 5q-31.868.035-63.734.052-14.798.007-29.594.023-12.9.015-25.798.02-6.828 0-13.656.01-6.432.012-12.863.008-2.355 0-4.712.006c-14.619.034-14.619.034-21.643-1.119v-2l2.156.016q4.828.029 9.657.046l3.392.026 3.252.01 3 .016c2.667-.003 2.667-.003 5.543-1.114v2h67l-1-6z"/><path fill="#141915" d="M803 978q15.117-.035 30.233-.052 7.023-.007 14.048-.023c21.598-.052 43.141.044 64.719 1.075v2l-3.966-.007a43704 43704 0 0 0-36.95-.045q-9.498-.007-18.997-.023-9.161-.016-18.323-.02a4624 4624 0 0 1-7.001-.01q-4.892-.01-9.784-.009l-2.942-.01-2.69.004-2.338-.003c-2.217.05-2.217.05-5.009 1.123z"/><path fill="#151b15" d="m781.006 880.885 2.51.002 2.828.02 3.093.01c18.311.088 36.622.332 54.932.547l15.81.18q15.411.177 30.821.356v2H773v-2c2.74-.772 5.162-1.124 8.006-1.115"/><path fill="#151b16" d="m294.492 435.121 3.692.147 3.691.17 3.855.158q4.635.19 9.27.404v2H199l1-2 2.677.007q12.576.03 25.152.045 6.462.007 12.926.023 6.254.016 12.507.02 2.37.003 4.738.01c8.722.03 17.323-.193 26.024-.893 3.531-.252 6.932-.242 10.468-.09"/><path fill="#181e18" d="M102 773q26.587-.035 53.173-.052 12.345-.007 24.69-.023 10.763-.015 21.527-.02 5.696 0 11.392-.01 5.369-.012 10.736-.008 2.896-.002 5.792-.011c5.995.007 11.764.199 17.69 1.124v1c-19.893 1.17-39.77 1.158-59.688 1.129q-4.062-.006-8.124-.007c-25.74-.012-51.463-.17-77.188-1.122z"/><path fill="#121712" d="m453.012 270.88 2.388-.004 2.591.01h2.75c2.998 0 5.996.009 8.993.016l6.238.005q8.208.006 16.414.024 8.376.014 16.75.02 16.433.016 32.864.049v3l-54-1 1 5c-1 1-1 1-3.285 1.098l-2.777-.035-2.786-.028L478 279l-1-5h-32v-2c2.74-.771 5.168-1.124 8.012-1.12"/><path fill="#1a201b" d="M1044 195q30.44-.036 60.88-.052 14.143-.007 28.285-.023c81.124-.098 81.124-.098 120.835 1.075v1q-28 .306-56 .563l-2.101.019c-38.868.356-77.72.507-116.586-.02l-2.87-.038A8196 8196 0 0 1 1043 197z"/><path fill="#151c16" d="M489 844v6q6.699.074 13.397.11 2.277.016 4.554.04c2.187.025 4.374.037 6.56.045l3.984.032c3.319-.215 5.538-.785 8.505-2.227l-1 3h38l-1 2h-73v4h-2l-3-9h-2v2l-4-1h2v-2h-2v-2c3.674-1.176 7.17-1.074 11-1"/><path fill="#161b16" d="M573 1223h5v2h4v-2h2l1 2a3935.059 3935.059 0 0 1 18.152-.11q3.087-.015 6.175-.04c2.959-.025 5.917-.036 8.876-.045l2.788-.032h2.608l2.288-.014C628 1225 628 1225 632 1227h-48l-1 5c-5.875-.875-5.875-.875-7-2l-1 2h-2l1-5h-78v-1l76-1z"/><path fill="#191f1a" d="M1253 666v1c-41.245 1.197-82.453.964-123.708.627q-13.503-.109-27.006-.203A62299 62299 0 0 1 1047 667v-1q28.107-.234 56.214-.443 13.062-.096 26.123-.205c41.242-.347 82.429-.425 123.663.648"/><path fill="#131813" d="M1047 1205h3v4c1.918.09 1.918.09 3.875.184l5.125.254 2.543.119c5.197.262 10.302.733 15.457 1.443v1h-27l1 4c-1 1-1 1-3.504 1.098l-3.059-.035-3.066-.028L1039 1217v-5h-44v-2h52v-5"/><path fill="#131914" d="M577 1092h2l.313 2.875c.372 3.416.372 3.416 3.687 5.125l-2 1c4.284 2.102 8.176 2.278 12.855 2.23h2.252q2.343-.006 4.687-.024c2.396-.019 4.792-.02 7.188-.02l4.561-.018 2.175-.003c3.767.02 3.767.02 7.282-1.165l1 3c-12.966 1.234-25.989 1.547-39 2l-1 4-2-1v-2c-1.946-.59-1.946-.59-4-1l-1 1h4v2h-8l1-3-11-1 1-2h9l1-6h4z"/><path fill="#161d17" d="M464 315h2v2l3.237-.215c11.571-.73 23.086-.918 34.677-.883l5.506.005q7.146.006 14.292.024 7.33.014 14.663.02 14.313.016 28.625.049v3H465z"/><path fill="#1b201b" d="M1046 511h104v3l-104-1z"/><path fill="#131813" d="m72 699 2 1c-1.57 2.957-1.57 2.957-4 6-3.138.722-3.138.722-6.88.681l-2.07.003c-2.253-.004-4.502-.051-6.753-.098q-2.346-.017-4.691-.026c-4.11-.023-8.22-.082-12.33-.148-4.196-.061-8.392-.089-12.589-.119-8.23-.064-16.458-.167-24.687-.293l1-3h69v-3z"/><path fill="#161c16" d="M0 352h88v2h-2v2h-3v-2h-2v2h-2v-2h-4v2h-2v-2H43l1 5-4 1-2-3 2-1v2h2l-1-4H0z"/><path fill="#181e19" d="M1055.728 1102.886h3.846q5.193.001 10.387.013c3.624.006 7.25.006 10.874.008q10.284.005 20.569.021 11.714.015 23.427.022 24.085.016 48.169.05v2h-11l1 5-1 2-3-1v-5l-1.792.003q-21.61.033-43.219.049-10.45.007-20.9.023-10.086.016-20.172.02-3.848.003-7.694.01-5.39.01-10.78.009l-3.21.01c-5.19-.007-10.12-.22-15.233-1.124v-1c6.575-1.198 13.06-1.134 19.728-1.114"/><path fill="#151a15" d="M147 271h93v2h-5l-1 3-2-2c-2.71-.188-5.319-.252-8.03-.227h-2.513c-2.749 0-5.497.016-8.246.032l-5.709.008c-5.014.008-10.028.028-15.042.05-5.114.02-10.229.03-15.343.04-10.039.02-20.078.055-30.117.097z"/><path fill="#161c17" d="M831 689h9c1.82 3.642 1.051 8.006 1 12h-10v-3h6v2l3-3h-2v-2h2l-3-3v2h-2v-2h-3v3h3v2h-66v-2h62z"/><path fill="#1a201a" d="m1154 510 100 1v2h-99z"/><path fill="#191e19" d="M801.4 243.49c2.492.489 4.763.665 7.298.715l2.73.06 2.904.051 3.005.063q4.738.097 9.475.184l6.436.13q7.875.161 15.752.307v2q-16.156.045-32.313.063l-2.423.002c-29.1.028-58.173-.314-87.264-1.065v-1l2.949-.076 16.491-.427c9.494-.244 18.987-.503 28.478-.821l4.67-.153q3.336-.107 6.67-.228 3.075-.111 6.152-.21c1.157-.04 2.313-.08 3.504-.123C799 243 799 243 801.4 243.49"/><path fill="#171c16" d="M1112 591h4v2h-3v2h4v2h-93v-2l87-1z"/><path fill="#171d17" d="m395.957 938.902 5.998.005q7.83.006 15.658.024 8.014.014 16.03.02 15.679.016 31.357.049v2a11836 11836 0 0 1-34.17.601c-22.967.372-45.878.557-68.83-.601v-1c11.324-1.157 22.588-1.13 33.957-1.098"/><path fill="#161d17" d="m166 940-1 2-3 1-1 3-16 1v5l-3-1 1-5-2.559.5c-3.568.518-6.901.563-10.504.5-4.185-.073-7.848.16-11.937 1l-1-1a92 92 0 0 0-5.062-.062l-2.786.027L107 947v-2l10-1 1-3h4v3l37-1-16-1v-2c3.27-.197 6.541-.38 9.813-.562l2.814-.17 2.705-.147 2.491-.143C163 939 163 939 166 940"/><path fill="#181e18" d="M416 901h92l-1 2-1 3-2-1v-2h-88z"/><path fill="#161d17" d="M617 655h80v2h-3v3l2.188-.5c2.676-.476 5.101-.577 7.812-.5v2h-11v-4l-76 1z"/><path fill="#171d18" d="M1150 69h89v2c-3.474 1.064-6.675 1.127-10.297 1.13l-3.863.009-4.16-.006q-2.138 0-4.273.003-4.471.001-8.943-.006-5.736-.006-11.473.004-4.41.005-8.817 0-2.117 0-4.232.002-2.952.002-5.903-.007l-3.396-.002C1171 72 1171 72 1169 71c-2.61.894-2.61.894-5 2v-2l-2.3.254-3.013.308-2.988.317C1153 72 1153 72 1150 71z"/><path fill="#161e17" d="M719 849h11v2h46l-1 5h-2v-3h-17v3h-2v-2q-5.875-.251-11.75-.5l-3.367-.145-6.226-.263A193 193 0 0 0 726 853l4 1-1 2-2-1 2 4-4 1-1-3-5 1c-.562-1.937-.562-1.937-1-4 1-1 1-1 3.563-1.062L724 853v-2h-5z"/><path fill="#181d18" d="M447 175v2c-3.207 1.603-6.692 1.13-10.213 1.114h-2.573c-2.813 0-5.627-.009-8.44-.016l-5.844-.005q-7.698-.006-15.397-.024-7.853-.014-15.705-.02-15.414-.016-30.828-.049v-2l77.765-.908 2.404-.029c2.944-.034 5.887-.063 8.831-.063"/><path fill="#141814" d="M1086 89h83v2c-5.158 1.05-10.103 1.145-15.34 1.133l-2.75.004c-2.95.002-5.898-.005-8.848-.012l-3.031-.003c-17.36-.018-34.687-.375-52.031-1.122z"/><path fill="#121812" d="m92 246 6 1-1 5 8 1v-2h-2l1-4 4 2-2 4 2 1c-4.12 1.292-7.668 2.263-12 2l3 2-2 4h-2v-2l-6 1-1.312-2.437c-1.493-2.841-1.493-2.841-4.688-3.563 2.139-2.139 3.133-2.427 6-3l-1-4h4z"/><path fill="#171c17" d="M317 431h2v4l80 1v2h-82z"/><path fill="#1a211b" d="M598 666v1l-2.887.184-3.8.254c-1.242.08-2.483.162-3.762.246-3.393.213-3.393.213-6.008.914-2.543.402-2.543.402-6.003-.066-5.245-.699-10.446-.664-15.73-.646h-3.313c-3.593 0-7.186.008-10.778.016l-7.5.005q-8.838.005-17.678.021-11.06.017-22.12.023-19.71.016-39.421.049v-2q22.534-.233 45.068-.443 10.466-.096 20.933-.205 10.125-.104 20.25-.195 3.837-.036 7.676-.078c15.066-.163 30.032-.007 45.073.921"/><path fill="#171d17" d="M882 851q11.267-.074 22.534-.11 3.836-.016 7.671-.04c3.669-.025 7.337-.036 11.006-.045l3.482-.032h3.215l2.84-.014C935 851 935 851 937 853c2.662.463 2.662.463 5.625.625l3.04.227L948 854l-2 4h-2l-1 3h-3l-1-2h-3l-1-6h-54z"/><path fill="#151a16" d="M163 1225q19.102-.035 38.206-.052 8.871-.007 17.742-.023 8.57-.016 17.137-.02 3.262-.003 6.523-.01 4.585-.01 9.169-.009l2.696-.01c5.896.01 11.672.436 17.527 1.124v1h-71v4h-2l1-4h-38z"/><path fill="#131913" d="M150 1058h3v5l3-1v-4h11v2l-5 2c4.952.81 9.65 1.118 14.684 1.098l2.122-.005c2.21-.005 4.421-.018 6.631-.03q2.265-.008 4.53-.014 5.517-.017 11.033-.049v3c-17.359.167-34.657-.307-52-1z"/><path fill="#151c16" d="M364 847c2.625 1.25 2.625 1.25 5 3 0 3 0 3-1.5 4.688L366 856l-2-2c-2.018-.33-2.018-.33-4.358-.319l-2.73-.06-2.951-.035-3.018-.059c-3.19-.06-6.379-.106-9.568-.152l-6.477-.117Q326.95 853.115 319 853v8h-2v-8h-5v-2h5v-3h2v3h43v-3z"/><path fill="#131713" d="M519 253h65l-1 2-3 1c-.733 2.015-.733 2.015-1 4h-2v-3c-6.834-.89-13.492-1.133-20.379-1.098l-3.19.005c-3.331.005-6.662.018-9.994.03q-3.406.008-6.814.014-8.312.017-16.623.049z"/><path fill="#191f19" d="m104.375 194.938 3.266.002q20.18.018 40.359.06l1 3-149-1v-1c34.794-.922 69.571-1.09 104.375-1.062"/><path fill="#161b15" d="M871 59h2v5h70l-1 3h-71z"/><path fill="#1a2019" d="M1179 311h75v2q-10.449.219-20.898.427-3.538.072-7.075.146c-16.011.334-32.012.499-48.027.427z"/><path fill="#192019" d="m271.938 307.438 7.056.158q8.504.19 17.006.404v2h-74v-2c16.683-.978 33.236-.982 49.938-.562"/><path fill="#111612" d="M356 271h66l-1 2-1.728-.016q-3.855-.029-7.71-.046l-2.72-.026-2.588-.01-2.396-.016c-1.874-.091-1.874-.091-2.858 1.114-2.217.159-4.439.251-6.66.316l-2.014.063q-3.195.097-6.389.183l-4.322.131q-5.307.161-10.615.307l-1-2c-3.629-.151-3.629-.151-7 1a140 140 0 0 1-7-2z"/><path fill="#131914" d="m333.453 1103.121 5.262.072q6.866.094 13.73.202 7.03.105 14.059.2 13.747.194 27.496.405v1c-17.978.929-35.938 1.11-53.937 1.125l-3.306.008c-22.802.042-22.802.042-33.757-1.133v-1c10.177-1.148 20.236-1.045 30.453-.879"/><path fill="#121712" d="m395 1101 4 1v2l2.924-.108c19.09-.687 37.994-1.108 57.076.108v2a295058 295058 0 0 1-54.152.908l-3.21.054q-2.818.04-5.638.038c-.553-2.076-1-3.844-1-6"/><path fill="#1c231d" d="m185.688 866.438 2.73.038q16.791.241 33.582.524v2q-18.156.045-36.312.063l-2.712.002c-30.338.026-60.647-.253-90.976-1.065v-1c31.249-.981 62.431-1.007 93.688-.562"/><path fill="#131a14" d="m725 978 5 1v2h2v-2l44-1v3l-43 1-2 5-2 1c-2.125-.937-2.125-.937-4-2v-3h2v-2h-2z"/><path fill="#131814" d="M226 935c1.044 3.133.934 3.99 0 7h-2v-5l-1.955.092c-19.361.88-38.669 1.026-58.045.908v-2c20.679-.987 41.303-1.118 62-1"/><path fill="#181d18" d="M522 455h4v2l3.747-.092c24.088-.584 48.157-1.097 72.253-.908v2h-23v5l-2-1 1-4h-66l1-2 3.938.063A59 59 0 0 0 521 456z"/><path fill="#131913" d="M615 30h12v3l7 1-2 3h-4l-1 5h-11v-4c5.75-.125 5.75-.125 8 1l-1-2c-1.895-.465-1.895-.465-4.062-.625L615 36z"/><path fill="#1b221c" d="M1073 244v6l-3-1 1-4-2 1c-1.94.091-3.884.118-5.827.114h-3.7l-4.012-.016-4.094-.005a5353 5353 0 0 1-10.782-.024q-5.5-.014-11-.02-10.792-.016-21.585-.049v-2q11.826-.231 23.653-.443 5.492-.098 10.983-.205 5.301-.104 10.601-.195 3.004-.055 6.01-.118l3.7-.06 3.256-.061c2.46.072 4.457.362 6.797 1.082"/><path fill="#161b16" d="M723 605h2c.188 3.313.188 3.313 0 7l-3 3zm4 6h2l1 4 2.184-.016q4.94-.029 9.879-.047l3.435-.025c5.61-.016 10.978.07 16.502 1.088v2h-55v-2q3.563-.293 7.125-.562l2.016-.17c4.132-.304 7.806-.12 11.859.732z"/><path fill="#171d18" d="M714.868 455.773h2.425c2.646 0 5.292.016 7.937.032l5.503.008c4.828.008 9.657.028 14.485.05 4.927.02 9.853.03 14.78.04 9.667.02 19.335.055 29.002.097v2c-2 1.625-2 1.625-4 3v-3h-81c3.722-2.481 6.564-2.268 10.868-2.227"/><path fill="#141814" d="M36 743h55l-1 3H37z"/><path fill="#1a201a" d="M1042 196v2h-28v14h-3l1-15h-70v-1a12048 12048 0 0 1 25.826-.443 5207 5207 0 0 0 12.004-.205c20.765-.38 41.419-.297 62.17.648"/><path fill="#1a211b" d="M64 1143v3l37-1v4l-42-1 1-4h-5l3 1v3h-5l1-6c3.815-1.467 6.29-.433 10 1"/><path fill="#1a1f1a" d="M218 417h74v2h-66v4h-2v-3l-6-2z"/><path fill="#161c17" d="M778 184h55v2h-12v2h-2v-2h-17v7l-1 2h-2l1-9h-21z"/><path fill="#151915" d="M559 470h55l-1 5c-4-1-4-1-5.843-1.528-2.373-.52-4.496-.592-6.926-.586h-2.85l-3.053.016-3.144.005c-3.311.005-6.623.018-9.934.03q-3.369.009-6.738.014-8.256.017-16.512.049z"/><path fill="#181f19" d="M679 27h2v2l4 1v-2h2l1 4c-6.934.932-13.61 1.063-20.598.879l-3.257-.072q-5.104-.116-10.207-.245l-6.96-.158Q638.489 32.212 630 32v-2h49z"/><path fill="#161b15" d="m377 65 1 2h-61v-3q11.853-.29 23.706-.537 4.034-.086 8.066-.187c3.863-.094 7.725-.174 11.587-.253l3.65-.097 3.396-.061 2.988-.068c2.736.213 4.32.712 6.607 2.203"/><path fill="#121611" d="M1069 1097q8.352-.037 16.705-.055 2.84-.008 5.677-.02 4.092-.017 8.184-.023l2.542-.015c4.74 0 9.217.32 13.892 1.113-2 2-2 2-3.949 2.24l-2.409-.013h-2.73l-2.951-.032-3.018-.008c-3.19-.011-6.379-.037-9.568-.062q-3.238-.016-6.477-.027A4213 4213 0 0 1 1069 1100z"/><path fill="#161b16" d="M564 271h59v3q-9.47.038-18.94.055-3.212.008-6.426.02c-22.83.091-22.83.091-33.634-1.075z"/><path fill="#111711" d="M431 257h30v2l4-1v2c-2.974 1.487-5.663 1.111-8.977 1.098l-2.076-.005c-2.19-.005-4.381-.018-6.572-.03q-2.226-.008-4.453-.014-5.46-.017-10.922-.049z"/><path fill="#101711" d="M478 411h10c1.206 4.944.63 8.209-1 13h-9c.875-4.875.875-4.875 2-6l-2-1z"/><path fill="#171e18" d="m882 944 1 3c-1.437 2.188-1.437 2.188-3 4l4 1-5 1-2-4q-8.918.14-17.834.317-3.036.058-6.07.105c-2.905.045-5.81.103-8.713.164l-2.753.035-2.547.06-2.248.04c-2.082.131-2.082.131-3.835 2.279h-3v-7h2l1 2a668 668 0 0 0 32.563-.437l3.333-.12 3.108-.127 2.776-.11c2.259-.074 2.259-.074 4.22-1.206v2z"/><path fill="#131813" d="m94 63 51 1-1 3c-35.683.206-35.683.206-51-1z"/><path fill="#131712" d="m424.41 1096.902 2.585.005c2.689.005 5.378.018 8.067.03q2.757.008 5.514.014 6.713.017 13.424.049v2c-2.847 1.423-5.269 1.13-8.45 1.133l-1.968.003q-2.076 0-4.154-.006c-2.062-.005-4.125 0-6.188.007-9.12.004-18.148-.417-27.24-1.137v-1a138 138 0 0 1 18.41-1.098"/><path fill="#131814" d="m684 940-1 2h-46v4l-4-2v-4q9.93-.251 19.86-.482 3.379-.08 6.758-.166 4.854-.122 9.71-.23l3.053-.083 2.85-.06 2.504-.061c2.232.08 4.127.456 6.265 1.082"/><path fill="#131b14" d="m1140 61 8 1v2h4v-2h2v5h-6v6h-2v-2h-6v4h-2v-2l-2-1v-3h10v-2l-2.875.563C1140 68 1140 68 1138 67v-4h2z"/><path fill="#1d231d" d="M728 774c-3.14 2.093-3.787 2.245-7.347 2.203l-2.69-.018-2.942-.05-3.105-.028c-3.393-.034-6.785-.082-10.178-.13q-3.525-.04-7.05-.076c-6.189-.067-12.378-.146-18.568-.227-6.314-.081-12.628-.15-18.942-.22q-18.59-.211-37.178-.454v-1q20.014-.231 40.03-.443 9.292-.098 18.586-.205 8.968-.104 17.935-.195 3.422-.036 6.845-.078 4.791-.056 9.581-.1l2.864-.04c4.19-.034 8.076-.026 12.159 1.061"/><path fill="#171c17" d="M785.196 1102.931q5.412.014 10.825.02 10.49.016 20.979.049c-1.238 3.714-2.852 4.774-6 7h-2l2-4-86-1v-1c20.078-.855 40.103-1.134 60.196-1.069M553 30h31v2h-9c3.605 2.293 3.605 2.293 6.25 1.625L583 33v3l-7 1v-2h-2v3h9l-1 3q-2.22-.172-4.437-.375c-.824-.07-1.648-.14-2.497-.21L573 40c-1-2-1-2-1-8h-20z"/><path fill="#141914" d="M1069 1156h2v3h23l-1 2-22 1v-2l-2 1c-1.958.154-3.92.25-5.883.316l-3.535.127-3.707.12-3.73.13q-4.573.16-9.145.307v-3h26z"/><path fill="#171c18" d="m1202 978 52 1v2h-52z"/><path fill="#151a16" d="M1017 552h50l1 5h-4v-3h-46z"/><path fill="#111611" d="M347 189v3l-2 2 93 1v1q-18.528.07-37.056.104-8.603.014-17.205.047-8.295.032-16.592.039-3.171.004-6.342.021c-2.952.015-5.905.017-8.857.016l-2.67.022c-6.05-.02-6.05-.02-8.278-2.249z"/><path fill="#151a15" d="M248 1004c-1.035 1.48-1.035 1.48-3 3a58 58 0 0 1-7.441.328l-2.193-.006q-2.29-.01-4.582-.04a651 651 0 0 0-7.024-.048q-2.226-.014-4.451-.03l-2.128-.014c-4.947-.073-4.947-.073-7.181-1.19v-2q7.394-.251 14.789-.482 2.516-.08 5.031-.166 3.615-.122 7.23-.23l2.274-.083c3.198-.092 5.613-.06 8.676.961"/><path fill="#161b16" d="M620 470h53l1 3-54-1z"/><path fill="#171e17" d="M317 391h2v21l4 1-2 2 2 1 1-2-1 4c-8.023.9-15.93 1.115-24 1l1-2h12v-2l7-1-6-1 4-1z"/><path fill="#161b16" d="M116 352h53v2q-10.599.251-21.198.482-3.607.08-7.213.166-5.18.122-10.359.23l-3.267.083-3.033.06-2.671.061C119 355 119 355 116 354z"/><path fill="#181e18" d="M542 271v3l-54-1 1 5c-3.378.845-5.675 1.108-9 0v-2l7 1-1-2c-3.03-.658-3.03-.658-6-1l1-2a67631 67631 0 0 1 29.104-.573q5.322-.105 10.642-.208l3.306-.067A783 783 0 0 1 542 271"/><path fill="#141914" d="M317 1156h2v4h28v1c-6.37.821-12.521 1.1-18.937 1a892 892 0 0 0-5.028-.062l-2.207-.036c-1.927-.019-1.927-.019-3.828 1.098v-2l-2.98.488c-4.12.586-8.177.696-12.332.7l-2.167.037c-1.842.005-3.683-.102-5.521-.225l-2-2h25z"/><path fill="#131913" d="M313 1059h10l1 5-3 2 3 2v2h-9v2h-2v-7l-2-1zm2 1v2l7 1 1-3z"/><path fill="#181e18" d="M330.375 270.938q2.289.008 4.578.013 5.524.017 11.047.049v3q-6.665.037-13.33.055-2.257.008-4.515.02c-9.775.056-19.41-.214-29.155-1.075v-1c10.488-.926 20.856-1.124 31.375-1.062"/><path fill="#121812" d="M1044 944h41v3h-42z"/><path fill="#121712" d="m555 268-1 2 9 1v2l-18 1v-3l-16-1 1-2a1846 1846 0 0 1 9.125-.562l2.594-.17c4.603-.266 8.74-.273 13.281.732"/><path fill="#121812" d="M134 863v2l-12 1v1l-34 1c1-2 1-2 3.203-3.117 3.023-.954 5.388-1.085 8.547-1.008l2.922.055L105 864c2.07 0 4.14-.13 6.207-.219l3.217-.136 6.742-.29 6.193-.263c2.212-.077 4.427-.092 6.641-.092"/><path fill="#191f19" d="m1128 906-1 2-2-1-1 2h-39v-3q8.22-.251 16.443-.482 2.796-.08 5.593-.166 4.02-.122 8.042-.23l2.523-.083 2.365-.06 2.072-.061c2.105.088 3.941.505 5.962 1.082"/><path fill="#181d18" d="M486 1225v2c-3.835 1.255-7.632 1.094-11.614 1.022l-2.307-.03c-2.511-.032-5.022-.073-7.532-.113l-5.23-.072c-4.583-.062-9.166-.132-13.75-.202q-7.017-.104-14.036-.2-13.765-.195-27.531-.405v-1a371907 371907 0 0 1 57.108-.748l12.256-.16 2.127-.029c3.504-.045 7.006-.073 10.509-.063"/><path fill="#131712" d="m418.352 1209.086 2.22.064q2.333.07 4.666.147 3.535.114 7.07.21l4.544.141 2.11.06c4.73.163 9.347.65 14.038 1.292v1l-43 1-1-3c3.01-1.505 6.063-1.025 9.352-.914"/><path fill="#171f18" d="M1114 362c25.97-.206 25.97-.206 37 1v2h-18v4h-2v-3l-3.21-.113-4.165-.2-2.117-.068c-2.031-.107-2.031-.107-5.508-.619z"/><path fill="#152017" d="m446 105 2.188.563c2.94.457 4.953.172 7.812-.563l1 2 1-2h5v6c-1.875.625-1.875.625-4 1l-2-2-1 1a92 92 0 0 1-5.062.063l-2.786-.028L446 111z"/><path fill="#161c16" d="m682 849 1 2h27l-1 2h-26v12h-3v-15z"/><path fill="#181e19" d="M138 1205h11v5h-4v-3l-4 1v4l-33 1-1-3h30z"/><path fill="#131914" d="M1092 1145c12.38-.115 24.65.104 37 1v2h-38z"/><path fill="#19221a" d="m936 944 5 1v2l-4-1v3h3v2c3.628-1.866 3.628-1.866 6-5l-4 1 1-3 5 1c.934 3.01 1.044 3.867 0 7h-13v-3h-10l1-2h9z"/><path fill="#151a15" d="M84 674h38v2c-7.966 1.317-15.952 1.11-24 1.063q-2.186-.009-4.371-.014Q88.315 677.032 83 677z"/><path fill="#171c17" d="m621 243 48 2v1q-7.092.255-14.185.482-2.402.08-4.805.166c-10.098.364-19.937.328-30.01-.648z"/><path fill="#161c16" d="M660 1102h4v2h24v2h-24l-1 4h-4c-.625-2.875-.625-2.875-1-6z"/><path fill="#161d16" d="m229 256 10 1c-2.952 2.952-5.955 3.087-10 4v2h2l-1 6c-1.937-.312-1.937-.312-4-1l-1-3-4 1h2v2h-3l-1-5 7-1v-3h3z"/><path fill="#171e18" d="M201 955v2c-5.312.747-10.404 1.12-15.781 1.098l-2.118-.005c-2.2-.005-4.4-.018-6.601-.03q-2.257-.008-4.516-.014-5.492-.017-10.984-.049l1-2q6.375-.254 12.75-.5l3.598-.145A487 487 0 0 1 201 955"/><path fill="#151b15" d="M873 271h44l1 2-44 1z"/><path fill="#131713" d="M161 253q6.567-.075 13.135-.11 2.235-.016 4.47-.04c2.14-.025 4.279-.036 6.418-.045l3.904-.032C192 253 192 253 194 255c-11.352 1.053-22.61 1.103-34 1z"/><path fill="#181d18" d="M172 1166h4v2h-3v3h3v2h-34l1-3h28z"/><path fill="#161b16" d="M836.403 1102.722c4.43.474 8.867.515 13.32.594l2.988.063q4.675.096 9.352.184l6.38.13q7.778.16 15.557.307v1q-9.311.216-18.622.427l-6.322.146q-4.569.105-9.138.208l-2.81.067c-6.37.141-12.736.176-19.108.152v-3c2.877-1.438 5.305-.663 8.403-.278"/><path fill="#151c17" d="M442 851h35v2h-27v2l-6 1v-3h-2z"/><path fill="#151d16" d="m866.313 664.938 3.238.027L872 665l-2 3c-3.125.188-3.125.188-6 0v2h2l1 6c-2.076.553-3.844 1-6 1l1-8h-2v2l-4-1h2v-2h-3v-2c3.837-.904 7.375-1.106 11.313-1.062"/><path fill="#18211a" d="M765 798c0 3 0 3-1.5 4.688L762 804l2.938-.562L768 803c1 1 1 1 1.375 3.875-.375 3.125-.375 3.125-2.75 5C764 813 764 813 762 813v-3h-4v-2h10l-1-2c-2.126-.467-2.126-.467-4.562-.625l-2.504-.227L758 805l3-4-4 1v-3c2.763-.597 5.16-1 8-1"/><path fill="#1a2019" d="m882 1141-1 3h-38v-2a120766 120766 0 0 1 31.132-.848c5.64-.152 5.64-.152 7.868-.152"/><path fill="#17231a" d="M256 1101h3v2l2.539-.108q4.656-.193 9.314-.374 3.009-.121 6.018-.25l3.809-.147 3.523-.143C287 1102 287 1102 289 1103v3l-33-1z"/><path fill="#18211a" d="M1234 74v2h-2l-.812 2.313c-1.15 2.6-1.86 4.076-4.188 5.687-2.187-.312-2.187-.312-4-1l1-2-5 1v2c-2.504-.835-4.668-1.794-7-3v4h-2v-6l3.613.035 4.7.028 2.38.025 2.295.01 2.11.016c2.127-.045 2.127-.045 4.902-1.114v-3c2-1 2-1 4-1"/><path fill="#101711" d="M508 141h8l-1 7h-4v-2h-3zm9 9-1 3h-7l-1-4c3.2-1.6 5.723-.032 9 1"/><path fill="#182019" d="M554 110v3q-7.635.074-15.271.11-2.598.015-5.197.04c-2.487.025-4.974.036-7.462.045l-2.355.032c-1.906 0-3.812-.105-5.715-.227l-2-2q6.406-.254 12.813-.5l3.623-.145c7.192-.274 14.366-.421 21.564-.355"/><path fill="#121712" d="m1164 1145-1 3h-32v-2q5.156-.255 10.313-.5l2.9-.145c6.6-.31 13.179-.413 19.787-.355"/><path fill="#171e17" d="M361 1097q7.608-.037 15.216-.055 2.588-.008 5.177-.02 3.72-.017 7.439-.023l2.34-.015c3.211 0 5.758.09 8.828 1.113v2l-3.058-.016q-5.625-.026-11.249-.039-2.432-.008-4.865-.02-3.5-.017-7-.023l-2.191-.015c-3.357 0-6.428.064-9.637 1.113z"/><path fill="#161d16" d="m90 765 3 1-1 2 3 1 1-4h2c.125 5.75.125 5.75-1 8h2v3c-5.126.103-9.95.036-15-1 3.644-2.43 5.712-2.162 10-2v-2h-4z"/><path fill="#131813" d="M9 872h3l-1 4-2-1zm6 0h4l-.125 2.375c-.162 2.786-.162 2.786 2.125 4.625-7.192 1.079-13.782.794-21 0v-2c9.41-1.333 9.41-1.333 14 0z"/><path fill="#131913" d="m1131 430 3.514.48c4.09.51 8.144.72 12.267.836l2.118.063q3.3.096 6.601.183l4.516.131q5.491.16 10.984.307v2q-6.375.037-12.75.055-2.163.008-4.326.02c-7.706.046-15.275.01-22.924-1.075z"/><path fill="#101611" d="m1168.75 1102.938 2.422.027 1.828.035v2h-11l1 5-1 2-3-1v-5h-26v-1l2.415-.076c3.612-.116 7.223-.239 10.835-.361l3.8-.12 3.653-.127 3.364-.11c4.024-.282 7.617-1.328 11.683-1.268"/><path fill="#142117" d="M393 30h6l1 10h-5l-1-3h-5l1-5 3-1z"/><path fill="#141914" d="m338 1207 3 1v2c.595-.01 1.19-.02 1.804-.032 2.69-.041 5.38-.067 8.071-.093.937-.017 1.874-.034 2.84-.05l2.715-.02 2.507-.032C361 1210 361 1210 363 1212h-22v5h-4v-2h3v-2h-3a100 100 0 0 1 0-5z"/><path fill="#161b16" d="M920 1102v2h8v1l-2.773.078-3.602.172-3.586.14c-3.152.266-3.152.266-4.453 2.657L913 1110h-2v-2l2-1-27-2v-1l2.722-.076q4.993-.143 9.986-.296 2.16-.066 4.324-.125 3.105-.088 6.21-.187l3.777-.11c2.667-.184 4.406-1.206 6.981-1.206"/><path fill="#181f19" d="M1047 1205h3v4l3.875.184 5.125.254 2.543.119c5.197.262 10.302.733 15.457 1.443v1h-27l1 4h-2c-2-7.625-2-7.625-2-11"/><path fill="#162017" d="M453 1127c3.625-.187 3.625-.187 7 0l-3 1v3l3-1 1 1 1-4h5c1 2 1 2 0 6h-14v-2h2v-2l-4 1z"/><path fill="#1a2c1d" d="M1220 1104h6v3l6 1c-1.875 1.063-1.875 1.063-4 2l-2-1v4l6-1v4l-6 1-1-7-4-1 1-4z"/><path fill="#161c16" d="M753 546h3v8h-27l1-2h24z"/><path fill="#1b201b" d="m148 195 1 3-58-1v-1c19.003-.61 37.985-1.187 57-1"/><path fill="#121812" d="M1131 1220h6l1 6-3.312 1.313c-2.782 1.182-4.752 2.295-6.688 4.687-1-1-1-1-1.098-2.848L1127 1223l2.938.563 3.062.437 1-1-3-1z"/><path fill="#0e140f" d="M1009 246h38v1h-30l-2 4h-6z"/><path fill="#191e19" d="m726 244-1 3c-18.014.2-35.999-.41-54-1v-1c18.333-1.18 36.639-1.105 55-1"/><path fill="#19201a" d="m338.75 1103.438 6.484.158q7.883.192 15.766.404v1q-9.255.255-18.512.482-3.141.08-6.281.166c-22.308.613-22.308.613-33.207-.648v-1c11.877-1.553 23.813-.883 35.75-.562"/><path fill="#161d18" d="M807 849h2v2h26l-1 2h-29z"/><path fill="#151d15" d="M800 155h2v28h-3c-.03-3.73-.047-7.458-.062-11.187l-.026-3.198-.01-3.095-.016-2.841c.113-2.66.52-5.088 1.114-7.679"/><path fill="#171d18" d="m1229 707 25 1v2l-26 1z"/><path fill="#191f1a" d="M861 576c1.938.313 1.938.313 4 1l1 3 24 1v2c-3.958.029-7.917.047-11.875.063l-3.418.025-3.262.01-3.015.016C866 583 866 583 864 582a134 134 0 0 1-3-6"/><path fill="#161c16" d="M82 515h2c1.192 9.665 1.096 19.282 1 29l-3-1z"/><path fill="#182219" d="M16 684h11v3h-3v2h3v2c-1.937.563-1.937.563-4 1l-1-1c-2-.04-4-.043-6 0v-2l3-2-3-1z"/><path fill="#161b17" d="M530 435c0 2 0 2-2.375 4.625C525 442 525 442 523 442v-3l-29-1v-1l2.906-.076q5.328-.142 10.656-.296 2.308-.065 4.615-.125 3.315-.088 6.628-.187l2.09-.05c3.234-.101 6.045-1.266 9.105-1.266"/><path fill="#131712" d="m278.375 252.875 2.254.006c5.187.04 10.233.372 15.371 1.119-2 2-2 2-5.073 2.135l-3.904-.158-2.076-.076a983 983 0 0 1-6.572-.276q-2.226-.088-4.453-.172-5.462-.212-10.922-.453v-1c5.172-.855 10.137-1.158 15.375-1.125"/><path fill="#121914" d="m1237.203 1102.902 2.969.01 3.078.025 3.125.014q3.813.018 7.625.049v2h-22v3l-4-1v-3c3.139-.926 5.937-1.117 9.203-1.098"/><path fill="#050b05" d="m274 712 1 4 4 1v1h-25l1-2h4l1-2v2h6l1-3 1 3h6z"/><path fill="#171f18" d="m252 1101 2 4c-3.867 1.266-7.732 1.112-11.75 1.063l-2.113-.014q-2.57-.02-5.137-.049v3h-3v-2l-9-1 1-3 6.055.098c2.027.028 2.027.028 3.945-1.098v2h18z"/><path fill="#1d251d" d="M1160 525h44v3l-44-1z"/><path fill="#131914" d="M941 1156h2v4h16v1c-3.145.363-6.291.714-9.437 1.063l-2.721.314-2.588.283-2.396.27-1.858.07-1-1q-3.5-.061-7 0l1-2h8z"/><path fill="#162117" d="M94 1156h12v5H93z"/><path fill="#172018" d="m1198 1096 5 2v2h-4v2h10v3h-12c-.098-6.152-.098-6.152 0-8z"/><path fill="#171e18" d="m573 848 5.957.781c2.198.272 2.198.272 5.043.219 1 3 1 3 0 7h-11v-2l6-1v-2l-6-1z"/><path fill="#131813" d="M619.063 565.938 622 566l-2 5 2-1 1-3h4l1 3 2 2q-2.374.293-4.75.563l-2.672.316c-2.462.116-4.243-.143-6.578-.879a88 88 0 0 1-1-5c1-1 1-1 4.063-1.062M616 568v2h2v-2z"/><path fill="#101610" d="m69 776 2 1v2h2v-2h2v4c-7.097.108-13.96-.061-21-1l1-2 4 1v-2l6.055.098c2.027.028 2.027.028 3.945-1.098"/><path fill="#141914" d="M218 417h30v1a175 175 0 0 1-22 1v4h-2v-3l-6-2z"/><path fill="#171c17" d="M787 526h2l1 9h21v2c-3.624.225-7.25.427-10.875.625l-3.129.195-2.988.157-2.761.158C789 538 789 538 787 536c-.195-2.383-.195-2.383-.125-5.125l.055-2.758z"/><path fill="#151d16" d="m418 362-2 5h-4v-3h-15v-2c7.18-.711 13.87-1.258 21 0"/><path fill="#161c16" d="M317 302h2v6h4v2l-3 1-1 3h-2v-4h-11l1-2h10l-.562-2.437L316 303z"/><path fill="#151d15" d="m855 277 3 1-1 26h-2z"/><path fill="#19211a" d="M750 262c2.063.438 2.063.438 4 1v2l-2 1v2l6-1v-2l-2-1v-2l5 1v6c-1.414.224-2.832.428-4.25.625l-2.39.352c-2.682.026-4.087-.611-6.36-1.977h2l-.562-2.437L749 263z"/><path fill="#172018" d="m616 1205 5.86.781c2.445.287 2.445.287 6.14.219-1.152 2.468-2.048 4.048-4 6h-4l-1-2c-2.017-1.134-2.017-1.134-4-2z"/><path fill="#151e17" d="M432 663h4v5h-33v-1l2.247-.076c3.356-.116 6.71-.239 10.065-.361l3.538-.12 3.388-.127 3.127-.11c2.742-.108 2.742-.108 5.635-1.206z"/><path fill="#1a2c1d" d="M959 480h19v4l-1.871-.219c-5.75-.63-11.345-.874-17.129-.781z"/><path fill="#161c17" d="M1098 456v2h-35v-1q6.27-.468 12.543-.91 2.131-.151 4.262-.31 3.072-.229 6.144-.44l3.73-.27c2.99-.063 5.436.2 8.321.93"/><path fill="#161b15" d="M943 243v7h-3l1-4-18 1 1-3 8.375-.5 2.406-.145C940.773 243 940.773 243 943 243"/><path fill="#191f18" d="M41 58v3q-4.625.252-9.25.5l-2.645.145-2.558.136-2.349.127C22.134 61.994 20.066 62 18 62l1-3 9.875-.5 2.84-.145 2.715-.136 2.507-.127A91 91 0 0 1 41 58"/><path fill="#121813" d="M360 1223v2l2.336-.07 3.039-.055 3.023-.07C371 1225 371 1225 373 1227q-4.093.293-8.187.563l-2.33.17c-4.024.258-7.544.333-11.483-.733 2.867-2.867 4.916-4 9-4"/><path fill="#1b3220" d="M799 976c1 1 1 1 1.063 3.563L800 982h-3l-1-2-1 2h-6v-5c3.398-.777 6.511-1.194 10-1"/><path fill="#121612" d="m517 971 3 1c2.733.228 5.45.417 8.188.563l2.271.13q2.77.158 5.541.307l-1 3h-19z"/><path fill="#161d17" d="m1111 847 1 2 6-1v9h-2v-2h-4v2h-2l1-5 4 1v-2l-5-1z"/><path fill="#131b14" d="M0 556c7.429-.143 7.429-.143 11 1l-1 3-3-1v10l-2-1v-4H1v-2h3v-3H0z"/><path fill="#141b14" d="M317 362h2c.945 7.512.945 14.488 0 22h-3c-.103-7.427.001-14.635 1-22"/><path fill="#121612" d="m896.313 252.813 2.92-.038 2.818-.005 2.583-.013c2.543.261 4.172.964 6.366 2.243-3.958.225-7.916.427-11.875.625l-3.418.195-3.262.157-3.015.158C887 256 887 256 885 254c2.345-2.345 8.163-1.185 11.313-1.187"/><path fill="#182119" d="M1155 798h3l-.035 2.809c-.01 1.197-.018 2.395-.027 3.629l-.036 3.62c-.241 2.83-.241 2.83 1.098 3.942v3h-5z"/><path fill="#1b231b" d="m964.625 717.938 2.14.013q2.618.02 5.235.049v2h-13v6h-5l.5-1.937c.54-1.871.54-1.871.5-3.063v-2c3.065-1.533 6.268-1.103 9.625-1.062"/><path fill="#151c15" d="m737.625 1208.938 3.602.027L744 1209l1 3-1 2h-4v-2l-10 1-1-3c2.884-1.442 5.417-1.094 8.625-1.062"/><path fill="#131a14" d="M1187 1104v2l-11 1-1 4-4-1 1-4h2l1-2c8.103-1.461 8.103-1.461 12 0"/><path fill="#181f19" d="m395 1101 4 1v2h30v1a34204 34204 0 0 1-17.783.645l-3.799.136-3.507.127q-2.955.092-5.911.092l-3 1z"/><path fill="#050b05" d="m506 973 1 3h6l1-2 6 2-1 2c-6.229 1.52-12.775 1.556-19 0l1.875-.812c2.425-1.144 2.425-1.144 4.125-4.188"/><path fill="#151c16" d="M1043 456h18l1 2c-2.27.195-4.541.38-6.812.563l-3.833.316C1048 459 1048 459 1045 458l1 4h-3z"/><path fill="#121612" d="m786 430 4 1-1 5 2 1c-1 1-1 1-2.766 1.114l-2.27-.016-2.45-.01-2.577-.026-2.587-.013q-3.175-.02-6.35-.049v-2l15-1z"/><path fill="#1d2a1f" d="M638 1135c5.75-.125 5.75-.125 8 1 2.098-.4 2.098-.4 4-1l-1 5-5-2v2h-5z"/><path fill="#131813" d="M517 915h17v2a125 125 0 0 1-18 1z"/><path fill="#121812" d="M317 561h2l1 21-3 1z"/><path fill="#161d17" d="m53 420 5 1-1 4h3l-1-3h2v-2l4 1-1 5-8 1v-5h-2l-1 2z"/><path fill="#151b15" d="M420 259c-1 1-1 1-3.225 1.114l-2.904-.016-3.135-.01-3.298-.026-3.311-.013q-4.064-.018-8.127-.049v-2c3.624-.225 7.25-.427 10.875-.625l3.129-.195 2.988-.157 2.761-.158C418 257 418 257 420 259"/><path fill="#1f3422" d="M369 700h10v5h-11z"/><path fill="#172019" d="M1141 626h6l-1 4 5-2h-2v-2l4 2-1 5-8-1v-4h-3z"/><path fill="#152418" d="M580 294c3.188.875 3.188.875 6 2v4l-9-1v-3zm-1 6 1 3-3 1v-3z"/><path fill="#161c17" d="M391 844h2l1 7h13l-1 2h-13v3l-2-1z"/><path fill="#141915" d="M327 698c2.468 1.152 4.048 2.048 6 4 2.662.463 2.662.463 5.625.625l3.04.227L344 703l-1 3c-8.963.783-8.963.783-13.062-2.312C328 701 328 701 327 698"/><path fill="#1e281f" d="M1128 511h22v3l-22-1z"/><path fill="#111712" d="M477 354h7l-4 1 6 2v2h-2v10h-2v-10h-4l1-4z"/><path fill="#131913" d="M317 170h2v22h-2c-.902-5.14-.98-9.697-.562-14.937l.158-2.073A749 749 0 0 1 317 170"/><path fill="#171e18" d="m1014.418 749.707 3.799.03c1.31.024 2.62.05 3.97.076q2.004.022 4.006.04 4.904.054 9.807.147v1l-26 1-2 4h-4c1.97-5.909 4.375-6.375 10.418-6.293"/><path fill="#171d16" d="M754 515h2v24l-3-1z"/><path fill="#223725" d="M18 215h4c.845 3.378 1.108 5.675 0 9h-4l1-3c.342-1.331.678-2.664 1-4h-2zm5 0h5v3l-5 1z"/><path fill="#161c16" d="M754 1195h2v6q4.406-.211 8.813-.437l2.525-.12 2.432-.127 2.237-.11c2.2-.154 2.2-.154 4.993-1.206l-2 4h-21z"/><path fill="#151d16" d="M64 1143v3h-4l-1 2 1-4h-5l3 1v3h-5l1-6c3.815-1.467 6.29-.433 10 1"/><path fill="#141b15" d="M49 1058c2.063.438 2.063.438 4 1v2h-2v2l9-1v3c-3.734.879-7.168 1.09-11 1a177 177 0 0 1-1-7z"/><path fill="#171e17" d="m108 405 4 1v9h-5l-2-4h4l-2-5z"/><path fill="#18201a" d="M485 712c2.063.438 2.063.438 4 1l-1 4h-11v-4l3.438.063c3.378.353 3.378.353 4.562-1.063"/><path fill="#131913" d="M620 435c3.23-.03 6.458-.047 9.688-.062l2.763-.026 2.686-.01 2.46-.016c2.552.121 4.913.554 7.403 1.114v1l-25 1z"/><path fill="#1a231b" d="M74 352h14v2h-2v2h-3v-2h-2v2h-2v-2h-4v2h-2z"/><path fill="#101611" d="m578 346 1 2h3l-1 4h-8l-1-5z"/><path fill="#171d16" d="M124 286h1c.655 6.362 1.12 12.604 1 19h-3a2399 2399 0 0 1-.062-8.937l-.026-2.577-.01-2.45-.016-2.27C123 287 123 287 124 286"/><path fill="#161c16" d="M306 1225c7.755-.1 15.31-.06 23 1v1c-8.167.941-15.833.941-24 0z"/><path fill="#161e17" d="M1081 799h7v6h-7z"/><path fill="#161b16" d="m759 540-1 3c-4.097 1.042-7.615.944-11.812.563l-3.52-.31L740 543v-2l8.375-.5 2.406-.145C756.773 540 756.773 540 759 540"/><path fill="#161e18" d="m149 418-1 5-6 1 1-4 4 1v-2l-7 1-1-3c3.906-1.256 6.368-.816 10 1"/><path fill="#121711" d="M224 271h16v2h-5l-1 3-2-2c-2.21-.243-2.21-.243-4.625-.125l-2.477.055L223 274z"/><path fill="#121712" d="M654 264h4l1 3 11 1-1 2h-15v-2h3v-2h-3z"/><path fill="#1a291e" d="m308.188 256.938 2.271.013q2.77.02 5.541.049l-1 3-2.738-.035-3.575-.027-3.55-.036c-3.168-.051-3.168-.051-6.137 1.098l-2-1v-2c3.763-1.254 7.272-1.107 11.188-1.062"/><path fill="#171d17" d="M621 104h2v23h-2a1418 1418 0 0 1-.562-8.125l-.17-2.305c-.283-4.37-.2-8.25.732-12.57"/><path fill="#161a16" d="M875 1229h2v23l-3 1z"/><path fill="#171e18" d="m147 1212 3 2v3l-4 1-1 4h-2v-5h-5v-3c2.375-.125 2.375-.125 5 0l2 2h3z"/><path fill="#171d18" d="M227.063 1067.938 230 1068l-2 3h-2v4l-3 1c-1.685 1.997-1.685 1.997-3 4l-3-1 1.438-1.312c1.799-1.711 1.799-1.711 2.562-4.688h3l-.562-1.937L223 1069c1-1 1-1 4.063-1.062"/><path fill="#121913" d="M881 1039h3c.125 6.625.125 6.625-1 10l2 1-2 2c-.643 2.069-.643 2.069-1 4h-2z"/><path fill="#19221b" d="M147 848h2v8l-6-1v-2l-4-1v-2l8-1z"/><path fill="#171d16" d="M941 808h2v18h-3q-.04-3.094-.062-6.187l-.036-3.481c.086-2.925.42-5.495 1.098-8.332"/><path fill="#161d17" d="m964 630-1 3h2v-3h2l-1 7-4-1v-4h-8v-2c7.75-1.125 7.75-1.125 10 0"/><path fill="#141913" d="M1202 571h2c1.013 4.616.998 8.37 0 13l-2 1v-2l-4-1 4-1zm-1 14 3 1v2h-3z"/><path fill="#1b221b" d="M574 553h9v1h-7v2l6 2v-2h2l-1 4-10-1z"/><path fill="#171f17" d="M340 515h2v18h-3q-.04-4.22-.062-8.437l-.026-2.432c-.009-2.044.036-4.088.088-6.131z"/><path fill="#171e17" d="M855 420c1.938.75 1.938.75 4 2 .75 2.125.75 2.125 1 4h3v2h-4v2h3v2l-5 1c-.125-6.625-.125-6.625 1-10h-2z"/><path fill="#181e18" d="M768 778v2l-1.5 1.125c-2.048 2.56-1.668 4.698-1.54 7.867.048 2.44-.37 4.646-.96 7.008l-2-1c-.081-2.083-.14-4.166-.187-6.25l-.106-3.516c.418-4.62 1.385-7.234 6.293-7.234"/><path fill="#151a15" d="M440 205h2l1 6-2.75.75c-3.354 1.29-4.927 2.57-7.25 5.25l-3-1 1.934-1.645 2.503-2.167 2.497-2.145c2.288-1.954 2.288-1.954 3.066-5.043"/><path fill="#1a221b" d="M753 1123q3.5-.061 7 0c1 1 1 1 1.063 3.563L761 1129h-3v-4h-3l1 4-4-1z"/><path fill="#151c15" d="M85 1088h17v2c-5.385.917-10.542 1.111-16 1z"/><path fill="#171f18" d="M300 610h13v2c-4.75 1-4.75 1-7 1l-1 1c-1.666.04-3.334.043-5 0zM1149 577h8v5c-3.053.981-4.947.981-8 0z"/><path fill="#171e17" d="M723 410h18l-1 2-17 1z"/><path fill="#151c15" d="M941 391h2v22h-3z"/><path fill="#161d16" d="M620 371h15l1 2c-3.003 1.502-5.79 1.093-9.125 1.063l-3.883-.028L620 374z"/><path fill="#1a281e" d="M583 105h5l1 4h2l-1 3h-7v-2l4-1v-2l-5 1z"/><path fill="#1a221a" d="M477 1205c6.625.75 6.625.75 10 3l-1-3h3v4c-3.36 1.12-4.627.74-8 0h-4z"/><path fill="#19231a" d="M433 1127h3l-1 4h3l-1-4h3v6h-10l2-2c.643-2.069.643-2.069 1-4"/><path fill="#172219" d="m421 1126 5 1v5l3 1h-9z"/><path fill="#171e17" d="M940 788h3v18h-2c-.61-6.02-1.135-11.947-1-18"/><path fill="#18201a" d="M1039 749c2.92.017 5.723.14 8.625.375l2.43.172c1.982.141 3.964.296 5.945.453l-1 2c-12.67.185-12.67.185-18-1z"/><path fill="#161d16" d="m641 263 8 1v2h-2v2l3-1v2h-5l-1-4-1 4h-4v-2h2z"/><path fill="#161c17" d="M229 254v1h-5l.563 1.938L225 259c-1 1-1 1-3.562 1.063L219 260l1-5-3-1c4.316-.762 7.744-1.16 12 0"/><path fill="#141b15" d="M1140 238h6v6h5v1h-11l1-2h3v-2l-3 1z"/><path fill="#19201a" d="M409 124h13v3l-3.687-.062c-3.233-.006-6.162.274-9.313 1.062z"/><path fill="#233c29" d="M851 806h4v4l-3 1 4 2-1 2h-5c-.125-6.75-.125-6.75 1-9"/><path fill="#141c16" d="M1228 411v2c-3.55 1.163-6.558.924-10.25.563l-3.266-.31L1212 413v-2q2.874-.292 5.75-.562l3.234-.317c2.657-.107 4.516.06 7.016.879"/><path fill="#1e261f" d="M1033 140h2v6h11v2h-13z"/><path fill="#1c251c" d="M1136 69h12v4h-2v-2h-6v4h-2v-2l-2-1z"/><path fill="#1a221b" d="m13 1027 4 2-1 3H6l1-4 6 1z"/><path fill="#1e2c21" d="M637 850h6v2h-3v4h2v-3h2l-1 5-5-1z"/><path fill="#141914" d="M1039 515h7v2l4-1-2 3h-2v4h-3l1-4-5-1z"/><path fill="#1a201a" d="m139 149 2.375.5c3.277.624 4.403.574 7.625-.5v4h-11z"/><path fill="#151b16" d="m399 1180 17 1-1 2h-17z"/><path fill="#131713" d="M0 1159a995 995 0 0 1 5.75-.062l3.234-.036c2.55.083 4.595.352 7.016 1.098v2q-3.437.039-6.875.063l-3.867.035C2 1162 2 1162 0 1161z"/><path fill="#151b15" d="m554.313 1103.438 2.244.158q2.722.195 5.443.404l-1 2q-3.594.04-7.187.063l-2.042.025c-3.725.018-7.15-.195-10.771-1.088v-1c4.492-1.196 8.733-.919 13.313-.562"/><path fill="#172119" d="M172 964h5c-1 3-1 3-3 4l2 1v2h-7l1-5h2z"/><path fill="#172019" d="m1124 891 5 1 1 4h2l1 3h-8l-1-3h3v-3h-3z"/><path fill="#151c17" d="m784.25 881.438 3.828.308L791 882c-2 2-2 2-5.695 2.195a330 330 0 0 1-4.43-.07l-2.285-.027c-1.864-.024-3.727-.06-5.59-.098v-2c3.815-1.3 7.276-.894 11.25-.562"/><path fill="#161c16" d="M41 776c2.063.438 2.063.438 4 1v3l-10 1v-4c1.207.03 1.207.03 2.438.063 2.496.233 2.496.233 3.562-1.063"/><path fill="#1c281e" d="M202 416h9l-2 5 3-1v2l-5 1v-5l-4 1z"/><path fill="#121813" d="M1202 400h2v11h5v2h-7z"/><path fill="#1b231c" d="m481.592 315.978 3.412.143 3.682.147 3.876.17 3.89.158q4.773.195 9.548.404v1c-3.916.226-7.833.428-11.75.625l-3.367.195-3.242.157-2.984.158c-2.767-.14-4.312-.71-6.657-2.135 1-1 1-1 3.592-1.022"/><path fill="#171e19" d="M355 258h4l-1 3h-2l-1 3h-2v4l-6 2c1.242-3.726 3.111-5.393 6-8h2z"/><path fill="#141b15" d="M6 201c3 1 3 1 5 2v3H8l1 3h2v3H6z"/><path fill="#151b16" d="M990 124h3v3h-2v2h2v13h-2z"/><path fill="#141914" d="M224 1156h2v3l4 1-1 2h-3v6h-2z"/><path fill="#151a14" d="M830 1073h2v16l-4 1 1-2c.232-2.546.419-5.074.563-7.625l.13-2.14q.158-2.618.307-5.235"/><path fill="#161b16" d="M680 877h3v16h-3z"/><path fill="#171d17" d="M1248 724v2l-16 1-1-3q3.124-.292 6.25-.562l3.516-.317c2.753-.103 4.654.017 7.234.879"/><path fill="#192119" d="m876 485 1 2-2 2v-2h-5v2h-6v-2l-3 1v-2c5.025-.625 9.925-1.13 15-1"/><path fill="#131813" d="m577 1214 4 2-2 4 4 1c-1 1-1 1-3.066 1.098l-2.496-.035-2.504-.028L573 1222v-2h4z"/><path fill="#151d16" d="M621 1195h3v2h3l1 5h-6l1-5-3-1z"/><path fill="#18211a" d="M18 1027h3v3h2v-2h3l1 4h-9z"/><path fill="#19221a" d="M939 847h2v2l1.813-.562C945 848 945 848 948 849v2h-6v2l-6-2v-2h3z"/><path fill="#121612" d="M23 743h11l-1 3H22z"/><path fill="#151d16" d="M553.563 654.938 556 655v6h-6a100 100 0 0 1 0-5c1-1 1-1 3.563-1.062"/><path fill="#172319" d="m1239 589 3 1-1 4-2.187-.562c-2.941-.458-4.954-.173-7.813.562v-4l3.438.063c3.378.353 3.378.353 4.562-1.063"/><path fill="#171d17" d="M754 571h2v17h-3z"/><path fill="#18201a" d="m1154 319 4 1v2l1.813-.625C1162 321 1162 321 1165 323v2c-6.152-.586-6.152-.586-8-1l-1-2-1 2h-2z"/><path fill="#21402a" d="M284 257h12v3h-11z"/><path fill="#0a0f0a" d="M864 142h8l-1 4h-7z"/><path fill="#171e17" d="M862 84h2v18h-2a837 837 0 0 1-.562-6.187l-.317-3.481c-.11-3.018.139-5.421.879-8.332"/><path fill="#161f17" d="M1232 1220h6v7h-2v-3h-2v4h-2v-5h2v-2z"/><path fill="#18241a" d="m338 1207 3 1v9h-4v-2h3v-2h-3a100 100 0 0 1 0-5z"/><path fill="#171e18" d="M219 1195h12l-1 3-6-1v2h-4z"/><path fill="#171e17" d="M357 1170h2v13h-3q-.04-2.97-.062-5.937l-.036-3.34C356 1171 356 1171 357 1170"/><path fill="#121812" d="M232 1122h3l2 5-2 2c-.643 2.069-.643 2.069-1 4h-2z"/><path fill="#19211a" d="M393 765h3v2l7 1v3h-10z"/><path fill="#161d17" d="M719 713h10l1 3c-7.625 1-7.625 1-11 1z"/><path fill="#050b05" d="M183 648h19l-3 1a70 70 0 0 0-1 4l-2 1v-5c-.603.095-1.207.19-1.828.29l-2.422.335-2.39.352C187 650 187 650 183 648"/><path fill="#161e16" d="M97 352h10l-1 5-2-1v-2h-4l-1 3-2-1z"/><path fill="#171f17" d="M73 346h8v4h-8z"/><path fill="#1c261e" d="M402 233v3l-1.788-.016q-4.013-.029-8.024-.047l-2.815-.025-2.705-.01-2.491-.016c-2.359.027-2.359.027-5.177 1.114l1-3a13777 13777 0 0 1 11.982-.645l2.569-.136 2.364-.127c1.694-.075 3.39-.092 5.085-.092"/><path fill="#28332a" d="M126 195h22l1 3-23-1z"/><path fill="#171c16" d="M719 124h6l.938 2.875c.936 2.986.936 2.986 2.062 5.125h-5l-.312-1.875c-.563-2.49-.563-2.49-3.688-4.125z"/><path fill="#181f19" d="m861 55 4 1c.688 1.813.688 1.813 1 4l-3 3c.228 2.163.228 2.163 1 4l-3-1v-7h2v-3z"/><path fill="#1b221c" d="M477 1101h2v2h2v2l-20 1-1-2h17z"/><path fill="#121713" d="M1254 1029v3h-11l-1-2c3.981-1.327 7.85-1.07 12-1"/><path fill="#1a221a" d="M936 561h11v4l-8-1v-2l-3 1z"/><path fill="#131913" d="M19 346h10l1 3H18z"/><path fill="#1a211b" d="m730 301-2 4h-2l-1 4h-3l1-7c4.75-1 4.75-1 7-1"/><path fill="#1e261f" d="m936 149 3 1h-2v2l3.25-1.562c2.465-1.07 3.471-1.474 6.188-1.125L948 150v3l-1.5-.562c-3.65-.64-6.84.013-10.5.562z"/><path fill="#1b221c" d="M224 30v2h-15v-2c10.558-1.333 10.558-1.333 15 0"/><path fill="#161c16" d="M636 1156h2v3l2 1-2 4h-2l-2-2-3-1v-2h5z"/><path fill="#151a14" d="M1069 1097q3.375-.079 6.75-.125l3.797-.07C1083 1097 1083 1097 1087 1099l-18 1z"/><path fill="#141c16" d="M109 1088h4l-1 4h7v2h-10z"/><path fill="#162018" d="M1131 1068c.687 2.49 1 4.379 1 7-1.937.563-1.937.563-4 1-1-1-1-1-1.062-4.062L1127 1069z"/><path fill="#181f19" d="M24 979h12l1 2c-3.287.8-4.71 1.097-8 0-2.638.394-2.638.394-5 1z"/><path fill="#18241a" d="M803 978h11l-1 3-2.812-.062c-3.21-.096-3.21-.096-6.188 1.062z"/><path fill="#121712" d="M57 954h2l1 3-1 2 2 1-2 6h-2z"/><path fill="#172118" d="M1231 925h2v3l1-2h2l2 5c-5.75.125-5.75.125-8-1z"/><path fill="#161f17" d="M843 927h6v5h-6z"/><path fill="#151b14" d="M317 872h2v12l-6-1 2-2 2 1-.254-1.934-.308-2.504-.317-2.496L316 873z"/><path fill="#1a201a" d="m1114 773 23 1c-3.204 2.136-3.996 2.242-7.668 2.195l-2.705-.02-2.814-.05-2.85-.027A917 917 0 0 1 1114 776z"/><path fill="#203b27" d="M189 649h7v5h-7z"/><path fill="#121813" d="M1044 500c1.063 1.875 1.063 1.875 2 4l-1 2 3 1h-3v2l-1.875.438c-2.158.494-2.158.494-4.125 1.562v-5h5z"/><path fill="#1d2e1f" d="M1181 362h6v5h-6z"/><path fill="#131914" d="M719 347h10v3l-4-1v2l-6-1z"/><path fill="#1a221a" d="M231 34v2c-4.316.762-7.744 1.16-12 0v-2q2.154-.292 4.313-.562l2.425-.317C228 33 228 33 231 34"/><path fill="#141c15" d="M871 5h3v17h-3z"/><path fill="#121711" d="M143 1239c2.18 3.271 2.249 4.274 2.188 8.063l-.02 2.66C145 1252 145 1252 144 1254h-2z"/><path fill="#171e16" d="M371 1210h9v4h-5v-2h-5z"/><path fill="#1b221c" d="M1209 1170h4l1 2 1-2h4v2h-3v2h-7z"/><path fill="#131813" d="m630 1103 15 1v1l-15 1z"/><path fill="#182018" d="M382 764h5v7h-5v-3h3v-2h-3z"/><path fill="#1c251d" d="M276 719h20v1l-3.465.148-4.473.227-2.287.094c-1.93.104-3.854.31-5.775.531l-1 2-3-1z"/><path fill="#171d17" d="M941 703h2v13h-3c-.077-4.516-.102-8.59 1-13"/><path fill="#151d17" d="M195 426c3.125-.187 3.125-.187 6 0v2l-6 1-1 4h-3a56.5 56.5 0 0 1 4-7"/><path fill="#19201a" d="m54 414 2.25.563c2.7.429 4.196.288 6.75-.563l2 4h-2v-2h-2v2h-5v-2h-2l-1 2z"/><path fill="#181d19" d="m735 311 3 1-1 2-3 1-2.562 2.563L729 320h-2c1.592-4.3 4.355-6.397 8-9"/><path fill="#171d17" d="M363 205h6v2l-1.812.25c-2.785.955-3.621 2.321-5.188 4.75l-3-1 2-4h2z"/><path fill="#161d16" d="M391 1210v4l-10-2v-2c6.625-1.125 6.625-1.125 10 0"/><path fill="#151b15" d="m364 1013 2 1c.407 2.322.744 4.657 1 7l-5 1c.875-7.875.875-7.875 2-9"/><path fill="#141914" d="M519 925v4l-9-1v-2c2.957-1.478 5.742-1.06 9-1"/><path fill="#121812" d="M317 833h2v13h-2q-.29-2.968-.562-5.937l-.317-3.34L316 834z"/><path fill="#141a13" d="M317 808h2c.838 4.655 1.016 8.37 0 13h-2z"/><path fill="#161e17" d="m956 728 3 1v7h-5v-3h3v-2h-2z"/><path fill="#141a13" d="m1043 571 3 1v10l-3 1z"/><path fill="#1a231a" d="M406 562h5v6l-5 1v-3h3v-2h-3z"/><path fill="#18221a" d="M424 551c2.125.938 2.125.938 4 2l-3 2 1 3-5 1c.256-2.343.593-4.678 1-7z"/><path fill="#131914" d="M522 455h4v2c-2.765 1.382-5.046 1.095-8.125 1.063l-3.32-.028L512 458l1-2 3.938.063A59 59 0 0 0 521 456z"/><path fill="#060806" d="M905 227h10v6h-2l-1-4h-3l-2 4z"/><path fill="#161b16" d="m1202 109 4 1-1 2.375c-1.119 2.468-1.119 2.468-1 4.625l-7 1 1.938-2.25c1.845-2.461 2.623-3.785 3.062-6.75"/><path fill="#19221b" d="m511 1135 3.25.5c3.78.588 3.78.588 7.75.5l-1 3q-2.187.079-4.375.125l-2.46.07C512 1139 512 1139 510 1137z"/><path fill="#1a201a" d="M1035 1063h5l2 5h4v2c-1.812.625-1.812.625-4 1l-3-2v-3l-4-1z"/><path fill="#172117" d="M828 927h5l1 5h-6z"/><path fill="#161f17" d="M1218 916h3l1 6h-5a100 100 0 0 1 0-5z"/><path fill="#131712" d="m681 905 2 1v12h-3c-.077-4.516-.102-8.59 1-13"/><path fill="#152017" d="m298 854 1 7-6-1v-5c3-1 3-1 5-1"/><path fill="#151b15" d="M1059 799h4v7h-4z"/><path fill="#161e18" d="M434 768h7l1 3c-3.058.544-5.888 1-9 1z"/><path fill="#161d17" d="M543 655h5v5l-5 1zM719 619h11v3h-11z"/><path fill="#1a221b" d="M62 576h6l-1 7h-5v-2l3-1 1-2h-4z"/><path fill="#141a14" d="M81 496h6l-2 7h-3z"/><path fill="#151a16" d="M839 456h8v2l-3.312.813c-3.305 1.064-4.638 1.534-6.688 4.187l-2-1 1.438-1.312c1.799-1.711 1.799-1.711 2.562-4.688"/><path fill="#19211b" d="M478 411h10l-1 3c-2.763-.523-5.326-1.109-8-2v3h3l-1 3-3-1z"/><path fill="#172219" d="M412 377h5l-1 7-4-1z"/><path fill="#1b221c" d="M1157 327h2l1 3 2 1v-3l4-1v2h-2l-1 4-5-1z"/><path fill="#141a14" d="M1043 297h3v12h-3z"/><path fill="#181e19" d="M346 271v3l-18-1v-1q2.813-.255 5.625-.5l3.164-.281c3.082-.21 6.123-.256 9.211-.219"/><path fill="#161d17" d="M1162 180h5v6l-4-1z"/><path fill="#111912" d="M587 107v2l-1.937.375L583 110l-1 2h-5v-3c6.625-2 6.625-2 10-2"/><path fill="#182219" d="m1039 1205 7 1v2h-3v2l-4-1z"/><path fill="#1b221b" d="m219 1190 3 1c2.295-.094 2.295-.094 4.688-.437l2.449-.31L231 1190l-1 3-2.75-.062c-2.677.051-4.72.284-7.25 1.062z"/><path fill="#1a231b" d="m482 1097 6 1 1 6h-5v-2h3v-2l-5-1z"/><path fill="#161c16" d="M964 1078h13v2c-1.601.25-3.206.474-4.812.688l-2.708.386C967 1081 967 1081 964 1078"/><path fill="#161e17" d="M184 960h3l1 6h-5a100 100 0 0 1 0-5z"/><path fill="#141a14" d="M723 930h2l1 12h-3z"/><path fill="#182118" d="m287 854 5 1v5h-5z"/><path fill="#151b15" d="M941 743h2v13h-3z"/><path fill="#1f2a22" d="m268.625 718.438 3.04.308L274 719l-1 2h-11l-1-2c2.728-1.364 4.61-.878 7.625-.562"/><path fill="#1c251d" d="m1210 708-1 3h-12v-2q2.688-.251 5.375-.5l3.023-.281C1208 708 1208 708 1210 708"/><path fill="#171e18" d="M62 586h5l-1 3 2 1v3h-2v-2h-2v2h-2v-3h2z"/><path fill="#152017" d="M1114 401h2l1 7-4 1c-1.208-3.623-.543-4.641 1-8"/><path fill="#141a15" d="M940 277h3c1.286 8.429 1.286 8.429 0 13h-2l1-6-2-1z"/><path fill="#1b241c" d="m487 266 2 1-1 3h-11l1-3 2 1c2.333.04 4.667.043 7 0z"/><path fill="#131913" d="M372 262h8c-1.974 2.523-2.967 2.993-6.187 3.688L371 266z"/><path fill="#151e16" d="m75 61 4 2v3l-5 1a100 100 0 0 1 0-5z"/><path fill="#131913" d="m1131 1151 3 1v9l-3 1z"/><path fill="#18251a" d="M1220 1104h6l-1 6-4-1 1-4z"/><path fill="#19281b" d="M96 1076q2.514.428 5 1v4h-5c-.562-1.937-.562-1.937-1-4z"/><path fill="#131913" d="M577 1073h3l-1 12h-2zM558 1018q2.514.428 5 1l-2 7h-2l-2-7z"/><path fill="#19221a" d="M1007 906h5l-2 7-4-1v-2h2l1-2h-2z"/><path fill="#141a14" d="M1202 872h2v12l-3-1z"/><path fill="#1d261f" d="m57 849 6 2v2h-4l-1 2v-2h-4v-2z"/><path fill="#1b2d1d" d="M1070 694h6l-1 5h-5z"/><path fill="#141c14" d="M846 673h6l-1 5-5-1z"/><path fill="#1f3b26" d="m182 648 5 1v5l-5-1z"/><path fill="#151b15" d="M603 577h4v5l-4 1c-1-3-1-3 0-6"/><path fill="#191f19" d="M619.063 565.938 622 566c-.75 2.438-.75 2.438-2 5-2.125.813-2.125.813-4 1a88 88 0 0 1-1-5c1-1 1-1 4.063-1.062M616 568v2h2v-2z"/><path fill="#1d3020" d="M1225 524h5v5h-5z"/><path fill="#131812" d="M577 521h2c.762 4.316 1.16 7.744 0 12h-2z"/><path fill="#151a14" d="M143 485h2v13l-3-1z"/><path fill="#182018" d="M1093 446h4v7h-4z"/><path fill="#1e2920" d="M1002 421h5v6l-5 1v-2h3v-3h-3z"/><path fill="#161e16" d="m1178 180 5 1v5l-5-1z"/><path fill="#151d16" d="M1169 180h6l-1 6h-5l3-3-3-1z"/><path fill="#181f18" d="M126 170h3v12h-2q-.252-2.437-.5-4.875l-.281-2.742C126 172 126 172 126 170"/><path fill="#1e2820" d="M875 29v3h-14v-1q2.374-.506 4.75-1l2.672-.562C871 29 871 29 875 29"/><path fill="#141b15" d="m482 15 5 1v5l-6 1v-2h2z"/><path fill="#171e18" d="m63 1229 2 2c-1 1-1 1-3.504 1.098l-3.059-.035-3.066-.028L53 1232v-2c1.623-.222 3.249-.427 4.875-.625l2.742-.352z"/><path fill="#141b15" d="M403 1209v5c-4.75-.875-4.75-.875-7-2v-2c2.49-.687 4.379-1 7-1"/><path fill="#1a231c" d="M940 1204v5h-4l-1-4c2-1 2-1 5-1"/><path fill="#19251c" d="M86 1156h3l1 5c-2.875.625-2.875.625-6 1l-2-2 4-1z"/><path fill="#161c17" d="M1202 1156h2c1.125 4.75 1.125 4.75 0 7-3.062.625-3.062.625-6 1l1-4h3z"/><path fill="#131814" d="M224 1146h2v7h-7v-2h5z"/><path fill="#152117" d="M638 1135h6l-2 1 2 4h-5z"/><path fill="#131c14" d="M1234 1034h4v5h-5z"/><path fill="#101612" d="M527 925h8v4l-8-1z"/><path fill="#171f19" d="M265.563 889.938 268 890v4l-5 1c-.562-1.937-.562-1.937-1-4 1-1 1-1 3.563-1.062"/><path fill="#141913" d="M143 819h2v12h-3z"/><path fill="#161e17" d="M1176 798c3.123.486 5.996.999 9 2l-1 3-1.687-1c-2.616-1.131-4.494-1.157-7.313-1z"/><path fill="#1a201a" d="M59 777h6l1 3H54l1-2 4 1z"/><path fill="#223a26" d="m176 649 5 1v4h-5z"/><path fill="#131914" d="m746 644 5 1v3c-3.75 1.125-3.75 1.125-6 0z"/><path fill="#182019" d="M86 630v2H75v-2c3.818-1.374 7.073-.68 11 0"/><path fill="#1c261e" d="m944 555 4 2v2h-2v-2h-2v2h-5l-1-3c1.207.03 1.207.03 2.438.063 2.496.233 2.496.233 3.562-1.063"/><path fill="#172419" d="M25 500h4v6h-4z"/><path fill="#213324" d="M200 401h11v2l-2.687-.062c-2.935.055-5.468.393-8.313 1.062z"/><path fill="#151c15" d="M317 224h7l-2 3h-3v4l-3-1z"/><path fill="#161d16" d="M871 150h2c.195 1.79.38 3.583.563 5.375l.316 3.023C874 161 874 161 873 163h-2z"/><path fill="#141a15" d="M862 148c2 2 2 2 2.195 3.945L864 158l-3-1c-.098-6.152-.098-6.152 0-8z"/><path fill="#182018" d="M747 117h4v5h-5z"/><path fill="#1a251a" d="M18 64h5l1 3-4-1v2h3v2h-4z"/><path fill="#1c2a1e" d="m94 1156 4 1v4h-5z"/><path fill="#1b291f" d="M1022 1122h7v3l-6 1z"/><path fill="#1f2f23" d="M252 1107h2v2h3v-2h2l-1 4h-6z"/><path fill="#1b211b" d="M313 1068h11v2h-9v2h-2z"/><path fill="#1a211a" d="M805 1044h5v2h-3v3h2v2l-4-1z"/><path fill="#151e17" d="M979 1022h5v4h-6z"/><path fill="#111611" d="m1156 931 4 1v5h-4z"/><path fill="#1a261c" d="M1171 867h5v6h-5l1-2h2v-2h-3z"/><path fill="#192219" d="M477 854h8v2l-5 2v-2l-1 2h-2z"/><path fill="#121813" d="m565 788 4 2-1 6h-3z"/><path fill="#121713" d="M102 720h10l-1 5-4 1v-2h2v-2l-7-1z"/><path fill="#1f2921" d="M313 664c1.46.114 2.917.242 4.375.375l2.46.21C322 665 322 665 324 667h-11z"/><path fill="#18261b" d="M32 500h4v5l-2 1-3-3z"/><path fill="#121813" d="M1174 460h3c.043 2 .04 4 0 6-1 1-1 1-3.562 1.063L1171 467v-2h4z"/><path fill="#1b261d" d="M1093 436h5l-1 6h-4z"/><path fill="#161f18" d="M16 428h6v2h-4l3 1v2h-6z"/><path fill="#171f19" d="m787 394 4 1v4h-5z"/><path fill="#121813" d="M1061 335h10l1 2c-3.75 1.125-3.75 1.125-6 0-2.098.4-2.098.4-4 1z"/><path fill="#121712" d="m1027 333 3 1v4l-3 1-2-1v-4z"/><path fill="#1c281e" d="M639 322h5l-1 6h-4z"/><path fill="#181d19" d="m1173 317 3 1c-4.43 5.785-4.43 5.785-7.312 6.875L1167 325c1.231-3.694 3.208-5.351 6-8"/><path fill="#171d17" d="M1012 224h2v12h-3zM94 220h6l-2 6h-3v-2h3v-2l-4 1z"/><path fill="#181f18" d="m1155 180 5 1-1 5h-4z"/><path fill="#1c241d" d="M580 33c2.063.438 2.063.438 4 1l-1 2c-2.322.407-4.657.744-7 1v-2l-3 1v-2c1.454.03 1.454.03 2.938.063 2.937.293 2.937.293 4.062-1.063"/><path fill="#121712" d="M125 1229h10v2c-7.75 1.125-7.75 1.125-10 0z"/><path fill="#111812" d="M1165 1146h5v3h-2v4h-2z"/><path fill="#1a2a1d" d="M300 1101h2v8l-4-1 1-1v-2.5c0-2.5 0-2.5 1-3.5"/><path fill="#141a14" d="M143 1034h2v12h-3z"/><path fill="#29472e" d="m1132 977 4 1-1 4h-4z"/><path fill="#19241c" d="M183 979h5v2h-3v2h2v2h-4z"/><path fill="#233a29" d="M789 977h5v5h-5z"/><path fill="#18211a" d="m885 944 3 1v7l-4 1 2-4h-2v-2h2z"/><path fill="#1a261a" d="M331 911h5v5h-4z"/><path fill="#1d241e" d="m433 777 1 2 8-1-1 3h-7z"/><path fill="#182119" d="m1059 745 4 1v4h-5z"/><path fill="#202a22" d="M574 718h10v3l-10-1z"/><path fill="#182119" d="M23 675h4v5l-4 1z"/><path fill="#171e19" d="m948 640 5 1-1 4-4-1z"/><path fill="#151e16" d="m8 561 4 1v6H8v-3h2v-2H8z"/><path fill="#1a251c" d="M1064.563 551.938 1067 552l1 5h-4v-3l-3-1c1-1 1-1 3.563-1.062"/><path fill="#1e3121" d="M609 470h5l-1 5-4-1z"/><path fill="#151d16" d="M23 428h5v5h-5z"/><path fill="#131813" d="M197 430q2.124-.079 4.25-.125l2.39-.07c2.567.212 4.152.908 6.36 2.195-1.603.196-3.208.381-4.812.563l-2.708.316C200 433 200 433 197 432z"/><path fill="#1c291f" d="M195 416h6l1 6h-2v-3l-4-1-1 2z"/><path fill="#161c16" d="M630 376h7l1 3-9-1z"/><path fill="#171e18" d="M787 366h4l-1 3-2-1v2h2v2l-4-1z"/><path fill="#151d16" d="M879 294h3l1 5h-5z"/><path fill="#141a15" d="m641 277 3 1-1 5-4-1v-4z"/><path fill="#161e17" d="m80 209 5 1-2 4-4-2z"/><path fill="#172018" d="m1083 204 6 1v2h-3v3h-3z"/><path fill="#171f18" d="m869 166 8 1-2 4h-5l3-1v-2l-4-1z"/><path fill="#203222" d="M224 155h4v4h-2v3h-2z"/><path fill="#19211b" d="M508 150h9l-1 3h-7z"/><path fill="#1f2a22" d="M1126 139h10v2c-3.663.75-6.424 1.238-10 0z"/><path fill="#111611" d="M578 114h2v8h-3q-.062-3.5 0-7z"/><path fill="#131813" d="m795.066 63.902 2.496.035 2.504.028L802 64v2c-6.055.977-6.055.977-8 1l-2-2c1-1 1-1 3.066-1.098"/><path fill="#141c15" d="M871 44h3c1.097 3.29.8 4.713 0 8h-3z"/><path fill="#1b221a" d="m1209 1225-1 2h-9v-2c6.625-1.125 6.625-1.125 10 0"/><path fill="#191f19" d="m657 1210 4 1 .313 1.938L662 1215l3 1-3 1c-2-1-2-1-3-4l-2-1z"/><path fill="#18211a" d="M415 1209v4h-5l-1-3c2-1 2-1 6-1"/><path fill="#151d16" d="m702 1207 5 1v6l-4-2 1-4z"/><path fill="#182118" d="M356 1156h3c1.125 4.75 1.125 4.75 0 7h-3z"/><path fill="#1a261d" d="m626 1135 4 1-1 4-4-1z"/><path fill="#171c17" d="M910 1112v2h-2l-2 5-4-1 4-2v-3c2-1 2-1 4-1"/><path fill="#171d18" d="M265 1058c0 2 0 2-1.437 3.5L262 1063l-1 2-4-1 2-3h2v-2c2-1 2-1 4-1"/><path fill="#1c2f20" d="M509 971h3l1 5h-5z"/><path fill="#151d16" d="M445 877h4c0 2 0 2-1.5 3.625L446 882l4-1-1 3-4-1z"/><path fill="#19281c" d="m1159 867 5 1-2 5c-1.5-1.312-1.5-1.312-3-3z"/><path fill="#181f18" d="m485 845-3 1v4l-4-1h2v-2h-2v-2c3.01-.934 3.867-1.044 7 0"/><path fill="#1c251d" d="M1081 823h7v3h-7z"/><path fill="#1b251c" d="m1181 792 4 1v4l-5-1z"/><path fill="#244228" d="M968 793h5v4l-3 1-2-1z"/><path fill="#191e1a" d="M792 753c0 2 0 2-1.46 3.508-.633.533-1.264 1.067-1.915 1.617l-1.898 1.633C785 761 785 761 783 761c0-2 0-2 1.46-3.508l1.915-1.617 1.898-1.633C790 753 790 753 792 753"/><path fill="#161d18" d="M620 749h3c-.187 2.375-.187 2.375-1 5-2.562 1.313-2.562 1.313-5 2v-2h2z"/><path fill="#1d261f" d="m622 718-1 3h-5v2l3 1h-4v-5c4.75-1 4.75-1 7-1"/><path fill="#111712" d="M940 595h3l1 7-2 1-2-1z"/><path fill="#141c16" d="M70 589h4l1 4h-6z"/><path fill="#141914" d="M1202 541h2v7l-5 1 2-3a75 75 0 0 0 1-5"/><path fill="#151a14" d="M143 541h2v10h-2c-.95-3.695-.95-6.305 0-10M940 521h3c1.097 3.29.8 4.713 0 8l-3-1z"/><path fill="#1b241c" d="M1208 430v3h-10l1-2c3.02-.55 5.926-1 9-1"/><path fill="#181f19" d="m344 306 3 1v6h-4l1-2h2v-2h-3z"/><path fill="#111611" d="M224 282h2c1.032 3.095.975 4.526.563 7.688l-.31 2.449L226 294h-2z"/><path fill="#192019" d="M1011 247h2v2l4-1-2 3c-3.125.188-3.125.188-6 0v-3l2 1z"/><path fill="#171e18" d="m109 220 5 1-1 2h-2l3 3-5-1z"/><path fill="#101611" d="m476 190 4 1-1 5h-8v-1l5-1z"/><path fill="#1b271d" d="M452 105h4v6h-4z"/><path fill="#1a241a" d="M73 79h5v4l-5-1z"/><path fill="#24442e" d="m892 1194 3 1v3h-8v-2l4 1z"/><path fill="#213223" d="M878 1186h3v7h-3z"/><path fill="#161e19" d="m740 1170 5 1-1 3-5-1z"/><path fill="#131a13" d="M57 1078h4l-2 7h-2z"/><path fill="#161e18" d="M1222 1034h4v5h-4z"/><path fill="#162018" d="M685 993h5v4h-5zM700 993h5l1 2-1 2-5-1z"/><path fill="#18241a" d="m719 983 5 1-1 3-5-1z"/><path fill="#1a2219" d="M1217 925h4v5h-4z"/><path fill="#161d16" d="m505 914 4 2v2c-3.75 1.125-3.75 1.125-6 0z"/><path fill="#1a221b" d="M1020 907h2v3h2l-1-3h2v5h-5z"/><path fill="#151a15" d="M224 876c5.75-.125 5.75-.125 8 1v2h-8z"/><path fill="#243027" d="m147 850 1 2h-9v-2c3.303-1.101 4.716-.95 8 0"/><path fill="#19201a" d="M1081 812h6v3l-5 1z"/><path fill="#162018" d="M15 732h5v4h-5z"/><path fill="#1d251d" d="m1197 713 9 1-1 2c-2.322.407-4.657.744-7 1z"/><path fill="#131813" d="M578 703c1.063 1.875 1.063 1.875 2 4l-1 2 2 1-4 1q-.062-3.5 0-7z"/><path fill="#1a2e1e" d="M381 700h4v5h-4z"/><path fill="#172219" d="M17 675h4v5h-4z"/><path fill="#151e18" d="m909 589 4 2-1 3h-4z"/><path fill="#151a15" d="M940 580h3v8h-3z"/><path fill="#1c261e" d="M1137 577h4v6h-5v-3l4 1z"/><path fill="#1a251c" d="M406 571h4v5h-4z"/><path fill="#111811" d="M56 510h5l-2 1v2l2 1-2 4h-2l1-7z"/><path fill="#151c17" d="M662 500h2l1 7h-6l2-3h2v-2l-2-1z"/><path fill="#1b271c" d="M18 500h4v5h-4z"/><path fill="#19241a" d="M1224 459h6v3h-7z"/><path fill="#121712" d="M1202 326h2l1 7-3 1a177 177 0 0 1-1-7z"/><path fill="#171c17" d="M719 311c3.625-.187 3.625-.187 7 0l-1 3h-8z"/><path fill="#131812" d="M577 306h4l-2 8h-2z"/><path fill="#1b221b" d="M80 257c2.063.438 2.063.438 4 1l-1 4h-3c-.562-1.937-.562-1.937-1-4z"/><path fill="#141914" d="M754 253h2v8l-3-1c-.043-2-.04-4 0-6z"/><path fill="#1a201a" d="M80 247h3l1 4-4 1c-.562-1.937-.562-1.937-1-4z"/><path fill="#1a201b" d="m374 239 4 1c-3.446 4.8-3.446 4.8-6.25 5.813L370 246v-2l3-2z"/><path fill="#151d16" d="M1014.563 238.938 1017 239v5h-6l2-1v-2l-2-1c1-1 1-1 3.563-1.062"/><path fill="#171d17" d="M110 209c2.063.438 2.063.438 4 1v3l-4 1c-.562-1.937-.562-1.937-1-4z"/><path fill="#1b1f1b" d="M149 199c4.274 1.583 6.265 4.506 9 8-4.248-.472-6.268-2.889-9-6z"/><path fill="#19241b" d="M337 1219h5l-1 5-4-2z"/><path fill="#1b231b" d="m740 1209 5 1-1 4h-4z"/><path fill="#151a15" d="M151 1189c1.938.313 1.938.313 4 1l1 3h-5z"/><path fill="#1a271c" d="M632 1135h4l-1 5h-3z"/><path fill="#151a16" d="M530 1122h3l-1 3h-3l-1 4h-2c1.074-2.915 1.778-4.778 4-7"/><path fill="#161e17" d="m1160 1106 3 1-1 5-3-1z"/><path fill="#1f3021" d="M1022 1102h7v3h-7z"/><path fill="#1b251d" d="m412 1067 7 1v2l-7 1z"/><path fill="#131b14" d="M61 1053v3h-7v-2c2.463-1.231 4.28-1.072 7-1"/><path fill="#243b2a" d="M783 978h4v5l-4-1z"/><path fill="#243628" d="m501 971 4 1v4h-4z"/><path fill="#19231a" d="m349 956 4 2v3l-4 1z"/><path fill="#1b251d" d="M356 957h4v5l-4-1z"/><path fill="#1a211a" d="m1247 925 4 1-1 4-4-1z"/><path fill="#141b15" d="M1059 793q2.514.428 5 1l-1 3h-4l-1-3z"/><path fill="#151c15" d="M1155 763h3v8h-3z"/><path fill="#1d271f" d="M968 747h4v4h-5z"/><path fill="#1b281e" d="M564 737h5v4h-5z"/><path fill="#191f18" d="m65 714-1 3-5-1v-2c2.49-1.245 3.41-.777 6 0"/><path fill="#1b261d" d="M271 711h2v5h-5l1-4 1 1z"/><path fill="#202e21" d="M453 662h3v5l-4 1a100 100 0 0 1 0-5z"/><path fill="#1a221b" d="M961 640h5v4l-5-1z"/><path fill="#264b30" d="M752 605h5l-1 4h-4z"/><path fill="#181f19" d="m1018 600-1 3-5-1v-2c2.49-1.245 3.41-.777 6 0"/><path fill="#141a14" d="M723 595h3v6l-3 1z"/><path fill="#121713" d="M1186 580v2h-2l-1 5-3 1v-3h2v-4c2-1 2-1 4-1"/><path fill="#18211b" d="M659 576h5l-1 4h-4z"/><path fill="#172019" d="M406 556h7v2l-7 1z"/><path fill="#0c140e" d="M576 554h6l1 2-1 2-6-2z"/><path fill="#151b16" d="M482 521h2c-.376 2.782-.673 4.588-2.437 6.813C480 529 480 529 478 529l1-4h3z"/><path fill="#19201a" d="m786 430 4 1-1 5 2 1-4 1z"/><path fill="#1a2d20" d="M1113 415h4v4h-5z"/><path fill="#182218" d="M412 396h4v5l-4-1z"/><path fill="#18211a" d="M653 366h2v3h2v-2h2l-2 4h-4z"/><path fill="#151e16" d="M544 366c2.125.375 2.125.375 4 1v3l-3 1-3-3z"/><path fill="#172019" d="M667 366h5v5l-4-1h2v-2l-3 1z"/><path fill="#161e18" d="M705 346h5l1 3-4-1v2l-3-1z"/><path fill="#161d15" d="M940 297h3v7h-3z"/><path fill="#1c281e" d="M123 258h3l1 6-4 1-1-2h3v-3h-2z"/><path fill="#213226" d="m1069 243 4 1v6l-3-1 1-4-3 1z"/><path fill="#151a14" d="M6 215h5v6H6l2-1z"/><path fill="#121711" d="m938 197 3 1-1 1 3 1v2h-6c0-3 0-3 1-5"/><path fill="#161c17" d="M1033 160h2c-.613 2.962-1.254 4.38-3 7l-4-1 1.938-1.312c2.33-1.6 2.33-1.6 3.062-4.688"/><path fill="#151c14" d="M800 84h2v8h-3z"/><path fill="#191f19" d="m352 1225 9 1-1 2-9-1z"/><path fill="#1a2a1d" d="M844 1223h2l1 4-4 1c0-4 0-4 1-5"/><path fill="#1a201a" d="m938 1212 3 1v3l-5 1v-4l1 2h2z"/><path fill="#1c261d" d="M616 1197h3v2h-2v2l4-1-1 2h-5z"/><path fill="#141a14" d="M941 1195h2c1.208 3.623.543 4.641-1 8l-2-1z"/><path fill="#131813" d="m317 1170 3 1-1 7h-2z"/><path fill="#151a14" d="M754 1160h8l-1 2c-2.314.73-4.648 1.401-7 2z"/><path fill="#1f2c21" d="m102 1146-1 3-5-1v-2c2.49-1.245 3.41-.777 6 0"/><path fill="#233c29" d="m1225 1107 7 1c-1.875 1.063-1.875 1.063-4 2l-2-1v6h-1z"/><path fill="#18231c" d="m1205 1096 4 1v3h-5z"/><path fill="#141913" d="m1044 1092 3 2-2 6h-2q-.061-3.5 0-7z"/><path fill="#131913" d="m1043 1053 3 1v6h-3z"/><path fill="#131812" d="M754 1008h2l1 7-3 1z"/><path fill="#182319" d="M701 969h4l-1 5h-3z"/><path fill="#1d3321" d="m517 971 3 1v4h-4z"/><path fill="#121712" d="m578 953 2 2c-.375 3.625-.375 3.625-1 7h-2c-.098-6.152-.098-6.152 0-8z"/><path fill="#0f1811" d="M883 944h1v5l2 1-6 1 .938-1.812c1.164-2.278 1.164-2.278 2.062-5.188"/><path fill="#121912" d="M940 940h3l-1 7 2 1-4-1z"/><path fill="#141a15" d="m681 929 3 1-1 7h-3q-.062-3.5 0-7z"/><path fill="#1e291f" d="M324 910h4v6h-3z"/><path fill="#1c271f" d="M415 910h5l-1 5-4-2zm2 2 1 2 1-2z"/><path fill="#19211b" d="m254 890 6 1v3h-6z"/><path fill="#1a1f1a" d="m802 854 3 1c-4.625 4.875-4.625 4.875-8 6 0-2 0-2 2.5-4.625z"/><path fill="#161c17" d="M153 777h2v2l5-1v3l-7-1z"/><path fill="#202b21" d="M552 748h4l-1 5-3-1z"/><path fill="#203022" d="M1153 743h6v3h-6z"/><path fill="#1d2b21" d="M551 738h6v3h-6z"/><path fill="#19231b" d="M255 710h2v2h-2v2h3v2l-5-1c.875-3.875.875-3.875 2-5"/><path fill="#18221a" d="M16 694h5c-.875 3.875-.875 3.875-2 5h-2z"/><path fill="#1f2921" d="M1204 665v3l-10-1c3.991-1.996 5.7-2.195 10-2"/><path fill="#18201a" d="M645 639h8l1 2-8 1z"/><path fill="#181f19" d="m313 605-1 3-5-1v-2c2.49-1.245 3.41-.777 6 0"/><path fill="#111811" d="M82 554h10v1h-7l1 4-3-1z"/><path fill="#151d16" d="m875 525 3 1v4h-4z"/><path fill="#171e18" d="M639 501h4l-1 5-3-1z"/><path fill="#141a14" d="m655 501 4 1-2 4h-5z"/><path fill="#151a15" d="M787 495h3l-1 8h-2z"/><path fill="#22492b" d="M949 480h6v3h-6z"/><path fill="#233f2a" d="M1112 421h5l-1 5h-3z"/><path fill="#181d19" d="m546 416 3 1c-3.5 4.875-3.5 4.875-8 6z"/><path fill="#1d281f" d="m412 415 5 1-1 3h-4z"/><path fill="#275231" d="M705 410h6v3h-6z"/><path fill="#141914" d="m621 405 3 1-2 7h-2q-.062-3.5 0-7z"/><path fill="#161d17" d="m167 356 1 2h3v-2h3v3l-6 1z"/><path fill="#131912" d="M1202 356h2v8h-3q-.061-3.5 0-7z"/><path fill="#181f19" d="M168 346h5l1 3-5-1v2h-2z"/><path fill="#265330" d="M589 297h6v3h-6z"/><path fill="#111711" d="m143 281 3 3c-.312 3.188-.312 3.188-1 6h-2z"/><path fill="#161b15" d="M754 277h2v7l-3 1z"/><path fill="#080f0a" d="M479 274h7l1 3h-8z"/><path fill="#1d231d" d="m224 271 10 1v2h-11z"/><path fill="#151c15" d="m855 262 3 1-1 7h-2z"/><path fill="#161e17" d="M1091 205h2l1 6h-5l-1-2h3z"/><path fill="#151c16" d="m886 182 3 1h-2v2l3-1-1 3h-4l-1-3z"/><path fill="#191f19" d="m861 160 3 1 1 7h-3z"/><path fill="#1a251c" d="M24 139h5v4l-5-1z"/><path fill="#131913" d="M1202 135h2v8l-3-1z"/><path fill="#1b241c" d="M755 117h3l1 5h-5z"/><path fill="#1d2e22" d="M559 108h5v4l-5-1z"/><path fill="#27442d" d="M692 104h6v3l-5 1z"/><path fill="#141a13" d="m723 59 3 1v6l-3 1z"/><path fill="#26462b" d="M396 35h4v5h-4z"/><path fill="#121612" d="m858 6 1 4h5l-1 2h-6z"/><path fill="#131813" d="M482 1234h2v8h-2a177 177 0 0 1-1-7z"/><path fill="#131912" d="M317 1229h2c1.097 3.29.8 4.713 0 8h-2z"/><path fill="#151c16" d="m63 1223 4 2v2h-7v-2h3z"/><path fill="#131913" d="M577 1156h3v6h-3c-1.125-3.75-1.125-3.75 0-6"/><path fill="#212f24" d="m108 1145 4 1-1 3h-4z"/><path fill="#131914" d="M57 1117h3v6l-3 1z"/><path fill="#1a231b" d="M160 1058h7v2l-7 2z"/><path fill="#131813" d="m1202 1013 2 1v7h-3z"/><path fill="#19201a" d="m556 1013 6 1v2h-7z"/><path fill="#121812" d="m364 983 2 1v7h-3z"/><path fill="#223623" d="m1155 978 5 1-2 4c-1.5-1.375-1.5-1.375-3-3z"/><path fill="#1d261e" d="m1006 900 5 1-1 3-4-1z"/><path fill="#181e17" d="M940 886h3v7h-3z"/><path fill="#191e19" d="m391 863 3 1-1 5-4 1z"/><path fill="#18211a" d="M637 850h6v2h-3l-1 3z"/><path fill="#304f34" d="m970 787 3 1v3h-5v-3z"/><path fill="#202d22" d="m272 748-1 3h-2v-2l-4 1v-2c2.667-1.333 4.167-.671 7 0"/><path fill="#141913" d="M143 733h2v8l-3-1z"/><path fill="#121711" d="M143 654h2c1 3 1 3 .063 5.188L144 661h-2c-.043-2-.04-4 0-6z"/><path fill="#171f17" d="M9 610h5l-2 4H9z"/><path fill="#1a231c" d="M300 604h5l1 3-4-1v2h-2z"/><path fill="#19201a" d="m249 599 4 1-1 3h-4z"/><path fill="#1e2920" d="M1136 590h5v3l-4 1z"/><path fill="#151b14" d="M143 526h2v7h-3z"/><path fill="#131913" d="M143 475h2v8l-3-1z"/><path fill="#161d17" d="m1076 474 4 1v3h-5z"/><path fill="#171d17" d="M941 450h2v8h-3z"/><path fill="#1a231b" d="M287 440h5v3h-6z"/><path fill="#181f18" d="M143 431h3l-1 7h-3z"/><path fill="#151f16" d="M202 416h9l-1 2c-2.322.407-4.657.744-7 1z"/><path fill="#19231a" d="M212 401h4v4l-4 1-1-3 1-1z"/><path fill="#161b16" d="M941 366h2v8h-3z"/><path fill="#141812" d="M143 362h2v7h-3z"/><path fill="#101711" d="m947 356-2 1-1 2h-5v-2c2.709-1.354 5.01-1.065 8-1"/><path fill="#171f18" d="m117 346 4 1-1 3h-4z"/><path fill="#171e19" d="m39 346 5 1v2l-5 1z"/><path fill="#121712" d="M1043 341h2l1 7-3 1z"/><path fill="#131814" d="m620 321 3 1v6l-3 1z"/><path fill="#121812" d="m1202 316 3 1-1 7h-2z"/><path fill="#17201a" d="m873 294 4 1v4h-5l1-2 2 1v-2h-2z"/><path fill="#131913" d="m317 258 3 1c0 3.106-.54 4.353-2 7h-1z"/><path fill="#192118" d="m96 257 3 1-2 4h-2l-1-4z"/><path fill="#1d241d" d="m103 257 4 1-1 4-3-1z"/><path fill="#171c15" d="m577 243 3 1v6l-3 1z"/><path fill="#121812" d="M482 234h2c1.044 3.133.934 3.99 0 7h-3z"/><path fill="#171f18" d="M620 219h6l-1 3h-5z"/><path fill="#161d16" d="M940 209h3v8h-2z"/><path fill="#19211a" d="M372 205h5l-1 5-3-1 1-1-2-1z"/><path fill="#1d271f" d="m102 119 5 1v2l-5 1z"/><path fill="#161d16" d="M800 109h2v8h-3z"/><path fill="#131814" d="M479 109h5v3h-6z"/><path fill="#151c16" d="M940 109h3v8h-2z"/><path fill="#131913" d="M1202 99h2v8h-3z"/><path fill="#151d14" d="M799 99h3v8h-2z"/><path fill="#0f140f" d="M865 64h6v3l-7-1z"/><path fill="#171f19" d="M685 38h3l-1 5-3-1z"/><path fill="#121712" d="M724 2h1l1 9-3 1c-.125-6.625-.125-6.625 1-10"/></svg>