<svg xmlns="http://www.w3.org/2000/svg" width="1254" height="1254" viewBox="0 0 1254 1254"><path fill="#050605" d="M0 0h1254v1254H0z"/><path fill="#48f97b" d="M613.8 628.8h2.3l1.9.2a154 154 0 0 1-13.5 14.2l-4.4 4.2-6.7 6.3c-10.4 9-10.4 9-14.7 21.6l.3 3c0 2.7 0 2.7-1.4 4.9L572 688l-3.2 3.6-1.7 2-2.1 2.4-2.9 3.3-4.7 5.6q-7.7 9-15.8 18l-9 10.5a228 228 0 0 1-9.6 11.1q-6 6.6-11.6 13.6l-12.9 15.1-6 7-14 16.3q-12.8 14.6-25.2 29.7-7.8 9.4-15.9 18.6l-17.7 21C418 868 418 868 416 870q-.7 4.7-1 9.3c-.5 4.8-1.5 7.4-5 10.7q-4.2 2.9-8.6 5.3l-2.6 1.6-5.7 3.3-14.8 8.7-3.5 2-25 15.2-20.6 12.6q-12.2 7.2-24.2 14.8l-14.3 8.9-27.4 17.1-9.4 6-4.7 3-12.4 7.7-2.5 1.7-4.9 3q-5.3 3.3-10.3 7c-3.1 2.1-3.1 2.1-5.1 2.1a40 40 0 0 1 4.7-7.7l1.6-2 1.7-2.2 1.8-2.3 3.5-4.6 4.4-5.7 15.5-20 5.6-7q7.3-9.5 15-18.6 5-5.9 9.7-11.9a418 418 0 0 1 12.2-14.9l11.2-13.5 13.3-15.8q6.5-7.7 12.8-15.8 5.5-6.9 11.6-13.3 5-5.7 9.3-12 3.3-4 7.1-7.7l5.2-6.2q5.2-6.2 10.6-12.1 4.7-5.1 8.6-10.6 4-5 8.3-9.5l9-10.7 7.5-9 11-13.3a412 412 0 0 1 16.5-19q4.6-5.2 8.9-10.7 11.1-13.4 22.5-26.3l11-12.7 1.4-1.7 7.6-8.8 13.6-15.6q5.4-6 10.2-12.2l2.1-2.6 1.2-2c2.6-3.9 4.5-5.8 9.2-6.7H530l7.2.2q10.3 0 20.5.4l12.6.2 4.7.1c9.5.4 15.5-.5 22.8-7l4.8-4.8c3.5-3.5 6-6 11.2-5.7"/><path fill="#46f979" d="M636 628a16 16 0 0 1 9 0c4.2 2.9 7.7 6.7 11.2 10.3l1.8 1.7 2.7 2.7c5.4 3.7 12.2 2.9 18.5 2.8h7.3l33.4-.3h4.9c12.5-.4 12.5-.4 16.7 2.5q2.5 3 4.5 6.3l3 3.5 2.9 3.3 1.5 1.8 9.2 11q4.7 6 9.9 11.4 6.3 6.9 12.1 14.1l8.2 9.7 1.5 1.8 3.1 3.6 23.2 27.2 4.2 5q6.4 7.4 12.6 15 7.9 9.4 16 18.7 10.3 12 20.3 24.1l9.2 11q4.3 5 8.5 10.2 5.5 6.7 11.2 13.2 6.3 7.2 12.3 14.8 3.8 4.8 7.8 9.2 7.4 8.6 14.4 17.4l11.2 13.4 11.4 13.8 9.2 11.2 1.9 2.3 3.6 4.3 8.2 10 5.7 7a703 703 0 0 1 26.2 33l14.2 18.3 7 9 4.3 5.7-1 2-45.3-28.5a2286 2286 0 0 0-50.7-31.3L926.3 940l-14.4-8.9-13.1-8-17-10.3-16.1-9.9-4.8-2.9-7.8-4.8-2.3-1.4A32 32 0 0 1 840 884c-.4-3-.4-3-.4-6.3-1.1-9.8-7.3-15.6-13.7-22.6l-8.2-9.5-3-3.4-7.2-8.7q-10.6-12.9-21.6-25.3l-18.2-21.3q-5.6-6.6-11.3-13t-11-13q-11-13.4-22.4-26.4l-6-7.1q-7-8.1-14.2-16-6-6.6-11.3-13.5a83 83 0 0 0-6-6.2c-9.1-9-9.1-9-10.3-14.5 0-3.2.2-6 .8-9.2l-1.6-.6c-3.4-2-6-4.7-8.7-7.4l-1.8-1.8-3.7-3.8-5.8-5.7-3.6-3.7-1.8-1.7c-4-4-4-4-4-6.3l-1.7-.7c-3-1.7-5-3.8-7.3-6.3z"/><path fill="#48f97c" d="m1038 225 2 1-2 2.4a560 560 0 0 0-16 19.5l-10.6 13.1q-10.6 13-21 26.2-6.7 8.5-13.8 16.7-7.4 8.8-14.6 17.7l-3.2 4-1.6 2L943 345l-9.7 11.8-11.2 13.4-8.5 10.2-12 14.3-10.3 12-10 11.4q-5.6 6.4-11 13.2l-9 10.2q-3.6 3.9-6.7 8-5.9 7-12.1 13.7l-7 8.3a291 291 0 0 1-12.2 14q-6.8 7.5-13.2 15.2l-14 16-11.9 13.6-1.5 1.7-3.1 3.7-9.5 10.7a81 81 0 0 0-6.9 8.4 266 266 0 0 0-12.7 14.6l-4 4.8c-1.5 1.7-1.5 1.7-2.5 3.6a15 15 0 0 1-5 5.2q-6.6 1-13.3.5l-6.9-.2-19.6-.5c-20.8-1.6-20.8-1.6-39 6.3a76 76 0 0 0-6.7 8c-3 3.7-6.5 7.4-11.2 8.5l-2.2-.2-2.4-.2-1.7-.2a97 97 0 0 1 12-14q3.7-3.8 7.2-7.9l6.2-7 2.2-2.5 5-5c4.8-4.6 4.8-4.6 6.8-10.7v-3.2c0-7.2 3-10.2 7.7-15l3.4-3.2q3.2-3.4 6-7 6.3-7.7 13-14.7l6-6.8 7.4-8.3q6-6.4 11.5-13.1 5.9-7.1 12.2-13.8 5.8-6.3 11.1-13 5.2-6.2 10.7-12 6.3-6.9 12.3-14 7.5-8.9 15.5-17.5c6-6.4 12-13 16.8-20.3h2l.7-1.7a35 35 0 0 1 5.9-7.4 248 248 0 0 0 12.3-14.4c2.1-2.5 2.1-2.5 4.1-4.4 5.5-5.3 6-10.4 6.3-17.6.9-4.3 2.4-5.7 5.7-8.5l1.4-1.5c1.8-1.7 3.5-2.7 5.7-3.8q7.4-4.1 14.3-8.8 11-7.2 22.2-14 7.5-4.6 14.9-9.4 9-5.8 18.4-11.5l15.1-9.5c11-7 22-13.4 33.3-20l11.2-6.5 32.5-19 3.3-2 9.6-5.4 3-1.8 2.7-1.5 2.4-1.4z"/><path fill="#47f87a" d="M214 225c12.7 6 24.8 13 37 20l3 1.7c39 22.7 39 22.7 56 33.3l1.8 1 7.7 5 36.7 22.8q10.6 6.8 21.4 13.3l22.6 14 3 2c8.2 5.6 8.2 5.6 9.8 8.9v3c.6 11.5 5.3 17 13.2 25.1q4.4 4.7 8.5 9.7l11 12.4q4.5 5 8.5 10 6.2 7.6 13 14.6 6.1 6.6 11.8 13.8 3.8 4.4 8 8.3 3.3 3.5 6.2 7.3 6.8 8.1 14 15.8l8 9 6.8 7.5 14.7 16.7a669 669 0 0 0 17.9 20.1l12.4 14.2 1.6 1.9 3.2 3.8 1.5 1.7 1.4 1.6c1.3 1.6 1.3 1.6 3 3 2 2.3 1.5 4.5 1.4 7.5.4 8.5 5 12.4 10.9 18l3.4 3.9q4.6 5.3 9.6 10.6l10.1 11 1.6 1.8q2 2.6 3.3 5.7a16 16 0 0 1-9 0c-4-3.2-7.2-6.8-10.6-10.5q-3.7-3.8-7.9-7.2L587 584c-3-.2-3-.2-6.6-.1H574l-11.9.2-27.2.2h-4.6c-12.7.5-12.7.5-17.6-3.9q-4.2-4.3-7.7-9.4l-4.6-5.6-2.2-2.7q-3.5-4.2-7.2-8.2a217 217 0 0 1-9.4-11q-5.5-6.7-11.5-13-4.5-5-8.9-10.3-3.6-4.6-7.7-8.7-5.2-5.4-10-11.3-10.2-12.6-21.3-24.4a265 265 0 0 1-11.9-14q-3.7-4.5-7.8-8.8-6.4-7-12.3-14.3-3.5-4.2-7.3-8.3-5.6-6.2-11-13-3-3.8-6.3-7.3-5.8-6.4-11.1-13-4.3-5.3-8.8-10.3-7.7-9-15.1-18.2-4.4-5.5-9.2-10.7-5.9-6.5-11.2-13.5-5.4-7-11.2-13.7L288.5 318l-5.8-7q-9-11-17.7-22-5.3-6.8-10.9-13.2-5-5.9-9.6-11.9-6-7.8-12.6-15.4-5.1-6-10.1-12.4l-5.3-6.2c-2.5-3-2.5-3-2.5-5"/><path fill="#092b11" d="M676 681q7 5.7 12.8 12.6 5.7 7 11.9 13.6 6.3 6.8 12 14 3.6 4.4 7.3 8.3 6 6.6 11.5 13.5l9 10.5q5.8 6.5 11.2 13.3 4.4 5.4 9.3 10.7 6 6.6 11.5 13.5 7.6 9 15.5 18a833 833 0 0 1 19.7 23.2l8 9.4 13.9 16.5 1.8 2.2 4.6 5.7 1.6 2c2.5 3.7 2.2 8.2 2.6 12.5 1.4 6 4.8 9 9.9 12.2l4.8 2.8 5.4 3.2 2.8 1.6 14.5 8.8 5.9 3.5 21.3 13 6.9 4.2 23 14.1 9.5 6q24.6 14.9 48.8 30.1l-1 5h2l4.6 5.8 2.7 3.6 1.4 1.9q5 6.4 10.3 12.7l9 11 2.3 2.8 2.1 2.6 2 2.4a17 17 0 0 1 2.6 4.4c1 2.2 1 2.2 4 2.8l1 4 3 1-1 2q-10-5.6-20-11.7-16.7-10.2-33.7-20l-4.2-2.5-2.1-1.3-13-7.7-23.3-13.7-19-11.4q-5.6-3.3-11.4-6.4-4-2.4-7.3-5.3l-5-2.1q-4.8-2.4-9.1-5l-2-1.3-9.4-5.8q-7.2-4.6-14.8-8.7-7.3-4-14.3-8.3l-2.2-1.3c-5-3.1-5-3.1-6.2-6.5l-3-1v-2.5c-.7-12.3-7-18.8-15-27.5l-2.7-3-4.4-4.9c-5.9-6.5-5.9-6.5-5.9-9.1h-2l-4-4.8-2.5-3-1.3-1.6q-8-10.3-16.8-19.8C782 844 782 844 782 842l-3-1c-5-5.3-5-5.3-5-9l-1.8-.8a16 16 0 0 1-5.2-4.4l-1.6-1.9-1.7-2-3.5-4.1-1.7-2-7.4-8.4C750 807 750 807 750 805h-2c-4-5.4-4-5.4-4-8l-1.7-.6c-3.3-2-5.4-4.8-7.9-7.7l-1.5-1.9-3.3-3.9-7.4-8.8-1.4-1.6-7.4-8.6q-5.4-6.1-10.4-12.5c-1.9-2.3-1.9-2.3-3.8-4.1-1.2-1.3-1.2-1.3-1.2-3.3h-2q-3.4-3.7-6.3-7.8-2.6-3.2-5.7-6a25 25 0 0 1-9.1-19.4v-20.3l.1-8.5z"/><path fill="#082a10" d="m578 681 2 1-.3 15.1v5.1l-.2 7.4v2.3c-.2 7.2-3 10.8-7.7 15.8q-5.6 6-10.4 12.7L560 742h-2l-.7 2.2a26 26 0 0 1-5.5 7.6l-2.4 2.6-2.4 2.6-3.8 4.3-1.7 2q-2 2.2-3.8 4.7l-1.7 2h-2l-.7 2.1a30 30 0 0 1-6.4 8.6 170 170 0 0 0-12.3 14.5L513 797h-2l-.7 1.7c-4.2 7.7-11.2 14.3-17 20.8q-4.6 5.1-8.7 10.7L483 832h-2l-.7 1.7A101 101 0 0 1 462 856h-2l-.2 1.7c-1.1 3.2-3 5-5.3 7.4q-5.3 5.6-10.2 11.6l-8.2 10-1.7 2C433 890 433 890 431 890l-.2 1.7c-1.1 3.3-3.2 5.1-5.7 7.6-5.4 5.8-8 9.8-8.5 17.8-.3 3.5-.5 4.7-2.5 7.6a84 84 0 0 1-11.4 6.8c-2.8 1.4-2.8 1.4-5.2 3.5a42 42 0 0 1-8.6 5 51 51 0 0 0-9.9 6 139 139 0 0 1-9.8 5.4q-4.9 2.4-9.3 5.4a582 582 0 0 1-23.7 14q-7.8 4.8-15.8 9.1c-4 2.2-4 2.2-7.4 5.1h-4v2c-5.8 3-5.8 3-8 3v2l-1.9.9q-7.7 3.7-14.9 8.6-4.5 3-9.2 5.4l-4.8 2.8a17 17 0 0 1-6.2 2.3v2l-3.4 1.9-4.4 2.4-2.2 1.2a79 79 0 0 0-10 6.5l-5 2-4 3-4.1 2.3q-7.5 4.2-14.9 8.7c0-4.2 2.3-6 5-9l3-3.5 1.5-1.8 6-7.2 10.2-12.2q5.3-6.1 10-12.7c1.3-1.6 1.3-1.6 4-4.2 2.8-3 4.5-5.7 6.3-9.4l-1-2 1.8-1.1 12-7.5 16.4-10.3a1700 1700 0 0 1 49.7-30.4l3-1.8 14.7-9 16.8-10L387 903l3.2-1.9 9.5-5.7 3-1.7 2.7-1.7 2.5-1.5c2.3-1.6 3.6-3.1 5.1-5.5l.6-7c.8-8.8 5.1-13 11.4-19l3.8-4.7q7.6-9.3 15.5-18.4 9.3-10.5 18.2-21.4 10.3-12.7 21.3-24.7a178 178 0 0 0 8.1-9.7q4.3-5.5 9-10.5 6.1-6.7 11.7-13.7l12.9-15.1 4.5-5.3a525 525 0 0 1 16.7-18.8q5.8-6.4 11-13 4.9-5.7 10-11.1l8-9.1z"/><path fill="#56fa87" d="m1038 225 2 1-2 2.4a560 560 0 0 0-16 19.5l-10.6 13.1q-10.6 13-21 26.2a345 345 0 0 1-15.1 18.2c-1.4 1.6-1.4 1.6-2.3 3.4a16 16 0 0 1-5 5.2 72 72 0 0 1-15.4.9h-42.3c-6.5 0-12.9 0-19.3 1.1 6.8 1.2 13.6 1.3 20.4 1.6h3.7l8.9.4v1l-41 1v2l23 1v1h-2l-9 .4-3 .2q-9 .3-18 1.4c1.7-3.9 3.3-5 7-7q7.6-4.3 14.8-9 11.6-7.5 23.3-14.6 10-6 19.8-12.4a786 786 0 0 1 32.4-19.4l11.2-6.6 32.5-19 3.3-2 9.6-5.4 3-1.8 2.7-1.5 2.4-1.4z"/><path fill="#4df77e" d="M214 225c12.7 6 24.8 13 37 20l3 1.7c39 22.7 39 22.7 56 33.3l1.8 1 7.7 5 14.1 8.7 10.7 6.6 5.4 3.4 7.9 4.9q1.1.8 2.4 1.4l2.2 1.4 2 1.3c1.8 1.3 1.8 1.3 5.8 5.3h-31v-1l24-2c-9.1-.9-9.1-.9-18-.8l-4 .1-2 .1-13 .4-11.3.4c-26.6 1.4-26.6 1.4-33.7-4.8a56 56 0 0 1-7.8-11.2c-2-3.5-4.4-6.4-6.9-9.5l-2.7-3.4q-4.5-5.8-9.5-11.4-5-5.9-9.6-11.9-6-7.8-12.6-15.4-5.1-6-10.1-12.4l-5.3-6.2c-2.5-3-2.5-3-2.5-5"/><path fill="#55fa85" d="M970.7 923.9c2.3.1 2.3.1 4.7 2.2l2.5 2.8 1.3 1.6q4.6 5.2 8.8 10.9 4.1 5.3 8.5 10.6l13.5 17 3.5 4.6 5.2 6.7 6.3 8.2 2.5 3.2 1.2 1.6 11.3 14.7-1 2-45.3-28.5a2286 2286 0 0 0-50.7-31.3L926.4 940l-8.2-5-2.5-1.5-5-3-2.2-1.3-2-1.2-1.5-1.1v-2l46.6-.7 10-.2h3.4z"/><path fill="#49f97d" d="M613.8 628.8h2.3l1.9.2-1.1 1.3a63 63 0 0 0-7.2 9.4c-7.2 12-16.3 23.4-29.7 28.3-25.3 5.6-54.4 1.3-80-1 1.7-4.6 4-7.6 7.4-11 3.8-3.8 3.8-3.8 6.8-8.2 1.8-1.8 1.8-1.8 4.9-2.2h5.9l4.6.2h7.3a1214 1214 0 0 1 33.2.4l4.8.1c9.5.4 15.6-.6 22.9-7.1l4.8-4.8c3.6-3.5 6-6 11.2-5.6"/><path fill="#49f97c" d="m555 520.9 1.5 1.7 1.7 1.8 1.7 2a272 272 0 0 1 12.2 14.3c1.9 2.4 1.9 2.4 4.1 4.4 1.8 1.9 1.8 1.9 1.8 4.9l-5.3.1h-3c-2.7-.1-2.7-.1-5.7-2.1l1-2-2-2 1-1-3-1v-2l3-1-9-1v-1h10l-1-2h-83c3.3 1.1 6.2 1.3 9.7 1.6l3.6.2 2.7.2-1 2c-14.8 2.2-14.8 2.2-19.7-.4a43 43 0 0 1-5.3-6.6l-3.2-4.2-1.4-2a39 39 0 0 0-4.3-4.7L460 519v-2l34.2-.5 15.9-.2 15.3-.2 5.9-.1 8.2-.1h2.4c5.9-.1 9 .7 13 5"/><path fill="#4dfb7e" d="m722.6 680.4 13.5-.2 13-.2h5c13-.5 13-.5 18 3.3a55 55 0 0 1 5.9 7.7l-1 3h-34.8q-26.7.3-53.2-1l1-5-3-1 5-1-1-2c-2.6-.5-2.6-.5-5.6-.6l-3-.3-2.4-.1v-1c14.2-1.4 28.4-1.5 42.6-1.6"/><path fill="#53fa83" d="M636 628a16 16 0 0 1 9 0c4.2 2.9 7.7 6.7 11.2 10.3l1.8 1.7 2.7 2.7c5.4 3.7 12.2 3 18.6 2.8h7.3a1940 1940 0 0 0 40.6-.3c10.4 0 10.4 0 14.2 2.3 2.6 2.9 3.6 4.5 3.6 8.5l-31 .5-14.4.3-14 .2-5.3.1-7.4.1-2.2.1c-5.5 0-8.5-1.4-12.6-5l-1.9-1.8-2-2-2-2-2.1-2.1-2-2-1.8-1.8C645 639 645 639 645 637l-1.7-.7c-3-1.7-5-3.8-7.3-6.3z"/><path fill="#31f369" d="m517 665.3 5.3.1q6.9 0 13.8.4l14.1.3 20.6.6h2.2c4.9.2 4.9.2 6 1.3v13l-1-2h-89c6.7-13.5 14-14.2 28-13.7"/><path fill="#38f86f" d="m791 811 29.2-.1h26.6l5-.1h9c3.7 0 5 .1 8.2 2.2l-3 2 14 2-1 2c-2.5.4-2.5.4-5.6.6l-3 .3-2.4.1c3.3 1.1 6.2 1.3 9.7 1.6l3.6.2 2.7.2v2l-47.4.8-14.6.1-5.5.2c-14.4.4-14.4.4-19.7-3.3-5.8-6.2-5.8-6.2-5.8-10.8"/><path fill="#54f086" d="M586 570a16 16 0 0 1 7 5.3q4.9 5.7 10 11.2l10.1 11 1.6 1.8q2 2.6 3.3 5.7a16 16 0 0 1-9 0c-4-3.2-7.2-6.8-10.6-10.5q-3.7-3.8-7.9-7.2L587 584c-3-.3-3-.3-6.6-.2h-13.6l-32.4.1h-15c-3.4-.9-3.4-.9-9.4-8.9l76-1-2-1v-2z"/><path fill="#42f979" d="M463 813a30 30 0 0 1-6 9l-1.6 1.7-1.5 1.8-4.9 5.5-8.2.1h-48.6L361 831c.5-4.6.5-4.6 2.5-6.3 3.7-1 7.2-1 11-1h2.5l8.4-.1h5.9l15.3-.2 15.7-.1 30.7-.3-26-2v-1l23-2-28-2c3.4-2.3 4.8-2.3 8.8-2.4l3.5-.1 3.7-.1 3.6-.1q10.7-.4 21.4-.3"/><path fill="#51f084" d="M666.7 575.4h4.7l8 .1h5.4l14.5.2H714l29 .3a57 57 0 0 1-4 7c-2.8.3-2.8.3-6.5.2h-2l-4.4-.2h-9.3l-17.4-.4c-20.9-1.4-20.9-1.4-39.3 6.6a75 75 0 0 0-6.6 8c-3 3.6-6.5 7.3-11.2 8.4l-2.2-.2-2.4-.2-1.7-.2q5.3-7.5 12-14c3.9-3.9 7.7-8 10.6-12.6 2.7-2.8 4.3-3 8.1-3"/><path fill="#5bf68a" d="m974 967 14-.6 4.8-.2c13.1-.8 13.1-.8 18.1 3q3.3 4.3 6.1 8.8l2.6 3.4 6 7.8 4.7 6 3.3 4.4 1.6 2.1 1.5 2 1.4 1.7c.9 1.6.9 1.6.9 4.6l-40.6-25.5-7.7-4.8-2.6-1.7-9.3-5.9-4.8-3.1z"/><path fill="#5af88b" d="m264 966.4 4.9.2q6 0 12.1.4c-2.7 3-5.5 5-8.9 7.2l-2.9 1.8-3 1.9-6.6 4-3.3 2-15 9.5-2.7 1.7-12 7.7-2 1.3-5 3.3c-2.6 1.6-2.6 1.6-5.6 2.6a40 40 0 0 1 4.7-7.7l1.6-2 1.7-2.2 1.8-2.3 3.5-4.6 4.5-5.9 7.2-9.3 1.2-2.4c5.4-9.2 14.2-7.6 23.7-7.2"/><path fill="#3cf873" d="M430.3 769h6l15.6.3 15.9.2 31.2.5v1l-14 2 10 1c-2 2-2 2-4.4 2.2H488l-2.8-.1-2.1-.1 9 1v1l-6.2.7c-1.8.1-1.8.1-2.8 1.3l-7.3.1h-68.4l-6.3-.1c7.2-12.4 16.5-11.3 29.3-11"/><path fill="#3df874" d="M404.2 430.9h28q21 0 41.8 1.1v1h-8v2h7l-1 2h-5v2h10l1 2h-84c-1.1-5.6-1.1-5.6 0-9a45 45 0 0 1 10.2-1.1"/><path fill="#4bf77d" d="M961.1 284.4h6.8l12.3.3 2.4.1q3.9.4 7.4 1.2l-2 4-1 2.1a18 18 0 0 1-5 5.9c-5 1.1-9.8 1-14.8.8h-4.4l-11.3-.3-11.7-.1q-11.4 0-22.8-.4c13.4-13.6 25.7-14.2 44.1-13.6"/><path fill="#51f482" d="m1038 225 2 1-2 2.4a598 598 0 0 0-17.3 21.1l-1.3 1.7c-1.5 1.8-1.5 1.8-2.7 4.2-1.7 2.9-3 4.6-5.7 6.6-5.8 1.1-11.5.9-17.4.6l-4.9-.2-11.7-.4v-2l2.2-1.3 20.2-11.6 15.6-9.1 3.3-2 9.6-5.4 3-1.8 2.7-1.5 2.4-1.4z"/><path fill="#49fa7a" d="M732.6 493.8h2.7l8.7.1 6 .1 32.2.5 31.8.5c-3.6 5.8-3.6 5.8-7 8q-4.2.3-8.5.1h-2.6l-8.7-.1-6-.1-15.7-.2-16-.2-31.5-.5c4-7.2 6.3-8.5 14.6-8.2"/><path fill="#4dfb80" d="m809 396 1 2h88c-5 7-5 7-9 7.8h-7.5l-8.7-.1h-6l-15.9-.2-16.2-.2-31.7-.3q2.8-4.7 6-9"/><path fill="#35f86e" d="m690 532 1 2h3.1c60-1.8 60-1.8 80.9 0v2l-11 2 2 1v2h-2v2c-23 1.5-46 .7-69 0v-1h5l-1-3 28-1-40-1z"/><path fill="#58fc88" d="m371 415 35-.2 16.2-.1H438l6-.1h8.4l2.5-.1c3.6 0 5.8.2 8.7 2.3 1.5 2.2 1.5 2.2 1.5 5.2a4628 4628 0 0 1-66 .7h-6l-8.3.1h-2.4c-5.5 0-5.5 0-8-2.4z"/><path fill="#3ef874" d="M758.4 759.9h48.1l29.5.1v3l-1 1 4 2-1 2-31.9.1h-29l-5.5.1h-9.9c-3.7 0-6.5-.1-9.7-2.2 1-2 1-2 4-3l-4-2c1.8-1.8 4-1.1 6.4-1.1"/><path fill="#4bf87d" d="M830 372q4.2-.4 8.4-.3h33l16 .2 31.6.1c-1 3-1.8 4.8-4 7q-4.2.3-8.4.2h-33L826 379a57 57 0 0 1 4-7"/><path fill="#4efb80" d="m765 676 1 3h-90v-7l32.2-.6 29.3-.6 5.5-.1 7.7-.2h2.3c5.8 0 8.1 1.5 12 5.5"/><path fill="#37f56d" d="M317 332.9h14.7q19-.1 38.3.4h4.2l5.9.2h3.2c3 .5 4 1.2 5.7 3.5l-6 1 2 .4 2.4.5 2.5.5 2.1.6 1 2-29.1.1h-26.6l-5 .1h-9c-3.6 0-6.2-.2-9.3-2.2h5l1-3-3-.1-4-.3-3.8-.2-3.2-.4-1-2c4-1.3 7.8-1.1 12-1.1"/><path fill="#49fb7d" d="M450 402v3l-88 1v-3l9-1-2.6-.4-3.3-.5-3.4-.5-2.7-.6-1-2 33.3-.6 30.4-.6 5.7-.1 8-.2h2.4c5.7 0 8.3 1.3 12.2 5.5"/><path fill="#47fb7d" d="m397 785 1 2h86l-1 2c-2.7.4-2.7.4-6 .6l-3.4.3-2.6.1 11 2c-3 3-3 3-6.7 3.3H468l-8.5-.2-6-.1-15.5-.3-15.9-.2-31.1-.5c1.6-3.4 3.6-6.1 6-9"/><path fill="#54fc84" d="m418 469 35.4-.3h16.4l15.9-.2h14.5l2.5-.1c4 0 5.9.2 8.9 3 1.4 2.6 1.4 2.6 1.4 4.6a5291 5291 0 0 1-66 1.3l-5.9.1-8.2.2h-2.5c-4.4 0-6.7-.4-10-3.5-2.4-3.1-2.4-3.1-2.4-5.1"/><path fill="#51f27d" d="M214 225a489 489 0 0 1 41.6 22.7l4.2 2.4 1.8 1c4.3 2.6 4.3 2.6 5.4 5.9-26.1 2.3-26.1 2.3-32-2.5a43 43 0 0 1-6-8.8q-2.3-3.8-5.3-7l-2-2.5q-2.4-3.2-5.2-6.2c-2.5-3-2.5-3-2.5-5"/><path fill="#57fe8a" d="M744 757h89l2 4h-82l4 2-4 3c3.7 1.2 7 1.1 10.9 1.1H809l29-.1c-3-2-3.7-2.3-7-2.4l-2.3-.1-2.4-.1-2.4-.1-5.9-.3v-1l9.8-.8 2.7-.3q3.8-.4 7.5.1c2.6 2.4 2.6 2.4 4 5v2h-2.5l-23.7.3-12.1.2-11.8.2h-4.4A513 513 0 0 0 757 771l4.4.4c4.4.4 4.4.4 6.6 2.6l1 3h-4v2l9 1v1h-8l-1 2c-21-22.2-21-22.2-21-26"/><path fill="#42f776" d="M434 385c-1.6 1.6-3.3 1.2-5.5 1.3l-2.7.1-2.9.2h-2.8l-7.1.4 3.6.1 4.7.3h2.4l2.3.2h2.1c1.9.4 1.9.4 4.9 2.4a4723 4723 0 0 1-62.3.6h-13.4l-2.3.1c-3 0-5.3-.1-7.6-2-1.4-1.7-1.4-1.7-3.4-4.7l34.3-.5 16-.2 15.3-.2 5.9-.1 8.2-.1h2.5c5.6-.1 5.6-.1 7.8 2.1"/><path fill="#3be36b" d="M636 628a16 16 0 0 1 9 0c4.2 2.9 7.7 6.7 11.2 10.3l1.8 1.7 2.6 2.7c6 4.1 14.3 3 21.3 3h5l12.9.1H713q13 .3 26 .2l-1 3a2399 2399 0 0 1-46.1 1.4l-14.2.4-5.4.2c-15.4.7-15.4.7-21.5-4.9-5.8-6-5.8-6-5.8-9.1l-1.7-.7c-3-1.7-5-3.8-7.3-6.3z"/><path fill="#38e66a" d="M613.8 628.8h2.3l1.9.2-1.1 1.3-1.5 1.7-1.7 2-3.2 3.9c-9.5 11.9-9.5 11.9-17 13.3-5 .5-10.1.2-15.2 0l-5.6-.2-14.6-.5-15-.5-29.1-1 2-3c3-.3 3-.3 6.8-.2h6.7l7.3.1a1251 1251 0 0 1 33.3.4h4.8c9.5.4 15.6-.6 22.9-7.1l4.8-4.8c3.6-3.6 6-6 11.2-5.6"/><path fill="#084f17" d="M909 385c0 3.7-1.3 5.8-3 9h-2l-1 3-3 3-1 3-2.2 1.3c-3.5 2.1-5.8 5-8.4 8l-1.6 2-3.2 3.8-6 7.1-2.8 3.3-7.8 9a54 54 0 0 0-6 8.5c-4.3 4.8-4.3 4.8-8 6l-2 4q-3 3.6-6.3 7c-2 1.8-2 1.8-1.7 4l-5 5c-8.5 8-8.5 8-15.3 17.4q-3.1 4.6-7.4 8.3L810 503v2l-3.3 3.3q-3.3 3.3-6.3 6.8l-2.3 2.5c-2.1 2.3-2.1 2.3-3.7 4.7L793 524h-2l-.3 2.3c-.8 3.2-1.7 4-4.3 5.9a64 64 0 0 0-10.7 11.9L774 546h-2l-.7 1.7q-2.3 4-5.3 7.3l-3-1q9.3-11 19-21.8 7.4-8.2 14.6-16.8c17.5-20.4 17.5-20.4 24.6-28.1q6-6.6 11.6-13.6 4.4-5.2 9-10.2 3.4-3.9 6.6-8 5.9-7 12.1-13.7 4.8-5.5 9.3-11.1 5.5-6.5 11.2-12.7 14.3-16.3 28-33"/><path fill="#50fa81" d="M854.4 341.6h10.5l5.4.1q19 .2 37.7 1.3v1q-22 1.1-44 1v2l73-1-4-1 1-3h10l-2 4-1 2.2c-3.3 3-7 2.3-11.3 2.3h-3l-9.4-.1h-6.6l-17.3-.1-17.7-.1-34.7-.2c1.7-7.7 6-8.6 13.4-8.4"/><path fill="#45f779" d="M675 569.4h2.4l7.8.2 5.4.1 14.3.4 14.6.3 28.5.6c-1.4 3.2-2 4-5 6q-3.8.3-7.8.1h-2.4l-7.8-.1-5.4-.1-14.4-.2-14.6-.2-28.6-.5c3.7-5.6 6.2-6.9 13-6.6"/><path fill="#4bf67c" d="m319 286 2 1 5 3-1 2a1862 1862 0 0 1-44 1.5l-3.7.1c-8.4.2-8.4.2-11.2-2.2-1.4-2-1.4-2-3.1-5.4a34 34 0 0 1 8.8-1.2l2.9-.1h3l3.2-.2 6.7-.1 10.2-.3 6.4-.1 3.1-.1h2.9l2.5-.1c2.6.2 4.1 1 6.3 2.2"/><path fill="#4afb7f" d="M767 784h7v2l-2 2 83 1v-2h-4.4l-2.4.1c-2.2-.1-2.2-.1-4.2-1.1v-2c10.9-.8 10.9-.8 15.3 2.3 1.7 2.7 1.7 2.7 1.7 5.7l-85 1 13 1 1 2a33 33 0 0 1-13 1 41 41 0 0 1-10-11z"/><path fill="#3cf672" d="M319 354h94l1 7-1-4-1.9.2q-12.2 1.2-24.6 1h-38.9q-10.5 0-21-.5l-3.1-.2c-2.5-.5-2.5-.5-4.5-3.5"/><path fill="#4af97e" d="M413 767q4.3-.4 8.5-.3h33.4l16.2.2 31.9.1-2 2.8c-2 3-2 3-3.4 5.8-2 3-3.5 4.6-6.6 6.4-6.6.9-13.4-.1-20-1v-1l2.6-.2 3.3-.2 3.4-.3c2.6 0 2.6 0 3.7-1.3l-24-1v-1l34-1-9-1-1-2 10-1-83-1z"/><path fill="#4df57e" d="m960 270 2 1 9.2.1h17.4l14.4-.1a27 27 0 0 1-6 8 34 34 0 0 1-11.5.8H982l-10.5-.3-7.1-.1-17.5-.4c2.5-2.6 5-4.4 8-6.2l2.7-1.7z"/><path fill="#5ef98b" d="m293 270 6 3.4 3.4 2 2.6 1.6v1l-20.2.9-6.8.3-10 .4-3 .2c-7 .1-7 .1-10-2.6a46 46 0 0 1-4-6.2h23.5l8.4.1h2.7l6.4-.1z"/><path fill="#4ffb80" d="m487.8 693.1 3.3.3q4 .2 7.9.6l-4 1 1 3-20 1a85 85 0 0 0 13.2 1.1h30.6c20.6 0 20.6 0 41.2-1.1-.8 2-.8 2-2 4-3.8 1.3-7.4 1-11.3 1H545l-8.4-.1h-5.9l-15.3-.3-15.7-.2-30.8-.4c4.9-9.9 8-10.9 18.8-9.9"/><path fill="#50fa83" d="M354 395h89l1 3-85 1 21 2v1c-17 3-17 3-21.8.6-4.2-4.2-4.2-4.2-4.2-7.6"/><path fill="#5afb87" d="M689 694h11v3h-6v2q15 1.4 29.9 1.2h52c3-.2 4.6-.6 7.1-2.2l3 3v2h-79v3l4 1-7 2 6 2-1 2c-3.8-.1-5.7-1.4-8.3-4l-3.4-3.8-1.7-2c-2.8-3-4.7-5.4-6.6-9.2"/><path fill="#5cfb8b" d="M899.5 311.7H928l13.8.2 27.2.1-1 2h-2.6l-24 .3-12.3.2-12 .2h-4.5c-10.8.1-10.8.1-21.6 1.3 6.8 1.2 13.6 1.3 20.4 1.6h3.7l8.9.4v1l-41 1v2l23 1v1h-2l-9 .4-3 .2q-9 .3-18 1.4c1.8-4.2 3.9-5.4 7.9-7.6s4.1-2.2 7.8-5c3.2-2 6.2-1.8 9.8-1.7"/><path fill="#3af46f" d="m538 503 3 2v2q-17.4 1.2-34.8 1.1h-30.7L450 508l-1-3a224 224 0 0 1 25.8-1.1H512q13.1 0 26.1 1.1z"/><path fill="#5cf987" d="M377 326.3c10.3 0 17.8 6 26 11.7l2 1.4 5 3.6v2l-32-1v-1l3.7-.2 4.9-.2 2.4-.2h2.4l2.2-.2 9.4-1.2-36-2v-1l3.4-.2 4.3-.2 2.3-.2q5-.2 10-1.4c-2-2-5.6-1.3-8.3-1.3h-2.2l-7-.3h-4.8L353 334v-2l34-1-14-1-3-2c1.9-1.9 4.4-1.6 7-1.7"/><path fill="#3af471" d="M317 882.5h4.7l2.7.1h3l9.5.2 6.7.1 17.5.3 17.9.2 35 .6-2 4-100-1c3-4 3-4 5-4.5"/><path fill="#51fb83" d="M691 531h91c-3 6-3 6-5 8-3.1.4-3.1.4-6.7.3l-3.6-.2-2.7-.1-1-2c4-1 7.8-1 12-1v-2h-84z"/><path fill="#4ffc81" d="M951 897v2l-35 .6-16.2.3-15.7.2-6 .1-8.4.2h-2.5c-3.8 0-5.7 0-8.7-2.4l-1.5-2 35.4-.5 16.5-.2 15.9-.2 6-.1 8.5-.1h2.6c3.9-.1 5.8-.1 9.1 2.1"/><path fill="#38f36e" d="M859 348.9h47.5l30.5.1 1 2c-2 2-2 2-5.8 2.2h-8l-9.2-.2-6.4-.1-16.8-.2-17.1-.2-33.7-.5v-2q9-1.2 18-1.1"/><path fill="#4dfb81" d="M378 808h89l-1 3-90 1z"/><path fill="#54fc86" d="M314.7 895.9h50.7l32.6.1c-2.4 2.8-2.8 3-6.8 3.4h-7.6l-8.8-.1h-22.1l-16.5-.2-32.2-.1v-2c3.3-1.7 7-1.1 10.7-1.1"/><path fill="#4cfa7f" d="M717 502h90l-1 4-90-1z"/><path fill="#3bf470" d="M874 883.9h36.1l29.9.1 1 2q-8.1 1.3-16.2 1.1h-50.4L842 887l-1-2c11-1.1 22-1.1 33-1.1"/><path fill="#51fa82" d="M750 464h91l-2 3q-4.2.4-8.4.3h-33l-16-.2-31.6-.1z"/><path fill="#4afb7f" d="M441 734h90l-2 3q-4.2.4-8.4.3h-33l-16-.2-31.6-.1z"/><path fill="#48fb7c" d="M453 406v2h-89l-1-3 33.9-.5 15.7-.2 15.2-.2 5.8-.1 10.5-.2c3.9 0 5.6 0 8.9 2.2"/><path fill="#4ffc83" d="M336 858h89l-1 3h-89z"/><path fill="#53fd87" d="M676 679h91l1 3h-76v4l-3 1 1 4c-2.2.3-2.2.3-5 0-2.5-2.1-2.5-2.1-4.8-4.9l-2.4-2.7C676 681 676 681 676 679"/><path fill="#4efc84" d="M821 848h89l1 3-34.3.2h-31.3l-5.9.1h-10.7c-2.2 0-2.2 0-5.8-.3z"/><path fill="#56fc87" d="M342 381h89l1 3-34.3.2h-31.3l-5.9.1h-10.7c-2.2 0-2.2 0-5.8-.3z"/><path fill="#5afc8a" d="M586 570c3.4 1.2 5.1 3 7 6v2l-31.6.2h-28.8l-5.4.1h-9.8c-2 0-2 0-5.4-.3l-2-3 76-1-2-1v-2z"/><path fill="#3bf671" d="M694 528q4.3-.4 8.6-.3h33.7l16.5.2 32.2.1-2 4-91-1z"/><path fill="#3af670" d="m452 720 1 2h56.7l5-.1c16.4 0 16.4 0 24.3 1.1l-1 2h-89z"/><path fill="#28f364" d="M426.2 442.8H442l24.5-.1H481c2 0 2 0 5.1.3l2 3-79.6 1H397l-1-3q15-1.3 30.2-1.2"/><path fill="#3af570" d="M864.3 363.9h33.1l27.6.1v3c-3.2 1.6-6.8 1-10.3 1h-2.6l-8.5-.1h-6l-15.5-.3-16-.2-31.1-.4 1-2c9.3-1.5 18.8-1.1 28.3-1.1"/><path fill="#3bf572" d="M842 359h87v3h-86z"/><path fill="#30f267" d="M533 497c-9.8 1.2-19.6 1.2-29.5 1.2h-16.4l-25.2.1h-14.7c-2 0-2 0-5.2-.3l-2-3 35-.5 16.3-.3 15.7-.2 6-.1 8.4-.1 2.5-.1c4.3 0 6.3 0 9.1 3.3"/><path fill="#43fa77" d="M492 674h86v3h-86z"/><path fill="#3cf571" d="m508 469 3 3c-3.8 2.5-7.7 2.3-12.2 2.2h-16.2l-30-.1-29.6-.1-1-2q8-1.2 16-1.1h42.7l27.3.1z"/><path fill="#37f56e" d="M508 469c-9.9 1.2-19.7 1.1-29.6 1.1H445l-28-.1-1-3 34.7-.5 16-.3 15.6-.2 5.9-.1 8.3-.1 2.5-.1c4.2 0 6.2 0 9 3.3"/><path fill="#56fb87" d="M683.2 546.9h5c4 0 7.8 0 11.8 1.1v1a69 69 0 0 1-14.9 1H677v2h87l-1 3h-87c0-8.1 0-8.1 7.2-8.1"/><path fill="#39f670" d="m798 716 3 3v1h-90l-1-2q6.4-1.1 13-1.1h49q13-.1 26 1.1z"/><path fill="#38f370" d="M345.2 368.9h46.1l29.7.1 1 2a123 123 0 0 1-16.3 1.2h-2.3l-7.7.1h-5.3l-14 .2-14.4.2-28 .3-1-3c4-1.3 8-1.1 12.2-1.1"/><path fill="#33f16c" d="M492 554h44l13.5-.1h5.1c16.5 0 16.5 0 24.4 1.1v2l-85 1z"/><path fill="#54fb85" d="M322 357h91c2 5 2 5 2 8l-25-1v-1c4.6-1.2 9-1.1 13.8-1h8.2v-2h-3.3l-31 .2h-31.3l-5.9.1h-10.7c-2.2 0-2.2 0-5.8-.3z"/><path fill="#39f36d" d="m712 507 1 2h45.4l13.9-.1h14.9q5.9 0 11.8 1.1l-1 2h-41.2l-12.7.1h-4.8A359 359 0 0 1 709 511z"/><path fill="#34f36a" d="M893.8 328.9h52.9q4.2 0 8.3 1.1c-1 1.5-1 1.5-3 3a70 70 0 0 1-8.2.2h-2.6l-8.3-.1-5.8-.1-15.2-.3-15.5-.2-30.4-.5 1-2c8.5-2 18-1.1 26.8-1.1"/><path fill="#57fa8a" d="m241.3 986.3 2.2.2 5.5.5a54 54 0 0 1-13.7 10.4q-9 5.3-17.6 11.5c-1.7 1.1-1.7 1.1-3.7 1.1 2.2-4.7 5.3-8.5 8.4-12.6l1.7-2.3 1.7-2.2 1.6-2c4.3-5 7.5-5.2 13.9-4.6"/><path fill="#31f46a" d="m871 801.5 1 1.5q-15 1.3-30 1.3h-5.1l-13.4.2-13.7.2-26.8.3-1-3c9.2-1.1 18.4-1.3 27.7-1.4h2.6l13.2-.3 24.2-.4h5l7-.2h2.2c3 0 4.7 0 7 1.8"/><path fill="#37f46f" d="m424 753 1 2h56.7l5-.1c16.4 0 16.4 0 24.3 1.1v1c-8.6 1.2-17.2 1.1-25.8 1.1h-53.6A84 84 0 0 1 421 757z"/><path fill="#4afa7e" d="M676 669h82l1 3h-83z"/><path fill="#36f46e" d="M745.4 489.9h44.8l28.8.1c-2.4 3-3.5 4-7.4 4.5l-4-.1h-2.4l-7.4-.2h-5.1l-10.9-.3-27.1-.4h-2.5l-7.2-.2h-2.1q-7-.3-13.9-1.3v-1a111 111 0 0 1 16.4-1.1"/><path fill="#52fc83" d="m481 541 15 3v1l-8 1 6 2-2 1v3h87v3l-33.9.2-31 .1h-5.7c-16 .3-16 .3-20.9-3.8a40 40 0 0 1-6.5-8.5z"/><path fill="#4efb81" d="M505.6 668.9h44.1l28.3.1v3h-82v-2c3-1.5 6.2-1.1 9.6-1.1"/><path fill="#3ff673" d="M756 457h44.4l13.6-.1h5.2c9 0 17.9 0 26.8 1.1l-2 3q-4.2.4-8.4.2H833l-8.7-.1-6-.1-31.8-.5-31.5-.5z"/><path fill="#3df471" d="m461 416 4 4h-45.1l-13.8.1H401c-8.7 0-17.3 0-25.9-1.1v-1c8-1.3 16-1.1 24-1.1h51.5q5.3.2 10.5 1.1z"/><path fill="#35f36c" d="M319 349h44.8l13.7-.1h14.7q6 0 11.8 1.1v2h-44.1l-13.5.1H332q-7 0-13.9-1.1z"/><path fill="#3af670" d="m776 690 2 1-1 3h-34.8q-26.7.3-53.2-1v-2h64.2l5.8.1h10.4c3.6.4 3.6.4 6.6-1.1"/><path fill="#3bf672" d="M710 680.8h15.7l24.2-.1H764c2 0 2 0 5 .3l2 3h-45l-13.8.1H707c-9 0-18 0-27-1.1v-1q15-1.4 30-1.2"/><path fill="#38f670" d="m902 839 3 3c-3.7 2.5-5.6 2.2-10 2.2h-52.3A200 200 0 0 1 818 843v-1c8.7-1.3 17.5-1.1 26.3-1.1h31.5l26.2.1z"/><path fill="#3ef672" d="m781 696 2 2c-3.5 3.4-6.3 3.4-11 3.3h-26.7l-12.9-.2-25.4-.1v-2h-10v-1h3l27.2-.3 14-.2 13.6-.2h12.4l2.1-.1q4.6 0 9-.8z"/><path fill="#0a3f17" d="M638 632c3.9 2.5 7 5 10 8.5q6.6 7.4 13.8 14.4l4.5 4.6 5.6 5.5c2 2 2 2 4.1 3v12h-3l-.2-2.1c-.8-2.9-1.5-4-3.4-6-2.4-2.9-2.4-2.9-2.4-4.9l-3-1c-2-2.1-2-2.1-4.1-4.7l-2.2-2.7a15 15 0 0 1-2.7-7.6l-1.8-.3c-2.5-.8-3.5-1.8-5.2-3.7l-2-1v-4l-1.9-.2-2.1-.8-2-5-3-1z"/><path fill="#083b15" d="m617 630 2 2-1.3 1.8-3 4q-4 5.5-8.3 10.6l-1.6 2c-2.2 2-4 2.1-6.8 2.6-2 2-3 3.4-3.3 6.3-.9 3.4-2.4 5.3-4.6 8l-2 2.6C586 672 586 672 583 673c-2.2-.4-2.2-.4-4-1 .5-4.1 1.6-6 4.5-9l2.3-2.2 2.4-2.4 2.5-2.4 7.9-7.8 5.3-5.3z"/><path fill="#3af66f" d="M892 826.5c1 1.5 1 1.5 1 2.5h-42.4l-13 .1h-15.8Q816 829 810 828c3.7-2.3 7.2-2.3 11.4-2.4h2.2l7.3-.1 5-.1 10.7-.1 24.1-.4h5l7-.2h2.1c3 0 4.8 0 7.2 1.8"/><path fill="#35f76e" d="M400 782h88l-1 2a525 525 0 0 1-43.3 1.1H420q-10.5 0-21-1.1z"/><path fill="#37f36e" d="m809 396 1 2h88l-1 2a737 737 0 0 1-55.5 1.1c-11.5 0-23 0-34.5-1.1z"/><path fill="#71fb98" d="M214 225q13.5 6.4 26.4 13.9l2.6 1.4 2.3 1.4 2.1 1.2c1.6 1.1 1.6 1.1 2.6 3.1-16.6 2-16.6 2-22-1.2q-4.6-4.5-7.9-10a47 47 0 0 0-3.9-5.1C214 227 214 227 214 225"/><path fill="#37f76f" d="M415 764q4.3-.4 8.5-.2h2.6l8.8.1 6 .1 16 .3 16.2.2 31.9.5-1 2a1143 1143 0 0 1-56.2 1.1h-16.5A158 158 0 0 1 413 767z"/><path fill="#52fb83" d="M744 757h89l2 4h-3l-28.8-.1h-29l-5.4-.1H759c-4.3 0-7.8.6-11.9 2.2-3-3.7-3-3.7-3-6"/><path fill="#37f56f" d="M455 717c2.7-.4 2.7-.4 6.1-.4h12.6l9.3.1h11.7q25.2-.1 50.3 1.3l-2 3q-4.2.4-8.5.2H532l-8.8-.1-6-.1-16-.3-16.2-.2-31.9-.5z"/><path fill="#38f26f" d="m927 869 3 3a697 697 0 0 1-58 1.1h-11.3q-10.4 0-20.7-1.1l-1 3v-5h43.3l13.2-.1h5c9 0 17.7 0 26.5 1.1z"/><path fill="#36f56f" d="m350 840 1 2 1.9-.2q12-1.1 24-1H414q12.6 0 25 1.2v1c-9.9 1.2-19.7 1.1-29.6 1.1H376l-28-.1z"/><path fill="#54fa83" d="M451 507h91l1 3h-80c3 1.5 6.3 1.4 9.6 1.6h2.2l5.2.4v1l-15 2-2.6.3c-2.8.3-4.8 0-7.2-1.6q-2.4-2.1-4.2-4.7z"/><path fill="#38f66f" d="M813 836h87l1 2c-9.7 1.2-19.4 1.1-29.1 1.1H839l-27-.1z"/><path fill="#3cf873" d="M417.2 447.9h44.3l28.5.1 1 2q-13.8 1.3-27.6 1.1h-52q-4.7-.1-9.4-1.1v-1q7.5-1.2 15.2-1.1"/><path fill="#3bf56f" d="M311 323.8h25.8l24.6-.1h14.4c4.3 0 5 0 8.2 3.3h-88l-1-2q8-1.2 16-1.2"/><path fill="#38f570" d="M516.5 567.9h42.3l27.2.1 1 2c-3.8 1.2-7.6 1.2-11.5 1.2h-2.3l-7.4.1h-5.2l-13.6.2-13.8.2-27.2.3-1-3c3.8-1.2 7.6-1.1 11.5-1.1"/><path fill="#36f36e" d="M743 755h89l1 2q-16.4 1.2-32.9 1.1H769l-26-.1z"/><path fill="#55fc85" d="m937.6 880.9 1.4 2.1-1 2h-97v-3h3.2l29.6-.3 15.2-.1q7.4 0 14.7-.2h15.8c4.8-.2 9-.9 13.6-2.2 1.9-.2 1.9-.2 4.5 1.7"/><path fill="#2af364" d="m763 675 3 3v1h-90v-2q22-1.3 44-1.1h2.9q20 0 40.1 1.1z"/><path fill="#36f36e" d="m670 566 1 2h34.2c30.8-.2 30.8-.2 44.8 1l-2 3c-3 .3-3 .3-7 .3h-2.2l-7.2-.2h-5l-10.5-.2-13.5-.3-12.8-.2h-2.4l-7-.1-4-.1q-4.2-.2-8.4-1.2z"/><path fill="#37f76e" d="M774 770h60v1l-28 2 22 1v1q-17.7 1.3-35.5 1H775l1-3h13l-15-1z"/><path fill="#35f46d" d="M676 559h39.8l12.3-.1h4.6q12.7-.2 25.3 1.1c-2.5 2.5-4 2.2-7.4 2.2h-32.3l-14.6-.1-28.7-.1z"/><path fill="#39f572" d="m745 654 3 3-1 2h-74v-2c2.9-1.4 5.4-1.1 8.7-1.1h38.5l24.8.1z"/><path fill="#37f56e" d="m733 483 1 2h44.1l13.5-.1H806q7 0 13.9 1.1v1q-6.4 1.2-12.9 1.1h-48.9q-13.6.1-27.2-1.1z"/><path fill="#36f56c" d="M404.2 430.9h28q21 0 41.8 1.1v1h-8l1 3q-6.8 1.2-13.8 1h-3.9l-4.2-.1h-4.3l-11.4-.3-11.6-.2-22.8-.4v-1l63-1-64-1v-1a45 45 0 0 1 10.2-1.1"/><path fill="#39f46d" d="M313.9 328.9h45.6c20 0 20 0 27.5 1.1l1 2-30.4.1H330l-5.2.1h-9.5c-3.7 0-5.2-.1-8.3-2.2 1.8-1.8 4.4-1.1 6.9-1.1"/><path fill="#3ef574" d="m899 308 1 2 2-1 6.5-.1h37.4l24.1.1v3h-76z"/><path fill="#39f26d" d="M914.9 313.9h29l24.1.1c-2.3 3-3.5 4-7.3 4.4h-6.1l-7.2-.2-5-.1-13-.3-13.3-.2-26.1-.6 1-2c7.8-1.6 16-1.1 23.9-1.1"/><path fill="#38f770" d="M785 806h44l13.4-.1h14.5c4.9 0 4.9 0 7.1 1.1v2l-30 .2h-27.4l-5.1.1H792c-2 0-2 0-5.1-.3z"/><path fill="#46f779" d="m595 578.5 1 1.5c-16.3 1.3-32.6 1.1-48.9 1H514l-1-3 31.1-.5 14.5-.3 14-.2 5.3-.1 7.4-.1 2.2-.1c5 0 5 0 7.5 1.8"/><path fill="#37f36c" d="M293.8 313.9H339c18.4 0 18.4 0 24 1.1l1 2h-74l-1 2-2-4c1.8-1.8 4.4-1.1 6.8-1.1"/><path fill="#55fc86" d="M323.1 886h2.9l9.4.1h6.5l17.2.3 17.5.2 34.4.4-1 3h-99l1-3c3.4-1.7 7.4-1 11.1-1"/><path fill="#45fa79" d="M779.3 432.9h5.5l2.2.1-2 3v2h1.7a1525 1525 0 0 1 50.2-1.6h7.7l18.4-.4-7-1c3-2 3.7-2.2 7.2-2.1l3.8.1a57 57 0 0 1-4 7q-4.2.4-8.4.2H852l-8.7-.1-6-.1-31.8-.5-31.5-.5c2.3-6 2.3-6 5.3-6.1"/><path fill="#3af66e" d="M353.6 343.9h31.3l26.1.1 1 3-33.5.1h-30.6l-5.8.1h-10.4c-5.5 0-5.5 0-7.7-2.2a268 268 0 0 1 29.6-1.1"/><path fill="#53fc84" d="M840 872h90l1 3h-91z"/><path fill="#3cf272" d="m284 920 1 2h70c-5.6 4.5-5.6 4.5-11.2 4.4h-3.7l-4-.2h-4l-8.6-.3-11-.2-10.5-.2-4-.1-3.7-.1-3.3-.1q-4.5-.3-9-1.2z"/><path fill="#54fc85" d="M843 886h99v3h-98z"/><path fill="#31f368" d="M849 339c2.5-.4 2.5-.4 5.6-.4H866l8.4.1H885q23.5 0 46.9 1.3l-1 2h-84z"/><path fill="#37f56d" d="m873 324 2 1 5.4-.7c5.8-.6 11.7-.4 17.6-.4h27.3l22.7.1 1 2q-6.5 1.2-13.1 1.1h-38.3L873 327z"/><path fill="#4dfd82" d="M457 715h90l-1 3h-90z"/><path fill="#54fb86" d="m353 838 88 1-1 3h-89z"/><path fill="#38f36b" d="M471.3 508.9h44.3l28.4.1 1 2a758 758 0 0 1-47.2 1.1h-23.2q-9.8 0-19.6-1.1v-1a111 111 0 0 1 16.3-1.1"/><path fill="#54fb83" d="M758 455h90l-1 3h-90z"/><path fill="#0a4917" d="m974 306 2 3-4.4 5.5-2.4 3-2.2 2.5h-2l-2 5h-2l-.7 1.7q-2.4 4-5.4 7.4-4.5 5.3-8.8 10.8-6.7 8.3-13.8 16.5l-2.7 3.3-3.6 4.3h-2l-.7 1.6c-1.7 3.2-4 5.7-6.3 8.4l-2-1c13.2-16.1 13.2-16.1 19.9-24l10.9-13.2q11.1-14.1 22.8-27.7 3-3.4 5.4-7.1"/><path fill="#55fb86" d="M538 502v3h-90l-1-3 34.3-.4 15.9-.2 15.3-.2 5.9-.1 8.2-.1h2.4c3.3 0 5.9 0 9 1"/><path fill="#54fc84" d="M907 385v3c-3.8 1.3-7.3 1.1-11.2 1.1h-47.4L818 389v-2c3.2-1.6 6.7-1.2 10.2-1.2h2.6l8.4-.1h5.9l15.4-.2 15.7-.2z"/><path fill="#54fc86" d="M357 833h89l-1 3h-89z"/><path fill="#52fc84" d="M740 752h89l2 4h-89z"/><path fill="#4efc83" d="M488 679h90v3h-91z"/><path fill="#38f26c" d="m942 887 3 3v1l-37.8.5-17.5.3-17 .2-6.4.1-9 .1-2.8.1H850c-1.9-.3-1.9-.3-4.9-3.3h97z"/><path fill="#53fc85" d="m810 730 5 5v2l-90-1-1-2 78-1v-1h8z"/><path fill="#50fc83" d="M798 715v3h-89l-1-3 33.4-.4 15.6-.2q7.4-.2 15-.2l5.6-.1 8-.1h2.4q5-.3 10 1"/><path fill="#3df473" d="M972 922v2q-5 1.3-10.4 1.3h-3.9l-4.2.1h-2.2l-11.2.3-20.6.4h-4.3l-6 .2h-3.4c-2.8-.3-2.8-.3-4.7-1.8L900 923c3.3-1.1 6-1.2 9.5-1.2h2l6.4-.2h4.5l9.3-.2 12-.1 9.3-.2h4.5l6.2-.1h3.5c2.8 0 2.8 0 4.8 1"/><path fill="#4ffc81" d="M732 743h90v3l-88 1z"/><path fill="#64f78d" d="M636 628a16 16 0 0 1 9 0c4.3 3 7.8 6.8 11.4 10.5l5 4.3 2.6 2.2v2c-5.5.2-10.3.2-14.7-3.4q-2.3-2.2-4.3-4.6v-2l-1.7-.7c-3-1.7-5-3.8-7.3-6.3z"/><path fill="#55fc87" d="M434 487h91v3l-89 1z"/><path fill="#35f26c" d="M288.5 308.9h26.7q19.9 0 39.8 1.1l1 2h-69l-1 3-3-5c1.6-1.6 3.3-1.1 5.5-1.1"/><path fill="#5afb88" d="M827 376q27 0 54.1.5l11.5.1 22.4.4v2h-89z"/><path fill="#53fc85" d="m926 867 1 4-89-1v-2l44-.6 18.5-.2z"/><path fill="#56fc87" d="M361 828q27 0 54.1.5l11.5.1 22.4.4v2h-88z"/><path fill="#50fb7f" d="m293 322 32.7-.2h29.8l5.6-.1h10.2c5.2 0 5.2 0 7.7 1.8l1 1.5-33.1.2h-30.3l-5.6.1h-10.4c-2.1 0-2.1 0-5.6-.3z"/><path fill="#68f891" d="m989 977 13.3-.3 3.8-.1h3.6l3.4-.2c2.9.6 2.9.6 5.3 3 1.6 2.6 1.6 2.6 1.6 5.6-21.8 1.4-21.8 1.4-29.5-5.4-1.5-1.6-1.5-1.6-1.5-2.6"/><path fill="#35f26b" d="m307 892 1 2h94c-3.1 3.1-6.9 2.3-11 2.3h-3l-9.3.1h-6.4l-17 .2-17.4.1-34 .3z"/><path fill="#5afc89" d="m779 798 90 1v2l-88 1z"/><path fill="#55fd86" d="M712 720h90v3l-33.9.2h-30.9l-5.8.1H721c-5.6 0-5.6 0-8.9-3.3"/><path fill="#55fc88" d="M696 526h91l-1 2-91 1z"/><path fill="#34f16a" d="m318 879 96 1v2h-97z"/><path fill="#033d0f" d="M684.2 582.4h4.8l12.4.2 12.7.1 24.9.3-1 2h-2.4l-22 .3-11.4.1-11 .2h-10l-3.3.1a15 15 0 0 0-6.9 2.3l-3.2.6c-5.3 1.4-9 5.7-12.8 9.4l-2-1 3.6-3.6 2-2 2.4-2.4 1.2-1.5c5.9-6.5 14-5.3 22-5"/><path fill="#50fc81" d="M414 464h90l1 3h-90z"/><path fill="#33f169" d="m311 887 1 2h96l-1 3-98-1z"/><path fill="#55fc86" d="M386 799h89l-1 3-89-1z"/><path fill="#53fc85" d="m806 725 1 3-90-1v-2l31.7-.4 14.7-.2q7.1-.2 14.3-.2l5.4-.1 7.6-.1h2.2q6.6-.1 13.1 1"/><path fill="#51fb82" d="M802 405h90l-2 3q-4.2.4-8.4.3h-33l-16-.2-31.6-.1z"/><path fill="#30f266" d="M949 895c-2 2-6.6 1.2-9.5 1.3h-2.7l-28 .4-16.6.2-12.8.2h-6l-8.6.2h-2.6c-5.8 0-5.8 0-8-1.8L853 894l36.7-.5 17-.2 16.4-.2 6.3-.1 8.7-.1h2.7c6-.1 6-.1 8.2 2.1"/><path fill="#51fc86" d="m918 857 1 4h-88l-1-3 77.9-1z"/><path fill="#37f56e" d="m771 684 3 3v1q-14.6 1.4-29.1 1.1h-2.3q-25.8-.1-51.6-1.1c2.5-2.5 3.8-2.2 7.2-2.2h17.3l27.9.1 27.6.1z"/><path fill="#52fb82" d="M841 352h95l-1 3-94-1z"/><path fill="#4ffd84" d="M358.3 842.9H407l31.1.1-2 3q-4.1.5-8.3.3h-32.6l-16-.2-31.1-.1v-2c3.2-1.6 6.8-1.1 10.3-1.1"/><path fill="#50fd84" d="m809 833 89 1 1 3h-88z"/><path fill="#54fb86" d="m811 395 88 1v2h-89z"/><path fill="#58fb88" d="M925 296.9h34.1l21.9.1-1 3h-64v-2c3.3-1 5.6-1.1 9-1.1"/><path fill="#4de777" d="M613.8 628.8h2.4l1.8.2-6 7-2.4 3c-6.8 7.6-6.8 7.6-12 8.7q-4.4 0-8.6-.7 7.2-7.4 15-14l2.5-2.3c2.8-1.9 4-2.1 7.3-2"/><path fill="#48d169" d="M652 615h38v5h-38z"/><path fill="#30f569" d="m460 711 1 2 90-1c-4 4-4 4-7.9 4.4h-7.4l-8.6-.2-6-.1-15.6-.3-16-.2-31.5-.6z"/><path fill="#5afc8d" d="M766 446h90v2l-91 1z"/><path fill="#33f169" d="M934 877h-94v-2l35.4-.5 16.5-.3 15.9-.2 6-.1 8.5-.1 2.6-.1c5.8 0 5.8 0 9.1 3.3"/><path fill="#59fc89" d="M714.3 516h2.6l8.5.1h6l15.5.3 16 .2 31.1.4v2h-90v-2c3.2-1.6 6.8-1 10.3-1"/><path fill="#32f169" d="m303 897 1 2h89c-3 3-3 3-6.7 3.3h-7.4l-8.7-.2-6-.1-31.7-.5-31.5-.5z"/><path fill="#35f66d" d="M518 542h18v1l-6 1h3.2l11.6.3 5 .1 7.2.2h2.3c3.8.1 5.5.3 8.7 2.4h-81l1-2 31-1z"/><path fill="#5af887" d="M561.8 530.8c2.2.2 2.2.2 3.8 1.5l1.4 1.7 1.6 1.9 1.6 2 3.2 3.8 1.4 1.8c1.3 1.6 1.3 1.6 3.2 3.5v3l-5.3.1h-3c-2.7-.1-2.7-.1-5.7-2.1l1-2-2-2 1-1-3-1v-2l3-1-9-1v-1h10l-1-2c-3.7-1.2-7.3-1.2-11.2-1.3h-2.4l-7.6-.3h-5.1L525 533v-1l19.1-.6 7-.2h2.1z"/><path fill="#35f36c" d="M334 860q4.2-.4 8.4-.2h2.6l8.7.1 6 .1 31.8.5 31.5.5-3 5-1-3h-87z"/><path fill="#33f36c" d="m347 844 1 2h88c-3.4 3.4-4.5 3.3-9 3.4h-5.1l-8.7-.1h-21.7l-16-.2-31.5-.1z"/><path fill="#2cf463" d="m464 706 1 2h87l1 2-2 2v-2l-90 1z"/><path fill="#50fc82" d="M484 684h90l-1 3-89-1z"/><path fill="#34f36c" d="m703 517 1 2h89l-1 3-91-1z"/><path fill="#2df165" d="m533 497 3 3-1 2-89 1-1-3 88-1z"/><path fill="#30f367" d="M736 480q4.4-.4 8.6-.2h2.7l8.8.1 6.1.1q8.1 0 16.1.3l16.5.2 32.2.5c-2.4 2.8-2.8 3-6.8 3.3h-7.5l-8.7-.2-6-.1-32.2-.5-31.8-.5z"/><path fill="#36f26b" d="m761 451 1 2h89c-3 3-3 3-6.7 3.3h-7.4l-8.7-.2-6-.1-31.7-.5-31.5-.5z"/><path fill="#54fc84" d="M772.3 450h2.6l8.5.1h6l15.5.3 16 .2 31.1.4-1 2h-89v-2c3.2-1.6 6.8-1 10.3-1"/><path fill="#32f169" d="m784 425 1 2h88l-3 4-1-1-8.1-.2h-2.6l-8.4-.1H844l-15.4-.2-15.7-.2-30.9-.3z"/><path fill="#59fc88" d="m423 371 1 3h-89v-2l44.6-.6 18.8-.2 7.3-.1h2.2z"/><path fill="#34f56c" d="m381 804 1 2h87l-1 3-90-1z"/><path fill="#4cd770" d="M565 615h37v5h-37z"/><path fill="#2ef266" d="M698 523q4.4-.4 8.6-.2h2.7l8.8.1 6.1.1q8.1 0 16.1.3l16.5.2 32.2.5-1 2h-92z"/><path fill="#36f36c" d="m517 479 3 3v1h-91l-1-2h89z"/><path fill="#52fc83" d="m501 460-1 3-34.3.2h-31.3l-5.9.1h-10.7c-2.2 0-2.2 0-5.8-.3l-2-3 34.3-.4 15.9-.2 15.3-.2 5.9-.1 8.2-.1h2.4c3.3 0 5.9 0 9 1"/><path fill="#5afd89" d="m420 368-1 2h-87l-1-3 33-.5 15.4-.2 14.8-.2 5.6-.1 8-.1h2.3c3.8-.1 6.7 0 9.9 2.1"/><path fill="#3ff274" d="m981 934 4 4v1l-23.3.2H951l-16.3.1h-6.8c-2.8-.3-2.8-.3-6.8-3.3h60z"/><path fill="#40fa77" d="M802.4 768.9h34c2.6.1 2.6.1 4.6 1.1v2h-21v-1l-46-1v2h17c-2 2-2 2-5 2.2h-3.6l-3.6-.1-2.8-.1-1 2c-3.4.2-3.4.2-7 0l-2-3c-2.2-.5-2.2-.5-4.6-.6s-2.4 0-4.4-.4l-1-2c15.4-1.3 30.9-1.2 46.4-1.1"/><path fill="#32f368" d="M427 750q4.3-.4 8.5-.2h2.6l8.8.1 6 .1 16 .3 16.2.2 31.9.5c-2.4 2.8-2.8 3-6.7 3.3h-7.4l-8.7-.2-6-.1-31.7-.5-31.5-.5z"/><path fill="#32f269" d="M468 702c3-.4 5.5-.4 8.4-.4h2.6l8.5.2 6 .1 15.5.3 15.9.2 31.1.6v3h-91z"/><path fill="#4ffb81" d="M680.5 565h2.3l7.7.1h5.3l14 .3 14.2.2 28 .4-1 3q-24 0-48-.5l-10.8-.1-21.2-.4v-2c3-1.5 6.2-1 9.5-1"/><path fill="#50fa81" d="m695.6 536.6 11.6.2h6l14.8.2-1 2-27 1v2l-6 1 14 1v1l-28 1c3.6-9 6.6-9.6 15.6-9.4"/><path fill="#33f068" d="M715 504q4.2-.4 8.4-.2h2.6l8.7.1 6 .1 31.8.5 31.5.5v3l-91-1z"/><path fill="#54fc85" d="M530 493v2h-91v-2l34.3-.4 15.9-.2 15.3-.2 5.9-.1 8.2-.1h2.4c3.3 0 5.9 0 9 1"/><path fill="#2df065" d="m741 474 1 2h87v3l-90-1z"/><path fill="#2ff267" d="m749 465 1 2h89c-3 3-3 3-6.7 3.3h-7.2l-8.4-.2-5.9-.1-31-.5-30.8-.5z"/><path fill="#37f66e" d="m496 455-91 1-1-3 34.7-.5 16-.3 15.6-.2 5.9-.1 8.3-.1 2.5-.1c5.7 0 5.7 0 9 3.3"/><path fill="#36f46e" d="M773 438c3-.4 5.5-.4 8.4-.4h2.6l8.5.2 6 .1 15.5.3 15.9.2 31.1.6v3h-91z"/><path fill="#5bfd8a" d="M835 367h88v2l-89 1z"/><path fill="#35f26b" d="m953 899.5 1 1.5-35.1.5-16.3.2-15.7.2-6 .1-8.4.1H870q-3 .1-6-.1l-2-2c3.2-1.6 6.7-1.2 10.2-1.3h2.5l8.4-.1h3l15-.3 27.8-.4h5.7l8.1-.2h2.4c5.4 0 5.4 0 8 1.8"/><path fill="#34f16b" d="m331 863 1 2 87 1c-2.6 2.6-4.4 2.2-7.9 2.2h-35.5L328 868z"/><path fill="#32f36c" d="m392 791 90 1c-3 3-3 3-6.7 3.3H468l-8.5-.2-6-.1-15.5-.3-15.9-.2-31.1-.5z"/><path fill="#32f369" d="M724 494q4.3-.4 8.5-.2h2.6l8.8.1 6 .1 16 .3 16.2.2 31.9.5-1 2h-91z"/><path fill="#3bf36f" d="m792 416 90 1c-3 3-3 3-6.7 3.3H868l-8.5-.2-6-.1-15.5-.3-15.9-.2-31.1-.5z"/><path fill="#31f26a" d="m455 408.5 1 1.5c-3.2 1.6-6.8 1.1-10.3 1.1H397l-31-.1-1-3 34.3-.5 15.9-.3 15.3-.2 5.9-.1 8.2-.1 2.4-.1c5.5 0 5.5 0 8 1.8"/><path fill="#52fc83" d="M880 910h82v3l-30.3.6q-7 0-14 .3l-13.7.2-5.1.1-7.3.2h-2.2c-2 0-2 0-5.4-.4z"/><path fill="#52fc85" d="M416 867v3a49 49 0 0 1-13.2 1h-2.4l-8-.1h-5.6l-14.6-.3-15-.2-29.2-.4v-2z"/><path fill="#34f46b" d="m343 849 1 2h87l-2 3q-4.2.4-8.3.2H418l-8.5-.1-6-.1-15.5-.3-16-.2-31.1-.5z"/><path fill="#30f367" d="M388 796q4.2-.4 8.4-.2h2.6l8.7.1 6 .1 31.8.5 31.5.5-2 3q-4.2.4-8.4.2H464l-8.7-.1-6-.1-31.8-.5-31.5-.5z"/><path fill="#72fc9c" d="M741 649v2l-31.5.4-14.7.2-14 .2-5.5.1-7.5.1h-2.3c-3.1 0-5.5 0-8.5-1v-2l31.5-.4 14.7-.2 14-.2 5.5-.1 7.5-.1h2.3c3.1 0 5.5 0 8.5 1"/><path fill="#6ffc9b" d="M514 649h83l-1 3-82-1z"/><path fill="#56fc86" d="M742 474h90l-1 3-89-1z"/><path fill="#35f169" d="M339 378h90l1 3-34.7.2h-31.7l-6 .1H347c-2.3 0-2.3 0-5.9-.3z"/><path fill="#34f36d" d="m338 855 89 1-2 3q-4.2.4-8.3.2H414l-8.5-.1-6-.1-15.5-.3-16-.2-31.1-.5z"/><path fill="#34f46b" d="M913 851v2l-34.3.5-16 .3-15.3.2-5.9.1-8.2.1-2.5.1c-2.2 0-2.2 0-5.8-.3l-2-3 34.3-.4 16-.2q7.6-.2 15.3-.2l5.9-.1 8.2-.1h2.5c5.6-.1 5.6-.1 7.8 1"/><path fill="#30f369" d="M419 759q4.2-.4 8.3-.2h2.6l8.5.1 6 .1 31.4.5 31.2.5 1 2h-91z"/><path fill="#31f269" d="M443 731q4.2-.4 8.3-.2h2.6l8.5.1 6 .1 31.4.5 31.2.5 1 2h-91z"/><path fill="#35f36c" d="m447 726 88 1v3l-89-1z"/><path fill="#32f369" d="m794 711 2 3c-3.2 1.6-6.7 1.2-10.2 1.2h-2.6l-8.4.1h-5.9l-15.4.2-15.7.2-30.8.3-1-3h88z"/><path fill="#51fd83" d="M501 664h82l-3 4c-2.7.4-5 .5-7.7.4H570l-7.8-.2-5.4-.1q-7 0-14-.3l-14.5-.2-28.3-.6z"/><path fill="#31f067" d="m805 401 1 2h86l1 2h-90z"/><path fill="#32f067" d="m448 401 2 1v3l-88 1v-3h86z"/><path fill="#52fc83" d="M296 906h85c-3.3 3.3-4.2 3.3-8.6 3.4h-4.8l-8-.1h-20.3l-15-.2-29.3-.1z"/><path fill="#36f46e" d="M909 846v2h-89l-1-2 34.3-.4 16-.2q7.6-.2 15.3-.2l5.9-.1 8.2-.1h2.5c5.6-.1 5.6-.1 7.8 1"/><path fill="#38f36d" d="M898 834h-90l-1-2 34.3-.5 15.9-.3 15.3-.2 5.9-.1 8.2-.1 2.4-.1c5.7 0 5.7 0 9 3.3"/><path fill="#49c86c" d="M625 645h5v36h-5z"/><path fill="#35f16c" d="M434 385c-2 2-6.3 1.2-9 1.3h-2.6l-8.5.1-5.8.1-12.2.2-27.8.4h-5.8l-8.1.2h-2.4c-2.3 0-2.3 0-5.8-.3l-2-3 34.3-.5 16-.2 15.3-.2 5.9-.1 8.2-.1h2.5c5.6-.1 5.6-.1 7.8 2.1"/><path fill="#34f368" d="m825 378 89 1-1 2h-89z"/><path fill="#38f36d" d="M879 902.8h28.4l27-.1h16c2.1 0 2.1 0 5.6.3l2 3-33.5.5-15.5.3-15 .2-5.8.1-8 .1-2.4.1c-5.3 0-5.3 0-7.8-1.8l-1-1.5c3.2-1.6 6.5-1.2 10-1.2"/><path fill="#37f36f" d="M917 857c-2 2-6.3 1.2-9.1 1.2h-2.6l-8.4.1H891l-15.4.2-15.7.2-30.9.3-1-3 34-.5 15.7-.2 15.2-.2 5.8-.1 8-.1h2.5c5.6-.1 5.6-.1 7.8 2.1"/><path fill="#32f76d" d="M367 821c3-.4 5.4-.4 8.3-.4h2.6l8.4.2 5.9.1 15.3.3 15.7.2 30.8.6-1 2-89 1z"/><path fill="#33f36c" d="m861 790 3 3v1h-88l-1-2h86z"/><path fill="#36f56d" d="m397 785 1 2h86l-1 2h-88z"/><path fill="#31f168" d="M472 428c-1.8 1.8-4.3 1.1-6.8 1.1h-51.6L382 429l1-2 34-.5 15.7-.2 15.2-.2 5.8-.1 8-.1h2.5c5.6-.1 5.6-.1 7.8 2.1"/><path fill="#3cf470" d="m346 303 4 3q-5.3 1.2-10.8 1.1h-42.6q-8.9.1-17.6-1.1v-1q9.8-1.2 19.8-1.1h28q9.7 0 19.2 1.1z"/><path fill="#5bfb89" d="M287.6 923.8h2l6.6.1 4.5.1 24.3.5 24 .5a18 18 0 0 1-10.3 2.3h-4l-4 .1h-4.4l-11.2.2-11.5.1-22.6.3 9 2v1c-4.8 1-9.2 1-14 1 2.4-6.8 4.2-8.4 11.6-8.2"/><path fill="#30f16a" d="m327 868 1 2h3.1l29.2-.1h29.4l5.5-.1h10c4.1 0 6 .3 9.8 2.2h-90z"/><path fill="#52fb84" d="M676 557h84l-2 3c-2.7.3-5 .3-7.8.2h-2.4l-8-.1-5.4-.1-29.3-.5-29.1-.5z"/><path fill="#31f367" d="M792 709c-1.8 1.8-4.2 1.1-6.6 1.1h-50.5L704 710l-1-2 34-.5 15.7-.2 15.2-.2 5.8-.1 8-.1h2.5c5.6-.1 5.6-.1 7.8 2.1"/><path fill="#31f169" d="M447 400h-88l-1-2 33.5-.5 15.5-.3 15-.2 5.8-.1 8-.1 2.4-.1c5.5 0 5.5 0 8.8 3.3"/><path fill="#35f26b" d="m298 903 87 1c-4.5 3.4-6.9 3.4-12.2 3.2h-2.5l-8-.1-5.7-.1-30-.5-29.6-.5z"/><path fill="#50fc81" d="M503 566h81l1 3h-81z"/><path fill="#37f56d" d="m851 432-4 2 6 1-1 2-19.5.1h-6.7l-9.5.1H808c-2-.2-2-.2-4-2.2l27-1-30-1v-1l17-.5 5.8-.1 8.4-.3h2.5q8.2-.2 16.3.9"/><path fill="#31f36a" d="m461 519 33.5-.1h30.6l5.8-.1h10.4c5.5 0 5.5 0 7.7 2.2h-85l-1 2z"/><path fill="#36f56e" d="m325 359 87 1v2h-87z"/><path fill="#54fc86" d="M873 906h85v3l-32 .2h-29l-5.5.1h-9.9c-4.4 0-5.3 0-8.6-3.3"/><path fill="#35f26c" d="M707 513c2.7-.4 4.9-.5 7.6-.4h2.3l7.6.2h5.3l11.2.3 14.2.2 13.6.2h2.6l7.4.2h2.2q7 .3 14 1.3v1l-91 1z"/><path fill="#37f16d" d="M468 424h-89v-1q6.4-1.3 13-1.3h2.3l7.8-.1h2.7l14-.3 25.7-.4h5.3l7.5-.2h2.2c4.4 0 5.2 0 8.5 3.3"/><path fill="#33ef6c" d="M274.6 934.6h3.2l3.7.1 4 .1 4 .1 10.5.3 10.8.2 21.2.6c-3.3 3-5.5 3.4-9.9 3.3h-21.7l-10.6-.2-20.8-.1c1.6-2.8 2.3-3.9 5.6-4.4"/><path fill="#2ef265" d="M439 736q4.3-.4 8.5-.2h2.6l8.8.1 6 .1 16 .3 16.2.2 31.9.5c-2.6 2.6-4.4 2.2-8 2.2h-35.9L469 739h-32z"/><path fill="#30f369" d="M761 673c-1.8 1.8-4.1 1.1-6.5 1.1H706l-30-.1v-2l32.4-.5 15-.2 14.5-.2 5.5-.1 7.8-.1h2.3c5.3-.1 5.3-.1 7.5 2.1"/><path fill="#30f066" d="m580 562 3 3v1l-46.2.9-14 .2-5.5.1-7.5.2h-2.3c-2 0-2 0-5.5-.4l-3-4 81 1z"/><path fill="#35f46b" d="M886.2 333.9h39.5l25.3.1-2 3-2-1h-10.1l-3 .2-6.5.1-9.8.2-6.2.1-3 .1h-2.8l-2.4.1a34 34 0 0 0-6.2 1.2l-5.4-.1-3.1-.2-3.2-.1-3.3-.2-8-.4v-2q6-1.3 12.2-1.1"/><path fill="#36f26b" d="M813 392q3.6-.4 7.2-.3h2.3l7.4.2h5.2l10.9.2 27.1.5h2.6c16.3.3 16.3.3 24.3 1.4v1h-89z"/><path fill="#36f46d" d="m966 916 3 3v1l-23 .1h-10.6l-12.3.1h-10.6c-2.5-.2-2.5-.2-4.5-2.2 2.8-1 4.5-1.1 7.4-1.1H949q8.6 0 17 1.1z"/><path fill="#30f168" d="m515 476.5 1 1.5c-3.1 1.6-6.4 1-9.8 1h-2.5l-8-.1H490l-14.7-.3-15-.2-29.4-.4c3.6-2.4 6.3-2.3 10.5-2.4h2.4l7.6-.1 5.2-.1 11.1-.1 25.1-.4h5.2l7.4-.2h2.1c5 0 5 0 7.4 1.8"/><path fill="#31f26a" d="m757 667.5 1 1.5c-3 1.5-6.2 1.1-9.5 1h-10.1l-5.4-.1-11.2-.1-14.4-.2-11.1-.1H691l-7.5-.2h-2.2c-5 0-5 0-7.3-2.3l31.5-.5 14.7-.3 14-.2 5.5-.1 7.5-.1 2.3-.1c5 0 5 0 7.5 1.8"/><path fill="#39f36f" d="M336 374h44.8l13.7-.1h14.7q6 0 11.8 1.1v1h-3l-28.6.3-14.6.2-14.2.2h-5.4l-7.5.1h-2.3c-3.8 0-3.8 0-7.4 1.2z"/><path fill="#61fd8e" d="M662 576h81l-1 3-80-1z"/><path fill="#2ef065" d="m720 498 1 2h78v2h-81z"/><path fill="#2cf165" d="m769 442 1 2h79c-2.5 2.5-4 2.2-7.3 2.2h-31.9l-14.5-.1-28.3-.1z"/><path fill="#31f268" d="M788 703v2h-81v-2l30.8-.4 14.3-.2 13.8-.2 5.3-.1 7.3-.1h2.2c5-.1 5-.1 7.3 1"/><path fill="#35f46b" d="M904.1 344H924l1 3h-61v-2a548 548 0 0 1 40.1-1"/><path fill="#2df266" d="M466 524h80l1 2-80 1z"/><path fill="#36f06d" d="M294 908c2.7-.3 5-.4 7.8-.3h30.4l14.8.2 29 .1 1 2c-3.7 1.2-7 1.1-10.9 1.1H321l-29-.1z"/><path fill="#32f76b" d="m483 684 1 2h53l4.7-.1c7.8 0 15.5 0 23.3 1.1v1h-84z"/><path fill="#31f069" d="m291 911 1 2h75v3l-78-1z"/><path fill="#33f069" d="M883 320h80c-3 3-3 3-6.3 3.3h-6.4l-7.4-.2-5.2-.1-13.6-.3-13.9-.2-27.2-.5z"/><path fill="#58fc89" d="M897 920h73v2l-27.7.4-12.8.2-12.4.2-4.7.1-6.7.1H902c-2.9 0-2.9 0-4.9-1z"/><path fill="#32f76b" d="m855 782.5 1 1.5c-3 1.5-6 1-9.3 1h-2.3l-7.4-.1h-5.2l-13.6-.3-14-.2-27.2-.4v-2l29.6-.5 13.7-.3 13.3-.2 5-.1 7-.1 2.2-.1c4.8 0 4.8 0 7.2 1.8"/><path fill="#35ef6b" d="M791.1 420.6h6.1l7.1.2h5l10.3.3 25.8.4h2.5l6.8.2 4 .1q4.2.2 8.3 1.2v1l-82 1c3-4 3-4 6.1-4.4"/><path fill="#71e592" d="m1038 225 2 1-2.3 2.7-3 3.6-1.6 1.8-1.5 1.8-1.4 1.6-3.2 4.5a62 62 0 0 1-7.6.2h-2.2l-5.2-.2c1.3-4 2.9-4.4 6.5-6.4l3.4-1.9 1.7-1 5.4-3c6.5-3.6 6.5-3.6 9-4.7"/><path fill="#31f069" d="M811 408h79c-3 3-3 3-6.2 3.3h-6.4l-7.3-.2-5.1-.1-27.1-.5-26.9-.5z"/><path fill="#55fd85" d="M277 302h68l1 3h-68z"/><path fill="#33f36a" d="M832 861h78l-1 2-76 1z"/><path fill="#35f46d" d="m504 660 1 2h73v2h-76z"/><path fill="#30f46d" d="m507 656 76 1v2h-77z"/><path fill="#58fb87" d="m285 919 72 1v2h-72z"/><path fill="#64f48d" d="M660 590c-11.7 14.3-11.7 14.3-17.6 15.5-2.5 0-2.5 0-6.4-.5l6-8 1.6-2c4.8-5.8 9.2-5.8 16.4-5"/><path fill="#31f26a" d="M496 559h40.6l12.4-.1h4.7c7.8 0 15.5 0 23.3 1.1v1l-30.8.5-14.3.3-13.8.2-5.3.1-7.3.1-2.2.1c-2 0-2 0-5.3-.3z"/><path fill="#59fd8b" d="M413 767q4.3-.4 8.5-.3h33.4l16.2.2 31.9.1-1 2-25 .4-11.6.2q-27.1.5-54.4.4z"/><path fill="#36f16c" d="m817 387 1 2 2.9-.2c16.4-1.1 33-1 49.4-.9h12.1l23.6.1-1 3-89-1z"/><path fill="#3af570" d="m658 651 75 1v2l-41 .9-12.6.2-4.7.1-6.8.2h-3.8c-3.1-.4-3.1-.4-6.1-4.4"/><path fill="#5bfb8c" d="M900 307h73l-1 3h-72z"/><path fill="#56fc85" d="m973 924 1 3-26.1.4-12.1.2-11.7.2-4.5.1-6.2.1h-3.6c-2.8 0-2.8 0-4.8-1v-2l46.6-.7 10-.2h3.4z"/><path fill="#34f36c" d="m671 662 27.2-.1H723l4.6-.1H738c3.1.2 3.1.2 7.1 2.2l-74 1z"/><path fill="#69f990" d="M621 611h12v12h-12z"/><path fill="#39f36d" d="m908 302 2 1-1 2h64v1q-5.8 1.3-11.6 1.1h-36.2L902 307c2-2 3.6-3.4 6-5"/><path fill="#38f26d" d="m915 298 1 2h63l-2 3c-2.8.3-2.8.3-6.4.2h-2l-6.5-.1-4.4-.1q-6 0-11.9-.3l-12-.2-23.8-.5z"/><path fill="#2ff268" d="M887 913h68v2l-68 1z"/><path fill="#58fb8a" d="m389 435 5 1v4q8.2 1.2 16.4 1.1h44.8l28.8-.1 1 3a4719 4719 0 0 1-66.7.7h-6l-8.4.1h-2.4c-3.5 0-5.6-.1-8.4-2.3-4.1-4.7-4.1-4.7-4.1-7.5"/><path fill="#54fa85" d="M257 953h46v2c-2.3 1.2-3.7 1.1-6.3 1.1h-24.2L257 956z"/><path fill="#59fb89" d="M280.7 932.9h33.1l21.2.1-1 3h-61v-2c2.7-1.3 4.7-1.1 7.7-1.1"/><path fill="#32f36b" d="M976 927v2l-66 1v-3l25-.4 11.5-.2 11.2-.2 4.2-.1 6-.1h3.4c2.7 0 2.7 0 4.7 1"/><path fill="#35f26b" d="m927.1 293.6 3.8.1 4 .1 4.2.1 11 .3 11 .2 21.9.6-2 3c-2.7.4-2.7.4-6.1.3h-23.7l-11.5-.2-22.7-.1c3.2-4 5.1-4.5 10.1-4.4"/><path fill="#64fa91" d="m246 264 19 1v1l-2.4.2-3 .2-3.1.3c-2.4 0-2.4 0-3.5 1.3h3.3l12.3-.1h13l2.4-.1c3.9 0 5.7 0 9 2.2l-1 2q-8.9 0-17.7-.2h-17.4c-6.3-.2-6.3-.2-9.5-3.2-1.4-2.6-1.4-2.6-1.4-4.6"/><path fill="#5dfd8e" d="M468 526h91l1 3h-91z"/><path fill="#42f274" d="M1000 957v1l-18.6.2h-15.3l-3 .1h-4.9c-2.7-.4-4.2-1.5-6.2-3.3l19-.6q3.3 0 6.5-.2l9.4-.3h2.9l2.7-.1 2.4-.1c2.6.4 3.5 1.3 5.1 3.3"/><path fill="#3bf372" d="m259 950 18.2-.1h15l2.8-.1h4.9c2.4.2 4 1 6.1 2.2-3.2 2.1-3.8 2.2-7.5 2.1h-2.7l-3-.1-3-.1-9.5-.3-6.5-.1-15.8-.5z"/><path fill="#47fa7b" d="M566 693c-1.7 3.9-1.7 3.9-4 5l-6-1-5.5-.3-3.3-.1-3.4-.1-3.5-.2-11.2-.4-7.6-.2-18.5-.7v-1l19.2-.4 6.5-.2q18.6-.5 37.3-.4"/><path fill="#5efa8c" d="m676 679 10.8-.1h6l2.7-.1c2.5.2 2.5.2 6.5 2.2l-10 1v4l-3 1 1 4c-2.2.3-2.2.3-5 0-2.5-2.1-2.5-2.1-4.8-4.9l-2.4-2.7C676 681 676 681 676 679"/><path fill="#36f870" d="M484.8 538.8h15.8l5.6.1 13.8.1v1l-10 1 6 1v1l-13.4.1H498l-6.5.1h-4a21 21 0 0 1-8.5-2.2c2-2 2-2 5.8-2.2"/><path fill="#62f890" d="M689 694h11v3h-6v2l2.8.1 3.6.3 3.7.2 2.9.4 1 2-4 2 7 2a47 47 0 0 1-7 3l6 2-1 2c-3.8-.1-5.7-1.4-8.3-4l-3.4-3.8-1.7-2c-2.8-3-4.7-5.4-6.6-9.2"/><path fill="#3df670" d="M677 578h63l1 2-2 2v-2h-2.2l-20.7.1h-10.7l-12.2.1h-10.6c-2.6-.2-2.6-.2-5.6-2.2"/><path fill="#5efc8d" d="M276.5 937.9h31.3l20.2.1-2 3c-2.4.4-2.4.4-5.5.3h-21l-10.3-.2-20.2-.1v-2c2.6-1.3 4.5-1.1 7.5-1.1"/><path fill="#36f770" d="M458 817v1a191 191 0 0 1-18.9 1.6h-3q-18 .7-36.1.4l-1-2c19.8-1.6 39.1-2.2 59-1"/><path fill="#3ef675" d="M492 554h44l13.5-.1h5.1c16.5 0 16.5 0 24.4 1.1v2h-26v-1l-61-1z"/><path fill="#33f36b" d="M865 354h42l1 2q-4 1.2-8 1.1h-21.3L865 357z"/><path fill="#53fb84" d="M945.1 281.9h3.2l3.4.1 3.5.1 11 .3 7.5.1 18.3.5-1 3h-54v-2c3.3-2.2 4.3-2.2 8.1-2.1"/><path fill="#43f375" d="m293 270 4 3c-3.4 1.7-7.2 1.1-11 1.1h-16.9L255 274v-3h21.1l7.7.1h2.4l5.8-.1z"/><path fill="#63f08e" d="M238.1 991h4.9q-4 4.3-9.1 7.4l-3 1.9-3 1.9-3 2c-7.5 4.7-7.5 4.7-10.9 5.8 2.1-4.4 4.3-8.6 8-12q4.3-1.3 9-1v-5c2.5-1.3 4.3-1.1 7.1-1"/><path fill="#56fa86" d="M767 784h7v2l-2 2 35 2v1h-1.9l-8.5.4-3 .2q-8.8.3-17.6 1.4l2.8.1 3.6.3 3.7.2 2.9.4 1 2a33 33 0 0 1-13 1 41 41 0 0 1-10-11z"/><path fill="#38f16b" d="M934.7 288.8h3.5l3.8.1 3.9.1 20.6.5 20.5.5-2 3c-2.5.3-2.5.3-5.6.2h-3.6l-3.9-.1-4-.1-21-.5-20.9-.5c2.6-3.4 4.5-3.3 8.7-3.2"/><path fill="#61e780" d="m1027 992 1.7 2.1 7 8.7 2.5 3 1.8 2.2-1 2-22-14c2-2 2-2 4-2.2l6 .2z"/><path fill="#55fc83" d="M736 748h90v3l-33.9.2h-30.9l-5.8.1H745c-5.6 0-5.6 0-8.9-3.3"/><path fill="#45f779" d="M718 727h19v1l73 1v1l-90 1z"/><path fill="#54fb85" d="M261 948h50v2c-5.6 2.1-5.6 2.1-9 1l-4.2-.1h-23l-14.8.1z"/><path fill="#60fd8e" d="M464 521h50.2l15.3-.1H546c3.3 0 5.9 0 9 1.1v2h-90z"/><path fill="#34ef69" d="m985 939 2 3c-1.7 1.7-3.6 1.2-6 1.3h-3l-3.6.1-3.5.1-7.4.2-11.4.3-7.2.1-3.4.1h-3.2l-2.8.1c-2.5-.3-2.5-.3-6.5-3.3h56z"/><path fill="#39f26d" d="M267 290h59l-1 2-57 1z"/><path fill="#34f96c" d="m829 811 15.6-.1h13l2.4-.1c3.9 0 5.7 0 9 2.2-1 1-1 1-4.7 1.1h-21.5L829 814z"/><path fill="#50fc82" d="m472 530 20.8.3 7 .1 10.2.2h6.2l2.6.1c2.2.3 2.2.3 5.2 2.3h-4l-14.5.4-6.2.1q-4.6 0-9 .2h-3q-5.4 0-10.8 1l-2.5.3-2-2z"/><path fill="#47f77b" d="M862 422h15l-2 4-88-1v-1l75-1z"/><path fill="#43f778" d="M337 369h84l1 2q-9.2 1.3-18.5 1H394v-1l-57-1z"/><path fill="#50fb82" d="M792 813c8.4-.1 16.6-.1 25 1v1l-6.2.7c-1.8.1-1.8.1-2.8 1.3l-5 .6-5 .4 17 2v1c-5.5 1.2-11.4 2-17 1-2.7-2-4.4-4.1-6-7z"/><path fill="#46f878" d="M313 344h23v1l-10 1 66 1v1h-79z"/><path fill="#57fd87" d="M338 298v2h-64l-1-3h28.6l10.5.1h3.2q6.7.2 13.2-.7c3.8-.4 6 .1 9.5 1.6"/><path fill="#6fe790" d="M214 225c17.6 8.6 17.6 8.6 24 13v1a28 28 0 0 1-13 1 43 43 0 0 1-11-13z"/><path fill="#58fc88" d="M258 278h49v3h-48z"/><path fill="#5dfc8c" d="M950 952h46l1 3h-46z"/><path fill="#41f674" d="M887 329v1l66 1-1 2-86-1 1-2c6.5-1.4 13.4-1.1 20-1"/><path fill="#67fd91" d="M662 654h83v2l-31.1.4-14.5.2-14 .2-5.3.1-7.4.1h-2.2c-3.2 0-5.5 0-8.5-1z"/><path fill="#42f775" d="M737 750h79v1l-58 1v1l-9.4.2h-5.2l-2.4.1-2-.3z"/><path fill="#66f68b" d="M626 550h3v36h-3z"/><path fill="#46fb7c" d="m408 443 30.4-.2h27.7l5.2-.1h9.5c2 0 2 0 5.2.3l2 3h-18v-1l-62-1z"/><path fill="#35ef6b" d="m264 944 1 2h48v3l-51-1z"/><path fill="#69fc94" d="M592 653v3c-1 1-1 1-4.2 1h-6.7l-8-.1h-5.4l-14.3-.3-14.7-.2-28.7-.4 1-2h52.1l4.7.1c8.1 0 16.1 0 24.2-1.1"/><path fill="#59fd88" d="m758 669 1 3-82-1v-1l40-.6 16.8-.2z"/><path fill="#34f16a" d="m756 457 52 1-1 2h-52z"/><path fill="#5dfb8b" d="M877 327.7h2.6l6.4.3v1l-19 2 20 1-1 2-3.4.2q-11.8.6-23.6 1.8v-3c5.3-5.2 11-5.7 18-5.3"/><path fill="#54f785" d="M753 769h20v1l-16 1 6.8.6c2.2.4 2.2.4 4.2 2.4l1 3h-4v2l9 1v1h-8l-1 2-6-6.4-1.7-1.9c-4.3-4.6-4.3-4.6-4.3-5.7"/><path fill="#41f777" d="m436 739 1 2h7v1l79 1-1 2-31.8-.3-14.7-.2-14.3-.2h-5.4l-7.6-.1H446q-6 0-11.9-1.2z"/><path fill="#40f673" d="M440 495h21v1l61 1v1l-31.2.2h-28.4l-5.4.1h-9.7c-2 0-2 0-5.3-.3z"/><path fill="#49fb7e" d="M770 443h47.8l14.6-.1h15.8c3.4 0 6.5 0 9.8 1.1l-1 3-10-1v-1l-77-1z"/><path fill="#37ef6a" d="M949 280h3l3.4.1h3.4l10.8.3 7.4.2 18 .4c-1.7 2-2.5 3-5.2 3.3h-5.5l-3-.2H978l-6.7-.2-10.3-.2-6.5-.2h-3.1l-3-.1-2.5-.1c-2-.3-2-.3-4-2.3 2.5-1.3 4.1-1 7-1"/><path fill="#46fa7b" d="m865 795 3 3v1h-10v-1l-76-1v-1h61.2l5.5.1h10c3.4.3 3.4.3 6.3-1.1"/><path fill="#3bee6e" d="M956.5 275h2.9l3 .1h3.2l10 .3 6.8.2 16.6.4c-1.7 2-2.5 3-5.2 3.4h-5.6l-3.2-.1h-3.3l-10.4-.1h-7L947 279c3.2-3.3 5-4.1 9.5-4"/><path fill="#30f268" d="M273 941h51c-4.5 3.4-4.5 3.4-8.9 3.2h-2.9l-3-.1-3.3-.1-10.2-.3-6.8-.2-16.9-.5z"/><path fill="#3af26e" d="m981 934-20.7.1H943l-3.2.1h-5.6c-2.5-.2-4.1-1-6.3-2.2l21.2-.6 7.2-.2 10.4-.3h3.2l3-.1 2.7-.1c2.8.4 3.6 1.2 5.3 3.3"/><path fill="#3bf570" d="M849 339c2.6-.4 2.6-.4 6-.3h22.9l11.2.2 21.9.1v1l-28 1v1h-36z"/><path fill="#44f879" d="M800 407h85v1h-74v2h-12z"/><path fill="#54fd89" d="M482.3 783.9h3.2l2.5.1c-1.5 3.4-3 5.7-6 8-3.1.5-6.2.3-9.4.2l-2.7-.1-8.6-.4-6-.2-14.3-.5v-1h2.6l9.6-.4 4-.1q13-.4 25.8-1.5l-11-2c4.1-2 5.8-2.2 10.3-2.1"/><path fill="#48fb7f" d="M839 860h81v3h-11v-1l-70-1z"/><path fill="#3ef071" d="M305 277v1l-48 1v-3l18.6-.5 6.3-.2 9-.3h3l2.6-.1 2.3-.1c2.5.2 4 1 6.2 2.2"/><path fill="#3cf572" d="m819.9 741.5 1.1 1.5q-7.1 1.1-14.2 1.1h-38.3L744 744v-1l62-1v-1l5.8-.7 3.3-.4c2.9.1 2.9.1 4.8 1.6"/><path fill="#5ced84" d="M601 595c4.1-.6 7.6-1 11.1 1.5 2.8 2.7 4.6 4.7 5.9 8.5q-4.5.8-9 0a36 36 0 0 1-8-8z"/><path fill="#48fb7c" d="M417 457h81v3h-12v-1l-69-1z"/><path fill="#3ef675" d="M286 308.9h31l18.1.1v1l-13 1v1h-35l-1 3-3-5c1-1 1-1 3-1.1"/><path fill="#56fb86" d="M480 688q21.6-.2 43 1v1l-13.5.9-4.6.2q-12.9 1-25.9.9z"/><path fill="#5cfa8a" d="M436 386c4 4.5 4 4.5 4 7l-4.4.1h-2.4c-2.2-.1-2.2-.1-4.2-2.1l2-1c-1.7-1.7-4.2-1.2-6.6-1.3l-3.4-.1-3.6-.2h-3.6l-8.8-.4v-1q9.2-1.2 18.3-1.6l2.7-.2 2.6-.1 2.3-.1c2.1 0 2.1 0 5.1 1"/><path fill="#47f878" d="m392 340 5.4-.1h3c2.6.1 2.6.1 4.6 2.1-8.6 1.2-17.2 1.1-25.8 1.1h-30.7L323 343v-1l69-1z"/><path fill="#38f26c" d="m989 944 2 1-1 3h-46l1-2h44z"/><path fill="#47f87a" d="M288 917h72v3a14 14 0 0 1-7.7.6l-2.4-.3-1.9-.3v-1l-60-1z"/><path fill="#43fa7a" d="M486 681c3-.4 3-.4 7-.3h27.4l13.4.2 26.2.1v1l-63 1v1h-13z"/><path fill="#5dfa8c" d="M242 972h31c-4 4-4 4-7 4.4l-3.3-.2-3.6-.2-3.8-.3q-2 0-3.9-.2l-9.4-.5z"/><path fill="#40fa77" d="M400 782h16v1l54 1v1h-33.5l-12.3.1h-3.8q-10.8 0-21.4-1.1z"/><path fill="#3df773" d="M742 676v1h-42v2h-24v-2c22-1.5 44-1 66-1"/><path fill="#035213" d="m516 583 27.7-.2h25.2l4.7-.1h10.5l2.9.3 2 3-3 1-2-1c-8.1-1.2-16.4-1.2-24.5-1.3h-3.8l-9.9-.2-10-.2-19.8-.3z"/><path fill="#47f97c" d="m427.8 475.9 6.2.1v1l69 1v1l-77 1-1-3c1-1 1-1 2.8-1.1"/><path fill="#5ffa94" d="m602.2 638.8 2.7.1 2.1.1c-1.4 3.4-3 5.7-6 8-3 .4-3 .4-6.2.3l-3.3-.2-2.5-.1 5-5 1.3-1.7c2.4-1.8 4-1.6 6.9-1.5"/><path fill="#4bf67b" d="M376 321v1h-13v-1l-57-1v-1l24.7-.5 11.5-.3 11-.2 4.3-.1 6-.1 3.3-.1c3.7.3 6 1.5 9.2 3.3"/><path fill="#3ff675" d="m872 803-80-1v-1l30-.5 13.9-.3 13.4-.2 5.1-.1 7.2-.1 2.1-.1c4.4 0 5 0 8.3 3.3"/><path fill="#59fd89" d="m754 664 1 3-71-1v-1l35-.6 16.6-.2z"/><path fill="#44fa79" d="m479 528 27.8-.1h25.4l4.7-.1h10.5c3.9.2 7 1 10.6 2.2v1h-10v-1l-69-1z"/><path fill="#62f892" d="m662.2 582.3 3.3.4 2.5.3c-4.7 5.9-4.7 5.9-7 7h-11c4.9-8.6 4.9-8.6 12.2-7.7"/><path fill="#5ef88e" d="m481 541 15 3v1l-8 1 6 2-2 1v3l21 1v1c-20.3 2-20.3 2-25.7-2.4-6.3-6.4-6.3-6.4-6.3-10.6"/><path fill="#084c17" d="M464 523q11.6 11.6 21.9 24.4L495 558l-3 1-1.3-2.4c-1.6-2.8-1.6-2.8-4.7-4.6v-2l-3-1v-3l-1.8-.7c-2.2-1.3-2.2-1.3-3.6-3.6-2-3.3-4.6-5.2-7.6-7.7l-2-4-2.1-1.5-1.9-1.5z"/><path fill="#4df37b" d="M1013.9 974.4c1.1 1.6 1.1 1.6 1.1 2.6l-13.3.7-3.8.2-3.7.2-3.4.1c-2.8-.2-2.8-.2-4.7-1.7L985 975c4.3-2.1 9.8-1.5 14.4-1.7l3.5-.3 3.4-.1 3.1-.2c2.6.3 2.6.3 4.5 1.7"/><path fill="#094114" d="M1000 274c.6 1.8.6 1.8 1 4a67 67 0 0 1-5.3 6.4l-3.3 3.8-1.7 1.9q-5.1 6-9.5 12.5c-2.2 2.4-3 3.1-6.2 3.4q12.1-16.3 25-32"/><path fill="#60fa8f" d="M996 253.9h11l9 .1-1 3-30 1 1-3c3.2-1.3 6.6-1.1 10-1.1"/><path fill="#52fc84" d="M390 794h37v2l-38 1z"/><path fill="#56fc84" d="m747 658 3 1v3q-20 0-40-.5l-6.2-.1-14.8-.4v-1h2.1l19.7-.3 10.1-.2 11.7-.2h7l3-.1c2.4 0 2.4 0 4.4-1.2"/><path fill="#55fd85" d="m326 361 17 .3 5.8.1 8.3.2h2.6c6 .2 6 .2 8.3 2.4h-38l-1 2-3-3z"/><path fill="#5bfa86" d="M238 254h28l1 3h-28z"/><path fill="#4af77b" d="m977 930 1 2-46 1v1l-6.8.7-3.8.4c-3.4-.1-3.4-.1-5.3-1.6L915 932q4.7-1.4 9.8-1.2h3.5l3.8-.1h3.9q5-.2 10.2-.2l10.4-.2z"/><path fill="#45fb79" d="m810 730 3 3c-3.5 2.2-6.4 2.2-10.5 2.2H778l-11.8-.1-23.3-.1v-1l59-1v-1h8z"/><path fill="#49fb7c" d="M712.4 701.9h39.9l25.7.1v1h-71v2l-8-1v-1q6.6-1.2 13.4-1.1"/><path fill="#47f177" d="m994 250 2 1 5.2.1h9.7l8.1-.1-2 3c-2.9.4-2.9.4-6.5.5l-4 .1h-4.1l-4.2.2-10.2.2c3.8-3.9 3.8-3.9 6-5"/><path fill="#40f775" d="M843 431h25v3h-9l5 1-1 2h-11v-1l-6-1 1-2z"/><path fill="#41f774" d="m858 334 1 2 1.8-.4A69 69 0 0 1 879 334v1h-5v2h23v1h-41v-3z"/><path fill="#48fc7b" d="m370 818 2 .2q13.8 1 27.7 1.4h4.8l11.5.4v1l-13.3.4-4.5.2q-15 .5-30.2.4z"/><path fill="#41fc7a" d="M768 536c-2.6 2.7-4 3-7.8 3.3H753l-7.8-.1H740l-13-.2 1-2 12.3-.4 4.1-.2q11.8-.5 23.6-.4"/><path fill="#46f97a" d="m551 518 4 4h-71v-1h2.4l22-.3 11.4-.1 11-.2h10l3.3-.1c2.8-.3 4.5-.8 6.9-2.3"/><path fill="#39f06f" d="M259 281h41v2l-16.6.6-5.6.2-8 .3h-2.6c-2.4.1-2.4.1-6.2-.1z"/><path fill="#55fd88" d="m821 848 36 1-1 2-14 .2h-11.6l-2.1.1c-2 0-2 0-5.3-.3z"/><path fill="#50fc81" d="M492 674q27.5-.1 55 1v1l-55 1z"/><path fill="#39f36f" d="m1004 963 3 3v1l-14.8.6-5 .2-7.2.3h-2.3c-2.1.1-2.1.1-5.7-.1l-3-3h35z"/><path fill="#47fc7c" d="m842 768 4 4v2q-16.7 0-33.5-.5l-4.5-.1-11-.4v-1h44v-2l-2-1z"/><path fill="#36f86d" d="m483 684 1 2h37c-3.8 2.6-7 2.3-11.4 2.2h-10.3l-5.3-.1-13-.1z"/><path fill="#61fc90" d="m262 283 21.2-.1h7.2l10.4-.1h8.9c2.3.2 2.3.2 5.3 2.2l-52 1z"/><path fill="#3df06e" d="m970.7 265.8 4.7.1 2.5.1 7.8.3 5.3.2 13 .5-1 2h-39c3-3 3-3 6.7-3.2"/><path fill="#61fb8f" d="M1004 962v3h-37v-2l18.6-.6 6.8-.2h2.1z"/><path fill="#57fc84" d="m368.4 321.8 2.4-.1c5.8 0 5.8 0 8 1.8l1.2 1.5q-19.5.3-39-1v-1q13.6-1 27.4-1.2"/><path fill="#38ef6d" d="m249 963 1 2h35c-4.4 3.3-6.6 3.3-11.8 3h-2.3l-7.1-.3-5-.2-11.8-.5z"/><path fill="#55fc87" d="M453 406v2l-58-1v-1h1.8l18.3-.4 6.9-.1 9.8-.2h3q6.3 0 12.2-1c3-.3 3-.3 6 1.7"/><path fill="#3cf270" d="M1003 960v2h-37v-2l14.8-.5 5.1-.1 7.2-.3h2.3c5.4-.2 5.4-.2 7.6.9"/><path fill="#44f57a" d="M316 936h16c-4.5 3.4-4.5 3.4-9 3.3h-9.4l-10.3-.1h-7L279 939v-1l37-1z"/><path fill="#44f877" d="m844 343 1 2 3-.5c6.7-.8 13.3-.6 20-.6h4l10 .1v1h-18v2h-22z"/><path fill="#59f886" d="M844 784c10.9-.8 10.9-.8 15.3 2.3 1.7 2.7 1.7 2.7 1.7 5.7l-15-1v-1l9-1v-2h-4.4l-2.4.1c-2.2-.1-2.2-.1-4.2-1.1z"/><path fill="#56fa85" d="m775 688 1 4-38-2v-1c12.3-.6 24.6-1.2 37-1"/><path fill="#2df466" d="M396 444h37c-4.1 2-6.1 2.3-10.6 2.4l-4 .1-4 .1-4 .1-13.4.3z"/><path fill="#62f086" d="M283 263.5c2 1.5 2 1.5 3 3.5-4.2 0-8 0-12-1l1-2h2v-2h-2.7l-3.6.1H267c-3.1-.1-3.1-.1-6.1-2.1 9.3-1.9 14-1.5 22 3.5"/><path fill="#48f97a" d="m962 911 2 1-1 3c-6.4 1.1-12.6 1.1-19 1.1h-22l-18-.1v-1h51v-2h7z"/><path fill="#53fc85" d="M394 789h15.1q11-.1 21.9 1v1l-38 1z"/><path fill="#5ff88d" d="M1003 247.9h9.3l7.7.1v3l-25 1 1-3c2.5-1.3 4.2-1.1 7-1.1"/><path fill="#094917" d="m759 558 1 2a91 91 0 0 1-18 23l-3-1 1.1-1.3 11.7-13.5 1.5-1.7q3-3.5 5.7-7.5"/><path fill="#084b17" d="m564 696 2 3-2 1.9q-10.2 10.4-19 22.1c-.7-1.8-.7-1.8-1-4 1.1-1.5 1.1-1.5 2.9-3q7.1-7 13.1-15l2.3-2.8z"/><path fill="#0a4817" d="M308 342q12.9 12.7 24 27l-2 2v-2l-3-1-2-4-2-1v-2h-2l-1-4h-2v-2l-4-2v-2l-2.4-2.4c-2.4-2.4-3.2-3.3-3.6-6.6"/><path fill="#3eee70" d="m245 968 1 2h31c-4.5 3.4-5.5 3.3-11 3h-2l-6.2-.3-4.3-.2-10.5-.5z"/><path fill="#4afc7c" d="m870.5 818.9 2.5-.1 2.1-.1c1.9.3 1.9.3 4.9 3.3l-55-1v-1l24-.6 8.7-.2h2.7l5.1-.1z"/><path fill="#48fb7a" d="m431 745 9 1v1l46 1v1h-27.5l-10.1.1h-3.1q-7.7.1-15.3-1.1z"/><path fill="#5cfc8b" d="M534 670v1q-19 1.2-38 1v-2c9.3-4.7 27.7-.5 38 0"/><path fill="#55fd87" d="M503 566h16.2l6-.1h3.6q4.1 0 8.2 1.1v1l-33 1z"/><path fill="#44f876" d="M379 334c6.5-.4 6.5-.4 9 1.5l1 1.5c-13.2 2.4-26.7 2.1-40 2v-1c6.6-2.4 13-2.2 20-2.1h3.5l8.5.1z"/><path fill="#3cf06f" d="m267 255 6 3v1l-32 1-1-3h27z"/><path fill="#30ee67" d="M276.6 960H290v3l-37-1v-1q11.7-1.3 23.6-1"/><path fill="#5df68c" d="M418 469c4.8 0 9.2 0 14 1-2.8 2.8-5.2 2.6-9 3l14 1-1 2c-4.6 1.2-9.8 2.2-14.1-.2-1.6-1.6-1.6-1.6-3.9-4.8z"/><path fill="#38f56f" d="M364.2 898.8H377l4.6.1 11.3.1c-1 1.5-1 1.5-3 3-3.2.2-3.2.2-7 0h-2.1l-6.6-.3-4.4-.2-10.9-.5c2-2 2-2 5.2-2.2"/><path fill="#5bfb87" d="M709 511q14-.2 28 1v1a99 99 0 0 1-18.4 1H708z"/><path fill="#65fa92" d="M981 972h31v2l-12.3.6-4.2.2-6 .3-3.6.1-2.9-.2z"/><path fill="#42f574" d="m873 324 2 1 5.8-.7q5.3-.6 10.4-.4h14.1l11.7.1v1l-29 1v1h-15z"/><path fill="#6afa95" d="M989 977h27v2l-12.4.7-3.5.2-3.4.2-3.2.1-2.5-.2z"/><path fill="#59fd8c" d="m788 808 38 1v1h-2c-17 .7-17 .7-34 2z"/><path fill="#51fc81" d="M471.1 704.9h7.9q10.5 0 21 1.1v1l-35 1v-2c2.3-1.1 3.6-1.1 6.1-1.1"/><path fill="#5ddf7f" d="M636 628q4.5-.5 9 0c2.6 2.5 2.6 2.5 4 5l-5 1-1 3-3.5-3.4-2-1.9C636 630 636 630 636 628"/><path fill="#42fa77" d="M761 499h22.9l8.4-.1h2.5q7.7 0 15.2 1.1c-1 1.6-1 1.6-3 3q-4-.1-8-1v-2h-38z"/><path fill="#45fa7a" d="M781 429h14.7q9.2-.2 18.3 1v1l-33 1z"/><path fill="#5bfc8c" d="M841 882h24l1 2q-12.5 1.2-25 1z"/><path fill="#041a09" d="M565 620h37v1c-10.9 1.7-24.2 3.8-35 1z"/><path fill="#55f989" d="M779.3 432.9h5.5l2.2.1-2 3v2h6v1h-17c2.4-6 2.4-6 5.3-6.1"/><path fill="#084c18" d="M336 375c18.4 17.8 18.4 17.8 23 27-2.6-1-3.8-1.6-5.2-4.1l-.8-1.9h-2l-4.6-5.5-1.4-1.5h-2l-1.2-3.2a22 22 0 0 0-5.8-7.8z"/><path fill="#47f97c" d="M321 295h10l1 2q-8.8 1.2-17.7 1.1h-17.1L283 298v-1h38z"/><path fill="#4cf27a" d="m1016 978 3 4h-25l-1-2q5.6-.7 11.3-1.2l3.3-.4 3-.4 3-.3z"/><path fill="#62fa93" d="M600.7 583.8c1.3 2.2 1.3 2.2 1.3 4.2q-5.5.6-11 0c-2.7-2.5-2.7-2.5-4-5 10.1-1.6 10.1-1.6 13.7.8"/><path fill="#64f994" d="m314 347 4.3-.1h2.4c2.3.1 2.3.1 5.3 2.1l-7 1 13 2a21 21 0 0 1-14 2c-2.6-2.4-2.6-2.4-4-5z"/><path fill="#62fd8e" d="M885 317q13.5 0 26.8.5l3.6.1 8.6.4v1l-40 1z"/><path fill="#45ec76" d="m234 982 1 2h20c-5.6 4.5-5.6 4.5-9.1 4.2l-2.3-.2-2.3-.2-2.3-.2c-5.6-.4-5.6-.4-8-1.6z"/><path fill="#52f784" d="M409.9 771.9h10.4l6.7.1v1l-15 1 5 2c-2 2-2 2-4.4 2.2H410l-2.8-.1-2.1-.1c2.3-6 2.3-6 4.9-6.1"/><path fill="#57f384" d="M621 618h12v5h-12z"/><path fill="#33f46b" d="M736 480a58 58 0 0 1 7.6.1l2.3.2 7.2.5 5 .3 11.9.9v1h-36z"/><path fill="#62fc8e" d="M823 381a59 59 0 0 1 7.6-.2h2.2q7.2 0 14.2 1.2v1q-8.4 1.3-17 1h-9z"/><path fill="#43f977" d="M330.3 336h5.7l-1 4h-16l1-3c3.3-1.3 6.7-1.1 10.3-1"/><path fill="#3fee71" d="m241 973 1 2h24v3h-28z"/><path fill="#5cfe8a" d="M951 897v2l-43-1v-1h3.1l11.6-.4 5-.1 7.2-.2h2.2q4.4 0 8.7-1c2.2-.3 2.2-.3 5.2 1.7"/><path fill="#3ff270" d="M853 894h30l-1 2-12.8.7-3.7.2-3.5.2-3.3.1c-2.7-.2-2.7-.2-5.7-3.2"/><path fill="#59fc86" d="m946 891 1 3-34-1v-1q16.5-1.1 33-1"/><path fill="#49f67b" d="m268 939 1 2a26 26 0 0 0 8.1 1.2h2.5l2.5.1h2.7l8.4.3h5.8l14 .4v1h-48z"/><path fill="#40f574" d="M1011 970v2h-15.6l-3.3.1H989q-4.5-.2-9-1.1v-1l12.3-.5 4.2-.1 6-.3 3.6-.1c2.9 0 2.9 0 4.9 1"/><path fill="#5afb8d" d="M409.7 857.8h5.5l2.8.1 7 .1-1 3c-7.4 0-14.7.2-22-1 3.2-2.1 4-2.2 7.7-2.2"/><path fill="#5cfb8f" d="M564.2 678.9h7.5l6.3.1v3l-8.8.1h-5l-2.2.1c-2-.2-2-.2-5-2.2a19 19 0 0 1 7.2-1.1"/><path fill="#65f28c" d="m642 597 1 2h7c-2.7 4.2-2.7 4.2-5 6-3.2.5-5.8.3-9 0z"/><path fill="#67fc97" d="m658 580 10.4-.1h5.8l2.6-.1c2.2.2 2.2.2 4.2 2.2a208 208 0 0 1-24 1z"/><path fill="#5afc8b" d="m790 419 38 1v1l-39 1z"/><path fill="#52f97f" d="M392.8 334.9h3l2.2.1v3l-2.7.4c-3.1.5-3.1.5-5.2 1.1a25 25 0 0 1-7 .4l-3-.2-2.8-.1-3-.2-7.3-.4v-1l3.4-.1 4.4-.3h2.2c5.7-.4 10-2.9 15.7-2.7"/><path fill="#3af36f" d="m464 706 1 2h24l-1 2-27 1z"/><path fill="#55fb87" d="M676 674q11-.3 22 1v2h-22z"/><path fill="#34f26a" d="m538 503 3 2v2h-34v-1a335 335 0 0 1 31-1z"/><path fill="#4ef981" d="m863.2 432.9 3.8.1a57 57 0 0 1-4 7l-15-1 1-2c3.2-.4 3.2-.4 7-.6l4-.3 3-.1-7-1c3-2 3.7-2.2 7.2-2.1"/><path fill="#57fc84" d="m253 264 10.8-.2h6l2.7-.1c2.5.3 2.5.3 6.5 3.3h-25z"/><path fill="#56fc87" d="M398 784q12.5-.2 25 1v1q-8.1 1.3-16.4 1H398z"/><path fill="#5efb8e" d="M732 743q11-.3 22 1c-2.4 2.4-3 2.3-6.1 2.4l-2.5.1-2.5.1-2.6.1-6.3.3z"/><path fill="#52fb85" d="m806 725 1 3c-9.1.3-18-.8-27-2v-1l9-.6 2.6-.1c5-.3 9.5-.2 14.4.7"/><path fill="#5df98c" d="m472 530 30 2v1h-2l-8.6.4-3 .2q-6 0-12 1l-2.4.4-2-2z"/><path fill="#5ffa8e" d="M954 293v1l-31 1v-2c7.7-3.9 22.5-.7 31 0"/><path fill="#074114" d="m671.5 584 3.5 1c-1 1.4-1 1.4-3 3l-3.2.3c-4.7.9-6 2.6-9.2 6-2 2-3.9 3-6.6 3.7 12-14.7 12-14.7 18.5-14"/><path fill="#5afd8a" d="M696 526q12.5-.2 25 1v1q-13 1.3-26 1z"/><path fill="#5cf98c" d="m880 910 7.8-.1h2.2c4-.1 5.7 0 9 2.1-2 2-5.2 1.6-7.8 1.8l-3.8.4c-3.4-.2-3.4-.2-5.8-2.2z"/><path fill="#55fa85" d="m812 497-1 3-27-1v-1a238 238 0 0 1 28-1"/><path fill="#42ee70" d="M265 253v1l-12.9.1h-3.7l-3.5.1h-3.3c-2.6-.2-2.6-.2-4.6-2.2l11.2-.6 3.2-.2 3-.2 3-.1c2.9.1 5 .9 7.6 2.1"/><path fill="#6ff99c" d="M589.1 580h7.9l1 3-8.4.1h-2.4l-6.2-.1-2-2c3.2-1.6 6.6-1.1 10.1-1"/><path fill="#54f685" d="M768 541h5c-1.4 4.5-3 7.4-7 10a50 50 0 0 1-11-2v-1l13-1v-2h-5v-1h5z"/><path fill="#4ef57f" d="M793 509h9l-2.9 4-1.6 2.2C796 517 796 517 794 518l-4.1-.1-2.5-.2-2.5-.1-2.6-.2-6.3-.4v-1l11-1v-1l1.9-.1 2.5-.3 2.4-.2c2.4-.2 2.4-.2 4.2-2.4l-5-1z"/><path fill="#34f16b" d="m446 398.5 1 1.5c-21.5.2-21.5.2-32-1v-1l12.2-.6 4.2-.2 6-.3 3.6-.1c3 .2 3 .2 5 1.7"/><path fill="#58fc8b" d="M578 674v3h-10.4q-6.4.3-12.6-1v-1q11.5-1.2 23-1"/><path fill="#63fc91" d="M406 891c-1 1.5-1 1.5-3 3-3.1.3-3.1.3-6.7.3l-3.8-.1q-5.3-.2-10.5-1.2v-1q12-1.2 24-1"/><path fill="#35f46b" d="M439 736q3.6-.1 7.2.1l2.1.2 6.8.5 4.6.3 11.3.9v1h-34z"/><path fill="#67f892" d="M681 684h11v2l-3 1 1 4c-2.2.3-2.2.3-5 0-4-4.1-4-4.1-4-7"/><path fill="#51f37f" d="m970 264 1.5.5q5 .8 10.1.8h2.2l7 .3h4.7q5.7.3 11.5.4l-3 3v-2h-36z"/><path fill="#5dfc8b" d="M373.2 823.9h3.9q5.5.1 10.9 1.1v1c-8 .6-16 1.2-24 1v-2c3-1.5 5.8-1.1 9.2-1.1"/><path fill="#60f58f" d="M482.3 783.9h3.2l2.5.1c-2.5 5.1-2.5 5.1-5 7-2.7.2-2.7.2-5 0 2-2 2-2 5-3l-11-2c4.1-2 5.8-2.2 10.3-2.1"/><path fill="#59fa8b" d="M565.3 551.8h5l2.5.1 6.2.1v3l-22-1c3.6-1.8 4.6-2.2 8.3-2.2"/><path fill="#5dfd8d" d="M456 512h24v1c-15.7 2.3-15.7 2.3-23 2z"/><path fill="#5efb8c" d="m806 400 7.8-.1h2.2c4-.1 5.7 0 9 2.1-4.2 1-8 1.1-12.3 1H806z"/><path fill="#68f491" d="M1012 991h15v3l-5.8.6-3.3.4c-2.9 0-2.9 0-5.9-2z"/><path fill="#68f995" d="M748 762h8l1 2-4 2a39 39 0 0 0 10.7 1.6h2.1l5.2.4v1l-9.2.3-2.7.1c-6.5.2-6.5.2-9.7-2.8-1.4-2.6-1.4-2.6-1.4-4.6"/><path fill="#59fc8b" d="m836 469-1 3q-11 .3-22-1v-1q11.5-1.2 23-1"/><path fill="#57fb87" d="m501 460-1 3-22-1 1-2 9.3-.6 2.7-.1 2.6-.2 2.3-.1c2.1 0 2.1 0 5.1 1"/><path fill="#62fa8b" d="M841 347q13.5-.2 27 1v1l-27 1z"/><path fill="#5efc8a" d="M846 342h10.5q5.8-.3 11.5 1v1l-23 1z"/><path fill="#0e1e11" d="m225.4 1032 2.6 1v2l-6 3.6-3.4 2-2.6 1.4c0-4 1.6-5.6 4.3-8.6 1.7-1.4 1.7-1.4 5-1.3"/><path fill="#4feb78" d="m1027 992 3 4-1 2c-3 .7-5 1.2-8 1-2.5-2-2.5-2-4-4 3.2-1.6 6.4-1 10-1z"/><path fill="#69fb97" d="m241.1 986.4 2.3.2 5.6.4-1 2-18 1 1-3c3.2-1.6 6.6-.8 10.1-.6"/><path fill="#5cfb8f" d="m463 813-1 3h-9.2q-5.5.3-10.8-1v-1q10.5-1.2 21-1"/><path fill="#56fc87" d="M408.4 778.8h2.7q7.5.5 14.9 1.2v1a196 196 0 0 1-25 1c2.4-2.9 3.7-3.4 7.4-3.2"/><path fill="#66fa91" d="M839 763c3 3.4 3 3.4 3 6h-12v-1l8-1c-3-2-3.7-2.3-7-2.4l-2.3-.1-2.4-.1-2.4-.1-5.9-.3v-1l8.8-.6 2.5-.1 2.5-.2 2.2-.1c2 0 2 0 5 1"/><path fill="#5efa8e" d="m556 705-2 4-24-2v-1c8.7-.6 17.3-1.2 26-1"/><path fill="#3af46e" d="m763 675 3 3v1h-23l1-2h19z"/><path fill="#55fc86" d="m587 659-1 3-32-1v-1l13.1-.5 3.8-.1 3.6-.2 3.3-.1z"/><path fill="#6afc91" d="m233 248 21 1v2h-20z"/><path fill="#59dd81" d="m221 999 1 2h6l-8.7 6.8-1.7 1.2c-1.6 1-1.6 1-3.6 1q2.9-5.9 7-11"/><path fill="#67fc94" d="M398 896c-1.6 2-2.5 3-5 3.3h-4.7l-2.5-.1h-2.5l-6.3-.2-1-2 7-.5 4-.3q5.5-.3 11-.2"/><path fill="#5efc8f" d="M830 858q13-.1 26 1v1l-25 1z"/><path fill="#55fb83" d="M374 813h15l-1 3h-15z"/><path fill="#33f36c" d="M758 669c-2.5 1.3-4 1-6.8.9l-2.8-.2-3-.1-3-.2-7.4-.4 1-2 9.3-.7 2.7-.2 2.6-.2 2.3-.1c2.6.3 3.5 1.2 5.1 3.2"/><path fill="#33f468" d="m499 563 33 2v1q-6.3.4-12.7.6l-4.3.3-6.1.3-3.8.2-3.1-.4z"/><path fill="#54fc84" d="m747 468 28 2v1h-29z"/><path fill="#40f675" d="M378 889h30l-1 3-29-2z"/><path fill="#68f28c" d="M626 571h3v15h-3z"/><path fill="#39f670" d="M496 559h34v1h-2l-9 .4-3 .2q-9 .3-18 1.4z"/><path fill="#064613" d="m512 473 5 1 1 3 2 1 1 2c.9 2.3.9 2.3 4 3q2.4 3.3 4 7l-1 2-13-14.6-1.8-1.9C512 474 512 474 512 473"/><path fill="#65fa93" d="M482.4 446h6.6v3q-10 .3-20-1v-1q6.6-1.2 13.4-1"/><path fill="#0e1d10" d="m1025 1033 9 1 .8 2.4 1.2 2.6 3 1-1 2-6-3.4-3.3-1.9c-2.7-1.7-2.7-1.7-3.7-3.7"/><path fill="#65fa92" d="M911 929h16v3l-6.9.2h-3.8l-3.3-.2z"/><path fill="#57fb86" d="m665 572 8 1v1l16 1v1h-27z"/><path fill="#4bfb7e" d="m677.8 565.1 2.8.2 3 .1 3 .2 7.4.4v1a69 69 0 0 1-14.9 1H671v-2c2.5-1.2 4-1 6.8-.9"/><path fill="#58fc87" d="M324 872q13-.2 26 1v1l-27 1z"/><path fill="#085219" d="m447 833 1 2a165 165 0 0 1-15 17l-2-1 2-2.2a550 550 0 0 0 14-15.8"/><path fill="#6af893" d="M597 639h10c-2.6 5.2-2.6 5.2-5 7-2.7.2-2.7.2-5 0l1-2 4-1-5-1z"/><path fill="#59fa8a" d="m584 566 1 3-28-1v-1l9.6-.5 2.7-.1q7.4-.5 14.7-.4"/><path fill="#5efb8d" d="M812 474h20l-1 3-20-1z"/><path fill="#37f66e" d="M841 439h20v3l-21-1z"/><path fill="#69fb96" d="m423 371 1 3-7.8.1H414c-4 .1-5.7 0-9-2.1a125 125 0 0 1 18-1"/><path fill="#4ef57f" d="M964 960h2v2h34v1l-14.4.6-4.8.2-7 .3h-2.3c-5 .2-5 .2-7.5-1.6l-1-1.5z"/><path fill="#5afd89" d="m354.4 843.1 2.5.2 2.7.1 2.7.2 6.7.4a14 14 0 0 1-8.1 2.2h-4.7l-2.4-.1-5.8-.1v-2c2.4-1.2 3.7-1 6.4-.9"/><path fill="#3bf171" d="M551 713c-1.8 2-3.3 3-6 3.2l-6.7-.5-2.5-.2-5.8-.5 1-2 8.3-.6 2.4-.1 2.3-.2 2.1-.1c1.9 0 1.9 0 4.9 1"/><path fill="#60fc92" d="m488 679 28 1v1l-29 1z"/><path fill="#4df07b" d="m661 576 1 2h3.2l4.1-.1h2.1c3.8-.1 5.4 0 8.6 2.1h-21z"/><path fill="#41f473" d="m690 532 1 2 2.1-.1h2.8l2.7-.2 2.4.3 2 3h-16z"/><path fill="#5efb8a" d="M486.1 450h5.9l1 3h-15v-2c2.8-1.4 5-1 8.1-1"/><path fill="#70f89a" d="M1013 239h5.9l3.3-.1c2.8.1 2.8.1 4.8 1.1v2h-15z"/><path fill="#6bfb95" d="M897 920q9-.2 18 1c-2 2-2 2-5.2 2.2h-7.6c-3.2-.2-3.2-.2-5.2-1.2z"/><path fill="#5bfa8c" d="M907 844v2h-7l-4 .1q-5.6-.2-11-1.1v-1l8.2-.6 2.3-.1c4-.3 7.6-.4 11.5.7"/><path fill="#5afc89" d="m370 818 11 1v2c-3 1-5 1.1-8.2 1H368z"/><path fill="#0a4e19" d="M537 727c.8 1.7.8 1.7 1 4-1.8 2.8-1.8 2.8-4 5h-2l-2 5-4-1 1.9-2 2.5-2.8 2.4-2.7c2.3-2.5 2.3-2.5 4.2-5.5"/><path fill="#5efa90" d="M750.2 551.8h5l2.5.1 6.3.1-1 3-20-1c3.1-2 3.7-2.2 7.2-2.2"/><path fill="#53fd88" d="m477 536 20 1-1 2-17 1z"/><path fill="#3cf973" d="M422 436h28v1l-3.4.2-4.6.2-2.3.2q-5.6.3-11 1.1l-3.7.3z"/><path fill="#0e541e" d="M287 316q5.4 5.4 10.3 11.3l1.4 1.7 3.3 4-2 2v-2h-2c-4-5.4-4-5.4-4-8h-3l-.9-2c-1-2.2-1-2.2-3.1-3z"/><path fill="#66fa94" d="M857 896h13v3l-4.2.8-2.4.4c-2.4-.2-2.4-.2-6.4-4.2"/><path fill="#62fb91" d="m843 886 17 1v2h-16z"/><path fill="#60fb8d" d="M867 807.9h7.2l2.8.1 1 3-6.4.1H868c-3-.1-3-.1-5-2.1 1-1 1-1 4-1.1"/><path fill="#38f46f" d="M533 708h19l1 2-2 2v-2h-17z"/><path fill="#59fa88" d="M763 674v3l-18-1 1-2 6.9-.7 3.8-.2c3.3-.1 3.3-.1 6.3.9"/><path fill="#5bfc8c" d="m758 669 1 3h-15l-1-2c5-1.3 10-1 15-1"/><path fill="#46ed75" d="m1011 240 1 2h14l-1 2h-19z"/><path fill="#4eee7c" d="m1023 987 3 4-7.8.7-2.2.2c-2.2.2-2.2.2-6 .1l-3-3h16z"/><path fill="#3ef471" d="M887 913h22v1l-22 2z"/><path fill="#65fa92" d="M374 901h15v2c-4.7 2.3-11 1-16 0z"/><path fill="#65fc94" d="M362 849v1q-9 1.3-18 1v-2c5-2.5 12.7-1.1 18 0"/><path fill="#56f785" d="m842 768 4 4v2l-5.3.1h-3c-2.7-.1-2.7-.1-5.7-2.1h9v-2l-2-1z"/><path fill="#3af16f" d="M419 759c2.3-.2 2.3-.2 5.2 0h3.2l3.2.3 3.3.2 8.1.5v1a196 196 0 0 1-25 1z"/><path fill="#41f477" d="m483 684 1 2h17c-3 2-3.6 2.2-7 2.2h-4.7l-2.4-.1-5.9-.1z"/><path fill="#35f56e" d="m741 474 1 2h16l-1 2h-18z"/><path fill="#60fa8e" d="M441.6 400h6.4v3l-5.2.1h-3c-2.8-.1-4.4-.7-6.8-2.1 2.9-1.4 5.4-1 8.6-1"/><path fill="#59f988" d="m350 390 13 1c-3 3-3 3-5 3.3l-6-.3z"/><path fill="#4dec75" d="M247 243v1l-18 1-1-3 7.3-.6 2-.2c3.8-.3 6.5-.4 9.7 1.8"/><path fill="#69fa94" d="M905 925h17l1 2-7.9.6-2.2.1c-5.7.4-5.7.4-7.9-.7z"/><path fill="#5cfc90" d="M363 906h18c-3 3-3 3-6.8 3l-4.4-.3-2.3-.2-5.5-.5z"/><path fill="#60fc91" d="m438 843-2 3c-2.4.3-2.4.3-5.3.3l-2.9-.1q-4-.3-7.8-1.2v-1q9-1.2 18-1"/><path fill="#0b521a" d="m494 777 2 3-1.4 1.4A98 98 0 0 0 485 792l-3-1 2.1-2.3 2.8-3 1.4-1.5a59 59 0 0 0 5.7-7.2"/><path fill="#58fc8d" d="m531 734-2 3c-2.2.2-2.2.2-4.8 0h-2.8l-3-.3-3-.2-7.4-.5v-1q11.5-1.2 23-1"/><path fill="#3cf172" d="m745 654 3 3-1 2h-17l1-2c3.2-.4 3.2-.4 7-.6l4-.3 3-.1z"/><path fill="#6cf795" d="M601 595h9l2 4h-9z"/><path fill="#03330d" d="M579 549h2l.2 1.8c.6 6.6.6 6.6 1.8 13.2l2 1c-3 0-3 0-4.7-1.6-1.7-3-1.6-5.2-1.5-8.6l.1-3.3z"/><path fill="#5afc8b" d="M568 546.9h7.2l2.8.1v3l-5.3.1h-3c-2.7-.1-2.7-.1-5.7-2.1 1-1 1-1 4-1.1"/><path fill="#4afa7e" d="M862.8 428.9h3.5l2.7.1 1 3q-9 .3-18-1c3.6-2.3 6.6-2.2 10.8-2.1"/><path fill="#54fd86" d="m367 410 6.3-.1h3.6c3.1.1 3.1.1 6.1 2.1q-7.4 1.3-15 1z"/><path fill="#69fb92" d="M338 298v2q-8 .3-16-1c4.4-4.4 10.7-3.2 16-1"/><path fill="#51f781" d="M254 967h27l-2 3c-2.6.2-2.6.2-5 0v-1l-20-1z"/><path fill="#63f78f" d="M957 957q7.7-.1 15 1l-1 2q-5 1.3-10 1c-2.6-2-2.6-2-4-4"/><path fill="#5ff990" d="M301 947.8h3.6l3.6.1 2.8.1v2c-5.5 2.6-9.4 1.6-15 0 2-2 2-2 5-2.2"/><path fill="#61f890" d="m889 915 7.3-.1h2c4-.1 6 .2 9.7 2.1l-18 1z"/><path fill="#53fd89" d="M415 872v3l-22-1v-1l7.6-.5 2.2-.1q6-.5 12.2-.4"/><path fill="#3bf16f" d="m861 790 3 3v1h-18l1-2h14z"/><path fill="#67f996" d="M767 784h7v2l-2 2 7 2v1c-5.2.4-5.2.4-8 0-2.5-2.4-2.5-2.4-4-5z"/><path fill="#56fa89" d="M565 693v3c-3 2-3 2-5.5 1.8l-2.7-.7-2.7-.6-2.1-.5v-2z"/><path fill="#0f5920" d="m593 654 2 2-4.2 4.3-2.4 2.4a55 55 0 0 1-6.4 5.3l-2-1z"/><path fill="#3cf070" d="M461 519h24v1l-21 1-1 2z"/><path fill="#60fb8c" d="m841 357 9 1v1h-8l1 2c2.1.5 2.1.5 4.6.6l2.5.3 1.9.1v1l-13 1z"/><path fill="#3df872" d="M924 344q8-.3 16 1c-3.5 2.4-5 2.2-9.2 2.1h-3.3l-2.5-.1z"/><path fill="#47ea78" d="M229 989h18c-4.5 3.4-5.7 3.3-11.1 3.1-4.6-.3-4.6-.3-8.9.9z"/><path fill="#073411" d="m286 914 2 2-10 13-1-4c1.9-2.8 1.9-2.8 4.4-5.7l2.6-3z"/><path fill="#47f578" d="M893 917q3.8 0 7.4.3l2.1.1c5.3.4 5.3.4 7.5 2.6l-6.8.7-3.7.4c-3.7-.1-5-.6-7.5-3.1z"/><path fill="#5ffc8f" d="M775.8 531h6.2l-1 3-17-1v-1q5.8-1.3 11.8-1"/><path fill="#49f77a" d="M948 324h11l-2 4-14-1v-1l5-1z"/><path fill="#083d13" d="m320 874 2 1-3.7 4.8-2.2 2.7q-2.7 3.2-6.1 5.5v-3l1.9-.7c2.7-1.7 3-3.4 4.1-6.3l3-1z"/><path fill="#48f97a" d="M866 811h13v3l-5.4.2h-3l-2.6-.2z"/><path fill="#5efb93" d="M514 730h20l-1 3-19-2z"/><path fill="#48f47a" d="m525 488 3 3-1 2h-6v-1l-15-1v-1h19z"/><path fill="#3df070" d="M488 446h-18l1-2c3-.5 3-.5 6.9-.8l3.8-.3c3.3.1 3.3.1 6.3 3.1"/><path fill="#62fb8e" d="M840 877h11v3h-11z"/><path fill="#62fc91" d="M821 848h12v3l-4.9.2h-2.7l-2.4-.2z"/><path fill="#5efc8e" d="m809 833 16 1v2l-14 1z"/><path fill="#69fb95" d="m873 804 1 3c-8.6.3-8.6.3-12-2v-1c4-.8 7-1 11 0"/><path fill="#3bf26e" d="M517 751c-1.1 1.5-1.1 1.5-3 3-2.7.2-2.7.2-6 0h-3.5l-3.7-.3-3.7-.2-9.1-.5v-1l11.7-.5 3.3-.1 3.3-.2 3-.1z"/><path fill="#48ec74" d="m664 645 2 1v2l3 1-6.3.8-3.6.4-3.1-.2-3-4 11 1z"/><path fill="#62fb90" d="M414 464c10.6-.2 10.6-.2 15 1v1c-4.7 1.2-9.2 1-14 1z"/><path fill="#38ee6c" d="M950.7 319.8h4.4l2.3.1 5.6.1c-1 1.5-1 1.5-3 3a59 59 0 0 1-7.7-.3l-2.1-.2-5.2-.5c2-2 2-2 5.7-2.2"/><path fill="#61fb90" d="m277 302 4.8-.1h2.6c2.7.1 4.3.7 6.6 2.1-3 1-5 1.1-8.2 1H278z"/><path fill="#072c0f" d="m285 263 4.8 2.4 2.7 1.3c2.5 1.3 2.5 1.3 5.5 3.3l-1 3-13-8z"/><path fill="#67f08f" d="m1029 996 4 3v2c-6.6 1.3-6.6 1.3-10-1v-2h6z"/><path fill="#62fb92" d="M873 906h6.2l3.5-.1q4.2 0 8.3 1.1v1l-7.3.7-2.1.2c-5.2.4-5.2.4-7.6-1.4z"/><path fill="#62fa93" d="M396 887h15l-1 3-15-1z"/><path fill="#62fc93" d="M775 794h14l1 2-13 1z"/><path fill="#60fb90" d="m390 794 4.3-.1h2.3c2.6.1 4.2.8 6.4 2.1q-4.6 1.3-9.2 1H389z"/><path fill="#60fc94" d="M538 724v3c-3.7 1.2-5.9.7-9.7 0l-3.6-.5-2.7-.5v-1z"/><path fill="#41f275" d="M569.7 681.9h2.1l5.2.1c-1 1.5-1 1.5-3 3a59 59 0 0 1-7.7-.3l-2.1-.2-5.2-.5c3.7-2.5 6.4-2.2 10.7-2.1"/><path fill="#084f17" d="M450 508a85 85 0 0 1 13 13l-1 2c-6-4.8-6-4.8-8-9l-2.1-2.1-1.9-1.9z"/><path fill="#63fb8f" d="M530 493v2l-6.8.1h-3.8c-3.4-.1-3.4-.1-6.4-2.1l6.8-.6 3.8-.3c3.4-.1 3.4-.1 6.4.9"/><path fill="#054813" d="m827 481 2 1-2.3 2.2c-2.7 2.6-2.7 2.6-4.3 5.4-1.5 2.5-3 3.8-5.4 5.4 0-4.2 2.3-5.8 5-8.7l1.4-1.5z"/><path fill="#6efb93" d="M340.7 302h4.3l1 3-5.4.1h-3c-2.6-.1-2.6-.1-4.6-2.1a20 20 0 0 1 7.7-1"/><path fill="#67fa94" d="M275 259v3l-5.3.1h-3c-2.7-.1-2.7-.1-5.7-2.1 4.8-1 9.2-1 14-1"/><path fill="#55eb7d" d="m1024.2 236.3 3.3.4 2.5.3-3 4-2-1-5.1-.6-2.8-.2-2.1-.2c2.7-3.7 5-3.2 9.2-2.7"/><path fill="#3cf172" d="M262 960h28v3l-2-1-5.9-.3-3.5-.1-3.7-.2H271q-4.5-.3-9.1-.4z"/><path fill="#65f993" d="M289 953h14v2c-5 1.5-9.9.6-15 0z"/><path fill="#62fb93" d="M462 799h13l-1 3-13-1z"/><path fill="#53fd87" d="m774 784 15 1v1c-5.7 1.2-11.2 1-17 1l2-1z"/><path fill="#5efb90" d="m492 779-1 3-20-1v-1q10.5-1.1 21-1"/><path fill="#64fd94" d="M712 720h13l1 2-5.3.7-3 .4c-2.7-.1-2.7-.1-5.7-3.1"/><path fill="#68f890" d="M664 645v2c-4.2 0-8 0-12-1v-2c8.6-1.4 8.6-1.4 12 1"/><path fill="#73fa9c" d="M649 590h11l-2 3c-2.4.3-2.4.3-5.1.2l-2.8-.1-2.1-.1z"/><path fill="#6afc96" d="m667 570 14 1a16 16 0 0 1-9.7 2.1h-3l-2.3-.1z"/><path fill="#39f36e" d="M814 476h15v3l-15-1z"/><path fill="#40ef73" d="m756 457 17 2v1h-18z"/><path fill="#41f172" d="M496 455h-16v-2l6.3-.7 3.6-.4c3.1.1 3.1.1 6.1 3.1"/><path fill="#60fb90" d="M882.1 410h4.9l-1 3h-10l-1-2c2.5-1.3 4.3-1.1 7.1-1"/><path fill="#5efa8f" d="M920 352h16l-1 3-6.4-.4-3.6-.2c-3-.4-3-.4-5-2.4"/><path fill="#61fb8f" d="M408.7 351h4.3v3h-11l-1-2a20 20 0 0 1 7.7-1"/><path fill="#46ef75" d="m849 339 14 1-1 2h-15z"/><path fill="#3ef572" d="m376 339 5.7-.1h3.2c3.1.1 5.3.8 8.1 2.1v1l-6.8.2h-3.8c-3.4-.2-3.4-.2-5.3-1.7z"/><path fill="#63f691" d="m297 326 9 1v2h-5c1.3 2.5 2.5 2.9 5 4l-4 1c-5-5.7-5-5.7-5-8"/><path fill="#73fb99" d="m377 322 3 3-20-1v-1c12.3-1.4 12.3-1.4 17-1"/><path fill="#073411" d="M1000 274c.7 1.7.7 1.7 1 4-1.7 2.4-1.7 2.4-4 4.8l-2.2 2.4-1.8 1.8-1-3c1.7-2.5 1.7-2.5 4-5.2l2.2-2.7z"/><path fill="#40eb70" d="m291 911 1 2h13c-3.6 2.4-5.4 2.2-9.7 2.1h-3.6l-2.7-.1z"/><path fill="#3df271" d="m338 855 14 1v2h-15z"/><path fill="#5bfa8e" d="m708 715 4.8-.1h2.6c2.6.1 2.6.1 6.6 2.1l-13 1z"/><path fill="#41f074" d="m502.1 665.8 3.6.5 3.6.3 2.7.4-1 2q-3.7.5-7.6.6l-2.1.1-5.3.3c1.7-3.3 2.3-4 6.1-4.2"/><path fill="#3aee6f" d="m507 656 14 1v2h-15z"/><path fill="#09531a" d="M495 559q6.3 6.2 12 13l-2 2-1.3-2.4c-1.5-2.9-1.5-2.9-4.7-3.6l-2-5-2-1z"/><path fill="#094618" d="m675 547 2 1-.4 6.4-.2 3.7-.4 2.9-2 1c-1.4-4.4-1.8-9 0-13.4z"/><path fill="#40f071" d="m517 479 3 3v1h-15l1-2h11z"/><path fill="#64fc92" d="m422 473 15 1-1 2c-2.7.4-2.7.4-6 .6l-3.4.3-2.6.1z"/><path fill="#3df170" d="m470 426 2 2c-1.9 1.9-4.9 1.2-7.4 1.2h-3.5c-3.1-.2-3.1-.2-6.1-2.2l7.4-.6 2-.2z"/><path fill="#64fb91" d="m802 405 4.9-.1h2.7c2.4.1 2.4.1 4.4 2.1-4.4 1.1-8.5 1-13 1z"/><path fill="#0e531f" d="M321 358c3.8 1.3 4.8 3 7.2 6l2.2 2.8 1.6 2.2-2 2v-2l-3-1-2-4-2-1v-2h-2z"/><path fill="#6bfa94" d="M330 293v1h-20v-1l7.2-1.1 2-.4c4.2-.6 7-.5 10.8 1.5"/><path fill="#41f273" d="M976 927v2h-14l-1-2 6.4-.6 3.6-.3c3-.1 3-.1 5 .9"/><path fill="#40f171" d="M934 877h-15v-2l5.8-.7 3.3-.4c2.9.1 2.9.1 5.9 3.1"/><path fill="#42f276" d="m327 868 1 2h13c-4.1 2-5.8 2.2-10.2 2.1h-3.3l-2.5-.1z"/><path fill="#65f98f" d="m918 857 1 4-12-1v-2l4.4-.5 2.4-.3z"/><path fill="#40ef76" d="m347 844 1 2h13v1l-17 2z"/><path fill="#5ff98f" d="m454 824-1 3-16-1v-1c5.7-1.2 11.2-1 17-1"/><path fill="#65fa93" d="M801 824h11v2c-3.2 1.6-6.4 1-10 1z"/><path fill="#63fc93" d="M417 762c8.6-.3 8.6-.3 12 2-3 .9-5.6 1.1-8.7 1H416z"/><path fill="#60fb92" d="M535 715h12l-1 3-12-1z"/><path fill="#60fa8c" d="m747 658 3 1v3l-16-1v-1l2.3-.2 3-.2 3.1-.3c2.6-.1 2.6-.1 4.6-1.3"/><path fill="#6cfb97" d="M657 649h10v1l5 1v1h-5.8l-3.3.1c-2.9-.1-2.9-.1-5.9-1.1z"/><path fill="#3be76b" d="m659 581.8 3.2.5 3.3.3 2.5.4c-1.1 1.5-1.1 1.5-3 3-3 .3-3 .3-6.2.2l-3.3-.1-2.5-.1c1.7-3.1 2.3-4 6-4.2"/><path fill="#6bfc97" d="m559 526 1 3q-8 .3-16-1v-1l4.7-.5 2.6-.3z"/><path fill="#6bfb94" d="m542 507 1 3-18-1v-1q8.4-1.1 17-1"/><path fill="#50f782" d="m427.8 475.9 6.2.1v1l7 1v1l-15 1-1-3c1-1 1-1 2.8-1.1"/><path fill="#60fb8e" d="M453 406v2l-4.4.1h-2.4c-2.2-.1-2.2-.1-4.2-2.1 3.1-3.1 7.8-2.1 11 0"/><path fill="#63fc92" d="M927 361v3c-2.8 1.4-5 .9-8.1.6l-3.3-.3-2.6-.3 1-2c3-.4 3-.4 6.6-.6l3.6-.3z"/><path fill="#48f277" d="M841 354h8l1 3h-9l-1 4z"/><path fill="#67fa95" d="m853 337 12 1v2h-14z"/><path fill="#5ff38a" d="M948 283v2l-11 1v-2c4.2-2.8 6.1-1.8 11-1"/><path fill="#3ff574" d="M385 904c-1.9 2-3.3 3-6.1 3.2l-7.6-.5-2.7-.2-6.6-.5v-1l7.6-.5 2.1-.1a177 177 0 0 1 13.3-.4"/><path fill="#69fc92" d="M951 897v2c-4.5 0-8.6.1-13-1v-1l4.8-1.1 2.7-.7c2.5-.2 2.5-.2 5.5 1.8"/><path fill="#65f98e" d="m946 891 1 3-4.7.1h-2.7a12 12 0 0 1-6.6-2.1q6.5-1 13-1"/><path fill="#40f272" d="M913 851v2l-24-1v-1l10.9-.6 3.1-.1 3-.2 2.8-.1c2.2 0 2.2 0 4.2 1"/><path fill="#63fb91" d="m792 813 13 1v2h-12z"/><path fill="#62fa93" d="m394 789 3.8-.1h2.2c2 .1 2 .1 5 2.1-2.9 1-4.7 1.1-7.7 1H393z"/><path fill="#60f88e" d="M497 762h10l-1 3h-9z"/><path fill="#5ffc90" d="m740 752 11 1-1 3h-8z"/><path fill="#61fc8a" d="M429 748c4.5 0 8.6-.1 13 1v1l-14 1z"/><path fill="#63fd91" d="m736 748 6.3-.1h3.6c3.1.1 3.1.1 6.1 2.1l-6.3.7-3.6.4c-3.1-.1-3.1-.1-5-1.6z"/><path fill="#44f378" d="m436 739 1 2 3.3-.2c3.8.2 5 .6 7.7 3.2-4.8 0-9.2 0-14-1z"/><path fill="#40f574" d="M761 673c-1 1-1 1-4.2 1.1H749l-3-.1 1-2c2.7-.5 2.7-.5 6-.7l3.2-.3c2.8 0 2.8 0 4.8 2"/><path fill="#41e96d" d="m603.8 588.5 1.2 1.5c-7.6 1-7.6 1-11 1l-2-3 4.8-.7 2.7-.4c2.5.1 2.5.1 4.3 1.6"/><path fill="#084718" d="m701 516 2 1c-1.7 4-4.2 6.8-7 10l-2-3z"/><path fill="#3bef6f" d="M827 481c-2.4 3-2.4 3-4.9 3.2l-2.1-.1-2.3-.2-2.4-.2-2.4-.2-5.9-.5v-1q10-1.1 20-1"/><path fill="#63fb90" d="m771 450 3 2c-2.5 1.3-4.3 1.1-7.1 1H762v-2c3-1.5 5.7-1.2 9-1"/><path fill="#56fb86" d="m477 435 3 2v2h-13v-2h10z"/><path fill="#43ef75" d="m809 396 1 2h11v2h-14z"/><path fill="#68f896" d="M900 307h13l1 2-14 1z"/><path fill="#47f277" d="M910 927h14c-2.7 2.7-4.4 2.4-8.1 2.6l-3.3.3-2.6.1z"/><path fill="#41ea72" d="m307 892 1 2h10c-3.3 2.2-4.8 2.4-8.7 2.6l-3 .3-2.3.1z"/><path fill="#69fa92" d="M942 886v3h-10v-2c3.2-1.6 6.4-1 10-1"/><path fill="#44f475" d="M823 851h16a21 21 0 0 1-9.2 2.6l-2.8.3-2 .1z"/><path fill="#40f273" d="M367 821c2.7-.2 2.7-.2 5.7.3l3 .3 2.3.4v2l-14 1z"/><path fill="#66fa93" d="M861 789v3l-15-1v-1c5-1.3 10-1 15-1"/><path fill="#085119" d="M525 741c1 4 1 4 0 5.7l-4 4.3-4-1z"/><path fill="#45f67c" d="M552 696q2.6 0 5 .4l2.8.3 2.2.3v3h-10l-1-3z"/><path fill="#4ef07c" d="m658 651 14 1v2l-5.3.8-3 .4-2.7-.2z"/><path fill="#084716" d="m617 630 2 2-11 10-2-1z"/><path fill="#0b4518" d="m638 632 3.4 2.3 2 1.3c1.6 1.4 1.6 1.4 2.6 4.4l-5-1-1-3-3-1z"/><path fill="#48e673" d="m655 592.6 2 .4c-2.4 3-2.4 3-5 3.3l-2-.1-2-.1-2-.1h-3c3.3-5 6.6-4.1 12-3.4"/><path fill="#5ff98c" d="m752 566-1 3-17-1v-1l6.2-.5 3.5-.3q4.1-.2 8.3-.2"/><path fill="#61fc8f" d="m499 561 4.3-.1h2.4c2.3.1 2.3.1 5.3 2.1a26 26 0 0 1-10 1l-2-1z"/><path fill="#084817" d="m715 501 3 1-8 8-2-1c0-2 0-2 1.4-3.5l2-1.7 1.8-1.7z"/><path fill="#62fa8d" d="m512 473 1 3-4.8.1h-2.7c-2.5-.1-2.5-.1-5.5-2.1q6-1 12-1"/><path fill="#52fb87" d="M781 429h11v2l-11 1z"/><path fill="#3df071" d="M860 427h13l-3 4-1-1-4.6-.6-2.5-.2-1.9-.2z"/><path fill="#58f786" d="m986 942 3 1v3h-18v-1l3-.1 4-.3 3.8-.2 3.2-.4z"/><path fill="#40eb71" d="m303 897 1 2 3.9-.1 4.1.1 2 2h-13z"/><path fill="#3df273" d="m392 791 12 1v2h-13z"/><path fill="#62fb92" d="M744 757h10v2c-3 1.5-5.7 1-9 1z"/><path fill="#62fc8f" d="m470.1 710.4 4 .3 2.9.3v1l-16 1v-2c3-1.5 5.8-.8 9.1-.6"/><path fill="#65fc93" d="m472.6 705.4 3 .3 2.4.3v1c-4.4 1.1-8.5 1-13 1v-2c2.7-1.4 4.6-.9 7.6-.6"/><path fill="#59f989" d="m781 695-1 2-12-1 1-2c8.3-1.6 8.3-1.6 12 1"/><path fill="#60fb90" d="M564 684h10l-1 3-10-1z"/><path fill="#4af57a" d="M513 578h13v2l-12 1z"/><path fill="#45ee76" d="m761 451 1 2h10l-1 2h-12z"/><path fill="#65f990" d="m484 441 1 3-18-1v-1l5.7-.5 3.2-.3z"/><path fill="#5bfc89" d="m471 428 3 2-1 2-19-1v-1l3-.2 3.8-.2 3.8-.3c3.4-.2 3.4-.2 6.4-1.3"/><path fill="#42f06f" d="M430 379v2h-13v-2l5.4-.6 3-.3c2.6-.1 2.6-.1 4.6.9"/><path fill="#67fc95" d="M331 367h11v2l-10 1z"/><path fill="#65fc93" d="M293 322h10v3l-3.9.2H297l-1.9-.2z"/><path fill="#5aee85" d="M896 312v2l3 1-6 .6c-2.3.3-2.3.3-5 2.4l-2-2c5.5-4 5.5-4 10-4"/><path fill="#4ef17e" d="M286 308.9h5.1l1.9.1 1 3h-7l-1 3-3-5c1-1 1-1 3-1.1"/><path fill="#49eb73" d="M238 238v1l-13 1-1-2 4.8-1.1 2.6-.7c3-.2 4.2.3 6.6 1.8"/><path fill="#072f0f" d="m260 946 2 2-7 9-2-1c.8-2 .8-2 2-4l3-1c.7-2 .7-2 1-4z"/><path fill="#43f173" d="M878 900v1l-6.9.6-3.8.4H864l-2-2c4.6-2.3 11.2-1.2 16 0"/><path fill="#42ef71" d="m947 893 2 2c-1.6 1.6-3.6 1.2-5.8 1.2h-2.7a14 14 0 0 1-6.5-2.2l6.4-.6 3.6-.4z"/><path fill="#6afd98" d="M826 853h9l1 2c-3 1.5-5.7 1-9 1z"/><path fill="#62fa8d" d="M911 849v2l-5.4.1h-3c-2.6-.1-2.6-.1-4.6-2.1l4.8-.6 2.7-.3c2.5-.1 2.5-.1 5.5.9"/><path fill="#064a14" d="M818 739c3.8.8 5.5 2 8 5a42 42 0 0 1 2 6c-4.4-3.2-7-6.6-10-11"/><path fill="#57fb87" d="M818 739v2h-12v-2l4.3-.6 2.4-.3c2.3-.1 2.3-.1 5.3.9"/><path fill="#64fb92" d="m505 659 5.4-.1h3c2.6.1 2.6.1 4.6 2.1l-13 1z"/><path fill="#73fb9a" d="M662 654h10l1 2-3.8.6-2.2.3c-2 .1-2 .1-5-.9z"/><path fill="#42e56f" d="M648 641h12v3l-4.3.8-2.4.4-2.3-.2z"/><path fill="#45e96f" d="M610 637c-1.2 1.5-1.2 1.5-3 3-2.3 0-2.3 0-4.7-.3l-2.4-.4-1.9-.3 1-2c4-.8 7.2-1.4 11 0"/><path fill="#40ea70" d="m652 586 1 2h10c-2 2-2 2-4.6 2.2h-3l-3-.1-2.4-.1z"/><path fill="#48ef76" d="M600 583v2h-12l-1-2 5.4-.6 3-.3c2.6-.1 2.6-.1 4.6.9"/><path fill="#67fb94" d="M505 465v2l-4.2.1h-2.4c-2.6-.1-4.2-.8-6.4-2.1 8.4-1.3 8.4-1.3 13 0"/><path fill="#61fa8f" d="m406 455 12 1-1 2h-3.8l-2.2.1c-2-.1-2-.1-5-1.1z"/><path fill="#68fb96" d="m326 361 5.4.4 3.1.2 2.5.4 1 2h-8l-1 2-3-3z"/><path fill="#6af993" d="M307 278v3l-14-1v-1c4.8-1 9.2-1 14-1"/><path fill="#073110" d="m1013 258 1 2c-.8 1.7-.8 1.7-2 3.6l-2 3.4h-2l-1 3-2-2z"/><path fill="#66f894" d="M238.1 991h4.9c-2.3 2.7-2.7 3-6.6 3.3-3.4-.3-3.4-.3-5.4-2.3 2.5-1.3 4.3-1.1 7.1-1"/><path fill="#68fb91" d="m996 952 1 3h-10v-2c3-1 5.8-1 9-1"/><path fill="#66fc90" d="m328.6 877 3.6.5 2.8.5v1h-15v-2c3-1.5 5.4-.6 8.6 0"/><path fill="#44f275" d="m854.8 782.5 1.2 1.5c-2.5 1.2-3.8 1-6.5.7l-2.4-.3c-2.1-.4-2.1-.4-4.1-2.4l4.8-.7 2.7-.4c2.5.1 2.5.1 4.3 1.6"/><path fill="#084513" d="m802 720 4 1 .3 2 .7 2 3 1c1.7 2 1.7 2 3 4-3 0-3 0-5-2l-2.2-2.4-2.2-2.5C802 721 802 721 802 720"/><path fill="#66fc93" d="M457 715h8l1 2c-3.5 1.2-6.4 1-10 1z"/><path fill="#42f376" d="m486 681 5 .4 2.7.2 2.3.4 1 2h-13z"/><path fill="#55f886" d="m672 664 10 1v2h-9z"/><path fill="#4af179" d="m743.8 652.5 1.2 1.5c-2.6 1.3-4.2.9-7.1.6l-2.8-.3-2.1-.3v-2l4.3-.7 2.4-.4c2.3.1 2.3.1 4 1.6"/><path fill="#47ee76" d="m516.8 651.3 4.2.7-1 2c-2 .4-2 .4-4.4.6l-2.4.3-5.2.1c2.6-3.8 4.4-4.3 8.8-3.7"/><path fill="#70fc95" d="M652 635v2h-8v-3c3.4-1.2 5-.9 8 1"/><path fill="#49f377" d="m555 522 3 3v1h-11l-1-2h9z"/><path fill="#45ef75" d="m538 503 3 2v2h-14v-1l11-1z"/><path fill="#67fb91" d="m717 502 4.4-.1h2.4c2.2.1 2.2.1 4.2 2.1l-12 1z"/><path fill="#68fb91" d="m726 492 11 1-1 2h-11z"/><path fill="#41f073" d="m736 480 5 .4 2.7.2 2.3.4 1 2h-13z"/><path fill="#43f375" d="M499 459c-1 1-1 1-3.7 1.1h-6.7l-2.6-.1 1-2c2.2-.5 2.2-.5 5-.7l2.7-.3c2.3 0 2.3 0 4.3 2"/><path fill="#094b1b" d="m840 346 2 1-2 15h-1c-1-6-1-10.3 1-16"/><path fill="#42ec72" d="m924.2 293.8 3.5.4 3.6.4 2.7.4v1l-17 2c4-4 4-4 7.2-4.2"/><path fill="#0c4016" d="M323 288c5.4.4 7.5 2 11 6-3.4 0-4.4-.6-7.2-2.4l-2.2-1.4-1.6-1.2z"/><path fill="#73f69c" d="m1026.6 234.4 2.5.3 1.9.3v2h-11v-2c2.5-1.3 3.9-1 6.6-.6"/><path fill="#47ed76" d="M1011 970v2h-12l1-2 4.4-.7 2.5-.2c2.1-.1 2.1-.1 4.1.9"/><path fill="#44f577" d="M384.6 898.8h3l3 .1 2.4.1c-1.2 1.5-1.2 1.5-3 3-2.5 0-2.5 0-5.2-.3l-2.7-.4-2.1-.3c2-2 2-2 4.6-2.2"/><path fill="#63fb93" d="M902 838v3h-11v-2l4.4-.5 2.4-.3z"/><path fill="#65fb91" d="M805 829h12v2l-10 1z"/><path fill="#40e970" d="m381 804 1 2h9a14 14 0 0 1-8.7 2.1h-2.5l-1.8-.1z"/><path fill="#0b531a" d="m503 767 1 2a18 18 0 0 1-7 8l-2-1z"/><path fill="#095518" d="m513 755 1 4c-1.2 1.7-1.2 1.7-3 3.3l-1.7 1.5-1.3 1.2-2-1z"/><path fill="#68fd97" d="m806 725 1 2-4.3.1h-2.4c-2.3-.1-2.3-.1-5.3-2.1 3.8-1.4 7-.8 11 0"/><path fill="#44f174" d="m798 716 3 3v1h-14v-1l11-1z"/><path fill="#5efa8e" d="m492 674 12 1v1l-12 1z"/><path fill="#72f999" d="M626 664h3v8h-3z"/><path fill="#66fd92" d="M501 664h9l1 2-11 1z"/><path fill="#55fc86" d="m516 659 8 1c-3.6 2.3-6.6 2.2-10.7 2.1h-3.6l-2.7-.1v-1l9-1z"/><path fill="#4aef7b" d="m596 640 1 2h6l-1 2c-2.5.4-2.5.4-5.6.6l-3 .3-2.4.1z"/><path fill="#62f78f" d="m612 634-1 3h-10c2.1-4.2 6.9-3 11-3"/><path fill="#73f799" d="M609 629c2.2-.3 2.2-.3 4.6-.2l2.5.1 1.9.1-1 2c-2.3.4-2.3.4-5 .6l-2.8.3-2.2.1z"/><path fill="#67fb9a" d="m503 566 3.8-.1h2.2c2 .1 2 .1 5 2.1l-10 1z"/><path fill="#5dfc8d" d="m533 497 1 3h-9l-1-2c3.2-1 5.7-1 9-1"/><path fill="#40f070" d="m455 408.4 1 1.6c-2.6 1.3-4.2.9-7.1.6l-2.8-.3-2.1-.3 1-2c7.3-1.5 7.3-1.5 10 .4"/><path fill="#6efc99" d="m811 395 10 1c-3 2-3.7 2.2-7.2 2.1l-3.8-.1z"/><path fill="#47ef76" d="m899 308 1 2c2.6.5 2.6.5 5.6.6l3 .3 2.4.1v1h-17z"/><path fill="#0d441a" d="M351 306c5.3.4 8.1 1.4 12 5-3 1-3 1-5.3 0l-2.4-1.4-2.4-1.5-1.9-1.1z"/><path fill="#093c13" d="m928 287 3 2-12 7v-3l5-1v-2h3z"/><path fill="#6df998" d="M222 235h11l1 2-10 1z"/><path fill="#51e676" d="m225 231 6 3v1h-10l-1-2h5z"/><path fill="#48f175" d="m966 916 3 3v1h-11l1-2h7z"/><path fill="#084015" d="m326 866 3 1-6 7-1-4c2-2.2 2-2.2 4-4"/><path fill="#43f673" d="M921 862c-1 1-1 1-3.5 1.1h-6.1l-2.4-.1 1-2c2-.5 2-.5 4.4-.7l2.5-.3c2.1 0 2.1 0 4.1 2"/><path fill="#67fa93" d="m340 853 9 1-1 2h-9z"/><path fill="#44ef76" d="m343 849 1 2h9c-3.2 2.1-4 2.2-7.7 2.1H343l-1.9-.1z"/><path fill="#3df06f" d="m388 796 11 2v1h-13z"/><path fill="#4df279" d="M846 773c4.9 4.8 4.9 4.8 6 7h-11v-1l7-1z"/><path fill="#094917" d="m445 725 2 2-7 9-1-3c1.3-2.2 1.3-2.2 3-4h2z"/><path fill="#6efb99" d="M746 664h8l1 3-9-1z"/><path fill="#145e23" d="m620 627-1 3-9-1v-2c3.7-1 6.3-1 10 0"/><path fill="#49e974" d="M609 593v2l-9 1-2-3 4.4-.6 2.4-.3c2.2-.1 2.2-.1 4.2.9"/><path fill="#64f48a" d="M586 570c2.7 1 3.8 1.6 5.3 4.1l.7 1.9c-3-.6-5.4-1.6-8-3v-2z"/><path fill="#6dfc98" d="m696 526 11 1v1l-12 1z"/><path fill="#43ef75" d="m698 523 10 1-1 2h-11z"/><path fill="#3eef6f" d="M445 500h11v2l-10 1z"/><path fill="#0a4a17" d="m723 492 3 1-7 8-1-2-2-1 2.4-.7c3-1.5 3.5-2.3 4.6-5.3"/><path fill="#63fc91" d="M410 460h11l1 2-10 1z"/><path fill="#3def6e" d="m769 442 1 2h8l-1 2h-10z"/><path fill="#57fb89" d="m383 429 4.8-.1h2.7c2.5.1 2.5.1 5.5 2.1l-11 1z"/><path fill="#47f479" d="m445.9 398.5 1.1 1.5c-9.4.2-9.4.2-14-1v-1l5.3-.7 3-.4c2.7.1 2.7.1 4.6 1.6"/><path fill="#60fb8f" d="M907 385v3c-4.5 1-5.6 1.2-10-1z"/><path fill="#5ffb8b" d="M347 386h8l-1 3-5 1z"/><path fill="#45f173" d="m825 378 10 1v2h-11z"/><path fill="#68fa93" d="m427 376 1 3-13-1v-1q6-1 12-1"/><path fill="#42f476" d="m325 359 13 2v1h-13z"/><path fill="#70f892" d="M410 343v2c-4.5 0-8.6.1-13-1v-1l4.8-.6 2.7-.3c2.5-.1 2.5-.1 5.5.9"/><path fill="#66f895" d="M859 333h9c-3 3-3 3-6.2 3.2l-2.8-.2z"/><path fill="#6df994" d="m395 333 2 3c-5.5.4-5.5.4-7.9-1.5L388 333c2.7-1.4 4.1-.9 7 0"/><path fill="#084313" d="M278 305q5.3 4.9 9 11c-1.9-.2-1.9-.2-4-1l-2-4-3-2z"/><path fill="#65f893" d="M374 911c-1.6 1.6-1.6 1.6-4 3-3.2-.3-3.2-.3-6-1v-2c7.8-1.1 7.8-1.1 10 0"/><path fill="#64fb96" d="m763 779 3.8-.1h2.2c2 .1 2 .1 5 2.1h-8l-1 2z"/><path fill="#5ff68c" d="m791 709 3 1v3l-9-1z"/><path fill="#0a4917" d="m469 698 3 1-7 7-1-3z"/><path fill="#4ee776" d="m615 601 3 3v1h-9l-1-2 2.4-.4c2.6-.5 2.6-.5 4.6-1.6"/><path fill="#44ea72" d="m642 597 1 2h7c-1 1.6-1 1.6-3 3-3.7-.3-3.7-.3-7-1z"/><path fill="#65fd93" d="M680 566v2h-9v-2c3-1.5 5.7-.5 9 0"/><path fill="#48f67a" d="M496 559h11v2l-9 1z"/><path fill="#6afc96" d="M551 517v2l-13-1v-1l4.8-.6 2.7-.3c2.5-.1 2.5-.1 5.5.9"/><path fill="#3df372" d="M799 500h11c-3 3-3 3-5 3l-6-1z"/><path fill="#4ff37d" d="m728 489 9 1v3h-9z"/><path fill="#68fc94" d="M430 483c4.5 0 8.6-.1 13 1v1l-11 1z"/><path fill="#69f895" d="m501 460-1 3-10-1c4-2.6 6.5-3.5 11-2"/><path fill="#5bfb8c" d="M363 405h8l-1 3h-6z"/><path fill="#6cfc99" d="M444 396v2l-12-1v-1c4.3-.8 7.7-1.2 12 0"/><path fill="#63fa90" d="m269 292 9 1-1 2h-7z"/><path fill="#5ffb91" d="m992 283-1 3h-6l-2-2c3-1.5 5.7-1 9-1"/><path fill="#40f371" d="m355.2 917.9 3.8.1 1 2a14 14 0 0 1-7.7.6l-2.4-.3-1.9-.3c3-2 3.7-2.2 7.2-2.1"/><path fill="#68fa90" d="M962 910v3l-3.8.1H956c-2-.1-2-.1-5-2.1l4.4-.5 2.4-.3z"/><path fill="#69f790" d="M923 863v2h-13v-1l4.8-1 2.7-.7c2.5-.3 2.5-.3 5.5.7"/><path fill="#5df98e" d="M449 819h9l-1 3-9-1z"/><path fill="#46f071" d="m865 795 3 3v1h-10l1-2h6z"/><path fill="#58fd8d" d="m480.3 783.9 3.7.1-2 1v2l-10-1c3.6-1.8 4.5-2.2 8.3-2.1"/><path fill="#54f082" d="M543 720c-1.7 3.9-1.7 3.9-4 5v-2h-9v-1c1 0 1 0 1.9-.2l2.5-.2 2.4-.3c2.3-.3 3.9-1.3 6.2-1.3"/><path fill="#69fc93" d="m470 700 8 1c-2 2-2 2-5.6 2.1l-3.4-.1z"/><path fill="#42f176" d="M589 647h11l-3 3c-3.6-.2-3.6-.2-7-1z"/><path fill="#60ea85" d="m646 630 3 3-5 1-1 3-2-4 5-1z"/><path fill="#093f15" d="M573 584h15l1 2-3 1-2-1-5.6-.6-3-.2-2.4-.2z"/><path fill="#5dec80" d="M626 564h3v7h-3z"/><path fill="#47f076" d="m499 563 12 2v1l-4.3.8-2.4.4-2.3-.2z"/><path fill="#4ff37d" d="m575.8 545.5 1.2 1.5-4.3.1h-2.4c-2.3-.1-2.3-.1-5.3-2.1l4.3-.7 2.4-.4c2.3.1 2.3.1 4 1.6"/><path fill="#61fc91" d="m443 497 9 1c-2 2-2 2-5.1 2.1l-2.9-.1z"/><path fill="#43f075" d="m396 444 16 1v1l-5.8.5-3.3.3c-2.9.2-2.9.2-5.9.2z"/><path fill="#3ff373" d="M851.2 443.8h2.4l2.5.1 1.9.1-1 3-10-1c2-2 2-2 4.2-2.2"/><path fill="#4cf77f" d="M387 433h10c-4.5 3.4-4.5 3.4-9 3z"/><path fill="#6dfb99" d="m885 317 8 1v2h-9z"/><path fill="#46e073" d="m908 302 2 1-1 2 2 2h-9c3-3 3-3 6-5"/><path fill="#60f88e" d="m977 302-1 3-16-1v-1l7.4-.5 2-.1c5.4-.4 5.4-.4 7.6-.4"/><path fill="#093d13" d="M342 298c3.4 1 4.8 1.6 6.8 4.6l1.2 2.4c-4-1.3-6.2-3-9-6z"/><path fill="#67f994" d="M273 297c5.8-.1 5.8-.1 8 1v2h-7z"/><path fill="#4dee79" d="m267 255 6 3v1h-9l-1-2h4z"/><path fill="#6dfa93" d="m262.6 253.9 3.4.1 1 3-10-1c2-2 2-2 5.6-2.1"/><path fill="#51e67b" d="m1027 231 1 2h5l-2 3-7-2z"/><path fill="#67f593" d="m974 967 10 1v1l-9 1z"/><path fill="#4cf077" d="m1004 963 3 3v1c-7.4.3-7.4.3-11-2h8z"/><path fill="#66fd91" d="m272.1 943.4 2.8.3 2.1.3v1l-12 1v-2c2.6-1.3 4.2-.9 7.1-.6"/><path fill="#46ed73" d="m962 911 2 1-1 3h-8v-2h7z"/><path fill="#63f592" d="M865 901h8l1 2-7 1z"/><path fill="#6dfb96" d="m934 877 1 3-12-1v-1q5.4-1.1 11-1"/><path fill="#68fc92" d="M915 854v2h-8v-2c3.3-1.1 4.7-.8 8 0"/><path fill="#6afc98" d="m355.1 843.4 2.8.3 2.1.3v1l-12 1v-2c2.6-1.3 4.2-.9 7.1-.6"/><path fill="#62fa93" d="M421 757h7l1 2-9 1z"/><path fill="#3ff26f" d="m822 744 3 4h-10l1-2h6z"/><path fill="#43f072" d="m431 745 9 1-1 2h-9z"/><path fill="#66fa91" d="M433 743h7l1 2-9 1z"/><path fill="#43f275" d="m439 736 8 1v2h-10z"/><path fill="#6afd99" d="m701 705 10 1c-4.5 2.3-6.2 2-11 1z"/><path fill="#65f994" d="m767 679 1 3-10-1a14 14 0 0 1 9-2"/><path fill="#4aef79" d="m757 667.4 1 1.6c-2.6 1.3-3.8.7-6.6 0l-2.5-.5-1.9-.5v-1c7.5-1.4 7.5-1.4 10 .4"/><path fill="#60fb90" d="M583 665c-1.2 1.6-1.2 1.6-3 3-2.3-.1-2.3-.1-4.7-.8l-2.4-.7-1.9-.5v-1l4.9-.6 2.7-.3c2.4-.1 2.4-.1 4.4.9"/><path fill="#49ee79" d="m663 656 10 1v2l-7 1z"/><path fill="#0f5d22" d="M509 575c2.6 2.6 5 5 7 8l-5-1z"/><path fill="#064413" d="m685 535 3 1-7 6c0-3 0-3 2-5.2z"/><path fill="#55f280" d="m553.3 520 1.7 2h-9c1-3 1-3 2.8-4 2.2 0 2.2 0 4.5 2"/><path fill="#40f676" d="M852 439h9v3l-9-1z"/><path fill="#074314" d="m937 352 1 3c-1.8 2.7-1.8 2.7-4 5h-2c.5-3.8 2.2-5.5 5-8"/><path fill="#51ef7d" d="m844 343 1 2h6v2h-9z"/><path fill="#49f37d" d="m313 344 8 1v2l-8 1z"/><path fill="#50ef7f" d="M867 328v3l4 2h-10c3-3 3-3 6-5"/><path fill="#45ea74" d="m915 298 2 2 4 2h-11z"/><path fill="#62f185" d="M251 247c4.3.4 6.2 1.8 9 5l-6-1v-2l-4-1z"/><path fill="#48eb75" d="m225 994 1 2h6l-1 2h-8z"/><path fill="#42ea71" d="m249 963 1 2h7c-3.6 2.4-5.7 2.2-10 2z"/><path fill="#46ea75" d="M969 965h9v2c-2.8.7-2.8.7-6 1z"/><path fill="#0b551d" d="m330 937 2 1-5 5-3-2z"/><path fill="#40f073" d="M314 941h10c-4 3-4 3-7.2 2.7l-2.8-.7z"/><path fill="#4af07a" d="m936.8 880.5 1.2 1.5c-2.6 1.3-4.2.9-7.1.6l-2.8-.3-2.1-.3v-1l4.3-1.2 2.4-.7c2.3-.1 2.3-.1 4 1.3"/><path fill="#68f992" d="m324 872 11 1v1l-12 1z"/><path fill="#5dfb8d" d="m894 834 5 1v2h-10v-1h5z"/><path fill="#4cf37b" d="m882 815 2 3-5 1v-1l-6-1v-1z"/><path fill="#51fb82" d="M700 694h8l-3 1v2h-5z"/><path fill="#064113" d="m655 580 3 1-7 8-1-4c2.4-2.7 2.4-2.7 5-5"/><path fill="#54f27f" d="m665 572 8 1c-2.9 2-3.9 2.3-7.2 2.6l-3.8.4z"/><path fill="#5efb8e" d="M755 548h12l-1 3-11-2z"/><path fill="#69f995" d="M578 547v3l-10-1v-1q5-1.2 10-1"/><path fill="#63fc94" d="m477 536 9 1-1 2-6 1z"/><path fill="#66f890" d="M517 478v3l-11-1v-1q5.4-1.1 11-1"/><path fill="#46f074" d="m514.8 476.5 1.2 1.5c-2.8 1.4-4.6.7-7.6 0l-3-.5-2.4-.5v-1l4.8-.7 2.7-.4c2.5.1 2.5.1 4.3 1.6"/><path fill="#064814" d="m743 469 3 1-6 7-2-3 2-.8c2.3-1 2.3-1 3-4.2"/><path fill="#073911" d="m965 320-2 5h-2v2h-2c.6-3.6 1.9-7 6-7"/><path fill="#084215" d="M287 316c5.6 5.1 5.6 5.1 6 9h-2l-.9-2c-1-2.2-1-2.2-3.1-3z"/><path fill="#58c976" d="m1035 1003 5 5-1 2-6-4 2-1z"/><path fill="#0c511c" d="M357 922c-.6 2-.6 2-2 4-3.1.8-3.1.8-6 1 4.8-5 4.8-5 8-5"/><path fill="#6df693" d="M882 814v2h-8v-2c3.3-.8 4.7-1.1 8 0"/><path fill="#3cee6f" d="M482 792c-1.2 1.5-1.2 1.5-3 3-2.5 0-2.5 0-5.2-.3l-2.7-.4-2.1-.3v-1q6.5-1 13-1"/><path fill="#41f070" d="m810 730 3 3v1l-11-1v-1h8z"/><path fill="#48e16d" d="m652 635 3 3c-2.5 1.2-4.2 1-7 1h-3v-2h7z"/><path fill="#74f999" d="M626 580h3v6h-3z"/><path fill="#0a611c" d="m759 558 1 2c-1.2 2.6-1.2 2.6-3 5l-4 1z"/><path fill="#074917" d="m692 527 3 1-6 7-1-4 3-1z"/><path fill="#46f379" d="m694 528 7 1v2h-9z"/><path fill="#0b5a1e" d="M464 523c2.6 2.6 5 5 7 8-3-1-4.8-1.8-7-4z"/><path fill="#41f074" d="m749 465 1 2h6v2h-7z"/><path fill="#56f887" d="M862 429h7l1 3-9-1z"/><path fill="#71fb96" d="m846 342 7 1v2h-8z"/><path fill="#6dfd9b" d="m945 948 9 1v1l-8 1z"/><path fill="#43f172" d="m985 939 2 3c-4 1.5-7.8.6-12 0v-1h10z"/><path fill="#043a0e" d="m415 882 2 1-2.4 4-1.3 2.3-1.3 1.7h-2q2.3-4.6 5-9"/><path fill="#62fb93" d="M409 872h6v3h-5z"/><path fill="#6cfc96" d="m840 872 8 1c-3.2 2.2-4.3 2.2-8 2z"/><path fill="#0a541c" d="M757 774c2.6 2.6 5 5 7 8a57 57 0 0 1-7-4z"/><path fill="#66f994" d="M502 758h8l-1 3-7-2z"/><path fill="#67f993" d="M824 752h5l1 3h-6z"/><path fill="#084616" d="m455 714 3 1-6 5c0-3 0-3 1.5-4.7z"/><path fill="#5ef88f" d="M556 699h5l-2 4-4-2z"/><path fill="#60f890" d="m476 693 5 1c-1.2 1.5-1.2 1.5-3 3h-4z"/><path fill="#6cfb99" d="M759 670v2l-10-1v-1c3.7-1 6.3-1 10 0"/><path fill="#68fc97" d="M581 659h6l-1 3h-5z"/><path fill="#4af379" d="M733 578h7l1 2-2 2v-2h-6z"/><path fill="#3ff075" d="m483.6 538.9 2.4.1v4l-7-2c2-2 2-2 4.6-2.1"/><path fill="#084918" d="m568 536 5 1 1 6c-4.9-4.7-4.9-4.7-6-7"/><path fill="#41f175" d="M466 524h8v2l-7 1z"/><path fill="#45eb72" d="m533 497 3 3-1 2-9-1v-1l7-1z"/><path fill="#43ee77" d="m741 474 1 2h8v1l-11 1z"/><path fill="#66fb93" d="m747 468 8 2v1h-9z"/><path fill="#43ee73" d="m507 467.4 1 1.6c-6.6.3-6.6.3-10-2 6.5-1.4 6.5-1.4 9 .4"/><path fill="#064913" d="M505 465h4l3 6-1 2z"/><path fill="#094a17" d="m754 456 3 1-5 6c-.7-1.8-.7-1.8-1-4 1.4-1.7 1.4-1.7 3-3"/><path fill="#074312" d="M483 440c2.4.3 2.4.3 5 1a9 9 0 0 1 2 4l-1 3z"/><path fill="#5df78e" d="M367 410h7l-2 3-5-1z"/><path fill="#62f58f" d="M885 401h10l-1 3-9-2z"/><path fill="#4ff27f" d="m858 334 1 2 4 2h-7v-3z"/><path fill="#63fb92" d="M950 327h6l-1 3h-5z"/><path fill="#094f18" d="M991 285c.7 1.8.7 1.8 1 4-1.4 1.8-1.4 1.8-3 3l-3-1z"/><path fill="#41e971" d="M995 281c-1 1.6-1 1.6-3 3-3.7-.3-3.7-.3-7-1 3.6-2.4 5.7-2.2 10-2"/></svg>